<?xml version="1.0" encoding="utf-8"?>
<!-- Generator: Adobe Illustrator 19.0.0, SVG Export Plug-In . SVG Version: 6.00 Build 0)  -->
<svg version="1.1" id="Layer_1" xmlns="http://www.w3.org/2000/svg" xmlns:xlink="http://www.w3.org/1999/xlink" x="0px" y="0px"
	 viewBox="-255.5 188.3 220 220" style="enable-background:new -255.5 188.3 220 220;" xml:space="preserve">
<style type="text/css">
	.st0{fill:#377438;}
	.st1{fill:#CDE6C7;}
	.st2{fill:#D3E6C7;}
	.st3{fill:#377338;}
	.st4{fill:#387438;}
</style>
<g>
	<g id="XMLID_2112_">
		<g id="XMLID_2113_">
			<path id="XMLID_2117_" class="st0" d="M-187.4,334.5c2.5,7.9,8.4,14.8,15.2,17.7c0.3,0.2,0.5,0.2,0.8,0.2c0.8,0,1.4-0.5,1.7-1.1
				c0.5-0.9,0-2-0.9-2.5c-5.9-2.5-10.9-8.4-13.1-15.4c-0.3-0.9-1.4-1.6-2.3-1.2C-187.1,332.3-187.7,333.4-187.4,334.5z"/>
			<path id="XMLID_2114_" class="st0" d="M-96.5,319.2h-103.4c-1.9,0-3.4,1.6-3.4,3.4s1.6,3.4,3.4,3.4h0.9
				c0.9,17.7,15.2,36.9,34.4,36.9h33c19,0,33.4-19.1,34.4-36.9h0.9c1.9,0,3.4-1.6,3.4-3.4S-94.8,319.2-96.5,319.2z M-131.9,359h-33
				c-16.5,0-29.5-17.3-30.5-33h93.9C-102.2,341.8-115.1,359-131.9,359z"/>
		</g>
	</g>
	<g id="XMLID_1890_">
		<g id="XMLID_2110_">
			<ellipse id="XMLID_2111_" class="st1" cx="-148.3" cy="341" rx="9.6" ry="9.3"/>
		</g>
		<g id="XMLID_2108_">
			<ellipse id="XMLID_2109_" class="st2" cx="-148.3" cy="341" rx="10.7" ry="10.3"/>
		</g>
		<g id="XMLID_2106_">
			<ellipse id="XMLID_2107_" class="st3" cx="-148.3" cy="341" rx="5.8" ry="5.4"/>
		</g>
		<g id="XMLID_2029_">
			<g id="XMLID_2103_">
				<path id="XMLID_2104_" class="st3" d="M-157.3,341.6c0,0-0.2,0.2,0,0.2c0,0,0,0.2,0,0c0.2,0,0-0.3,0.3-0.3
					c0.2,0,0.2,0.2,0.2,0.2c0,0.2,0,0.2-0.2,0.2l0,0v-0.2l0,0c0,0,0,0,0-0.2v-0.2C-157.1,341.3-156.8,341.6-157.3,341.6
					c-0.2,0-0.2-0.2-0.2-0.2C-157.4,341.6-157.4,341.5-157.3,341.6L-157.3,341.6z"/>
			</g>
			<g id="XMLID_2100_">
				<path id="XMLID_2101_" class="st3" d="M-156.8,342.4L-156.8,342.4L-156.8,342.4L-156.8,342.4L-156.8,342.4
					C-156.7,342.6-156.7,342.6-156.8,342.4L-156.8,342.4C-156.8,342.6-156.8,342.6-156.8,342.4L-156.8,342.4
					c0.2,0.2,0.2,0.2,0.3,0.3c0,0.2,0,0.2-0.2,0.2l0,0l0.2,0.2c0,0.2,0,0.2-0.2,0.3h-0.3l0,0l0,0h-0.2v-0.2V343h0.3
					c0,0,0.2,0,0.2-0.2l-0.2-0.2c0,0,0,0-0.2,0h-0.3v-0.2L-156.8,342.4c-0.2,0,0,0,0-0.2l-0.2-0.2c0,0,0,0-0.2,0h-0.3v-0.2
					L-156.8,342.4z"/>
			</g>
			<g id="XMLID_2096_">
				<path id="XMLID_2097_" class="st3" d="M-156.5,344.3L-156.5,344.3L-156.5,344.3C-156.3,344.1-156.3,344.1-156.5,344.3
					c0-0.2,0-0.2,0-0.2l0,0V344l0,0c0.2,0,0.2,0.2,0.2,0.2C-156.3,344.3-156.3,344.4-156.5,344.3l-0.2,0.3l0,0l0,0h-0.2v-0.2v-0.2
					l0,0l0,0c0,0-0.2,0-0.2-0.2c0-0.2,0-0.2,0.2-0.3C-156.7,343.8-156.5,344.1-156.5,344.3z M-156.8,344.3
					C-156.8,344.3-156.7,344.4-156.8,344.3L-156.8,344.3L-156.8,344.3C-156.5,344.1-156.7,344.1-156.8,344.3
					C-156.8,344.1-156.8,344.1-156.8,344.3z"/>
			</g>
			<g id="XMLID_2093_">
				<path id="XMLID_2094_" class="st3" d="M-155.9,344.7L-155.9,344.7L-155.9,344.7L-155.9,344.7h0.2
					C-155.6,344.7-155.7,344.7-155.9,344.7l-0.5,0.3l0,0l0,0h-0.2v-0.2v-0.2H-155.9z"/>
			</g>
			<g id="XMLID_2090_">
				<path id="XMLID_2091_" class="st3" d="M-155.6,345.4C-155.3,345.4-155.3,345.4-155.6,345.4L-155.6,345.4L-155.6,345.4h0.2
					C-155.3,345.4-155.3,345.4-155.6,345.4l-0.3,0.5l0,0l0,0h-0.2l-0.2-0.2v-0.2L-155.6,345.4z"/>
			</g>
			<g id="XMLID_2087_">
				<path id="XMLID_2088_" class="st3" d="M-155.1,346.8v0.2c0,0,0,0,0.2,0c0,0-0.2-0.3,0-0.5s0.2,0,0.3,0c0,0,0.2,0.2,0,0.3l0,0
					l-0.2-0.2l0,0c0,0,0,0,0-0.2h-0.2C-154.9,346.4-154.8,346.8-155.1,346.8c0,0.2,0,0.2-0.2,0.2L-155.1,346.8L-155.1,346.8z"/>
			</g>
			<g id="XMLID_2084_">
				<path id="XMLID_2085_" class="st3" d="M-154.2,347.2L-154.2,347.2L-154.2,347.2L-154.2,347.2l0.2-0.2l0.2,0.2l-0.2,0.2l0.2,0.2
					l-0.2,0.2L-154.2,347.2v0.3v0.2l0,0l-0.2,0.2l0,0c0,0-0.2-0.2,0-0.3L-154.2,347.2z"/>
			</g>
			<g id="XMLID_2080_">
				<path id="XMLID_2081_" class="st3" d="M-153.2,347.7c0.2,0.2,0.2,0.3,0,0.5l0,0l-0.3-0.3c0,0.2,0,0.2,0,0.3c0.2,0,0.2,0,0.2,0
					v0.2c0,0-0.2,0-0.3,0c-0.2-0.2-0.2-0.3-0.2-0.5C-153.5,347.7-153.4,347.7-153.2,347.7z M-153.2,348v-0.2h-0.2L-153.2,348z"/>
			</g>
			<g id="XMLID_2076_">
				<path id="XMLID_2077_" class="st3" d="M-152.6,348.3L-152.6,348.3L-152.6,348.3v-0.2V348.3c0.2-0.2,0.2,0,0.2,0l0,0l0,0h0.2
					c0.2,0,0.2,0.3,0.2,0.5c-0.2,0.2-0.3,0.2-0.5,0.2s-0.2-0.2-0.2-0.2l0,0l0,0l-0.2,0.2h-0.2L-152.6,348.3z M-152.6,348.8
					c0,0,0.2,0,0.2-0.2c0-0.2,0-0.2,0-0.3c0,0-0.2,0-0.2,0.2C-152.6,348.6-152.6,348.6-152.6,348.8z"/>
			</g>
			<g id="XMLID_2073_">
				<path id="XMLID_2074_" class="st3" d="M-150.9,348.9L-150.9,348.9L-150.9,348.9L-150.9,348.9L-150.9,348.9
					c0.2-0.3,0.3-0.3,0.3-0.3l0,0v0.2l0,0L-150.9,348.9L-150.9,348.9l0.3-0.2v0.2H-150.9v0.5h-0.2L-150.9,348.9z"/>
			</g>
			<g id="XMLID_2069_">
				<path id="XMLID_2070_" class="st3" d="M-149.8,349.1c0.2,0,0.3,0.2,0.3,0.3c0,0.2-0.2,0.3-0.5,0.3c-0.2,0-0.3-0.2-0.3-0.3
					C-150.3,349.1-150.1,349.1-149.8,349.1z M-149.8,349.6c0.2,0,0.2,0,0.2-0.2c0-0.2,0-0.2-0.2-0.2s-0.2,0-0.2,0.2
					C-150.1,349.4-150.1,349.6-149.8,349.6z"/>
			</g>
			<g id="XMLID_2066_">
				<path id="XMLID_2067_" class="st3" d="M-149,349.4L-149,349.4L-149,349.4v-0.2V349.4c0.2-0.2,0.2-0.2,0.2,0H-149
					C-148.9,349.4-148.9,349.4-149,349.4L-149,349.4c0.2-0.2,0.3-0.2,0.3-0.2l0,0v0.2l0,0c0,0-0.2,0-0.2,0.2c0,0,0,0,0,0.2v0.3h-0.2
					L-149,349.4z"/>
			</g>
			<g id="XMLID_2062_">
				<path id="XMLID_2063_" class="st3" d="M-147.2,349.4L-147.2,349.4L-147.2,349.4C-147.2,349.2-147.2,349.2-147.2,349.4
					c-0.2-0.2-0.2-0.2-0.2,0l0,0h-0.2l0,0c0-0.2,0.2-0.2,0.2-0.2C-147.2,349.2-147,349.2-147.2,349.4l0.2,0.2l0,0l0,0v0.2h-0.2h-0.2
					l0,0l0,0c0,0,0,0.2-0.2,0.2s-0.2,0-0.3-0.2C-147.5,349.4-147.3,349.4-147.2,349.4z M-147.3,349.7c0.2,0,0.2-0.2,0.2-0.2l0,0l0,0
					C-147.3,349.6-147.3,349.6-147.3,349.7L-147.3,349.7z"/>
			</g>
			<g id="XMLID_2057_">
				<path id="XMLID_2058_" class="st3" d="M-145.9,348.8L-145.9,348.8L-145.9,348.8l0.3-0.2c0.2,0,0.3,0,0.3,0.2c0,0.2,0,0.2,0,0.2
					l0,0c0.2,0,0.2,0,0.2,0.2c0,0.2,0,0.3-0.2,0.3h-0.2h-0.2L-145.9,348.8z M-145.5,348.9C-145.5,348.8-145.5,348.8-145.5,348.9
					c0-0.2,0-0.2,0-0.2h-0.2L-145.5,348.9L-145.5,348.9z M-145.5,349.2L-145.5,349.2c0.2,0,0.2-0.2,0.2-0.2s-0.2-0.2-0.2,0h-0.2
					L-145.5,349.2L-145.5,349.2z"/>
			</g>
			<g id="XMLID_2054_">
				<path id="XMLID_2055_" class="st3" d="M-144.7,348.9L-144.7,348.9l-0.2-0.6h-0.2v-0.2l0.3-0.2v0.2h-0.2l0.3,0.5h0.2v0.2
					L-144.7,348.9L-144.7,348.9z"/>
			</g>
			<g id="XMLID_2051_">
				<path id="XMLID_2052_" class="st3" d="M-143.9,347.7c0.2-0.2,0.3,0,0.3,0v0.2C-143.6,347.8-143.6,347.8-143.9,347.7
					c0,0.2-0.2,0.3,0,0.5s0.3,0.2,0.5,0.2s0.2-0.2,0.2-0.2l0,0l0,0l0,0V348h0.2h0.2l0.2,0.3h-0.2l0,0l0,0l0,0c0,0,0,0.2-0.2,0.2
					c-0.2,0.2-0.5,0.2-0.6-0.2C-144.2,348.2-144.1,347.8-143.9,347.7z"/>
			</g>
			<g id="XMLID_2048_">
				<path id="XMLID_2049_" class="st3" d="M-142.3,346.8c0,0,0.2-0.2,0.3,0l0,0l-0.2,0.2l0,0C-142,346.9-142,346.9-142.3,346.8
					c0,0.2,0,0.3,0.2,0.3c0.2,0.2,0.2,0,0.3,0v-0.2h0.2c0,0,0,0.2-0.2,0.3c-0.2,0.2-0.3,0.2-0.5,0
					C-142.5,347.1-142.5,346.9-142.3,346.8z"/>
			</g>
			<g id="XMLID_2045_">
				<path id="XMLID_2046_" class="st3" d="M-141.9,346.3L-141.9,346.3L-141.9,346.3h-0.2H-141.9c0-0.2,0-0.2,0-0.2l0.2,0.2l0,0l0,0
					c0,0,0-0.2,0-0.3c0.2-0.2,0.2-0.2,0.3,0l0.2,0.2l0,0l0,0l0.2,0.2l-0.2,0.2c0,0,0,0-0.2,0l-0.2-0.2H-141.9l0.2,0.2l0,0l0.2,0.2
					l-0.2,0.2L-141.9,346.3z"/>
			</g>
			<g id="XMLID_2041_">
				<path id="XMLID_2042_" class="st3" d="M-140.8,345.2L-140.8,345.2L-140.8,345.2h-0.2c0,0,0,0,0,0.2L-140.8,345.2l-0.2,0.3l0,0
					c-0.2,0,0-0.2,0-0.3C-140.9,345-140.8,345-140.8,345.2h0.3l0,0l0,0h0.2v0.2c0,0,0,0-0.2,0l0,0l0,0v0.2c0,0.2-0.2,0.2-0.3,0.2
					C-140.9,345.5-140.8,345.4-140.8,345.2z M-140.5,345.5v-0.2l0,0l0,0C-140.8,345.4-140.8,345.5-140.5,345.5L-140.5,345.5z"/>
			</g>
			<g id="XMLID_2038_">
				<path id="XMLID_2039_" class="st3" d="M-140.5,344.6L-140.5,344.6L-140.5,344.6h-0.2H-140.5c-0.2-0.2,0-0.2,0-0.2l0,0
					C-140.5,344.4-140.5,344.4-140.5,344.6L-140.5,344.6c0-0.2,0-0.3,0-0.5s0.2-0.2,0.3-0.2l0.2,0.2l0,0l0,0h0.2v0.2c0,0,0,0-0.2,0
					l-0.3-0.2h-0.2C-140.5,344.3-140.5,344.4-140.5,344.6c0.2-0.2,0.2-0.2,0.2,0l0.3,0.2v0.2L-140.5,344.6z"/>
			</g>
			<g id="XMLID_2034_">
				<path id="XMLID_2035_" class="st3" d="M-140.2,343.3c0-0.2,0.2-0.2,0.2-0.2l0,0l0,0c0,0,0,0,0-0.2v-0.2h0.2l0,0l0,0l0.5,0.2
					c0.2,0,0.3,0.2,0.2,0.3c0,0,0,0.2-0.2,0.2h-0.2c0,0,0,0,0.2-0.2c0-0.2,0-0.2-0.2-0.2l0,0l0,0l0,0v0.2c0,0.2-0.2,0.2-0.3,0.2
					C-140.2,343.5-140.2,343.5-140.2,343.3z M-139.7,343.2c-0.2,0-0.2,0-0.2,0.2c0,0.2,0,0.2,0.2,0.2c0.2,0,0.2,0,0.2-0.2
					C-139.7,343.3-139.7,343.2-139.7,343.2z"/>
			</g>
			<g id="XMLID_2030_">
				<path id="XMLID_2031_" class="st3" d="M-140,342.2c0-0.2,0.2-0.3,0.3-0.2l0,0v0.5c0.2,0,0.2,0,0.2-0.2c0-0.2,0-0.2,0-0.2h0.2
					c0,0,0.2,0.2,0,0.3c0,0.2-0.2,0.3-0.3,0.3C-139.7,342.6-140,342.4-140,342.2z M-139.7,342.1L-139.7,342.1
					c-0.2,0.2-0.2,0.2,0,0.3V342.1z"/>
			</g>
		</g>
		<g id="XMLID_2000_">
			<g id="XMLID_2026_">
				<path id="XMLID_2027_" class="st3" d="M-154.8,336.6L-154.8,336.6l-0.8,1.4h-0.2l0.2-0.5c-0.2,0-0.3,0.2-0.3,0.2
					c-0.2,0-0.3,0-0.5-0.2c-0.2-0.2-0.3-0.3-0.3-0.5c0-0.2,0-0.3,0-0.6c0.2-0.2,0.3-0.3,0.5-0.3l0.2,0.3c-0.2,0-0.2,0-0.2,0.2
					l-0.2,0.2c0,0.2,0,0.2,0,0.3c0,0.2,0.2,0.2,0.3,0.3c0.2,0,0.3,0.2,0.3,0c0.2,0,0.2-0.2,0.3-0.2c0-0.2,0.2-0.2,0.2-0.3l-0.3-0.2
					l0.2-0.3L-154.8,336.6l-0.2,0.3L-154.8,336.6z"/>
			</g>
			<g id="XMLID_2022_">
				<path id="XMLID_2023_" class="st3" d="M-152.9,335.1L-152.9,335.1l-1.2,1.2l0,0l0.3-0.3c-0.2,0-0.3,0-0.5,0s-0.3-0.2-0.3-0.2
					c-0.2-0.2-0.2-0.3-0.2-0.5s0.2-0.3,0.3-0.5c0.2-0.2,0.3-0.2,0.6-0.2c0.2,0,0.5,0,0.6,0.2c0.2,0.2,0.2,0.2,0.2,0.3
					c0,0.2,0,0.3,0,0.3L-152.9,335.1z M-153.7,334.9c-0.2-0.2-0.2-0.2-0.3-0.2c-0.2,0-0.3,0-0.3,0.2c0,0.2-0.2,0.2-0.2,0.3
					c0,0.2,0,0.2,0.2,0.3c0.2,0.2,0.2,0.2,0.3,0.2c0.2,0,0.3,0,0.3-0.2c0.2-0.2,0.2-0.2,0.2-0.3
					C-153.7,335.1-153.7,334.9-153.7,334.9z"/>
			</g>
			<g id="XMLID_2019_">
				<path id="XMLID_2020_" class="st3" d="M-151.1,333.2l0.8,0.5h0.2v0.2l-0.5,0.2l-0.6-0.5l-0.2,0.2l0.2,0.3l-0.5,0.2V334h0.2
					l-0.5-1.2l0.3-0.2l0.2,0.6l0.3-0.8l0.5-0.2L-151.1,333.2z"/>
			</g>
			<g id="XMLID_2016_">
				<path id="XMLID_2017_" class="st3" d="M-148.9,333.5L-148.9,333.5l-0.6,0.2v-0.2h0.2l-0.2-1.4h0.3L-148.9,333.5L-148.9,333.5z"
					/>
			</g>
			<g id="XMLID_2012_">
				<path id="XMLID_2013_" class="st3" d="M-146.7,333.7L-146.7,333.7l-1.7-0.2v-0.2h0.2l0.2-1.4h0.5c0.3,0,0.5,0.2,0.6,0.3
					c0.2,0.2,0.2,0.3,0.2,0.6c0,0.3-0.2,0.5-0.5,0.6L-146.7,333.7z M-147.2,333.2c0.2,0,0.2-0.2,0.2-0.3c0-0.2,0-0.3-0.2-0.3
					c0-0.2-0.2-0.2-0.3-0.2h-0.2l-0.2,0.9h0.2C-147.5,333.4-147.3,333.4-147.2,333.2z"/>
			</g>
			<g id="XMLID_2008_">
				<path id="XMLID_2009_" class="st3" d="M-144.4,334.5L-144.4,334.5l-1.7-0.6v-0.2l0.5,0.2c-0.2-0.2-0.2-0.2-0.2-0.3
					c0-0.2,0-0.3,0-0.3c0.2-0.2,0.2-0.3,0.5-0.5c0.2,0,0.5,0,0.6,0c0.2,0.2,0.3,0.2,0.5,0.5c0.2,0.2,0.2,0.3,0,0.6
					c0,0.2-0.2,0.2-0.3,0.3c-0.2,0.2-0.2,0.2-0.3,0.2L-144.4,334.5z M-144.7,333.7c0-0.2,0-0.3,0-0.3c0-0.2-0.2-0.2-0.3-0.3
					c-0.2,0-0.2,0-0.3,0c-0.2,0-0.2,0.2-0.3,0.3c0,0.2,0,0.3,0,0.3c0,0.2,0.2,0.2,0.3,0.3c0.2,0,0.2,0,0.3,0
					C-144.8,333.8-144.7,333.8-144.7,333.7z"/>
			</g>
			<g id="XMLID_2005_">
				<path id="XMLID_2006_" class="st3" d="M-142.8,335.7L-142.8,335.7l-1.2-0.9l0,0l0.3,0.3c0-0.2,0-0.3,0-0.3
					c0-0.2,0.2-0.3,0.2-0.3c0.2-0.2,0.3-0.3,0.5-0.3s0.5,0,0.6,0.2c0.2,0.2,0.3,0.3,0.3,0.5l-0.3,0.2c0-0.2,0-0.2,0-0.2
					s0-0.2-0.2-0.2c-0.2-0.2-0.2-0.2-0.3-0.2c-0.2,0-0.2,0-0.3,0.2c-0.2,0.2-0.2,0.2-0.2,0.3c0,0.2,0,0.2,0.2,0.3
					c0.2,0,0.2,0.2,0.3,0.2l0.3-0.3l0.3,0.2L-142.8,335.7L-142.8,335.7L-142.8,335.7z"/>
			</g>
			<g id="XMLID_2001_">
				<path id="XMLID_2002_" class="st3" d="M-141.3,337.6L-141.3,337.6l-1.1-1.4l0,0l0.3,0.3c0-0.2,0-0.3,0-0.3
					c0-0.2,0.2-0.2,0.3-0.3c0.2-0.2,0.3-0.2,0.6-0.2c0.2,0,0.3,0.2,0.5,0.3c0.2,0.2,0.2,0.3,0.2,0.6c0,0.2-0.2,0.3-0.3,0.5
					c-0.2,0-0.3,0.2-0.3,0.2c-0.2,0-0.3,0-0.3,0L-141.3,337.6z M-141.1,336.8c0.2,0,0.2-0.2,0.2-0.3c0-0.2,0-0.2,0-0.3
					c0-0.2-0.2-0.2-0.3-0.2c-0.2,0-0.3,0-0.3,0.2c-0.2,0-0.2,0.2-0.2,0.3c0,0.2,0,0.2,0,0.3c0,0.2,0.2,0.2,0.3,0.2
					C-141.3,337-141.3,337-141.1,336.8z"/>
			</g>
		</g>
		<g id="XMLID_1979_">
			<g id="XMLID_1995_">
				<path id="XMLID_1999_" class="st2" d="M-153.7,341.8c0.2,0.5,0.3,0.8,0.5,1.2c0.8,1.6,2,2.5,3.7,2.8c0.2,0,0.3,0.2,0.3,0.3
					c0,0.2-0.2,0.5-0.5,0.3c-0.6-0.2-1.2-0.3-1.9-0.6c-1.6-0.9-2.5-2.2-2.8-3.9c0,0,0,0,0-0.2c-0.2,0.2-0.2,0.2-0.3,0.3
					c-0.2,0.2-0.3,0.2-0.5,0c-0.2-0.2-0.2-0.3,0-0.5c0.3-0.3,0.5-0.6,0.8-0.9c0.2-0.2,0.3-0.2,0.5,0c0.3,0.3,0.6,0.5,0.9,0.8
					c0.2,0.2,0.2,0.3,0.2,0.5c-0.2,0.2-0.3,0.2-0.5,0C-153.4,341.9-153.5,341.9-153.7,341.8L-153.7,341.8z"/>
				<path id="XMLID_1996_" class="st4" d="M-149.7,346.6L-149.7,346.6c-0.8-0.2-1.4-0.3-2-0.6c-1.6-0.9-2.5-2.2-2.8-3.7l0,0
					c-0.2,0.2-0.5,0.3-0.8,0c-0.2-0.2-0.3-0.5,0-0.6c0.3-0.3,0.6-0.6,0.8-0.9s0.5-0.3,0.8,0c0.3,0.3,0.6,0.5,0.9,0.8
					c0.3,0.2,0.3,0.5,0.2,0.6c-0.2,0.2-0.5,0.3-0.8,0l0,0l0,0c0.2,0.3,0.2,0.6,0.3,0.8c0.6,1.4,1.9,2.3,3.6,2.6
					c0.2,0,0.5,0.2,0.5,0.5c0,0.2,0,0.3-0.2,0.5C-149.3,346.6-149.5,346.6-149.7,346.6z M-154.3,341.6l0.2,0.5
					c0.3,1.6,1.2,3,2.8,3.7c0.6,0.3,1.1,0.5,1.9,0.6c0.2,0,0.2,0,0.2,0v-0.2c0-0.2,0-0.2-0.3-0.2c-1.9-0.3-3.1-1.4-3.9-3
					c-0.2-0.3-0.2-0.6-0.3-0.8c0-0.2-0.2-0.3-0.2-0.5v-0.2h0.3l0,0c0,0,0,0,0.2,0l0.2,0.2l0.2,0.2c0.2,0.2,0.3,0,0.3,0
					s0.2-0.2,0-0.3c-0.3-0.3-0.6-0.5-0.9-0.8c-0.2-0.2-0.2-0.2-0.3,0c-0.3,0.3-0.5,0.6-0.8,0.9c0,0.2,0,0.2,0,0.3c0.2,0,0.2,0,0.3,0
					l0.2-0.2c0,0,0,0,0.2-0.2L-154.3,341.6z"/>
			</g>
			<g id="XMLID_1990_">
				<path id="XMLID_1994_" class="st2" d="M-143.6,340.2c0-0.2-0.2-0.5-0.2-0.6c-0.6-1.7-1.9-2.8-3.7-3.3c-0.2,0-0.2,0-0.3-0.2
					c-0.2-0.2-0.2-0.3,0-0.3c0.2-0.2,0.2-0.2,0.5-0.2c0.9,0.2,1.9,0.6,2.6,1.2c1.1,0.8,1.7,1.9,1.9,3.3c0,0,0,0,0,0.2
					c0.2-0.2,0.2-0.2,0.3-0.3c0.2-0.2,0.3-0.2,0.5,0c0.2,0.2,0.2,0.3,0,0.5c-0.3,0.3-0.5,0.6-0.8,0.9c-0.2,0.2-0.3,0.2-0.6,0
					c-0.3-0.3-0.6-0.5-0.9-0.8c-0.2-0.2-0.2-0.3-0.2-0.5c0.2-0.2,0.3-0.2,0.5,0C-143.9,340.1-143.6,340.2-143.6,340.2L-143.6,340.2z
					"/>
				<path id="XMLID_1991_" class="st4" d="M-143.1,341.5c-0.2,0-0.3,0-0.3-0.2c-0.3-0.2-0.6-0.5-0.9-0.8c-0.2-0.2-0.2-0.3-0.2-0.3
					c0-0.2,0-0.3,0.2-0.3c0.2-0.2,0.5-0.3,0.8,0l0,0c0-0.2,0-0.2,0-0.3c-0.6-1.7-1.9-2.8-3.6-3.3c-0.2,0-0.3,0-0.3-0.2
					c-0.2-0.2-0.2-0.3-0.2-0.6c0.2-0.2,0.3-0.3,0.6-0.3c1.1,0.2,1.9,0.6,2.6,1.2c0.9,0.8,1.7,1.9,1.9,3.1l0,0
					c0.2-0.2,0.5-0.3,0.8-0.2c0.2,0.2,0.3,0.5,0,0.6c-0.3,0.3-0.6,0.6-0.8,0.9C-142.8,341.5-142.8,341.5-143.1,341.5z M-144.2,340.1
					C-144.2,340.1-144.4,340.1-144.2,340.1c-0.2,0.2-0.2,0.2-0.2,0.2s0,0.2,0.2,0.2c0.3,0.3,0.6,0.5,0.9,0.8c0.2,0.2,0.2,0.2,0.3,0
					c0.3-0.3,0.5-0.6,0.8-0.9c0,0,0.2-0.2,0-0.3c-0.2-0.2-0.3,0-0.3,0l-0.2,0.2l-0.3,0.3l-0.2-0.3l0,0c0,0,0,0,0-0.2
					c-0.3-1.2-0.9-2.3-1.9-3.1c-0.8-0.6-1.6-0.9-2.5-1.2c-0.2,0-0.2,0-0.2,0.2c0,0.2,0,0.2,0,0.2s0.2,0,0.2,0.2
					c1.9,0.5,3.3,1.6,3.9,3.4c0,0.2,0.2,0.3,0.2,0.5v0.2v0.2h-0.2l0,0h-0.2c0,0-0.2,0-0.2-0.2L-144.2,340.1
					C-144.1,340.1-144.2,340.1-144.2,340.1z"/>
			</g>
			<g id="XMLID_1985_">
				<path id="XMLID_1989_" class="st2" d="M-149.3,336.2c-0.6,0.2-1.2,0.3-1.7,0.6c-1.2,0.8-2,1.7-2.5,3.1c0,0.2,0,0.2-0.2,0.3
					c-0.2,0.2-0.3,0.2-0.5,0.2s-0.2-0.2-0.2-0.3c0.2-0.8,0.5-1.6,1.1-2.3c0.9-1.1,2-1.9,3.6-2l0,0l0,0c-0.2,0-0.2-0.2-0.3-0.2
					c-0.2-0.2-0.2-0.3-0.2-0.5c0.2-0.2,0.3-0.2,0.5,0c0.3,0.3,0.6,0.5,0.9,0.8c0.3,0.2,0.3,0.3,0,0.6c-0.3,0.3-0.5,0.6-0.8,0.9
					c0,0.2-0.3,0.2-0.3,0.2c-0.2,0-0.2-0.2-0.3-0.3c0-0.2,0-0.2,0-0.3C-149.7,336.5-149.5,336.3-149.3,336.2z"/>
				<path id="XMLID_1986_" class="st4" d="M-154,340.5h-0.2c-0.2-0.2-0.3-0.3-0.3-0.6c0.2-0.9,0.6-1.7,1.1-2.3c0.9-1.1,2-1.9,3.4-2
					l0,0c-0.3-0.2-0.3-0.5-0.2-0.8c0.2-0.2,0.2-0.2,0.3-0.2c0.2,0,0.3,0,0.5,0.2c0.3,0.3,0.6,0.5,0.9,0.8c0.3,0.3,0.3,0.5,0,0.8
					l-0.2,0.2c-0.2,0.2-0.3,0.5-0.6,0.6c-0.2,0.2-0.3,0.2-0.5,0.2s-0.3-0.2-0.3-0.3c0-0.2,0-0.3,0.2-0.5l0,0
					c-0.5,0.2-0.9,0.3-1.2,0.5c-1.2,0.6-2,1.7-2.3,3.1c0,0.2,0,0.2-0.2,0.3C-153.7,340.4-153.7,340.5-154,340.5z M-149.7,334.8
					L-149.7,334.8C-149.7,334.8-149.8,334.9-149.7,334.8c-0.2,0.2-0.2,0.3,0,0.3l0.2,0.2l0.3,0.2l-0.2,0.2l0,0c0,0,0,0-0.2,0
					c-1.4,0.3-2.5,0.9-3.4,2c-0.5,0.6-0.9,1.4-1.1,2.2c0,0.2,0,0.2,0.2,0.2s0.2,0,0.2,0s0-0.2,0.2-0.2c0.3-1.4,1.2-2.5,2.5-3.3
					c0.6-0.3,1.1-0.5,1.9-0.6h0.5l-0.3,0.3l-0.2,0.2c0,0.2-0.2,0.2-0.2,0.2c0,0.2,0,0.2,0,0.2l0.2,0.2h0.2c0.2-0.2,0.5-0.5,0.6-0.6
					l0.2-0.2c0.2-0.2,0.2-0.2,0-0.3c-0.3-0.2-0.6-0.5-0.9-0.8C-149.5,334.9-149.7,334.8-149.7,334.8z"/>
			</g>
			<g id="XMLID_1980_">
				<path id="XMLID_1984_" class="st2" d="M-147.5,345.8c2-0.5,3.4-1.7,4-3.6c0.2-0.3,0.2-0.5,0.5-0.5c0.3,0,0.3,0.3,0.2,0.6
					c-0.6,2.2-2,3.6-4.4,4c0,0-0.2,0-0.3,0c0.2,0.2,0.2,0.2,0.3,0.3c0.2,0.2,0.2,0.3,0.2,0.5c-0.2,0.2-0.3,0.2-0.5,0
					c-0.3-0.3-0.6-0.5-0.9-0.8c-0.2-0.2-0.2-0.3,0-0.5c0.3-0.3,0.5-0.6,0.8-0.9c0.2-0.2,0.3-0.2,0.5,0c0.2,0.2,0.2,0.3,0,0.5
					C-147.5,345.5-147.5,345.7-147.5,345.8C-147.5,345.7-147.5,345.8-147.5,345.8z"/>
				<path id="XMLID_1981_" class="st4" d="M-147.5,347.5c-0.2,0-0.3,0-0.3-0.2c-0.3-0.3-0.6-0.5-0.9-0.8c-0.3-0.2-0.3-0.5,0-0.6
					c0.3-0.3,0.6-0.6,0.8-0.9c0.2-0.2,0.2-0.2,0.3-0.2c0.2,0,0.3,0,0.3,0.2c0.2,0.2,0.2,0.5,0.2,0.6c1.7-0.5,3-1.7,3.4-3.4
					c0-0.2,0.2-0.6,0.6-0.5c0.2,0,0.3,0.2,0.3,0.2c0.2,0.2,0.2,0.3,0,0.6c-0.6,2.2-2.2,3.6-4.4,4.2c0,0,0,0,0.2,0.2
					c0.3,0.2,0.3,0.5,0.2,0.6C-147.2,347.5-147.3,347.5-147.5,347.5z M-147.5,345L-147.5,345c0,0-0.2,0-0.2,0.2
					c-0.3,0.3-0.5,0.6-0.8,0.9c-0.2,0.2-0.2,0.2,0,0.3c0.3,0.3,0.6,0.5,0.9,0.8c0,0,0.2,0.2,0.3,0c0,0,0.2-0.2,0-0.3l-0.2-0.2
					l-0.3-0.3l0.5-0.2c2.2-0.5,3.6-1.9,4.2-4c0-0.2,0-0.3,0-0.3s0,0-0.2,0s-0.2,0-0.3,0.3c-0.6,2-2,3.3-4,3.7l-0.5,0.2l0.3-0.3
					c0,0,0,0,0.2-0.2l0,0c0,0,0,0,0-0.2C-147.5,345.4-147.5,345.2-147.5,345L-147.5,345z"/>
			</g>
		</g>
		<g id="XMLID_1934_">
			<g id="XMLID_1977_">
				<path id="XMLID_1978_" class="st4" d="M-140.5,341L-140.5,341L-140.5,341L-140.5,341L-140.5,341z"/>
			</g>
			<g id="XMLID_1937_">
				<path id="XMLID_1938_" class="st4" d="M-148.6,348.3c-0.2,0-0.2,0-0.3,0v-0.2C-148.7,348.3-148.6,348.3-148.6,348.3
					L-148.6,348.3z M-148.3,348.3L-148.3,348.3c0.2-0.2,0.2-0.2,0.3-0.2v0.2C-147.9,348.3-148.1,348.3-148.3,348.3z M-149,348.3
					c-0.2,0-0.2,0-0.3,0v-0.2C-149.3,348.2-149,348.3-149,348.3L-149,348.3z M-147.5,348.3L-147.5,348.3c0.2-0.2,0.2-0.2,0.3-0.2
					v0.2C-147.3,348.3-147.5,348.3-147.5,348.3z M-149.8,348.3c-0.2,0-0.2,0-0.3,0v-0.2C-149.8,348.2-149.8,348.2-149.8,348.3
					L-149.8,348.3z M-147,348.3L-147,348.3c0.2-0.2,0.2-0.2,0.3-0.2v0.2C-146.7,348.2-146.7,348.3-147,348.3z M-150.3,348.2
					c-0.2,0-0.2,0-0.3-0.2v-0.2C-150.6,348-150.4,348-150.3,348.2L-150.3,348.2z M-146.4,348.2L-146.4,348.2c0-0.2,0.2-0.2,0.3-0.2
					v0.2C-145.9,348-146.2,348.2-146.4,348.2z M-150.9,348c-0.2,0-0.2,0-0.3-0.2v-0.2C-151.1,347.8-151.1,347.8-150.9,348
					L-150.9,348z M-145.8,348L-145.8,348c0-0.2,0.2-0.2,0.3-0.2v0.2C-145.6,347.8-145.6,347.8-145.8,348z M-151.4,347.7
					c-0.2,0-0.2-0.2-0.3-0.2v-0.2C-151.7,347.5-151.4,347.5-151.4,347.7L-151.4,347.7z M-145.1,347.7L-145.1,347.7
					c0-0.2,0.2-0.2,0.3-0.2v0.2C-145,347.7-145.1,347.7-145.1,347.7z M-152.1,347.5c-0.2,0-0.2-0.2-0.3-0.2v-0.2
					C-152.1,347.2-152.1,347.4-152.1,347.5L-152.1,347.5z M-144.7,347.5L-144.7,347.5c0-0.2,0.2-0.2,0.2-0.3v0.2
					C-144.4,347.4-144.4,347.4-144.7,347.5z M-144.1,347.2L-144.1,347.2c0-0.2,0.2-0.2,0.2-0.3v0.2
					C-143.9,347.1-144.1,347.1-144.1,347.2z M-152.6,347.2c-0.2,0-0.2-0.2-0.3-0.2v-0.2C-152.8,346.9-152.6,347.1-152.6,347.2
					L-152.6,347.2z M-143.6,346.8L-143.6,346.8c0-0.2,0.2-0.2,0.2-0.3l0,0C-143.4,346.6-143.4,346.8-143.6,346.8z M-152.9,346.8
					c-0.2,0-0.2-0.2-0.3-0.2l0,0C-153.2,346.6-152.9,346.6-152.9,346.8L-152.9,346.8z M-143.1,346.4L-143.1,346.4
					c0-0.2,0.2-0.2,0.2-0.3l0,0C-142.8,346.3-142.8,346.3-143.1,346.4z M-153.5,346.4l-0.2-0.2l0,0
					C-153.7,346.1-153.5,346.3-153.5,346.4L-153.5,346.4z M-142.7,346L-142.7,346c0-0.2,0-0.2,0.2-0.3h0.2
					C-142.5,345.8-142.7,346-142.7,346z M-154,346l-0.2-0.2h0.2C-154.2,345.8-154,345.8-154,346L-154,346z M-142,345.5L-142,345.5
					c0-0.2,0-0.2,0.2-0.3h0.2C-142,345.4-142,345.5-142,345.5z M-154.5,345.5c0-0.2-0.2-0.2-0.2-0.3h0.2
					C-154.5,345.4-154.5,345.4-154.5,345.5L-154.5,345.5z M-141.9,345L-141.9,345c0-0.2,0-0.2,0.2-0.3h0.2
					C-141.7,344.9-141.9,344.9-141.9,345z M-154.8,345c0-0.2-0.2-0.2-0.2-0.3h0.2C-154.8,344.7-154.8,344.9-154.8,345L-154.8,345z
					 M-155.1,344.6c0-0.2-0.2-0.2-0.2-0.3h0.2C-155.1,344.3-155.1,344.4-155.1,344.6L-155.1,344.6z M-141.6,344.6L-141.6,344.6
					c0-0.2,0-0.2,0-0.3h0.2C-141.3,344.3-141.6,344.4-141.6,344.6z M-155.3,344c0-0.2-0.2-0.2-0.2-0.3h0.2
					C-155.3,343.8-155.3,343.8-155.3,344L-155.3,344z M-141.3,344L-141.3,344c0-0.2,0-0.2,0-0.3h0.2
					C-141.3,343.8-141.3,343.8-141.3,344z M-155.7,343.5c0-0.2,0-0.2-0.2-0.3h0.2C-155.6,343.2-155.6,343.3-155.7,343.5
					L-155.7,343.5z M-141.1,343.3L-141.1,343.3c0-0.2,0-0.2,0-0.3h0.2C-140.9,343.2-140.9,343.3-141.1,343.3z M-155.9,342.9
					c0-0.2,0-0.2,0-0.3h0.2C-155.7,342.6-155.7,342.7-155.9,342.9L-155.9,342.9z M-140.8,342.9L-140.8,342.9c0-0.2,0-0.2,0-0.3h0.2
					C-140.8,342.7-140.8,342.7-140.8,342.9z M-156,342.2c0-0.2,0-0.2,0-0.3h0.2C-155.9,342.1-155.9,342.1-156,342.2L-156,342.2z
					 M-140.8,342.2L-140.8,342.2c-0.2-0.2,0-0.2,0-0.3h0.2C-140.5,342.1-140.5,342.1-140.8,342.2z M-156,341.6c0-0.2,0-0.2,0-0.3
					h0.2C-156,341.5-156,341.5-156,341.6L-156,341.6z M-140.5,341.6L-140.5,341.6c-0.2-0.2-0.2-0.2-0.2-0.3h0.2
					C-140.5,341.5-140.5,341.6-140.5,341.6z"/>
			</g>
			<g id="XMLID_1935_">
				<path id="XMLID_1936_" class="st4" d="M-156,341L-156,341L-156,341L-156,341L-156,341z"/>
			</g>
		</g>
		<g id="XMLID_1932_">
			<ellipse id="XMLID_1933_" class="st3" cx="-156" cy="339.6" rx="0.5" ry="0.5"/>
		</g>
		<g id="XMLID_1930_">
			<ellipse id="XMLID_1931_" class="st3" cx="-140.9" cy="339.6" rx="0.5" ry="0.5"/>
		</g>
		<g id="XMLID_1891_">
			<g id="XMLID_1919_">
				<g id="XMLID_1925_">
					<g id="XMLID_1926_">
						<path id="XMLID_1927_" class="st2" d="M-151.4,340.5c0.2,0,0.3-0.2,0.3-0.3c0-0.2,0,0,0,0v-1.1c0,0,0,0.6,0,1.1l0,0
							c0-0.3,0-1.1,0-1.1s0,0.6,0,0.9l0,0c0-0.3,0-0.9,0-0.9s0,0.6,0,1.1l0,0c0-0.3,0-1.1,0-1.1s0,0.9,0,1.1
							C-151.8,340.5-151.7,340.5-151.4,340.5 M-151.4,340.5c-0.2,0-0.2-0.2-0.2-0.2l0,0c0.2,0,0.3,0.2,0.5,0.2
							C-151.4,340.4-151.4,340.5-151.4,340.5z"/>
					</g>
				</g>
				<g id="XMLID_1920_">
					<g id="XMLID_1921_">
						<path id="XMLID_1922_" class="st2" d="M-151.4,340.5h-0.2c0,0.2,0,1.2,0,1.6c0,0.5,0,1.1,0.2,1.1s0.2-0.6,0.2-1.1
							C-151.4,341.8-151.4,340.7-151.4,340.5z M-151.4,342.7c0,0.2,0,0.3,0,0.3S-151.4,342.9-151.4,342.7c-0.2-0.2-0.2-0.3,0-0.6
							l0,0l0,0c0-0.2,0-0.3,0-0.5c0,0.2,0,0.3,0,0.5l0,0l0,0C-151.4,342.4-151.4,342.6-151.4,342.7z"/>
					</g>
				</g>
			</g>
			<g id="XMLID_1914_">
				<path id="XMLID_1915_" class="st2" d="M-145,342.1c0-0.2,0-0.8,0-0.8v-2l0,0c0,0-0.2,0-0.2,0.2c-0.2,0.3-0.2,1.7-0.2,1.7
					c0.2,0,0.2,0.2,0.2,0.3c0,0.3,0,0.6,0,0.8c0,0.5,0,1.1,0.2,1.1C-145,343.2-145,342.6-145,342.1z M-145.1,341
					c0-0.5,0-1.2,0.2-1.6l0,0L-145.1,341L-145.1,341z M-145.1,342.7c0,0.2,0,0.3,0,0.3S-145.1,342.9-145.1,342.7
					c-0.2-0.2-0.2-0.3,0-0.6l0,0l0,0c0-0.2,0-0.3,0-0.5c0,0.2,0,0.3,0,0.5l0,0l0,0C-145.1,342.4-145.1,342.6-145.1,342.7z"/>
			</g>
			<g id="XMLID_1892_">
				<g id="XMLID_1907_">
					<g id="XMLID_1912_">
						<path id="XMLID_1913_" class="st2" d="M-149.8,341.9c0.2,0.3,0.3,0.6,0.6,0.8l0,0l0,0v-0.2
							C-149.7,342.4-149.8,342.2-149.8,341.9C-149.8,341.8-149.8,341.8-149.8,341.9C-149.8,341.8-149.8,341.9-149.8,341.9z"/>
					</g>
					<g id="XMLID_1908_">
						<path id="XMLID_1909_" class="st2" d="M-145.9,341.3h-4.7c-0.2,0-0.2,0-0.2,0.2c0,0.2,0,0.2,0.2,0.2l0,0
							c0,0.8,0.6,1.6,1.6,1.6h1.4c0.8,0,1.6-0.8,1.6-1.6l0,0C-145.9,341.6-145.8,341.5-145.9,341.3
							C-145.8,341.3-145.9,341.3-145.9,341.3z M-147.5,343h-1.4c-0.8,0-1.2-0.8-1.4-1.4h4.2C-146.2,342.2-146.7,343-147.5,343z"/>
					</g>
				</g>
				<g id="XMLID_1900_">
					<g id="XMLID_1905_">
						<path id="XMLID_1906_" class="st2" d="M-149.7,340.4c0.2,0.3,0.3,0.5,0.5,0.6l0,0l0,0c0,0,0,0,0-0.2
							C-149,340.8-149.5,340.7-149.7,340.4C-149.5,340.4-149.5,340.4-149.7,340.4L-149.7,340.4z"/>
					</g>
					<g id="XMLID_1901_">
						<path id="XMLID_1902_" class="st2" d="M-146.4,339.9h-3.7c0,0-0.2,0-0.2,0.2c0,0,0,0.2,0.2,0.2l0,0c0,0.6,0.5,1.2,1.2,1.2h1.2
							c0.6,0,1.2-0.6,1.2-1.2l0,0C-146.4,340.2-146.2,340.1-146.4,339.9C-146.2,339.9-146.4,339.9-146.4,339.9z M-147.5,341.3h-1.2
							c-0.6,0-1.1-0.6-1.1-1.1h3.4C-146.5,340.7-147,341.3-147.5,341.3z"/>
					</g>
				</g>
				<g id="XMLID_1893_">
					<g id="XMLID_1898_">
						<path id="XMLID_1899_" class="st2" d="M-149.3,339.3c0,0.2,0.3,0.5,0.5,0.5l0,0l0,0l0,0C-149,339.6-149,339.4-149.3,339.3
							C-149,339.1-149.3,339.1-149.3,339.3C-149.3,339.1-149.3,339.3-149.3,339.3z"/>
					</g>
					<g id="XMLID_1894_">
						<path id="XMLID_1895_" class="st2" d="M-146.7,338.8h-3c0,0-0.2,0-0.2,0.2c0,0,0,0.2,0.2,0.2l0,0c0,0.5,0.5,1.1,0.9,1.1h0.9
							c0.5,0,0.9-0.5,0.9-1.1l0,0C-146.7,339-146.7,339-146.7,338.8L-146.7,338.8z M-147.8,339.9h-0.9c-0.5,0-0.8-0.5-0.9-0.9h2.6
							C-147,339.4-147.3,339.9-147.8,339.9z"/>
					</g>
				</g>
			</g>
		</g>
	</g>
	<g id="XMLID_1882_">
		<g id="XMLID_1883_">
			<path id="XMLID_1887_" class="st0" d="M-187.4,295.4c2.5,7.9,8.4,14.8,15.2,17.7c0.3,0.2,0.5,0.2,0.8,0.2c0.8,0,1.4-0.5,1.7-1.1
				c0.5-0.9,0-2-0.9-2.5c-5.9-2.5-10.9-8.4-13.1-15.4c-0.3-0.9-1.4-1.6-2.3-1.2C-187.1,293.4-187.7,294.5-187.4,295.4z"/>
			<path id="XMLID_1884_" class="st0" d="M-96.5,280.4h-103.4c-1.9,0-3.4,1.6-3.4,3.4s1.6,3.4,3.4,3.4h0.9
				c0.9,17.7,15.2,36.9,34.4,36.9h33c19,0,33.4-19.1,34.4-36.9h0.9c1.9,0,3.4-1.6,3.4-3.4S-94.8,280.4-96.5,280.4z M-131.9,320.2
				h-33c-16.5,0-29.5-17.3-30.5-33h93.9C-102.2,302.9-115.1,320.2-131.9,320.2z"/>
		</g>
	</g>
	<g id="XMLID_1660_">
		<g id="XMLID_1880_">
			<ellipse id="XMLID_1881_" class="st1" cx="-148.3" cy="302.1" rx="9.6" ry="9.3"/>
		</g>
		<g id="XMLID_1878_">
			<ellipse id="XMLID_1879_" class="st2" cx="-148.3" cy="302.1" rx="10.7" ry="10.3"/>
		</g>
		<g id="XMLID_1876_">
			<ellipse id="XMLID_1877_" class="st3" cx="-148.3" cy="302.1" rx="5.8" ry="5.4"/>
		</g>
		<g id="XMLID_1799_">
			<g id="XMLID_1873_">
				<path id="XMLID_1874_" class="st3" d="M-157.3,302.6C-157.3,302.6-157.4,302.8-157.3,302.6
					C-157.3,302.8-157.3,302.9-157.3,302.6c0.2,0.2,0-0.2,0.3-0.2c0.2,0,0.2,0.2,0.2,0.2c0,0.2,0,0.2-0.2,0.2l0,0v-0.2l0,0
					c0,0,0,0,0-0.2v-0.2C-157.1,302.3-156.8,302.6-157.3,302.6C-157.4,302.6-157.4,302.4-157.3,302.6
					C-157.4,302.8-157.4,302.6-157.3,302.6L-157.3,302.6z"/>
			</g>
			<g id="XMLID_1870_">
				<path id="XMLID_1871_" class="st3" d="M-156.8,303.5L-156.8,303.5L-156.8,303.5L-156.8,303.5L-156.8,303.5
					C-156.7,303.7-156.7,303.7-156.8,303.5L-156.8,303.5C-156.8,303.7-156.8,303.7-156.8,303.5L-156.8,303.5
					c0.2,0.2,0.2,0.2,0.3,0.3c0,0.2,0,0.2-0.2,0.2l0,0l0.2,0.2c0,0.2,0,0.2-0.2,0.3h-0.3l0,0l0,0h-0.2v-0.2v-0.2h0.3
					c0,0,0.2,0,0.2-0.2l-0.2-0.2c0,0,0,0-0.2,0h-0.3v-0.2L-156.8,303.5C-157.1,303.5-156.8,303.5-156.8,303.5l-0.2-0.3
					c0,0,0,0-0.2,0h-0.3v-0.2L-156.8,303.5z"/>
			</g>
			<g id="XMLID_1866_">
				<path id="XMLID_1867_" class="st3" d="M-156.5,305.2L-156.5,305.2L-156.5,305.2C-156.3,305.2-156.3,305.2-156.5,305.2
					C-156.5,305.1-156.5,305.1-156.5,305.2L-156.5,305.2v-0.3l0,0C-156.3,304.9-156.3,305.1-156.5,305.2
					C-156.3,305.2-156.3,305.4-156.5,305.2l-0.2,0.3l0,0l0,0h-0.2v-0.2v-0.2l0,0l0,0c0,0-0.2,0-0.2-0.2c0-0.2,0-0.2,0.2-0.3
					C-156.7,304.9-156.5,305.2-156.5,305.2z M-156.8,305.2C-156.8,305.2-156.7,305.4-156.8,305.2L-156.8,305.2L-156.8,305.2
					C-156.5,305.2-156.7,305.1-156.8,305.2L-156.8,305.2z"/>
			</g>
			<g id="XMLID_1863_">
				<path id="XMLID_1864_" class="st3" d="M-155.9,305.9L-155.9,305.9L-155.9,305.9L-155.9,305.9h0.2
					C-155.6,305.9-155.7,305.9-155.9,305.9l-0.5,0.3l0,0l0,0h-0.2V306v-0.2H-155.9z"/>
			</g>
			<g id="XMLID_1860_">
				<path id="XMLID_1861_" class="st3" d="M-155.6,306.5C-155.3,306.3-155.3,306.3-155.6,306.5L-155.6,306.5L-155.6,306.5h0.2
					C-155.3,306.5-155.3,306.5-155.6,306.5l-0.3,0.5l0,0l0,0h-0.2l-0.2-0.2v-0.2L-155.6,306.5z"/>
			</g>
			<g id="XMLID_1857_">
				<path id="XMLID_1858_" class="st3" d="M-155.1,307.9L-155.1,307.9c0,0.2,0,0.2,0.2,0.2c0,0-0.2-0.3,0-0.5c0.2-0.2,0.2,0,0.3,0
					c0,0,0.2,0.2,0,0.3l0,0l-0.2-0.2l0,0c0,0,0,0,0-0.2h-0.2C-154.9,307.6-154.8,307.9-155.1,307.9c0,0.2,0,0.2-0.2,0.2
					L-155.1,307.9L-155.1,307.9z"/>
			</g>
			<g id="XMLID_1854_">
				<path id="XMLID_1855_" class="st3" d="M-154.2,308.3L-154.2,308.3L-154.2,308.3L-154.2,308.3l0.2-0.2l0.2,0.2l-0.2,0.2l0.2,0.2
					l-0.2,0.2L-154.2,308.3v0.3v0.2l0,0l-0.2,0.2l0,0c0,0-0.2-0.2,0-0.3L-154.2,308.3z"/>
			</g>
			<g id="XMLID_1850_">
				<path id="XMLID_1851_" class="st3" d="M-153.2,308.8c0.2,0.2,0.2,0.3,0,0.5l0,0l-0.3-0.3c0,0.2,0,0.2,0,0.3c0.2,0,0.2,0,0.2,0
					v0.2c0,0-0.2,0-0.3,0c-0.2-0.2-0.2-0.3-0.2-0.5C-153.5,308.8-153.4,308.7-153.2,308.8z M-153.2,309.1L-153.2,309.1l-0.2-0.2
					L-153.2,309.1z"/>
			</g>
			<g id="XMLID_1846_">
				<path id="XMLID_1847_" class="st3" d="M-152.6,309.4C-152.6,309.4-152.6,309.3-152.6,309.4L-152.6,309.4L-152.6,309.4
					L-152.6,309.4c0.2-0.2,0.2,0,0.2,0l0,0l0,0h0.2c0.2,0,0.2,0.3,0.2,0.5c-0.2,0.2-0.3,0.2-0.5,0.2s-0.2-0.2-0.2-0.2l0,0l0,0
					l-0.2,0.2h-0.2L-152.6,309.4z M-152.6,309.7c0,0,0.2,0,0.2-0.2c0-0.2,0-0.2,0-0.3c0,0-0.2,0-0.2,0.2
					C-152.6,309.6-152.6,309.7-152.6,309.7z"/>
			</g>
			<g id="XMLID_1843_">
				<path id="XMLID_1844_" class="st3" d="M-150.9,310.1L-150.9,310.1L-150.9,310.1L-150.9,310.1L-150.9,310.1
					c0.2-0.3,0.3-0.3,0.3-0.3l0,0v0.2l0,0L-150.9,310.1L-150.9,310.1l0.3-0.2v0.2H-150.9v0.5h-0.2L-150.9,310.1z"/>
			</g>
			<g id="XMLID_1839_">
				<path id="XMLID_1840_" class="st3" d="M-149.8,310.2c0.2,0,0.3,0.2,0.3,0.3c0,0.2-0.2,0.3-0.5,0.3c-0.2,0-0.3-0.2-0.3-0.3
					C-150.3,310.2-150.1,310.2-149.8,310.2z M-149.8,310.7c0.2,0,0.2,0,0.2-0.2c0-0.2,0-0.2-0.2-0.2s-0.2,0-0.2,0.2
					C-150.1,310.5-150.1,310.7-149.8,310.7z"/>
			</g>
			<g id="XMLID_1836_">
				<path id="XMLID_1837_" class="st3" d="M-149,310.5C-149,310.4-149,310.4-149,310.5L-149,310.5L-149,310.5L-149,310.5
					c0.2-0.2,0.2-0.2,0.2,0H-149C-148.9,310.4-148.9,310.5-149,310.5L-149,310.5c0.2-0.2,0.3-0.2,0.3-0.2l0,0v0.2l0,0
					C-148.7,310.5-148.9,310.5-149,310.5c0.2,0.2,0.2,0.2,0.2,0.3v0.3h-0.2V310.5z"/>
			</g>
			<g id="XMLID_1832_">
				<path id="XMLID_1833_" class="st3" d="M-147.2,310.5L-147.2,310.5L-147.2,310.5C-147.2,310.4-147.2,310.4-147.2,310.5
					c-0.2-0.2-0.2-0.2-0.2,0l0,0h-0.2l0,0c0-0.2,0.2-0.2,0.2-0.2C-147.2,310.4-147,310.4-147.2,310.5L-147.2,310.5L-147.2,310.5
					L-147.2,310.5l0.2,0.3h-0.2h-0.2l0,0l0,0c0,0,0,0.2-0.2,0.2s-0.2,0-0.3-0.2C-147.5,310.5-147.3,310.5-147.2,310.5z
					 M-147.3,310.8c0.2,0,0.2-0.2,0.2-0.2l0,0l0,0C-147.3,310.5-147.3,310.7-147.3,310.8C-147.3,310.7-147.3,310.8-147.3,310.8z"/>
			</g>
			<g id="XMLID_1827_">
				<path id="XMLID_1828_" class="st3" d="M-145.9,309.9L-145.9,309.9L-145.9,309.9l0.3-0.2c0.2,0,0.3,0,0.3,0.2c0,0.2,0,0.2,0,0.2
					l0,0c0.2,0,0.2,0,0.2,0.2c0,0.2,0,0.3-0.2,0.3h-0.2h-0.2L-145.9,309.9z M-145.5,309.9L-145.5,309.9
					C-145.5,309.7-145.5,309.7-145.5,309.9l-0.2-0.2L-145.5,309.9L-145.5,309.9z M-145.5,310.4L-145.5,310.4c0.2,0,0.2-0.2,0.2-0.2
					S-145.5,310.1-145.5,310.4l-0.2-0.2L-145.5,310.4L-145.5,310.4z"/>
			</g>
			<g id="XMLID_1824_">
				<path id="XMLID_1825_" class="st3" d="M-144.7,310.1L-144.7,310.1l-0.2-0.6h-0.2v-0.2l0.3-0.2v0.2h-0.2l0.3,0.5h0.2v0.2
					L-144.7,310.1L-144.7,310.1z"/>
			</g>
			<g id="XMLID_1821_">
				<path id="XMLID_1822_" class="st3" d="M-143.9,308.8c0.2-0.2,0.3,0,0.3,0v0.2C-143.6,308.8-143.6,308.8-143.9,308.8
					c0,0.2-0.2,0.3,0,0.5s0.3,0.2,0.5,0.2s0.2-0.2,0.2-0.2l0,0l0,0l0,0v-0.2h0.2h0.2l0.2,0.3h-0.2l0,0l0,0l0,0c0,0,0,0.2-0.2,0.2
					c-0.2,0.2-0.5,0.2-0.6-0.2C-144.2,309.3-144.1,309-143.9,308.8z"/>
			</g>
			<g id="XMLID_1818_">
				<path id="XMLID_1819_" class="st3" d="M-142.3,307.9c0,0,0.2-0.2,0.3,0l0,0H-142.3L-142.3,307.9
					C-142,307.9-142,307.9-142.3,307.9c0,0.2,0,0.3,0.2,0.3c0.2,0.2,0.2,0,0.3,0V308h0.2c0,0,0,0.2-0.2,0.3c-0.2,0.2-0.3,0.2-0.5,0
					C-142.5,308.2-142.5,308-142.3,307.9z"/>
			</g>
			<g id="XMLID_1815_">
				<path id="XMLID_1816_" class="st3" d="M-141.9,307.3L-141.9,307.3L-141.9,307.3h-0.2H-141.9
					C-141.9,307.1-141.9,307.1-141.9,307.3h0.2l0,0l0,0c0,0,0-0.2,0-0.3c0.2-0.2,0.2-0.2,0.3,0l0.2,0.2l0,0l0,0l0.2,0.2l-0.2,0.2
					c0,0,0,0-0.2,0l-0.2-0.2H-141.9L-141.9,307.3L-141.9,307.3l0.3,0.3l-0.2,0.2L-141.9,307.3z"/>
			</g>
			<g id="XMLID_1811_">
				<path id="XMLID_1812_" class="st3" d="M-140.8,306.3L-140.8,306.3L-140.8,306.3h-0.2c0,0,0,0,0,0.2L-140.8,306.3l-0.2,0.3l0,0
					c-0.2,0,0-0.2,0-0.3C-140.9,306.2-140.8,306.2-140.8,306.3h0.3l0,0l0,0h0.2v0.2c0,0,0,0-0.2,0l0,0l0,0v0.2
					c0,0.2-0.2,0.2-0.3,0.2C-140.9,306.6-140.8,306.5-140.8,306.3z M-140.5,306.6L-140.5,306.6L-140.5,306.6L-140.5,306.6
					C-140.8,306.5-140.8,306.6-140.5,306.6L-140.5,306.6z"/>
			</g>
			<g id="XMLID_1808_">
				<path id="XMLID_1809_" class="st3" d="M-140.5,305.7L-140.5,305.7L-140.5,305.7h-0.2H-140.5
					C-140.5,305.5-140.5,305.5-140.5,305.7L-140.5,305.7C-140.5,305.5-140.5,305.5-140.5,305.7L-140.5,305.7c0-0.2,0-0.3,0-0.5
					c0-0.2,0.2-0.2,0.3-0.2l0.2,0.2l0,0l0,0h0.2v0.2c0,0,0,0-0.2,0l-0.3-0.2h-0.2C-140.5,305.4-140.5,305.5-140.5,305.7
					c0.2-0.2,0.2-0.2,0.2,0l0.3,0.2v0.2L-140.5,305.7z"/>
			</g>
			<g id="XMLID_1804_">
				<path id="XMLID_1805_" class="st3" d="M-140.2,304.3c0-0.2,0.2-0.2,0.2-0.2l0,0l0,0c0,0,0,0,0-0.2v-0.2h0.2l0,0l0,0l0.5,0.2
					c0.2,0,0.3,0.2,0.2,0.3c0,0,0,0.2-0.2,0.2h-0.2c0,0,0,0,0.2-0.2c0-0.2,0-0.2-0.2-0.2l0,0l0,0l0,0v0.2c0,0.2-0.2,0.2-0.3,0.2
					C-140.2,304.6-140.2,304.5-140.2,304.3z M-139.7,304.3c-0.2,0-0.2,0-0.2,0.2c0,0.2,0,0.2,0.2,0.2c0.2,0,0.2,0,0.2-0.2
					C-139.7,304.3-139.7,304.3-139.7,304.3z"/>
			</g>
			<g id="XMLID_1800_">
				<path id="XMLID_1801_" class="st3" d="M-140,303.2c0-0.2,0.2-0.3,0.3-0.2l0,0v0.5c0.2,0,0.2,0,0.2-0.2c0-0.2,0-0.2,0-0.2h0.2
					c0,0,0.2,0.2,0,0.3c0,0.2-0.2,0.3-0.3,0.3C-139.7,303.5-140,303.5-140,303.2z M-139.7,303.2L-139.7,303.2
					c-0.2,0.2-0.2,0.2,0,0.3V303.2z"/>
			</g>
		</g>
		<g id="XMLID_1770_">
			<g id="XMLID_1796_">
				<path id="XMLID_1797_" class="st3" d="M-154.8,297.8L-154.8,297.8l-0.8,1.4h-0.2l0.2-0.5c-0.2,0-0.3,0.2-0.3,0.2
					c-0.2,0-0.3,0-0.5-0.2c-0.2-0.2-0.3-0.3-0.3-0.5c0-0.2,0-0.3,0-0.6c0.2-0.2,0.3-0.3,0.5-0.3l0.2,0.3c-0.2,0-0.2,0-0.2,0.2
					l-0.2,0.2c0,0.2,0,0.2,0,0.3c0,0.2,0.2,0.2,0.3,0.3c0.2,0,0.3,0.2,0.3,0c0.2,0,0.2-0.2,0.3-0.2c0-0.2,0.2-0.2,0.2-0.3l-0.3-0.2
					l0.2-0.3L-154.8,297.8l-0.2,0.3L-154.8,297.8z"/>
			</g>
			<g id="XMLID_1792_">
				<path id="XMLID_1793_" class="st3" d="M-152.9,296.2L-152.9,296.2l-1.2,1.2l0,0l0.3-0.3c-0.2,0-0.3,0-0.5,0s-0.3-0.2-0.3-0.2
					c-0.2-0.2-0.2-0.3-0.2-0.5s0.2-0.3,0.3-0.5c0.2-0.2,0.3-0.2,0.6-0.2c0.2,0,0.5,0,0.6,0.2c0.2,0.2,0.2,0.2,0.2,0.3
					c0,0.2,0,0.3,0,0.3L-152.9,296.2z M-153.7,295.9c-0.2-0.2-0.2-0.2-0.3-0.2c-0.2,0-0.3,0-0.3,0.2c0,0.2-0.2,0.2-0.2,0.3
					c0,0.2,0,0.2,0.2,0.3c0.2,0.2,0.2,0.2,0.3,0.2c0.2,0,0.3,0,0.3-0.2c0.2-0.2,0.2-0.2,0.2-0.3
					C-153.7,296.2-153.7,296.1-153.7,295.9z"/>
			</g>
			<g id="XMLID_1789_">
				<path id="XMLID_1790_" class="st3" d="M-151.1,294.4l0.8,0.5h0.2v0.2l-0.5,0.2l-0.6-0.5l-0.2,0.2l0.2,0.3l-0.5,0.2v-0.2h0.2
					l-0.5-1.2l0.3-0.2l0.2,0.6l0.3-0.8l0.5-0.2L-151.1,294.4z"/>
			</g>
			<g id="XMLID_1786_">
				<path id="XMLID_1787_" class="st3" d="M-148.9,294.7L-148.9,294.7l-0.6,0.2v-0.2h0.2l-0.2-1.4h0.3L-148.9,294.7L-148.9,294.7z"
					/>
			</g>
			<g id="XMLID_1782_">
				<path id="XMLID_1783_" class="st3" d="M-146.7,294.7L-146.7,294.7l-1.7-0.2v-0.2h0.2l0.2-1.4h0.5c0.3,0,0.5,0.2,0.6,0.3
					c0.2,0.2,0.2,0.3,0.2,0.6c0,0.3-0.2,0.5-0.5,0.6L-146.7,294.7z M-147.2,294.4c0.2,0,0.2-0.2,0.2-0.3c0-0.2,0-0.3-0.2-0.3
					c0-0.2-0.2-0.2-0.3-0.2h-0.2l-0.2,0.9h0.2C-147.5,294.5-147.3,294.5-147.2,294.4z"/>
			</g>
			<g id="XMLID_1778_">
				<path id="XMLID_1779_" class="st3" d="M-144.4,295.6L-144.4,295.6l-1.7-0.6v-0.2l0.5,0.2c-0.2-0.2-0.2-0.2-0.2-0.3
					c0-0.2,0-0.3,0-0.3c0.2-0.2,0.2-0.3,0.5-0.5c0.2,0,0.5,0,0.6,0c0.2,0.2,0.3,0.2,0.5,0.5c0.2,0.2,0.2,0.3,0,0.6
					c0,0.2-0.2,0.2-0.3,0.3c-0.2,0.2-0.2,0.2-0.3,0.2L-144.4,295.6z M-144.7,294.8c0-0.2,0-0.3,0-0.3c0-0.2-0.2-0.2-0.3-0.3
					c-0.2,0-0.2,0-0.3,0c-0.2,0-0.2,0.2-0.3,0.3c0,0.2,0,0.3,0,0.3c0,0.2,0.2,0.2,0.3,0.3c0.2,0,0.2,0,0.3,0
					C-144.8,295-144.7,295-144.7,294.8z"/>
			</g>
			<g id="XMLID_1775_">
				<path id="XMLID_1776_" class="st3" d="M-142.8,296.8L-142.8,296.8l-1.2-0.9l0,0l0.3,0.3c0-0.2,0-0.3,0-0.3
					c0-0.2,0.2-0.3,0.2-0.3c0.2-0.2,0.3-0.3,0.5-0.3s0.5,0,0.6,0.2c0.2,0.2,0.3,0.3,0.3,0.5l-0.3,0.2c0-0.2,0-0.2,0-0.2
					s0-0.2-0.2-0.2c-0.2-0.2-0.2-0.2-0.3-0.2c-0.2,0-0.2,0-0.3,0.2c-0.2,0.2-0.2,0.2-0.2,0.3c0,0.2,0,0.2,0.2,0.3
					c0.2,0,0.2,0.2,0.3,0.2l0.3-0.3l0.3,0.2L-142.8,296.8L-142.8,296.8L-142.8,296.8z"/>
			</g>
			<g id="XMLID_1771_">
				<path id="XMLID_1772_" class="st3" d="M-141.3,298.7L-141.3,298.7l-1.1-1.4l0,0l0.3,0.3c0-0.2,0-0.3,0-0.3
					c0-0.2,0.2-0.2,0.3-0.3c0.2-0.2,0.3-0.2,0.6-0.2c0.2,0,0.3,0.2,0.5,0.3c0.2,0.2,0.2,0.3,0.2,0.6c0,0.2-0.2,0.3-0.3,0.5
					c-0.2,0-0.3,0.2-0.3,0.2c-0.2,0-0.3,0-0.3,0L-141.3,298.7z M-141.1,297.9c0.2,0,0.2-0.2,0.2-0.3c0-0.2,0-0.2,0-0.3
					c0-0.2-0.2-0.2-0.3-0.2c-0.2,0-0.3,0-0.3,0.2c-0.2,0-0.2,0.2-0.2,0.3c0,0.2,0,0.2,0,0.3c0,0.2,0.2,0.2,0.3,0.2
					C-141.3,298.1-141.3,298.1-141.1,297.9z"/>
			</g>
		</g>
		<g id="XMLID_1749_">
			<g id="XMLID_1765_">
				<path id="XMLID_1769_" class="st2" d="M-153.7,302.9c0.2,0.5,0.3,0.8,0.5,1.2c0.8,1.6,2,2.5,3.7,2.8c0.2,0,0.3,0.2,0.3,0.3
					c0,0.2-0.2,0.5-0.5,0.3c-0.6-0.2-1.2-0.3-1.9-0.6c-1.6-0.9-2.5-2.2-2.8-3.9c0,0,0,0,0-0.2c-0.2,0.2-0.2,0.2-0.3,0.3
					c-0.2,0.2-0.3,0.2-0.5,0c-0.2-0.2-0.2-0.3,0-0.5c0.3-0.3,0.5-0.6,0.8-0.9c0.2-0.2,0.3-0.2,0.5,0c0.3,0.3,0.6,0.5,0.9,0.8
					c0.2,0.2,0.2,0.3,0.2,0.5c-0.2,0.2-0.3,0.2-0.5,0C-153.4,303.1-153.5,303.1-153.7,302.9L-153.7,302.9z"/>
				<path id="XMLID_1766_" class="st4" d="M-149.7,307.7L-149.7,307.7c-0.8-0.2-1.4-0.3-2-0.6c-1.6-0.9-2.5-2.2-2.8-3.7l0,0
					c-0.2,0.2-0.5,0.3-0.8,0c-0.2-0.2-0.3-0.5,0-0.6c0.3-0.3,0.6-0.6,0.8-0.9s0.5-0.3,0.8,0c0.3,0.3,0.6,0.5,0.9,0.8
					c0.3,0.2,0.3,0.5,0.2,0.6c-0.2,0.2-0.5,0.3-0.8,0l0,0l0,0c0.2,0.3,0.2,0.6,0.3,0.8c0.6,1.4,1.9,2.3,3.6,2.6
					c0.2,0,0.5,0.2,0.5,0.5c0,0.2,0,0.3-0.2,0.5C-149.3,307.7-149.5,307.7-149.7,307.7z M-154.3,302.6l0.2,0.5
					c0.3,1.6,1.2,3,2.8,3.7c0.6,0.3,1.1,0.5,1.9,0.6c0.2,0,0.2,0,0.2,0v-0.2c0-0.2,0-0.2-0.3-0.2c-1.9-0.3-3.1-1.4-3.9-3
					c-0.2-0.3-0.2-0.6-0.3-0.8c0-0.2-0.2-0.3-0.2-0.5v-0.2h0.3l0,0c0,0,0,0,0.2,0l0.2,0.2l0.2,0.2c0.2,0.2,0.3,0,0.3,0
					s0.2-0.2,0-0.3c-0.3-0.3-0.6-0.5-0.9-0.8c-0.2-0.2-0.2-0.2-0.3,0c-0.3,0.3-0.5,0.6-0.8,0.9c0,0.2,0,0.2,0,0.3c0.2,0,0.2,0,0.3,0
					l0.2-0.2c0,0,0,0,0.2-0.2L-154.3,302.6z"/>
			</g>
			<g id="XMLID_1760_">
				<path id="XMLID_1764_" class="st2" d="M-143.6,301.4c0-0.2-0.2-0.5-0.2-0.6c-0.6-1.7-1.9-2.8-3.7-3.3c-0.2,0-0.2,0-0.3-0.2
					c-0.2-0.2-0.2-0.3,0-0.3c0.2-0.2,0.2-0.2,0.5-0.2c0.9,0.2,1.9,0.6,2.6,1.2c1.1,0.8,1.7,1.9,1.9,3.3c0,0,0,0,0,0.2
					c0.2-0.2,0.2-0.2,0.3-0.3c0.2-0.2,0.3-0.2,0.5,0c0.2,0.2,0.2,0.3,0,0.5c-0.3,0.3-0.5,0.6-0.8,0.9c-0.2,0.2-0.3,0.2-0.6,0
					c-0.3-0.3-0.6-0.5-0.9-0.8c-0.2-0.2-0.2-0.3-0.2-0.5c0.2-0.2,0.3-0.2,0.5,0C-143.9,301.2-143.6,301.2-143.6,301.4L-143.6,301.4z
					"/>
				<path id="XMLID_1761_" class="st4" d="M-143.1,302.6c-0.2,0-0.3,0-0.3-0.2c-0.3-0.2-0.6-0.5-0.9-0.8c-0.2-0.2-0.2-0.3-0.2-0.3
					c0-0.2,0-0.3,0.2-0.3c0.2-0.2,0.5-0.3,0.8,0l0,0c0-0.2,0-0.2,0-0.3c-0.6-1.7-1.9-2.8-3.6-3.3c-0.2,0-0.3,0-0.3-0.2
					c-0.2-0.2-0.2-0.3-0.2-0.6c0.2-0.2,0.3-0.3,0.6-0.3c1.1,0.2,1.9,0.6,2.6,1.2c0.9,0.8,1.7,1.9,1.9,3.1l0,0
					c0.2-0.2,0.5-0.3,0.8-0.2c0.2,0.2,0.3,0.5,0,0.6c-0.3,0.3-0.6,0.6-0.8,0.9C-142.8,302.6-142.8,302.6-143.1,302.6z M-144.2,301.2
					C-144.2,301.2-144.4,301.2-144.2,301.2c-0.2,0.2-0.2,0.2-0.2,0.2s0,0.2,0.2,0.2c0.3,0.3,0.6,0.5,0.9,0.8c0.2,0.2,0.2,0.2,0.3,0
					c0.3-0.3,0.5-0.6,0.8-0.9c0,0,0.2-0.2,0-0.3c-0.2-0.2-0.3,0-0.3,0l-0.2,0.2l-0.3,0.3l-0.2-0.3l0,0c0,0,0,0,0-0.2
					c-0.3-1.2-0.9-2.3-1.9-3.1c-0.8-0.6-1.6-0.9-2.5-1.2c-0.2,0-0.2,0-0.2,0.2c0,0.2,0,0.2,0,0.2s0.2,0,0.2,0.2
					c1.9,0.5,3.3,1.6,3.9,3.4c0,0.2,0.2,0.3,0.2,0.5v0.2v0.2h-0.2l0,0h-0.2c0,0-0.2,0-0.2-0.2L-144.2,301.2
					C-144.1,301.2-144.2,301.2-144.2,301.2z"/>
			</g>
			<g id="XMLID_1755_">
				<path id="XMLID_1759_" class="st2" d="M-149.3,297.3c-0.6,0.2-1.2,0.3-1.7,0.6c-1.2,0.8-2,1.7-2.5,3.1c0,0.2,0,0.2-0.2,0.3
					c-0.2,0.2-0.3,0.2-0.5,0.2s-0.2-0.2-0.2-0.3c0.2-0.8,0.5-1.6,1.1-2.3c0.9-1.1,2-1.9,3.6-2l0,0l0,0c-0.2,0-0.2-0.2-0.3-0.2
					c-0.2-0.2-0.2-0.3-0.2-0.5c0.2-0.2,0.3-0.2,0.5,0c0.3,0.3,0.6,0.5,0.9,0.8c0.3,0.2,0.3,0.3,0,0.6c-0.3,0.3-0.5,0.6-0.8,0.9
					c0,0.2-0.3,0.2-0.3,0.2c-0.2,0-0.2-0.2-0.3-0.3c0-0.2,0-0.2,0-0.3C-149.7,297.6-149.5,297.5-149.3,297.3z"/>
				<path id="XMLID_1756_" class="st4" d="M-154,301.5h-0.2c-0.2-0.2-0.3-0.3-0.3-0.6c0.2-0.9,0.6-1.7,1.1-2.3c0.9-1.1,2-1.9,3.4-2
					l0,0c-0.3-0.2-0.3-0.5-0.2-0.8c0.2-0.2,0.2-0.2,0.3-0.2c0.2,0,0.3,0,0.5,0.2c0.3,0.3,0.6,0.5,0.9,0.8c0.3,0.3,0.3,0.5,0,0.8
					l-0.2,0.2c-0.2,0.2-0.3,0.5-0.6,0.6c-0.2,0.2-0.3,0.2-0.5,0.2s-0.3-0.2-0.3-0.3c0-0.2,0-0.3,0.2-0.5l0,0
					c-0.5,0.2-0.9,0.3-1.2,0.5c-1.2,0.6-2,1.7-2.3,3.1c0,0.2,0,0.2-0.2,0.3C-153.7,301.5-153.7,301.5-154,301.5z M-149.7,295.9
					L-149.7,295.9C-149.7,295.9-149.8,295.9-149.7,295.9c-0.2,0.2-0.2,0.3,0,0.3l0.2,0.2l0.3,0.2l-0.2,0.2l0,0c0,0,0,0-0.2,0
					c-1.4,0.3-2.5,0.9-3.4,2c-0.5,0.6-0.9,1.4-1.1,2.2c0,0.2,0,0.2,0.2,0.2s0.2,0,0.2,0s0-0.2,0.2-0.2c0.3-1.4,1.2-2.5,2.5-3.3
					c0.6-0.3,1.1-0.5,1.9-0.6h0.5l-0.3,0.3l-0.2,0.2c0,0.2-0.2,0.2-0.2,0.2c0,0.2,0,0.2,0,0.2l0.2,0.2h0.2c0.2-0.2,0.5-0.5,0.6-0.6
					l0.2-0.2c0.2-0.2,0.2-0.2,0-0.3c-0.3-0.2-0.6-0.5-0.9-0.8C-149.5,295.9-149.7,295.9-149.7,295.9z"/>
			</g>
			<g id="XMLID_1750_">
				<path id="XMLID_1754_" class="st2" d="M-147.5,306.9c2-0.5,3.4-1.7,4-3.6c0.2-0.3,0.2-0.5,0.5-0.5c0.3,0,0.3,0.3,0.2,0.6
					c-0.6,2.2-2,3.6-4.4,4c0,0-0.2,0-0.3,0c0.2,0.2,0.2,0.2,0.3,0.3c0.2,0.2,0.2,0.3,0.2,0.5c-0.2,0.2-0.3,0.2-0.5,0
					c-0.3-0.3-0.6-0.5-0.9-0.8c-0.2-0.2-0.2-0.3,0-0.5c0.3-0.3,0.5-0.6,0.8-0.9c0.2-0.2,0.3-0.2,0.5,0c0.2,0.2,0.2,0.3,0,0.5
					C-147.5,306.6-147.5,306.6-147.5,306.9C-147.5,306.8-147.5,306.8-147.5,306.9z"/>
				<path id="XMLID_1751_" class="st4" d="M-147.5,308.7c-0.2,0-0.3,0-0.3-0.2c-0.3-0.3-0.6-0.5-0.9-0.8c-0.3-0.2-0.3-0.5,0-0.6
					c0.3-0.3,0.6-0.6,0.8-0.9c0.2-0.2,0.2-0.2,0.3-0.2c0.2,0,0.3,0,0.3,0.2c0.2,0.2,0.2,0.5,0.2,0.6c1.7-0.5,3-1.7,3.4-3.4
					c0-0.2,0.2-0.6,0.6-0.5c0.2,0,0.3,0.2,0.3,0.2c0.2,0.2,0.2,0.3,0,0.6c-0.6,2.2-2.2,3.6-4.4,4.2c0,0,0,0,0.2,0.2
					c0.3,0.2,0.3,0.5,0.2,0.6C-147.2,308.5-147.3,308.7-147.5,308.7z M-147.5,306.2L-147.5,306.2c0,0-0.2,0-0.2,0.2
					c-0.3,0.3-0.5,0.6-0.8,0.9c-0.2,0.2-0.2,0.2,0,0.3c0.3,0.3,0.6,0.5,0.9,0.8c0,0,0.2,0.2,0.3,0c0,0,0.2-0.2,0-0.3l-0.2-0.2
					l-0.3-0.3l0.5-0.2c2.2-0.5,3.6-1.9,4.2-4c0-0.2,0-0.3,0-0.3s0,0-0.2,0s-0.2,0-0.3,0.3c-0.6,2-2,3.3-4,3.7l-0.5,0.2l0.3-0.3
					c0,0,0,0,0.2-0.2l0,0c0,0,0,0,0-0.2C-147.5,306.5-147.5,306.3-147.5,306.2L-147.5,306.2z"/>
			</g>
		</g>
		<g id="XMLID_1704_">
			<g id="XMLID_1747_">
				<path id="XMLID_1748_" class="st4" d="M-140.5,302.1L-140.5,302.1C-140.5,302.1-140.5,302-140.5,302.1L-140.5,302.1
					C-140.5,302-140.5,302.1-140.5,302.1z"/>
			</g>
			<g id="XMLID_1707_">
				<path id="XMLID_1708_" class="st4" d="M-148.6,309.4c-0.2,0-0.2,0-0.3,0v-0.2C-148.7,309.4-148.6,309.4-148.6,309.4
					L-148.6,309.4z M-148.3,309.4L-148.3,309.4c0.2-0.2,0.2-0.2,0.3-0.2v0.2C-147.9,309.4-148.1,309.4-148.3,309.4z M-149,309.4
					c-0.2,0-0.2,0-0.3,0v-0.2C-149.3,309.3-149,309.3-149,309.4L-149,309.4z M-147.5,309.4L-147.5,309.4c0.2-0.2,0.2-0.2,0.3-0.2
					v0.2C-147.3,309.4-147.5,309.4-147.5,309.4z M-149.8,309.3c-0.2,0-0.2,0-0.3,0v-0.2C-149.8,309.3-149.8,309.3-149.8,309.3
					L-149.8,309.3z M-147,309.3L-147,309.3c0.2-0.2,0.2-0.2,0.3-0.2v0.2C-146.7,309.3-146.7,309.3-147,309.3z M-150.3,309.3
					c-0.2,0-0.2,0-0.3-0.2V309C-150.6,309.1-150.4,309.1-150.3,309.3L-150.3,309.3z M-146.4,309.3L-146.4,309.3
					c0-0.2,0.2-0.2,0.3-0.2v0.2C-145.9,309.1-146.2,309.1-146.4,309.3z M-150.9,309c-0.2,0-0.2,0-0.3-0.2v-0.2
					C-151.1,308.8-151.1,309-150.9,309L-150.9,309z M-145.8,309L-145.8,309c0-0.2,0.2-0.2,0.3-0.2v0.2
					C-145.6,309-145.6,309-145.8,309z M-151.4,308.8c-0.2,0-0.2-0.2-0.3-0.2v-0.2C-151.7,308.7-151.4,308.7-151.4,308.8
					L-151.4,308.8z M-145.1,308.8L-145.1,308.8c0-0.2,0.2-0.2,0.3-0.2v0.2C-145,308.7-145.1,308.8-145.1,308.8z M-152.1,308.5
					c-0.2,0-0.2-0.2-0.3-0.2v-0.2C-152.1,308.3-152.1,308.3-152.1,308.5L-152.1,308.5z M-144.7,308.5L-144.7,308.5
					c0-0.2,0.2-0.2,0.2-0.3v0.2C-144.4,308.5-144.4,308.5-144.7,308.5z M-144.1,308.2L-144.1,308.2c0-0.2,0.2-0.2,0.2-0.3v0.2
					C-143.9,308.2-144.1,308.2-144.1,308.2z M-152.6,308.2c-0.2,0-0.2-0.2-0.3-0.2v-0.2C-152.8,308-152.6,308-152.6,308.2
					L-152.6,308.2z M-143.6,307.9L-143.6,307.9c0-0.2,0.2-0.2,0.2-0.3l0,0C-143.4,307.7-143.4,307.9-143.6,307.9z M-152.9,307.9
					c-0.2,0-0.2-0.2-0.3-0.2l0,0C-153.2,307.7-152.9,307.7-152.9,307.9L-152.9,307.9z M-143.1,307.4L-143.1,307.4
					c0-0.2,0.2-0.2,0.2-0.3l0,0C-142.8,307.4-142.8,307.4-143.1,307.4z M-153.5,307.4l-0.2-0.2l0,0L-153.5,307.4L-153.5,307.4z
					 M-142.7,307.1L-142.7,307.1c0-0.2,0-0.2,0.2-0.3h0.2C-142.5,306.9-142.7,306.9-142.7,307.1z M-154,307.1l-0.2-0.2L-154,307.1
					C-154.2,306.8-154,306.9-154,307.1L-154,307.1z M-142,306.6L-142,306.6c0-0.2,0-0.2,0.2-0.3h0.2C-142,306.5-142,306.5-142,306.6
					z M-154.5,306.6c0-0.2-0.2-0.2-0.2-0.3h0.2C-154.5,306.3-154.5,306.5-154.5,306.6L-154.5,306.6z M-141.9,306.2L-141.9,306.2
					c0-0.2,0-0.2,0.2-0.3h0.2C-141.7,306-141.9,306-141.9,306.2z M-154.8,306.2c0-0.2-0.2-0.2-0.2-0.3h0.2
					C-154.8,305.9-154.8,306-154.8,306.2L-154.8,306.2z M-155.1,305.5c0-0.2-0.2-0.2-0.2-0.3h0.2
					C-155.1,305.4-155.1,305.4-155.1,305.5L-155.1,305.5z M-141.6,305.5L-141.6,305.5c0-0.2,0-0.2,0-0.3h0.2
					C-141.3,305.4-141.6,305.5-141.6,305.5z M-155.3,305.1c0-0.2-0.2-0.2-0.2-0.3h0.2C-155.3,304.8-155.3,304.9-155.3,305.1
					L-155.3,305.1z M-141.3,305.1L-141.3,305.1c0-0.2,0-0.2,0-0.3h0.2C-141.3,304.9-141.3,304.9-141.3,305.1z M-155.7,304.5
					c0-0.2,0-0.2-0.2-0.3h0.2C-155.6,304.3-155.6,304.3-155.7,304.5L-155.7,304.5z M-141.1,304.5L-141.1,304.5c0-0.2,0-0.2,0-0.3
					h0.2C-140.9,304.3-140.9,304.5-141.1,304.5z M-155.9,304c0-0.2,0-0.2,0-0.3h0.2C-155.7,303.7-155.7,303.8-155.9,304L-155.9,304z
					 M-140.8,304L-140.8,304c0-0.2,0-0.2,0-0.3h0.2C-140.8,303.7-140.8,303.8-140.8,304z M-156,303.4c0-0.2,0-0.2,0-0.3h0.2
					C-155.9,303.1-155.9,303.2-156,303.4L-156,303.4z M-140.8,303.4L-140.8,303.4c-0.2-0.2,0-0.2,0-0.3h0.2
					C-140.5,303.1-140.5,303.2-140.8,303.4z M-156,302.8c0-0.2,0-0.2,0-0.3h0.2C-156,302.6-156,302.6-156,302.8L-156,302.8z
					 M-140.5,302.8L-140.5,302.8c-0.2-0.2-0.2-0.2-0.2-0.3h0.2C-140.5,302.6-140.5,302.6-140.5,302.8z"/>
			</g>
			<g id="XMLID_1705_">
				<path id="XMLID_1706_" class="st4" d="M-156,302.1C-156,302.1-156,302-156,302.1L-156,302.1C-156,302-156,302.1-156,302.1
					L-156,302.1z"/>
			</g>
		</g>
		<g id="XMLID_1702_">
			<ellipse id="XMLID_1703_" class="st3" cx="-156" cy="300.6" rx="0.5" ry="0.5"/>
		</g>
		<g id="XMLID_1700_">
			<ellipse id="XMLID_1701_" class="st3" cx="-140.9" cy="300.6" rx="0.5" ry="0.5"/>
		</g>
		<g id="XMLID_1661_">
			<g id="XMLID_1689_">
				<g id="XMLID_1695_">
					<g id="XMLID_1696_">
						<path id="XMLID_1697_" class="st2" d="M-151.4,301.7c0.2,0,0.3-0.2,0.3-0.3c0-0.2,0,0,0,0v-1.1c0,0,0,0.6,0,1.1l0,0
							c0-0.3,0-1.1,0-1.1s0,0.6,0,0.9l0,0c0-0.3,0-0.9,0-0.9s0,0.6,0,1.1l0,0c0-0.3,0-1.1,0-1.1s0,0.9,0,1.1
							C-151.8,301.5-151.7,301.7-151.4,301.7 M-151.4,301.5c-0.2,0-0.2-0.2-0.2-0.2l0,0c0.2,0,0.3,0.2,0.5,0.2
							C-151.4,301.5-151.4,301.5-151.4,301.5z"/>
					</g>
				</g>
				<g id="XMLID_1690_">
					<g id="XMLID_1691_">
						<path id="XMLID_1692_" class="st2" d="M-151.4,301.7h-0.2c0,0.2,0,1.2,0,1.6c0,0.5,0,1.1,0.2,1.1s0.2-0.6,0.2-1.1
							C-151.4,302.9-151.4,301.8-151.4,301.7z M-151.4,303.8c0,0.2,0,0.3,0,0.3S-151.4,304-151.4,303.8c-0.2-0.2-0.2-0.3,0-0.6l0,0
							l0,0c0-0.2,0-0.3,0-0.5c0,0.2,0,0.3,0,0.5l0,0l0,0C-151.4,303.5-151.4,303.7-151.4,303.8z"/>
					</g>
				</g>
			</g>
			<g id="XMLID_1684_">
				<path id="XMLID_1685_" class="st2" d="M-145,303.2c0-0.2,0-0.8,0-0.8v-2l0,0c0,0-0.2,0-0.2,0.2c-0.2,0.3-0.2,1.7-0.2,1.7
					c0.2,0,0.2,0.2,0.2,0.3c0,0.3,0,0.6,0,0.8c0,0.5,0,1.1,0.2,1.1C-145,304.3-145,303.7-145,303.2z M-145.1,302.1
					c0-0.5,0-1.2,0.2-1.6l0,0L-145.1,302.1L-145.1,302.1z M-145.1,303.8c0,0.2,0,0.3,0,0.3S-145.1,304-145.1,303.8
					c-0.2-0.2-0.2-0.3,0-0.6l0,0l0,0c0-0.2,0-0.3,0-0.5c0,0.2,0,0.3,0,0.5l0,0l0,0C-145.1,303.5-145.1,303.7-145.1,303.8z"/>
			</g>
			<g id="XMLID_1662_">
				<g id="XMLID_1677_">
					<g id="XMLID_1682_">
						<path id="XMLID_1683_" class="st2" d="M-149.8,303.1c0.2,0.3,0.3,0.6,0.6,0.8l0,0l0,0v-0.2
							C-149.7,303.5-149.8,303.4-149.8,303.1C-149.8,302.9-149.8,302.9-149.8,303.1C-149.8,302.9-149.8,303.1-149.8,303.1z"/>
					</g>
					<g id="XMLID_1678_">
						<path id="XMLID_1679_" class="st2" d="M-145.9,302.4h-4.7c-0.2,0-0.2,0-0.2,0.2c0,0.2,0,0.2,0.2,0.2l0,0
							c0,0.8,0.6,1.6,1.6,1.6h1.4c0.8,0,1.6-0.8,1.6-1.6l0,0C-145.9,302.6-145.8,302.6-145.9,302.4
							C-145.8,302.4-145.9,302.4-145.9,302.4z M-147.5,304.1h-1.4c-0.8,0-1.2-0.8-1.4-1.4h4.2C-146.2,303.4-146.7,304.1-147.5,304.1
							z"/>
					</g>
				</g>
				<g id="XMLID_1670_">
					<g id="XMLID_1675_">
						<path id="XMLID_1676_" class="st2" d="M-149.7,301.5c0.2,0.3,0.3,0.5,0.5,0.6l0,0l0,0c0,0,0,0,0-0.2
							C-149,302-149.5,301.7-149.7,301.5C-149.5,301.5-149.5,301.5-149.7,301.5L-149.7,301.5z"/>
					</g>
					<g id="XMLID_1671_">
						<path id="XMLID_1672_" class="st2" d="M-146.4,301h-3.7c0,0-0.2,0-0.2,0.2c0,0.2,0,0.2,0.2,0.2l0,0c0,0.6,0.5,1.2,1.2,1.2h1.2
							c0.6,0,1.2-0.6,1.2-1.2l0,0C-146.4,301.2-146.2,301.2-146.4,301C-146.2,301-146.4,301-146.4,301z M-147.5,302.4h-1.2
							c-0.6,0-1.1-0.6-1.1-1.1h3.4C-146.5,301.8-147,302.4-147.5,302.4z"/>
					</g>
				</g>
				<g id="XMLID_1663_">
					<g id="XMLID_1668_">
						<path id="XMLID_1669_" class="st2" d="M-149.3,300.4c0,0.2,0.3,0.5,0.5,0.5l0,0l0,0l0,0C-149,300.7-149,300.6-149.3,300.4
							C-149,300.3-149.3,300.3-149.3,300.4C-149.3,300.3-149.3,300.3-149.3,300.4z"/>
					</g>
					<g id="XMLID_1664_">
						<path id="XMLID_1665_" class="st2" d="M-146.7,300h-3c0,0-0.2,0-0.2,0.2c0,0,0,0.2,0.2,0.2l0,0c0,0.5,0.5,1.1,0.9,1.1h0.9
							c0.5,0,0.9-0.5,0.9-1.1l0,0C-146.7,300.1-146.7,300.1-146.7,300L-146.7,300z M-147.8,301h-0.9c-0.5,0-0.8-0.5-0.9-0.9h2.6
							C-147,300.6-147.3,301-147.8,301z"/>
					</g>
				</g>
			</g>
		</g>
	</g>
	<g id="XMLID_1636_">
		<g id="XMLID_1637_">
			<path id="XMLID_1642_" class="st0" d="M-131,272.4c0-0.2-0.2-0.3-0.2-0.5c-0.5-2-0.9-4-1.6-6.1c-1.1-3.9-3.6-6.5-7.5-7.8
				c-1.6-0.5-3.1-0.9-4.5-1.4c-0.2,0-0.5-0.2-0.6-0.2c0.2-0.2,0.3-0.3,0.5-0.3c1.6-0.5,3.1-0.9,4.7-1.4c3.9-1.2,6.4-3.7,7.5-7.8
				c0.6-2,1.1-4.2,1.6-6.2c0-0.2,0.2-0.3,0.2-0.5c0.2,0.3,0.3,0.5,0.3,0.6c0.5,1.9,0.9,3.9,1.4,5.8c1.1,3.9,3.6,6.7,7.5,7.9
				c1.6,0.5,3,0.9,4.5,1.2c0.3,0,0.5,0.2,0.8,0.3c-0.2,0.3-0.3,0.3-0.5,0.3c-1.4,0.5-3,0.8-4.4,1.2c-3.1,1.1-5.8,2.8-7,5.9
				c-0.8,2.2-1.4,4.4-2,6.5C-130.5,270.9-130.7,271.7-131,272.4C-130.8,272.4-131,272.4-131,272.4z M-130.1,267.6
				c0.6-1.7,1.1-3.4,2-5.1c1.4-2.8,4-4,6.8-5c1.2-0.3,2.3-0.8,3.7-1.1c-1.1-0.3-1.9-0.5-2.8-0.8c-2-0.6-3.9-1.4-5.4-2.6
				c-1.9-1.4-3-3.4-3.6-5.6c-0.5-1.7-0.9-3.4-1.4-5.1c0-0.2-0.2-0.3-0.2-0.6c-0.3,1.6-0.8,3-1.1,4.4c-0.6,2-1.4,4-2.8,5.8
				c-1.7,2-4,3-6.4,3.7c-0.9,0.3-2,0.6-3.1,0.9c0.6,0.2,1.1,0.3,1.4,0.5c1.6,0.6,3.3,1.1,4.8,1.7c3.1,1.4,4.8,3.9,5.8,7
				c0.6,1.9,1.1,3.7,1.6,5.6C-130.7,269.9-130.4,268.7-130.1,267.6z"/>
			<path id="XMLID_5_" class="st0" d="M-131,270.3c0-0.2-0.2-0.3-0.2-0.5c-0.5-1.7-0.8-3.4-1.4-5.3c-0.9-3.4-3.1-5.6-6.5-6.7
				c-1.4-0.5-2.6-0.8-3.9-1.2c-0.2,0-0.5-0.2-0.5-0.2c0.2-0.2,0.3-0.3,0.5-0.3c1.4-0.5,2.6-0.8,4-1.2c3.4-1.1,5.4-3.3,6.5-6.7
				c0.5-1.7,0.9-3.6,1.4-5.4c0-0.2,0.2-0.3,0.2-0.5c0.2,0.3,0.3,0.5,0.3,0.5c0.5,1.6,0.8,3.4,1.2,5c0.9,3.4,3.1,5.8,6.5,6.8
				c1.4,0.5,2.5,0.8,3.9,1.1c0.3,0,0.5,0.2,0.6,0.3c-0.2,0.3-0.3,0.3-0.5,0.3c-1.2,0.5-2.5,0.6-3.7,1.1c-2.6,0.9-5,2.5-6.1,5.1
				c-0.6,1.9-1.2,3.7-1.7,5.6C-130.4,268.9-130.7,269.6-131,270.3C-130.8,270.3-131,270.3-131,270.3z M-130.2,266.1
				c0.5-1.6,0.9-3,1.7-4.5c1.2-2.5,3.4-3.4,5.9-4.4c1.1-0.3,2-0.6,3.3-0.9c-0.9-0.3-1.6-0.5-2.5-0.6c-1.7-0.5-3.4-1.2-4.7-2.3
				c-1.6-1.2-2.5-3-3.1-4.8c-0.5-1.6-0.8-3-1.2-4.5c0-0.2-0.2-0.3-0.2-0.5c-0.3,1.4-0.6,2.5-0.9,3.7c-0.5,1.7-1.2,3.4-2.5,5
				c-1.6,1.7-3.4,2.5-5.4,3.3c-0.8,0.3-1.7,0.5-2.6,0.8c0.5,0.2,0.9,0.3,1.2,0.5c1.4,0.5,2.8,0.9,4.2,1.6c2.6,1.2,4.2,3.4,5,6.1
				c0.5,1.6,0.9,3.3,1.4,4.8C-130.7,268.1-130.4,267-130.2,266.1z"/>
			<path id="XMLID_6_" class="st0" d="M-131,268.1c0-0.2-0.2-0.2-0.2-0.3c-0.3-1.4-0.6-3-1.1-4.4c-0.8-2.8-2.6-4.8-5.4-5.6
				c-1.1-0.3-2.3-0.6-3.3-1.1c-0.2,0-0.3-0.2-0.5-0.2c0.2-0.2,0.2-0.2,0.3-0.2c1.1-0.3,2.3-0.6,3.4-1.1c2.8-0.9,4.7-2.8,5.4-5.6
				c0.5-1.4,0.8-3.1,1.1-4.5c0-0.2,0.2-0.2,0.2-0.3c0.2,0.2,0.2,0.3,0.2,0.5c0.3,1.4,0.6,2.8,1.1,4.2c0.8,2.8,2.6,4.8,5.4,5.8
				c1.1,0.3,2.2,0.6,3.3,0.9c0.2,0,0.3,0.2,0.6,0.2c-0.2,0.2-0.2,0.2-0.3,0.2c-1.1,0.3-2.2,0.6-3.1,0.9c-2.3,0.8-4.2,2-5.1,4.4
				c-0.6,1.6-1.1,3.1-1.4,4.8C-130.7,267-130.8,267.5-131,268.1C-130.8,268.1-131,268.1-131,268.1z M-130.4,264.5
				c0.5-1.2,0.8-2.5,1.4-3.7c1.1-2,3-3,5-3.6c0.9-0.2,1.7-0.6,2.8-0.8c-0.8-0.2-1.4-0.3-2-0.6c-1.4-0.5-2.8-1.1-4-1.9
				c-1.4-1.1-2.2-2.5-2.6-4c-0.3-1.2-0.6-2.5-1.1-3.7c0-0.2-0.2-0.2-0.2-0.5c-0.2,1.1-0.6,2.2-0.8,3.1c-0.5,1.4-1.1,3-2,4.2
				c-1.2,1.4-3,2.2-4.7,2.8c-0.6,0.2-1.4,0.5-2.3,0.6c0.5,0.2,0.8,0.2,1.1,0.3c1.1,0.5,2.3,0.8,3.6,1.2c2.3,1.1,3.6,2.8,4.2,5.1
				c0.5,1.4,0.8,2.8,1.1,4C-130.8,266.2-130.4,265.3-130.4,264.5z"/>
			<path id="XMLID_1639_" class="st0" d="M-117.5,251.3c-0.2-0.5-0.3-1.1-0.3-1.6c-0.6-3.6-2.5-5.8-6.1-6.4c-0.2,0-0.2,0-0.3-0.2
				c-0.3-0.2-0.6-0.2-0.9-0.3v-0.2c0.2,0,0.5-0.2,0.6-0.2c0.9-0.3,1.7-0.5,2.6-0.8c1.7-0.6,2.8-1.7,3.3-3.4c0.3-1.1,0.6-2,0.8-3.1
				c0.2-0.3,0.2-0.6,0.3-0.9c0.2,0.2,0.2,0.2,0.2,0.2c0.2,0.5,0.2,0.9,0.3,1.4c0.6,3.4,2.2,5.9,5.8,6.5c0.3,0,0.6,0.2,0.9,0.3
				c0.2,0,0.3,0.2,0.5,0.2c-0.8,0.3-1.6,0.6-2.3,0.8c-2.2,0.6-3.7,1.9-4.4,4c-0.3,0.9-0.5,1.9-0.8,3
				C-117.3,251-117.5,251.1-117.5,251.3C-117.3,251.3-117.5,251.3-117.5,251.3z M-115.4,240.4c-1.1-1.4-1.6-3.1-2-4.8
				c-0.5,3.9-2.5,6.5-6.7,7.2c4.2,0.6,6.1,3.3,6.7,7.2c0.6-3.9,2.5-6.5,6.7-7.2C-112.5,242.3-114.2,241.8-115.4,240.4z"/>
			<path id="XMLID_1638_" class="st0" d="M-120.3,269c0.6-0.6,0.8-1.7,1.1-2.6c0.3,0.9,0.5,2,1.1,2.6s1.7,0.9,2.5,1.4
				c-0.8,0.5-1.9,0.8-2.3,1.4c-0.6,0.6-0.8,1.7-1.1,2.6c-0.3-0.9-0.5-2-1.1-2.6c-0.6-0.6-1.7-0.9-2.5-1.4
				C-122,270.1-120.9,269.8-120.3,269z M-116.2,270.6c-1.6-0.5-2.5-1.2-2.8-2.8c-0.3,1.4-1.2,2.3-2.8,2.8c1.7,0.3,2.5,1.2,2.8,2.8
				C-118.7,271.8-117.9,270.9-116.2,270.6z"/>
			<path id="XMLID_2120_" class="st0" d="M-147.3,245.8c0.6-0.6,0.8-1.7,1.1-2.6c0.3,0.9,0.5,2,1.1,2.6s1.7,0.9,2.5,1.4
				c-0.8,0.5-1.9,0.8-2.3,1.4c-0.6,0.6-0.8,1.7-1.1,2.6c-0.3-0.9-0.5-2-1.1-2.6c-0.6-0.6-1.7-0.9-2.5-1.4
				C-149,246.9-147.9,246.6-147.3,245.8z M-146.2,244.4c-0.3,1.4-1.1,2.3-2.6,2.8c1.4,0.5,2.3,1.4,2.6,2.8c0.3-1.4,1.2-2.3,2.6-2.8
				C-145.1,246.9-145.9,246-146.2,244.4z"/>
		</g>
		<g id="XMLID_7_">
			<path id="XMLID_13_" class="st0" d="M-82.8,289.2c0-0.2-0.2-0.3-0.2-0.5c-0.5-2-0.9-4-1.6-6.1c-1.1-3.9-3.6-6.5-7.5-7.8
				c-1.6-0.5-3.1-0.9-4.5-1.4c-0.2,0-0.5-0.2-0.6-0.2c0.2-0.2,0.3-0.3,0.5-0.3c1.6-0.5,3.1-0.9,4.7-1.4c3.9-1.2,6.4-3.7,7.5-7.8
				c0.6-2,1.1-4.2,1.6-6.2c0-0.2,0.2-0.3,0.2-0.5c0.2,0.3,0.3,0.5,0.3,0.6c0.5,1.9,0.9,3.9,1.4,5.8c1.1,3.9,3.6,6.7,7.5,7.9
				c1.6,0.5,3,0.9,4.5,1.2c0.3,0,0.5,0.2,0.8,0.3c-0.2,0.3-0.3,0.3-0.5,0.3c-1.4,0.5-3,0.8-4.4,1.2c-3.1,1.1-5.8,2.8-7,5.9
				c-0.8,2.2-1.4,4.4-2,6.5C-82.3,287.7-82.5,288.4-82.8,289.2C-82.6,289.2-82.8,289.2-82.8,289.2z M-81.9,284.4
				c0.6-1.7,1.1-3.4,2-5.1c1.4-2.8,4-4,6.8-5c1.2-0.3,2.3-0.8,3.7-1.1c-1.1-0.3-1.9-0.5-2.8-0.8c-2-0.6-3.9-1.4-5.4-2.6
				c-1.9-1.4-3-3.4-3.6-5.6c-0.5-1.7-0.9-3.4-1.4-5.1c0-0.2-0.2-0.3-0.2-0.6c-0.3,1.6-0.8,3-1.1,4.4c-0.6,2-1.4,4-2.8,5.8
				c-1.7,2-4,3-6.4,3.7c-0.9,0.3-2,0.6-3.1,0.9c0.6,0.2,1.1,0.3,1.4,0.5c1.6,0.6,3.3,1.1,4.8,1.7c3.1,1.4,4.8,3.9,5.8,7
				c0.6,1.9,1.1,3.7,1.6,5.6C-82.5,286.7-82.2,285.5-81.9,284.4z"/>
			<path id="XMLID_12_" class="st0" d="M-82.8,287c0-0.2-0.2-0.3-0.2-0.5c-0.5-1.7-0.8-3.4-1.4-5.3c-0.9-3.4-3.1-5.6-6.5-6.7
				c-1.4-0.5-2.6-0.8-3.9-1.2c-0.2,0-0.5-0.2-0.5-0.2c0.2-0.2,0.3-0.3,0.5-0.3c1.4-0.5,2.6-0.8,4-1.2c3.4-1.1,5.4-3.3,6.5-6.7
				c0.5-1.7,0.9-3.6,1.4-5.4c0-0.2,0.2-0.3,0.2-0.5c0.2,0.3,0.3,0.5,0.3,0.5c0.5,1.6,0.8,3.4,1.2,5c0.9,3.4,3.1,5.8,6.5,6.8
				c1.4,0.5,2.5,0.8,3.9,1.1c0.3,0,0.5,0.2,0.6,0.3c-0.2,0.3-0.3,0.3-0.5,0.3c-1.2,0.5-2.5,0.6-3.7,1.1c-2.6,0.9-5,2.5-6.1,5.1
				c-0.6,1.9-1.2,3.7-1.7,5.6C-82.3,285.8-82.5,286.4-82.8,287C-82.6,287-82.8,287-82.8,287z M-82,282.8c0.5-1.6,0.9-3,1.7-4.5
				c1.2-2.5,3.4-3.4,5.9-4.4c1.1-0.3,2-0.6,3.3-0.9c-0.9-0.3-1.6-0.5-2.5-0.6c-1.7-0.5-3.4-1.2-4.7-2.3c-1.6-1.2-2.5-3-3.1-4.8
				c-0.5-1.6-0.8-3-1.2-4.5c0-0.2-0.2-0.3-0.2-0.5c-0.3,1.4-0.6,2.5-0.9,3.7c-0.5,1.7-1.2,3.4-2.5,5c-1.6,1.7-3.4,2.5-5.4,3.3
				c-0.8,0.3-1.7,0.5-2.6,0.8c0.5,0.2,0.9,0.3,1.2,0.5c1.4,0.5,2.8,0.9,4.2,1.6c2.6,1.2,4.2,3.4,5,6.1c0.5,1.6,0.9,3.3,1.4,4.8
				C-82.5,284.9-82.2,283.8-82,282.8z"/>
			<path id="XMLID_11_" class="st0" d="M-82.8,284.9c0-0.2-0.2-0.2-0.2-0.3c-0.3-1.4-0.6-3-1.1-4.4c-0.8-2.8-2.6-4.8-5.4-5.6
				c-1.1-0.3-2.3-0.6-3.3-1.1c-0.2,0-0.3-0.2-0.5-0.2c0.2-0.2,0.2-0.2,0.3-0.2c1.1-0.3,2.3-0.6,3.4-1.1c2.8-0.9,4.7-2.8,5.4-5.6
				c0.5-1.4,0.8-3.1,1.1-4.5c0-0.2,0.2-0.2,0.2-0.3c0.2,0.2,0.2,0.3,0.2,0.5c0.3,1.4,0.6,2.8,1.1,4.2c0.8,2.8,2.6,4.8,5.4,5.8
				c1.1,0.3,2.2,0.6,3.3,0.9c0.2,0,0.3,0.2,0.6,0.2c-0.2,0.2-0.2,0.2-0.3,0.2c-1.1,0.3-2.2,0.6-3.1,0.9c-2.3,0.8-4.2,2-5.1,4.4
				c-0.6,1.6-1.1,3.1-1.4,4.8C-82.5,283.8-82.5,284.4-82.8,284.9C-82.6,284.9-82.8,284.9-82.8,284.9z M-82,281.4
				c0.5-1.2,0.8-2.5,1.4-3.7c1.1-2,3-3,5-3.6c0.9-0.2,1.7-0.6,2.8-0.8c-0.8-0.2-1.4-0.3-2-0.6c-1.4-0.5-2.8-1.1-4-1.9
				c-1.4-1.1-2.2-2.5-2.6-4c-0.3-1.2-0.6-2.5-1.1-3.7c0-0.2-0.2-0.2-0.2-0.5c-0.2,1.1-0.6,2.2-0.8,3.1c-0.5,1.4-1.1,3-2,4.2
				c-1.2,1.4-3,2.2-4.7,2.8c-0.6,0.2-1.4,0.5-2.3,0.6c0.5,0.2,0.8,0.2,1.1,0.3c1.1,0.5,2.3,0.8,3.6,1.2c2.3,1.1,3.6,2.8,4.2,5.1
				c0.5,1.4,0.8,2.8,1.1,4C-82.5,283.2-82.3,282.2-82,281.4z"/>
			<path id="XMLID_10_" class="st0" d="M-69.4,268.1c-0.2-0.5-0.3-1.1-0.3-1.6c-0.6-3.6-2.5-5.8-6.1-6.4c-0.2,0-0.2,0-0.3-0.2
				c-0.3-0.2-0.6-0.2-0.9-0.3v-0.2c0.2,0,0.5-0.2,0.6-0.2c0.9-0.3,1.7-0.5,2.6-0.8c1.7-0.6,2.8-1.7,3.3-3.4c0.3-1.1,0.6-2,0.8-3.1
				c0.2-0.3,0.2-0.6,0.3-0.9c0.2,0.2,0.2,0.2,0.2,0.2c0.2,0.5,0.2,0.9,0.3,1.4c0.6,3.4,2.2,5.9,5.8,6.5c0.3,0,0.6,0.2,0.9,0.3
				c0.2,0,0.3,0.2,0.5,0.2c-0.8,0.3-1.6,0.6-2.3,0.8c-2.2,0.6-3.7,1.9-4.4,4c-0.3,0.9-0.5,1.9-0.8,3c0,0.3-0.2,0.5-0.3,0.8
				C-69.3,268.1-69.4,268.1-69.4,268.1z M-67.4,257.2c-1.1-1.4-1.6-3.1-2-4.8c-0.5,3.9-2.5,6.5-6.7,7.2c4.2,0.6,6.1,3.3,6.7,7.2
				c0.6-3.9,2.5-6.5,6.7-7.2C-64.4,259.1-66.2,258.6-67.4,257.2z"/>
			<path id="XMLID_9_" class="st0" d="M-72.2,285.8c0.6-0.6,0.8-1.7,1.1-2.6c0.3,0.9,0.5,2,1.1,2.6c0.6,0.6,1.7,0.9,2.5,1.4
				c-0.8,0.5-1.9,0.8-2.3,1.4c-0.6,0.6-0.8,1.7-1.1,2.6c-0.3-0.9-0.5-2-1.1-2.6s-1.7-0.9-2.5-1.4C-73.9,286.9-72.8,286.6-72.2,285.8
				z M-68.2,287.4c-1.6-0.5-2.5-1.2-2.8-2.8c-0.3,1.4-1.2,2.3-2.8,2.8c1.7,0.3,2.5,1.2,2.8,2.8C-70.7,288.6-69.9,287.7-68.2,287.4z"
				/>
			<path id="XMLID_8_" class="st0" d="M-99.1,262.6c0.6-0.6,0.8-1.7,1.1-2.6c0.3,0.9,0.5,2,1.1,2.6c0.6,0.6,1.7,0.9,2.5,1.4
				c-0.8,0.5-1.9,0.8-2.3,1.4c-0.6,0.6-0.8,1.7-1.1,2.6c-0.3-0.9-0.5-2-1.1-2.6c-0.6-0.6-1.7-0.9-2.5-1.4
				C-100.8,263.7-99.7,263.4-99.1,262.6z M-98,261.2c-0.3,1.4-1.1,2.3-2.6,2.8c1.4,0.5,2.3,1.4,2.6,2.8c0.3-1.4,1.2-2.3,2.6-2.8
				C-96.9,263.7-97.7,262.8-98,261.2z"/>
		</g>
	</g>
	<g>
		<path class="st0" d="M-213.6,281.1c-2.6,0.3-4.4,2.8-4,5.3c0.3,2.6,2.8,4.4,5.3,4c2.5-0.3,4.4-2.8,4-5.3
			C-208.6,282.7-210.9,280.8-213.6,281.1z M-213.3,282.8L-213.3,282.8c1.7-0.3,3.1,0.9,3.4,2.5c0.3,1.6-0.9,3.1-2.5,3.4
			c-1.7,0.3-3.1-0.9-3.4-2.5C-215.9,284.7-215,283.2-213.3,282.8z"/>
		<path class="st0" d="M-186.3,260.9c0-0.5-0.5-0.8-0.9-0.8c-0.5,0-0.8,0.5-0.8,0.9c0.5,3-0.6,5.8-2.8,7.8c-3.6,3.3-9.2,3-12.4-0.6
			s-3-9.2,0.6-12.4c3.6-3.3,9.2-3,12.4,0.6c0.3,0.3,0.8,0.3,1.2,0c0.3-0.3,0.3-0.8,0-1.2c-1.6-1.7-3.4-2.8-5.6-3.3
			c-5.6-1.1-11.2,2.5-12.4,8.1c-4.5-0.3-8.7,2.6-10,7c-1.6,5.1,1.4,10.6,6.5,12.1c5.1,1.6,10.6-1.4,12.1-6.5c1.1,0.2,2,0.2,3.1,0
			C-189.5,272-185.6,266.7-186.3,260.9z M-199.9,272.4c-1.1,3.4-4.4,5.8-8.1,5.6c-4.4-0.2-7.8-4-7.6-8.4s4-7.8,8.4-7.6
			c0,0.6,0,1.2,0.2,1.9C-206.6,267.9-203.8,271.2-199.9,272.4z"/>
		<path class="st0" d="M-171.3,267.5L-171.3,267.5c-0.5-3.3-3.6-5.6-6.8-5.1c-3.3,0.5-5.6,3.6-5.1,6.8c0.5,3.3,3.6,5.6,6.8,5.1
			C-173.1,273.8-170.8,270.7-171.3,267.5z M-173,267.6L-173,267.6c0.3,2.3-1.2,4.7-3.7,5c-2.5,0.3-4.7-1.2-5-3.7
			c-0.3-2.5,1.2-4.7,3.7-5C-175.5,263.6-173.4,265.3-173,267.6z"/>
		<path class="st0" d="M-219.8,250.7L-219.8,250.7c-0.5-2.8-3-4.7-5.8-4.4c-2.8,0.5-4.7,3-4.4,5.8c0.5,2.8,3,4.7,5.8,4.4
			C-221.3,255.9-219.5,253.5-219.8,250.7z M-225.2,248c1.9-0.3,3.6,1.1,3.7,2.8l0,0c0.3,1.9-1.1,3.6-2.8,3.7
			c-1.9,0.3-3.6-1.1-3.7-2.8C-228.3,250-227.2,248.3-225.2,248L-225.2,248z"/>
		<path class="st0" d="M-177,248.2L-177,248.2c-0.5-2.8-3-4.7-5.8-4.4c-2.8,0.5-4.7,3-4.4,5.8c0.3,2.8,3,4.7,5.8,4.4
			C-178.6,253.5-176.9,250.8-177,248.2z M-182.5,245.5c1.9-0.3,3.6,1.1,3.7,2.8l0,0c0.3,1.9-1.1,3.6-2.8,3.7
			c-1.9,0.3-3.6-1.1-3.7-2.8C-185.6,247.6-184.5,245.8-182.5,245.5L-182.5,245.5z"/>
		<path class="st0" d="M-197.2,257.7c0.5,0,0.8-0.5,0.8-0.9s-0.5-0.8-0.9-0.8c-3.6,0.5-6.1,3.9-5.6,7.5c0,0.5,0.5,0.8,0.9,0.8
			c0.5,0,0.8-0.5,0.8-0.9C-201.9,260.5-200,258-197.2,257.7z"/>
	</g>
</g>
</svg>
