<?xml version="1.0" encoding="utf-8"?>
<!-- Generator: Adobe Illustrator 19.0.0, SVG Export Plug-In . SVG Version: 6.00 Build 0)  -->
<svg version="1.1" id="Layer_1" xmlns="http://www.w3.org/2000/svg" xmlns:xlink="http://www.w3.org/1999/xlink" x="0px" y="0px"
	 viewBox="-255.5 188.3 220 220" style="enable-background:new -255.5 188.3 220 220;" xml:space="preserve">
<style type="text/css">
	.st0{fill:#377438;}
	.st1{fill:#CCE5C7;}
	.st2{fill:#D3E6C7;}
	.st3{fill:#387438;}
	.st4{fill:#387539;}
	.st5{display:none;}
	.st6{display:inline;}
	.st7{fill:#E8E8E8;}
	.st8{fill:#FFFFFF;}
	.st9{fill:#5A5A5A;}
</style>
<g id="step-04">
	<g id="XMLID_772_">
		<g id="XMLID_773_">
			<path id="XMLID_978_" class="st0" d="M-202.6,340.8c3.6,11.7,12.3,21.6,22.6,26c0.4,0.2,0.8,0.2,1,0.2c1,0,2.2-0.6,2.6-1.6
				c0.6-1.4,0-3-1.6-3.6c-8.9-3.8-16.1-12.5-19.4-22.6c-0.4-1.6-2-2.2-3.4-1.8C-202.4,337.7-203,339.4-202.6,340.8z"/>
			<path id="XMLID_975_" class="st0" d="M-68.7,318.2h-152.6c-2.8,0-5,2.2-5,5s2.2,5,5,5h1.4c1.4,26.2,22.6,54.4,50.6,54.4h48.6
				c28,0,49.4-28.2,50.6-54.4h1.4c2.8,0,5-2.2,5-5S-65.9,318.2-68.7,318.2z M-120.6,377.3h-48.6c-24.4,0-43.5-25.6-45-48.6h138.7
				C-77,351.7-96.2,377.3-120.6,377.3z"/>
			<g id="XMLID_774_">
				<g id="XMLID_973_">
					<circle id="XMLID_974_" class="st1" cx="-144.9" cy="352.3" r="10.9"/>
				</g>
				<g id="XMLID_971_">
					<circle id="XMLID_972_" class="st2" cx="-144.9" cy="352.3" r="11.9"/>
				</g>
				<g id="XMLID_969_">
					<circle id="XMLID_970_" class="st3" cx="-144.9" cy="352.3" r="6.5"/>
				</g>
				<g id="XMLID_905_">
					<g id="XMLID_967_">
						<path id="XMLID_968_" class="st3" d="M-154.8,353.1L-154.8,353.1c-0.2,0.2-0.2,0.4,0,0.4s0-0.4,0.4-0.4c0.2,0,0.2,0.2,0.4,0.4
							c0,0.2,0,0.4-0.2,0.4l0,0v-0.2l0,0c0,0,0,0,0-0.2v-0.2c-0.2,0,0,0.4-0.4,0.4C-154.8,353.5-154.8,353.3-154.8,353.1
							C-155,353.1-154.8,352.9-154.8,353.1L-154.8,353.1z"/>
					</g>
					<g id="XMLID_965_">
						<path id="XMLID_966_" class="st3" d="M-154.4,353.9L-154.4,353.9L-154.4,353.9L-154.4,353.9L-154.4,353.9
							C-154,354.1-154.2,354.1-154.4,353.9L-154.4,353.9C-154.2,354.1-154.2,354.1-154.4,353.9L-154.4,353.9l0.4,0.4
							c0,0.2,0,0.2-0.2,0.4l0,0c0.2,0,0.2,0.2,0.2,0.2c0,0.2,0,0.4-0.2,0.4h-0.4l0,0l0,0h-0.2v-0.2v-0.2h0.4c0.2,0,0.2,0,0.2-0.2
							s-0.2-0.2-0.2-0.2s0,0-0.2,0h-0.4v-0.2L-154.4,353.9C-154.4,354.1-154.2,354.1-154.4,353.9
							C-154.2,353.7-154.4,353.7-154.4,353.9C-154.4,353.7-154.4,353.7-154.4,353.9l-0.4-0.2v-0.2L-154.4,353.9z"/>
					</g>
					<g id="XMLID_961_">
						<path id="XMLID_962_" class="st3" d="M-154,356.1L-154,356.1L-154,356.1C-153.8,356.1-153.8,356.1-154,356.1
							C-153.8,355.9-153.8,355.7-154,356.1L-154,356.1v-0.4l0,0c0.2,0,0.2,0.2,0.4,0.2c0.2,0.2,0,0.4-0.2,0.4l-0.4,0.2l0,0l0,0h-0.2
							v-0.2v-0.2l0,0l0,0c0,0-0.2,0-0.2-0.2c0-0.2,0-0.4,0.2-0.4C-154,355.5-154,355.9-154,356.1z M-154.2,356.1
							c0,0.2,0.2,0.2,0.4,0.2l0,0l0,0C-154,355.9-154,355.9-154.2,356.1C-154.2,355.9-154.2,355.9-154.2,356.1z"/>
					</g>
					<g id="XMLID_959_">
						<path id="XMLID_960_" class="st3" d="M-153.2,356.7L-153.2,356.7L-153.2,356.7L-153.2,356.7h0.4v0.2l-0.6,0.4l0,0l0,0h-0.2
							l-0.2-0.2v-0.2L-153.2,356.7z"/>
					</g>
					<g id="XMLID_957_">
						<path id="XMLID_958_" class="st3" d="M-152.8,357.3L-152.8,357.3L-152.8,357.3L-152.8,357.3h0.4v0.2l-0.6,0.4l0,0l0,0
							l-0.2,0.2l-0.2-0.2v-0.2L-152.8,357.3z"/>
					</g>
					<g id="XMLID_955_">
						<path id="XMLID_956_" class="st3" d="M-152.2,358.9L-152.2,358.9L-152.2,358.9c0.2,0.2,0-0.2,0.2-0.4s0.4,0,0.4,0
							s0.2,0.2,0,0.4l0,0l-0.2-0.2l0,0c0,0,0,0,0-0.2h-0.2C-152.2,358.5-152,358.9-152.2,358.9
							C-152.2,359.1-152.4,359.1-152.2,358.9C-152.4,359.1-152.4,358.9-152.2,358.9L-152.2,358.9z"/>
					</g>
					<g id="XMLID_953_">
						<path id="XMLID_954_" class="st3" d="M-151.4,359.5L-151.4,359.5L-151.4,359.5L-151.4,359.5l0.2-0.4l0.2,0.2L-151.4,359.5
							l0.4,0.2l-0.2,0.2L-151.4,359.5v0.4c-0.2,0.2,0,0.2,0,0.2l0,0l-0.2,0.2l0,0C-151.6,360.1-151.6,359.9-151.4,359.5
							L-151.4,359.5z"/>
					</g>
					<g id="XMLID_949_">
						<path id="XMLID_950_" class="st3" d="M-150.4,360.1c0.2,0.2,0.2,0.4,0,0.4l0,0l-0.4-0.4c0,0.2,0,0.2,0,0.4c0.2,0,0.2,0,0.2,0
							v0.2c0,0-0.2,0-0.4-0.2c-0.2-0.2-0.2-0.4-0.2-0.4C-150.6,359.9-150.4,359.9-150.4,360.1z M-150.4,360.3L-150.4,360.3
							L-150.4,360.3L-150.4,360.3z"/>
					</g>
					<g id="XMLID_945_">
						<path id="XMLID_946_" class="st3" d="M-149.6,360.7L-149.6,360.7L-149.6,360.7L-149.6,360.7L-149.6,360.7
							C-149.4,360.5-149.4,360.7-149.6,360.7L-149.6,360.7L-149.6,360.7c0.2,0,0.4,0,0.4,0c0.2,0.2,0.2,0.4,0.2,0.4
							c-0.2,0.2-0.4,0.4-0.4,0.2c-0.2,0-0.2-0.2-0.2-0.2l0,0l0,0l-0.2,0.4l-0.2-0.2L-149.6,360.7z M-149.6,361.1
							c0.2,0,0.2,0,0.4-0.2c0-0.2,0-0.4,0-0.4c-0.2,0-0.2,0-0.4,0.2C-149.6,360.9-149.6,361.1-149.6,361.1z"/>
					</g>
					<g id="XMLID_943_">
						<path id="XMLID_944_" class="st3" d="M-147.8,361.5L-147.8,361.5L-147.8,361.5L-147.8,361.5L-147.8,361.5
							c0-0.4,0.4-0.4,0.4-0.4l0,0v0.2l0,0L-147.8,361.5L-147.8,361.5l0.4-0.2v0.2H-147.8v0.6h-0.2L-147.8,361.5z"/>
					</g>
					<g id="XMLID_939_">
						<path id="XMLID_940_" class="st3" d="M-146.6,361.5c0.2,0,0.4,0.2,0.4,0.4s-0.4,0.4-0.4,0.4c-0.2,0-0.4-0.2-0.4-0.4
							S-146.8,361.5-146.6,361.5z M-146.8,362.1c0.2,0,0.2,0,0.4-0.2c0-0.2,0-0.4-0.2-0.4c-0.2,0-0.2,0-0.4,0.2
							C-146.8,362.1-146.8,362.1-146.8,362.1z"/>
					</g>
					<g id="XMLID_937_">
						<path id="XMLID_938_" class="st3" d="M-145.6,361.9L-145.6,361.9L-145.6,361.9L-145.6,361.9L-145.6,361.9
							c0.2-0.2,0.4-0.2,0.4,0l0,0l0,0l0,0c0-0.2,0.2-0.2,0.4-0.2l0,0v0.2l0,0c0,0-0.2,0-0.2,0.2c0,0,0,0,0,0.2v0.4h-0.2
							L-145.6,361.9z"/>
					</g>
					<g id="XMLID_933_">
						<path id="XMLID_934_" class="st3" d="M-143.5,361.9L-143.5,361.9L-143.5,361.9L-143.5,361.9
							C-143.7,361.7-143.7,361.7-143.5,361.9L-143.5,361.9h-0.4l0,0C-143.7,361.7-143.7,361.7-143.5,361.9c0.4-0.2,0.4,0,0.4,0.2
							v0.4l0,0l0,0v0.2h-0.2h-0.2l0,0l0,0c0,0,0,0.2-0.2,0.2c-0.2,0-0.4,0-0.4-0.2C-143.9,362.1-143.7,362.1-143.5,361.9z
							 M-143.7,362.3C-143.5,362.3-143.5,362.1-143.7,362.3L-143.7,362.3L-143.7,362.3C-143.7,362.1-143.7,362.1-143.7,362.3
							C-143.7,362.1-143.7,362.3-143.7,362.3z"/>
					</g>
					<g id="XMLID_928_">
						<path id="XMLID_929_" class="st3" d="M-141.9,361.3L-141.9,361.3L-141.9,361.3l0.4-0.4c0.2,0,0.4,0,0.4,0.2s0,0.2,0,0.4l0,0
							c0.2,0,0.2,0,0.2,0.2c0,0.2,0,0.4-0.2,0.4l-0.4,0.2h-0.4V361.3z M-141.7,361.5C-141.7,361.5-141.5,361.3-141.7,361.5
							C-141.7,361.3-141.9,361.1-141.7,361.5l-0.4-0.2L-141.7,361.5L-141.7,361.5z M-141.5,361.7L-141.5,361.7
							C-141.3,361.7-141.3,361.5-141.5,361.7c0.2-0.4,0-0.4,0-0.4h-0.2L-141.5,361.7C-141.7,361.7-141.7,361.7-141.5,361.7z"/>
					</g>
					<g id="XMLID_926_">
						<path id="XMLID_927_" class="st3" d="M-140.7,361.5L-140.7,361.5l-0.2-0.6h-0.2v-0.2l0.4-0.2v0.2h-0.2L-140.7,361.5l0.4-0.2
							v0.2H-140.7L-140.7,361.5z"/>
					</g>
					<g id="XMLID_924_">
						<path id="XMLID_925_" class="st3" d="M-139.9,360.1c0.2-0.2,0.4-0.2,0.4-0.2v0.2C-139.5,360.1-139.5,360.1-139.9,360.1
							c0,0.4-0.2,0.4,0,0.6c0.2,0.2,0.4,0.2,0.4,0.2c0.2-0.2,0.2-0.2,0.2-0.2l0,0l0,0l0,0l-0.2-0.2l0.2-0.2h0.2l0.2,0.4l-0.2,0.2
							l0,0l0,0l0,0c0,0,0,0.2-0.2,0.4s-0.4,0.2-0.6-0.2C-140.1,360.5-140.1,360.3-139.9,360.1z"/>
					</g>
					<g id="XMLID_922_">
						<path id="XMLID_923_" class="st3" d="M-138.1,359.1c0,0,0.2-0.2,0.4,0l0,0H-138.1L-138.1,359.1
							C-137.9,359.1-137.9,359.1-138.1,359.1c0,0.2,0,0.4,0.2,0.4c0.2,0.2,0.4,0.2,0.4,0c0.2-0.2,0.2-0.2,0.2-0.2h0.2
							c0,0,0,0.2-0.2,0.4c-0.2,0.2-0.4,0.2-0.4,0C-138.3,359.3-138.3,359.1-138.1,359.1z"/>
					</g>
					<g id="XMLID_920_">
						<path id="XMLID_921_" class="st3" d="M-137.7,358.3L-137.7,358.3L-137.7,358.3L-137.7,358.3L-137.7,358.3L-137.7,358.3h0.4
							l0,0l0,0c0,0,0-0.2,0-0.4c0.2-0.2,0.2-0.2,0.4,0l0.2,0.2l0,0l0,0l0.2,0.2l-0.2,0.2h-0.2l-0.4-0.2H-137.7
							c0.2,0,0.2,0.2,0.2,0.4l0,0l0.4,0.2l-0.2,0.2L-137.7,358.3z"/>
					</g>
					<g id="XMLID_916_">
						<path id="XMLID_917_" class="st3" d="M-136.5,357.3L-136.5,357.3L-136.5,357.3L-136.5,357.3L-136.5,357.3L-136.5,357.3
							l-0.4,0.4l0,0c-0.2,0,0-0.4,0-0.4C-136.5,357.1-136.5,357.1-136.5,357.3h0.4l0,0l0,0h0.2l-0.2,0.2L-136.5,357.3L-136.5,357.3
							L-136.5,357.3c0.2,0.2,0.4,0.4,0.2,0.4c0,0.2-0.2,0.2-0.4,0.2C-136.5,357.5-136.5,357.3-136.5,357.3z M-136.1,357.5
							c0-0.2,0-0.2-0.2-0.4l0,0l0,0C-136.3,357.3-136.5,357.5-136.1,357.5C-136.3,357.5-136.3,357.5-136.1,357.5z"/>
					</g>
					<g id="XMLID_914_">
						<path id="XMLID_915_" class="st3" d="M-136.1,356.5L-136.1,356.5L-136.1,356.5L-136.1,356.5L-136.1,356.5
							C-136.3,356.3-136.1,356.3-136.1,356.5L-136.1,356.5L-136.1,356.5L-136.1,356.5c0-0.2-0.2-0.4,0-0.4c0-0.2,0.2-0.2,0.4-0.2
							l0.4,0.2l0,0l0,0h0.2v0.2c0,0,0,0-0.2,0l-0.4-0.2c-0.2,0-0.2,0-0.2,0C-135.9,356.1-135.9,356.1-136.1,356.5
							c0.2-0.2,0.2-0.2,0.4-0.2l0.4,0.2v0.2L-136.1,356.5z"/>
					</g>
					<g id="XMLID_910_">
						<path id="XMLID_911_" class="st3" d="M-135.7,354.9C-135.7,354.9-135.5,354.9-135.7,354.9L-135.7,354.9L-135.7,354.9
							c0.2-0.2,0.2-0.2,0.2-0.4v-0.2h0.2l0,0l0,0l0.4,0.2c0.4,0,0.4,0.4,0.2,0.4c0,0.2,0,0.2-0.2,0.2l-0.2-0.2c0,0,0,0,0.2-0.2
							c0-0.2,0-0.2-0.2-0.4l0,0l0,0l0,0v0.2C-135.1,354.9-135.3,355.1-135.7,354.9C-135.7,355.3-135.9,355.1-135.7,354.9z
							 M-135.3,354.9c-0.2,0-0.2,0-0.4,0.2c0,0.2,0,0.2,0.2,0.2C-135.3,355.1-135.3,355.1-135.3,354.9
							C-135.1,354.9-135.3,354.9-135.3,354.9z"/>
					</g>
					<g id="XMLID_906_">
						<path id="XMLID_907_" class="st3" d="M-135.5,353.7c0-0.2,0.2-0.4,0.4-0.4l0,0v0.4c0.2,0,0.2-0.2,0.2-0.2c0-0.2,0-0.2,0-0.2
							h0.2c0,0,0.2,0.2,0,0.4c0,0.4-0.2,0.4-0.4,0.4C-135.3,354.1-135.5,353.9-135.5,353.7z M-135.3,353.7L-135.3,353.7
							c-0.2,0.4-0.2,0.4,0,0.4V353.7z"/>
					</g>
				</g>
				<g id="XMLID_880_">
					<g id="XMLID_903_">
						<path id="XMLID_904_" class="st3" d="M-152.8,347.2l0.2-0.4l0.6,0.4c0,0.2,0,0.4,0,0.4c0,0.2,0,0.4-0.2,0.4
							c-0.2,0.2-0.2,0.4-0.4,0.4c-0.2,0.2-0.4,0.2-0.4,0.2c-0.2,0-0.4,0-0.4-0.2c-0.2-0.2-0.4-0.2-0.4-0.4s-0.2-0.4-0.2-0.4
							c0-0.2,0-0.4,0.2-0.4c0-0.2,0.2-0.4,0.4-0.4c0.2-0.2,0.2-0.2,0.4-0.2l0.2,0.4c-0.2,0-0.4,0.2-0.4,0.4c0,0.2-0.2,0.2-0.2,0.4
							s0,0.2,0,0.4s0.2,0.2,0.2,0.2c0.2,0,0.2,0.2,0.4,0.2c0.2,0,0.2,0,0.4,0c0.2,0,0.2-0.2,0.2-0.2c0-0.2,0.2-0.2,0.2-0.4
							L-152.8,347.2z"/>
					</g>
					<g id="XMLID_899_">
						<path id="XMLID_900_" class="st3" d="M-151,346.2c-0.2,0-0.4,0-0.4,0s-0.4-0.2-0.4-0.4c-0.2-0.2-0.2-0.4-0.2-0.4
							c0-0.2,0-0.4,0-0.4c0-0.2,0.2-0.4,0.4-0.4c0.2-0.2,0.4-0.2,0.4-0.4c0.2,0,0.4,0,0.4,0s0.4,0.2,0.4,0.4
							c0.2,0.2,0.2,0.4,0.2,0.4c0,0.2,0,0.4,0,0.4c0,0.2-0.2,0.4-0.4,0.4C-150.8,346.2-151,346.2-151,346.2z M-150.8,345.6
							c0-0.2,0-0.2,0-0.4s0-0.2-0.2-0.4c0,0-0.2-0.2-0.4-0.2c-0.2,0-0.2,0-0.4,0c-0.2,0-0.2,0-0.4,0.2c0,0-0.2,0.2-0.2,0.4
							s0,0.2,0,0.4c0,0.2,0,0.2,0.2,0.4c0,0,0.2,0.2,0.4,0.2c0.2,0,0.2,0,0.4,0c0.2,0,0.2,0,0.4-0.2
							C-151,345.6-150.8,345.6-150.8,345.6z"/>
					</g>
					<g id="XMLID_897_">
						<path id="XMLID_898_" class="st3" d="M-147.8,343.4l-0.2,0.4l0.2,0.4l-0.4,0.2l-0.4-1.6l0.4-0.2L-147.8,343.4l0.4-1l0.4-0.2
							l-0.4,1l1,0.6l-0.4,0.2L-147.8,343.4z"/>
					</g>
					<g id="XMLID_895_">
						<path id="XMLID_896_" class="st3" d="M-146,342h0.4l0.2,1.6h-0.4L-146,342z"/>
					</g>
					<g id="XMLID_891_">
						<path id="XMLID_892_" class="st3" d="M-144.1,342l0.8,0.2c0.2,0,0.4,0.2,0.4,0.2c0.2,0.2,0.2,0.2,0.4,0.4c0,0.2,0,0.4,0,0.4
							c0,0.2-0.2,0.4-0.2,0.4c-0.2,0.2-0.2,0.2-0.4,0.4c-0.2,0-0.4,0-0.4,0l-0.8-0.2L-144.1,342z M-143.5,343.4c0.2,0,0.4,0,0.4-0.2
							c0.2-0.2,0.2-0.2,0.2-0.4c0-0.2,0-0.4-0.2-0.4c-0.2-0.2-0.2-0.2-0.4-0.2h-0.4l-0.2,1L-143.5,343.4L-143.5,343.4z"/>
					</g>
					<g id="XMLID_887_">
						<path id="XMLID_888_" class="st3" d="M-141.5,344.2c-0.2-0.2-0.2-0.4-0.2-0.4c0-0.2,0-0.4,0.2-0.4c0-0.2,0.2-0.4,0.4-0.4
							c0.2-0.2,0.4-0.2,0.4-0.2c0.2,0,0.4,0,0.4,0.2c0.2,0.2,0.4,0.2,0.4,0.4c0.2,0.2,0.2,0.4,0.2,0.4c0,0.2,0,0.4-0.2,0.4
							c0,0.2-0.2,0.4-0.4,0.4c-0.2,0.2-0.4,0.2-0.4,0.2s-0.4,0-0.4-0.2C-141.3,344.4-141.3,344.4-141.5,344.2z M-140.7,344.4
							c0.2,0,0.2,0,0.4-0.2c0.2,0,0.2-0.2,0.2-0.2c0-0.2,0-0.2,0-0.4s0-0.2-0.2-0.4c0-0.2-0.2-0.2-0.2-0.2c-0.2,0-0.2,0-0.4,0
							c-0.2,0-0.2,0-0.4,0.2c-0.2,0-0.2,0.2-0.2,0.2c0,0.2,0,0.2,0,0.4c0,0.2,0,0.2,0.2,0.4c0,0.2,0.2,0.2,0.2,0.2H-140.7z"/>
					</g>
					<g id="XMLID_885_">
						<path id="XMLID_886_" class="st3" d="M-138.1,345.6l0.4,0.4l-0.4,0.4c-0.2,0-0.4,0-0.4-0.2c-0.2,0-0.2-0.2-0.4-0.2
							c-0.2-0.2-0.2-0.4-0.4-0.4c0-0.2,0-0.4,0-0.4c0-0.2,0.2-0.4,0.2-0.4c0-0.2,0.4-0.2,0.4-0.4c0.2,0,0.4,0,0.4,0
							c0.2,0,0.4,0.2,0.4,0.4c0.2,0.2,0.2,0.2,0.4,0.4c0,0.2,0.2,0.4,0,0.4h-0.4c0-0.2,0-0.4-0.2-0.4c-0.2,0-0.2-0.2-0.4-0.2
							c-0.2,0-0.2,0-0.4,0c-0.2,0-0.2,0.2-0.4,0.2c0,0.2-0.2,0.2-0.2,0.4c0,0.2,0,0.2,0,0.4s0.2,0.2,0.2,0.4
							c0.2,0.2,0.2,0.2,0.4,0.2L-138.1,345.6z"/>
					</g>
					<g id="XMLID_881_">
						<path id="XMLID_882_" class="st3" d="M-137.7,347.4c0-0.2,0-0.4,0.2-0.4c0-0.2,0.2-0.4,0.4-0.4c0.2-0.2,0.4-0.2,0.4-0.2
							c0.2,0,0.4,0,0.4,0.2c0.2,0.2,0.4,0.2,0.4,0.4c0.2,0.2,0.2,0.4,0.2,0.4c0,0.2,0,0.4-0.2,0.4c-0.2,0.2-0.2,0.4-0.4,0.4
							c-0.2,0.2-0.4,0.2-0.4,0.2c-0.2,0-0.4,0-0.4-0.2c-0.2-0.2-0.4-0.2-0.4-0.4C-137.5,347.8-137.7,347.6-137.7,347.4z M-137.1,348
							c0.2,0,0.2,0,0.4,0c0.2,0,0.2,0,0.4-0.2c0.2,0,0.2-0.2,0.2-0.2c0-0.2,0-0.2,0-0.4s0-0.2-0.2-0.4c0-0.2-0.2-0.2-0.2-0.2
							c-0.2,0-0.2,0-0.4,0c-0.2,0-0.2,0-0.4,0.2c-0.2,0-0.2,0.2-0.2,0.2c0,0.2,0,0.2,0,0.4C-137.5,347.6-137.3,347.6-137.1,348
							L-137.1,348z"/>
					</g>
				</g>
				<g id="XMLID_859_">
					<g id="XMLID_875_">
						<path id="XMLID_879_" class="st2" d="M-151,353.1c0.2,0.4,0.4,1,0.4,1.4c0.8,1.8,2.2,2.8,4,3.2c0.2,0,0.4,0.2,0.4,0.4
							c0,0.4-0.2,0.4-0.4,0.4c-0.8-0.2-1.4-0.4-2.2-0.8c-1.8-1-2.8-2.4-3.2-4.4c0,0,0,0,0-0.2c-0.2,0.2-0.2,0.4-0.4,0.4
							c-0.2,0.2-0.4,0.2-0.6,0c-0.2-0.2-0.2-0.4,0-0.6c0.4-0.4,0.6-0.8,1-1c0.2-0.2,0.4-0.4,0.6,0c0.2,0.4,0.8,0.6,1,1
							c0.2,0.2,0.4,0.4,0.2,0.6c-0.2,0.2-0.4,0.2-0.6,0C-150.4,353.5-150.6,353.3-151,353.1C-150.8,353.3-150.8,353.3-151,353.1z"/>
						<path id="XMLID_876_" class="st4" d="M-146.2,358.7L-146.2,358.7c-1-0.2-1.6-0.4-2.2-0.8c-1.6-1-2.8-2.4-3.2-4.4l0,0
							c-0.2,0.4-0.6,0.4-0.8,0.2c-0.4-0.2-0.4-0.6,0-0.8c0.4-0.4,0.6-0.8,1-1c0.4-0.4,0.6-0.4,1,0c0.4,0.4,0.8,0.6,1,1
							c0.4,0.4,0.4,0.6,0.2,0.8c-0.2,0.4-0.4,0.4-0.8,0l0,0l0,0c0.2,0.4,0.2,0.6,0.4,1c0.8,1.6,2.2,2.8,4,3.2c0.2,0,0.4,0.2,0.6,0.4
							c0,0.2,0,0.4-0.2,0.4C-146,358.7-146.2,358.7-146.2,358.7z M-151.6,353.1l0.2,0.4c0.4,1.8,1.4,3.4,3,4.4
							c0.6,0.4,1.4,0.6,2,0.8c0.2,0,0.2,0,0.4,0v-0.2c0-0.2,0-0.2-0.4-0.2c-2-0.4-3.4-1.6-4.2-3.4c-0.2-0.4-0.4-0.6-0.4-1
							c0-0.2-0.2-0.4-0.2-0.4L-151.6,353.1h0.6h0.2l0.2,0.2l0.2,0.2c0.2,0.2,0.4,0,0.4,0s0.2-0.2,0-0.4c-0.4-0.4-0.8-0.6-1-1
							c-0.2-0.2-0.4-0.2-0.4,0c-0.4,0.4-0.6,0.8-1,1c-0.2,0.2-0.2,0.2,0,0.4c0.2,0.2,0.2,0,0.4,0L-151.6,353.1L-151.6,353.1z"/>
					</g>
					<g id="XMLID_870_">
						<path id="XMLID_874_" class="st2" d="M-139.5,351.3c0-0.4-0.2-0.4-0.2-0.8c-0.8-2-2.2-3.4-4.2-3.8c-0.2,0-0.4,0-0.4-0.2
							c-0.2-0.2-0.2-0.4-0.2-0.4c0.2-0.2,0.4-0.4,0.4-0.2c1,0.4,2.2,0.8,2.8,1.4c1.2,1,1.8,2.2,2.2,3.6v0.2c0.2-0.2,0.2-0.4,0.4-0.4
							c0.2-0.2,0.4-0.2,0.6-0.2c0.2,0.2,0.2,0.4,0,0.6c-0.4,0.4-0.6,0.8-1,1c-0.2,0.4-0.4,0.4-0.6,0c-0.4-0.4-0.8-0.6-1-1
							c-0.2-0.2-0.4-0.4-0.2-0.6c0.2-0.2,0.4-0.2,0.6,0C-139.7,351.3-139.7,351.3-139.5,351.3C-139.5,351.5-139.5,351.5-139.5,351.3
							z"/>
						<path id="XMLID_871_" class="st4" d="M-138.9,352.9c-0.2,0-0.4,0-0.4-0.2c-0.4-0.4-0.8-0.6-1-1c-0.2-0.2-0.4-0.4-0.4-0.4
							s0-0.4,0.2-0.4c0.2-0.4,0.4-0.4,0.8,0l0,0c0-0.2,0-0.2-0.2-0.4c-0.6-2-2-3.2-4-3.8c-0.2,0-0.4-0.2-0.4-0.2
							c-0.2-0.2-0.4-0.4-0.2-0.6c0.2-0.4,0.4-0.4,0.6-0.4c1.2,0.4,2.2,0.8,3,1.6c1,1,1.8,2.2,2.2,3.6c0,0,0,0,0-0.2
							c0.4-0.4,0.6-0.4,0.8-0.2c0.4,0.2,0.4,0.6,0,0.8c-0.4,0.4-0.6,0.8-1,1C-138.7,352.9-138.9,352.9-138.9,352.9z M-140.1,351.3
							C-140.3,351.3-140.3,351.3-140.1,351.3C-140.3,351.3-140.3,351.3-140.1,351.3c-0.2,0.2-0.2,0.4,0,0.4c0.4,0.4,0.8,0.6,1,1
							c0.2,0.2,0.4,0.2,0.4,0c0.4-0.4,0.6-0.8,1-1c0,0,0.2-0.2,0-0.4c-0.2-0.2-0.4,0-0.4,0l-0.2,0.2l-0.4,0.4l-0.2-0.4v-0.2
							c-0.4-1.4-1-2.6-2.2-3.6c-0.8-0.8-1.8-1.2-2.8-1.4c-0.2,0-0.2,0-0.4,0.2c-0.2,0.2,0,0.2,0,0.4c0,0,0.2,0.2,0.4,0.2
							c2.2,0.6,3.6,1.8,4.2,4c0,0.2,0.2,0.4,0.2,0.4c0,0.2,0,0.2,0,0.4v0.2h-0.4l0,0L-140.1,351.3L-140.1,351.3L-140.1,351.3z"/>
					</g>
					<g id="XMLID_865_">
						<path id="XMLID_869_" class="st2" d="M-146.2,346.8c-0.8,0.2-1.4,0.4-2,0.6c-1.4,0.8-2.2,2.2-2.8,3.6c0,0.2,0,0.2-0.2,0.4
							c-0.2,0.2-0.4,0.2-0.4,0.2c-0.2-0.2-0.4-0.4-0.2-0.4c0.2-1,0.6-1.8,1.2-2.6c1-1.2,2.2-2.2,4-2.4l0,0l0,0
							c-0.2-0.2-0.2-0.2-0.4-0.4c-0.2-0.2-0.4-0.4-0.2-0.6c0.2-0.2,0.4-0.2,0.6,0c0.4,0.4,0.8,0.6,1,1c0.4,0.2,0.4,0.4,0,0.6
							c-0.4,0.4-0.6,0.8-1,1c-0.2,0.2-0.4,0.2-0.4,0.2s-0.4-0.2-0.4-0.4c0-0.2,0-0.4,0.2-0.4C-146.2,347-146.2,346.8-146.2,346.8z"
							/>
						<path id="XMLID_866_" class="st4" d="M-151,351.7c-0.2,0-0.2,0-0.4,0c-0.4-0.2-0.4-0.4-0.4-0.6c0.2-1,0.6-2,1.2-2.8
							c1-1.2,2.2-2.2,4-2.4l0,0c-0.4-0.4-0.4-0.6-0.2-0.8c0.2-0.2,0.4-0.2,0.4-0.2c0.2,0,0.4,0,0.4,0.2c0.4,0.4,0.8,0.6,1,1
							c0.4,0.4,0.4,0.6,0.2,1l-0.2,0.4c-0.2,0.4-0.4,0.6-0.6,0.8c-0.2,0.2-0.4,0.2-0.6,0.2c-0.2,0-0.4-0.2-0.4-0.4s0-0.4,0.2-0.4
							l0,0c-0.4,0.2-1,0.4-1.6,0.6c-1.4,0.8-2.2,2-2.6,3.4c0,0.2,0,0.4-0.2,0.4C-150.8,351.7-151,351.7-151,351.7z M-146.2,345
							L-146.2,345C-146.4,345-146.4,345-146.2,345c-0.4,0.2-0.2,0.4,0,0.4l0.4,0.4l-0.4,0.2l0,0c0,0,0,0-0.2,0
							c-1.6,0.4-2.8,1-3.8,2.2c-0.6,0.8-1,1.6-1.2,2.6c0,0.2,0,0.2,0.2,0.4c0.2,0,0.2,0,0.4,0c0,0,0-0.2,0.2-0.4
							c0.4-1.6,1.4-2.8,2.8-3.8c0.6-0.4,1.4-0.6,2-0.8h0.4l-0.4,0.4l-0.2,0.2c-0.2,0.2-0.2,0.2-0.2,0.4s0,0.2,0,0.2l0.2,0.2
							c0,0,0.2,0,0.4-0.2c0.4-0.4,0.4-0.4,0.6-0.8l0.2-0.4c0.2-0.2,0.2-0.4,0-0.4c-0.4-0.4-0.8-0.6-1-0.8
							C-146.2,345-146.2,345-146.2,345z"/>
					</g>
					<g id="XMLID_860_">
						<path id="XMLID_864_" class="st2" d="M-143.9,357.9c2.2-0.6,3.8-2,4.4-4.2c0.2-0.4,0.4-0.6,0.4-0.4c0.4,0,0.4,0.4,0.4,0.6
							c-0.8,2.6-2.2,4-4.8,4.6c0,0-0.2,0-0.4,0c0.2,0.2,0.4,0.2,0.4,0.4c0.2,0.2,0.4,0.4,0.2,0.6c-0.2,0.2-0.4,0.2-0.6,0
							c-0.4-0.4-0.8-0.6-1-1c-0.2-0.2-0.2-0.4,0-0.6c0.4-0.4,0.6-0.8,1-1c0.2-0.2,0.4-0.2,0.6,0c0.2,0.2,0.2,0.4,0,0.6l-0.2,0.2
							C-143.9,357.7-143.9,357.9-143.9,357.9z"/>
						<path id="XMLID_861_" class="st4" d="M-143.7,359.7c-0.2,0-0.4,0-0.4-0.2c-0.4-0.4-0.8-0.6-1-1c-0.4-0.2-0.4-0.6,0-0.8
							c0.4-0.4,0.6-0.8,1-1c0.2-0.2,0.4-0.2,0.4-0.2s0.4,0,0.4,0.2c0.2,0.2,0.4,0.4,0.2,0.8c2-0.6,3.4-2,3.8-4
							c0-0.2,0.2-0.8,0.8-0.6c0.2,0,0.4,0.2,0.4,0.4c0.2,0.2,0.2,0.4,0,0.6c-0.8,2.6-2.4,4.2-5,4.8c0,0,0,0,0.2,0.2
							c0.4,0.4,0.4,0.6,0.2,0.8C-143.5,359.7-143.7,359.7-143.7,359.7z M-143.9,357.1L-143.9,357.1
							C-143.9,357.1-144.1,357.1-143.9,357.1c-0.4,0.4-0.8,1-1,1.2s-0.2,0.2,0,0.4c0.4,0.4,0.8,0.6,1,1c0,0,0.2,0.2,0.4,0
							c0,0,0.2-0.2,0-0.4c-0.2,0-0.2-0.2-0.4-0.2l-0.4-0.4l0.6-0.2c2.4-0.6,4-2.2,4.8-4.6c0-0.2,0-0.4,0-0.4s0,0-0.2-0.2
							c-0.2,0-0.2,0-0.4,0.4c-0.6,2.2-2.2,3.8-4.6,4.4l-0.4,0.2l0.4-0.4c0,0,0-0.2,0.2-0.2c0,0,0,0,0-0.2c0,0,0,0,0.2-0.2
							C-143.7,357.3-143.7,357.3-143.9,357.1L-143.9,357.1z"/>
					</g>
				</g>
				<g id="XMLID_814_">
					<g id="XMLID_857_">
						<path id="XMLID_858_" class="st4" d="M-136.1,352.5L-136.1,352.5C-136.3,352.5-136.3,352.5-136.1,352.5L-136.1,352.5
							L-136.1,352.5z"/>
					</g>
					<g id="XMLID_817_">
						<path id="XMLID_818_" class="st4" d="M-144.9,360.9c-0.2,0-0.4,0-0.4,0v-0.2C-145.2,360.9-145.2,360.9-144.9,360.9
							L-144.9,360.9z M-144.5,360.9L-144.5,360.9c0.2-0.2,0.4-0.2,0.4-0.2v0.2C-144.3,360.9-144.5,360.9-144.5,360.9z M-145.6,360.9
							c-0.2,0-0.4,0-0.4,0v-0.2C-146,360.9-145.8,360.9-145.6,360.9L-145.6,360.9z M-143.9,360.9L-143.9,360.9
							c0.2-0.2,0.2-0.2,0.4-0.2v0.2C-143.7,360.9-143.7,360.9-143.9,360.9z M-146.4,360.9c-0.2,0-0.4,0-0.4,0v-0.2
							C-146.6,360.7-146.6,360.7-146.4,360.9L-146.4,360.9z M-143.1,360.9L-143.1,360.9c0.2-0.2,0.2-0.2,0.4-0.2v0.2
							C-143.1,360.9-143.1,360.9-143.1,360.9z M-147,360.7c-0.2,0-0.2,0-0.4-0.2v-0.2C-147.4,360.5-147.2,360.5-147,360.7
							L-147,360.7z M-142.5,360.7L-142.5,360.7c0.2-0.2,0.2-0.2,0.4-0.2v0.2C-142.3,360.5-142.5,360.7-142.5,360.7z M-147.8,360.3
							c-0.2,0-0.2-0.2-0.4-0.2v-0.2C-148,360.3-147.8,360.3-147.8,360.3L-147.8,360.3z M-141.9,360.3L-141.9,360.3
							c0-0.2,0.2-0.2,0.4-0.4v0.2C-141.7,360.3-141.9,360.3-141.9,360.3z M-148.4,360.3c-0.2,0-0.2-0.2-0.4-0.2v-0.2
							C-148.6,359.9-148.6,360.1-148.4,360.3L-148.4,360.3z M-141.3,360.3L-141.3,360.3c0-0.2,0.2-0.2,0.4-0.4v0.2
							C-141.1,360.1-141.1,360.1-141.3,360.3z M-149,359.9c-0.2,0-0.2-0.2-0.4-0.2v-0.2C-149.2,359.7-149.2,359.7-149,359.9
							L-149,359.9z M-140.7,359.9L-140.7,359.9c0-0.2,0.2-0.2,0.4-0.4v0.2C-140.5,359.7-140.5,359.7-140.7,359.9z M-149.6,359.5
							c-0.2,0-0.2-0.2-0.4-0.2v-0.2C-149.8,359.3-149.6,359.3-149.6,359.5L-149.6,359.5z M-140.1,359.5L-140.1,359.5
							c0-0.2,0.2-0.2,0.2-0.4L-140.1,359.5C-139.9,359.3-139.9,359.5-140.1,359.5z M-150.2,359.1c-0.2,0-0.2-0.2-0.4-0.2v-0.2
							C-150.4,358.9-150.2,359.1-150.2,359.1L-150.2,359.1z M-139.5,359.1L-139.5,359.1c0-0.2,0.2-0.4,0.2-0.4L-139.5,359.1
							C-139.3,359.1-139.5,359.1-139.5,359.1z M-150.6,358.7c-0.2-0.2-0.2-0.2-0.4-0.4l0.2-0.2
							C-150.8,358.5-150.8,358.5-150.6,358.7L-150.6,358.7z M-138.9,358.7L-138.9,358.7c0-0.2,0.2-0.4,0.2-0.4l0.2,0.2
							C-138.9,358.5-138.9,358.5-138.9,358.7z M-151.2,358.1c-0.2-0.2-0.2-0.2-0.4-0.4l0.2-0.2
							C-151.2,357.9-151.2,357.9-151.2,358.1L-151.2,358.1z M-138.5,358.1L-138.5,358.1c0-0.2,0-0.4,0.2-0.4h0.2
							C-138.3,357.9-138.3,358.1-138.5,358.1z M-151.6,357.7c0-0.2-0.2-0.2-0.2-0.4h0.2C-151.6,357.3-151.6,357.5-151.6,357.7
							L-151.6,357.7z M-138.1,357.7L-138.1,357.7c0-0.2,0-0.4,0.2-0.4h0.2C-137.9,357.5-137.9,357.5-138.1,357.7z M-152,357.1
							c0-0.2-0.2-0.2-0.2-0.4h0.2C-152.2,356.7-152,356.9-152,357.1L-152,357.1z M-137.7,357.1L-137.7,357.1c0-0.2,0-0.4,0.2-0.4
							h0.2C-137.5,356.9-137.5,356.9-137.7,357.1z M-152.4,356.5c0-0.2-0.2-0.2-0.2-0.4h0.2C-152.4,356.1-152.4,356.3-152.4,356.5
							L-152.4,356.5z M-137.1,356.5L-137.1,356.5c0-0.2,0-0.4,0-0.4h0.2C-137.1,356.3-137.1,356.3-137.1,356.5z M-152.8,355.9
							c0-0.2-0.2-0.2-0.2-0.4h0.2C-152.8,355.5-152.8,355.7-152.8,355.9L-152.8,355.9z M-136.9,355.9L-136.9,355.9
							c0-0.2,0-0.4,0-0.4h0.2C-136.9,355.7-136.9,355.7-136.9,355.9z M-153,355.3c0-0.2-0.2-0.2-0.2-0.4h0.2
							C-152.8,354.9-152.8,355.1-153,355.3L-153,355.3z M-136.7,355.3L-136.7,355.3c0-0.2,0-0.4,0-0.4h0.2
							C-136.5,354.9-136.5,355.1-136.7,355.3z M-153.2,354.5c0-0.2,0-0.2-0.2-0.4h0.2C-153.2,354.3-153,354.3-153.2,354.5
							L-153.2,354.5z M-136.5,354.5L-136.5,354.5c-0.2-0.2,0-0.4,0-0.4h0.2C-136.5,354.3-136.5,354.5-136.5,354.5z M-153.4,353.9
							c0-0.2,0-0.4,0-0.4h0.2C-153.4,353.7-153.2,353.7-153.4,353.9L-153.4,353.9z M-136.3,353.9L-136.3,353.9
							c-0.2-0.2-0.2-0.4,0-0.4h0.2C-136.3,353.7-136.3,353.7-136.3,353.9z M-153.4,353.1c0-0.2,0-0.4,0-0.4h0.2
							C-153.4,353.1-153.4,353.1-153.4,353.1L-153.4,353.1z M-136.3,353.1L-136.3,353.1c-0.2-0.2-0.2-0.4-0.2-0.4h0.2
							C-136.1,353.1-136.3,353.1-136.3,353.1z"/>
					</g>
					<g id="XMLID_815_">
						<path id="XMLID_816_" class="st4" d="M-153.4,352.5L-153.4,352.5L-153.4,352.5L-153.4,352.5L-153.4,352.5z"/>
					</g>
				</g>
				<g id="XMLID_812_">
					<circle id="XMLID_813_" class="st3" cx="-153.4" cy="350.6" r="0.4"/>
				</g>
				<g id="XMLID_810_">
					<circle id="XMLID_811_" class="st3" cx="-136.5" cy="350.6" r="0.4"/>
				</g>
				<g id="XMLID_775_">
					<g id="XMLID_799_">
						<g id="XMLID_805_">
							<g id="XMLID_806_">
								<path id="XMLID_807_" class="st2" d="M-148.4,351.9c0.2,0,0.4-0.2,0.4-0.4c0-0.4,0,0,0,0v-1.2c0,0,0,0.8,0,1.2l0,0
									c0-0.4,0-1.2,0-1.2s0,0.8,0,1.2l0,0c0-0.4,0-1.2,0-1.2s0,0.8,0,1.2l0,0c0-0.4,0-1.2,0-1.2s0,1,0,1.2
									C-148.6,351.7-148.6,351.9-148.4,351.9 M-148.4,351.7C-148.6,351.7-148.6,351.5-148.4,351.7L-148.4,351.7c0-0.2,0.2,0,0.4,0
									C-148.2,351.7-148.4,351.7-148.4,351.7z"/>
							</g>
						</g>
						<g id="XMLID_800_">
							<g id="XMLID_801_">
								<path id="XMLID_802_" class="st2" d="M-148.2,351.9L-148.2,351.9c-0.2,0.2-0.2,1.4-0.2,1.8c0,0.6,0,1.2,0.2,1.2
									c0.2,0,0.2-0.8,0.2-1.2C-148.2,353.1-148.2,351.9-148.2,351.9z M-148.4,354.3c0,0.2,0,0.4,0,0.4S-148.4,354.5-148.4,354.3
									c-0.2-0.2-0.2-0.4,0-0.8l0,0l0,0c0-0.2,0-0.4,0-0.4c0,0.2,0,0.4,0,0.4l0,0l0,0C-148.4,353.9-148.4,354.3-148.4,354.3z"/>
							</g>
						</g>
					</g>
					<g id="XMLID_794_">
						<path id="XMLID_795_" class="st2" d="M-141.1,353.7c0-0.4,0-1,0-1v-2.2l0,0c0,0-0.2,0-0.2,0.2c-0.4,0.4-0.2,2-0.2,2
							c0.2,0,0.2,0.2,0.2,0.4C-141.3,353.1-141.3,353.5-141.1,353.7c-0.2,0.8-0.2,1.4,0,1.4C-141.1,354.9-141.1,354.1-141.1,353.7z
							 M-141.3,352.3c0-0.6,0-1.6,0.2-1.8l0,0L-141.3,352.3C-141.3,352.5-141.3,352.3-141.3,352.3z M-141.3,354.3c0,0.2,0,0.4,0,0.4
							S-141.3,354.5-141.3,354.3c-0.2-0.2-0.2-0.4,0-0.8l0,0l0,0c0-0.2,0-0.4,0-0.4c0,0.2,0,0.4,0,0.4l0,0l0,0
							C-141.1,353.9-141.1,354.1-141.3,354.3z"/>
					</g>
					<g id="XMLID_776_">
						<g id="XMLID_787_">
							<g id="XMLID_792_">
								<path id="XMLID_793_" class="st2" d="M-146.8,353.3c0.2,0.4,0.4,0.8,0.8,1l0,0c0,0,0,0,0.2,0v-0.2c-0.4-0.2-0.6-0.4-0.6-0.8
									C-146.6,353.3-146.6,353.3-146.8,353.3L-146.8,353.3z"/>
							</g>
							<g id="XMLID_788_">
								<path id="XMLID_789_" class="st2" d="M-142.1,352.5h-5.2c-0.2,0-0.2,0-0.2,0.2s0,0.2,0.2,0.2l0,0c0,1,0.8,1.8,1.6,1.8h1.6
									c1,0,1.6-1,1.6-1.8l0,0C-142.1,352.9-142.1,352.9-142.1,352.5C-141.9,352.7-141.9,352.5-142.1,352.5z M-143.7,354.7h-1.6
									c-0.8,0-1.6-1-1.6-1.6h4.6C-142.5,353.7-143.1,354.7-143.7,354.7z"/>
							</g>
						</g>
						<g id="XMLID_780_">
							<g id="XMLID_785_">
								<path id="XMLID_786_" class="st2" d="M-146.2,351.7c0.2,0.4,0.4,0.6,0.6,0.8l0,0l0,0v-0.2
									C-145.8,352.1-146.2,351.9-146.2,351.7S-146.2,351.5-146.2,351.7C-146.2,351.5-146.2,351.7-146.2,351.7z"/>
							</g>
							<g id="XMLID_781_">
								<path id="XMLID_782_" class="st2" d="M-142.5,351.1h-4c0,0-0.2,0-0.2,0.2c0,0,0,0.2,0.2,0.2l0,0c0,0.8,0.6,1.6,1.4,1.6h1.4
									c0.8,0,1.4-0.8,1.4-1.6l0,0C-142.5,351.3-142.5,351.3-142.5,351.1L-142.5,351.1z M-144.1,352.7h-1.2c-0.6,0-1.2-0.8-1.2-1.4
									h3.8C-142.9,351.9-143.3,352.7-144.1,352.7z"/>
							</g>
						</g>
						<g id="XMLID_777_">
							<g id="XMLID_778_">
								<path id="XMLID_779_" class="st2" d="M-146,350.2c0.2,0.4,0.4,0.4,0.4,0.6l0,0l0,0c0,0,0,0,0-0.2
									C-145.6,350.6-145.8,350.4-146,350.2C-145.8,350-146,350-146,350.2C-146,350-146,350.2-146,350.2z"/>
							</g>
							<g id="XMLID_979_">
								<path id="XMLID_980_" class="st2" d="M-143.1,349.8h-3.4c0,0-0.2,0-0.2,0.2c0,0,0,0.2,0.2,0.2l0,0c0,0.6,0.4,1.2,1,1.2h1
									c0.6,0,1-0.6,1-1.2l0,0C-143.1,349.8-142.9,349.8-143.1,349.8C-142.9,349.8-143.1,349.8-143.1,349.8z M-144.1,351.1h-1
									c-0.4,0-1-0.6-1-1h3C-143.1,350.4-143.7,351.1-144.1,351.1z"/>
							</g>
						</g>
					</g>
				</g>
			</g>
		</g>
	</g>
	<g id="XMLID_983_">
		<g id="XMLID_984_">
			<g id="XMLID_988_">
				<path id="XMLID_989_" class="st0" d="M-175.8,262.5c-2.2,3-2.2,6.2,1.4,10.1c3.8,3.8,0,0,0,0c0.2,0.4,20.4,20,20.8,19.4
					c0.4-0.4-11.5-12.7-17.9-20c0.4-0.2,1-0.6,1.4-0.8c7.1,6.7,19,18.3,19.4,17.9c0.4-0.4-11.1-12.5-17.3-19.6
					c0.4-0.4,0.8-0.8,1.2-1.2c6.9,6.5,18.5,18.3,19,17.7c0.4-0.4-10.9-12.7-17.3-20c0.2-0.4,0.6-1,0.8-1.4c7.1,6.7,19,19,19.4,18.5
					c0.6-0.4-14.7-17.3-18.7-21.4c-3.4-3.6-6.9-3.8-9.9-1.6 M-172,263.4c3.2-3.2,5.2-1.6,6-0.6l0.2,0.2c-3.2,1.4-6.5,3-9.7,4.6
					C-174.4,266.4-173.2,264.8-172,263.4z"/>
			</g>
			<g id="XMLID_985_">
				<path id="XMLID_986_" class="st0" d="M-176.2,263.6l3-3.2c-2.4-2-21.6-22.8-27.2-29.2c-8.7-9.9-19.2-21-22-18.3
					c-2.6,3,8.3,13.7,17.9,22.6C-198.4,241.4-178.2,260.9-176.2,263.6z M-215.5,221.8c-3-3.4-4.2-5.4-4.8-6.5c1,0.6,2.8,2.2,6,5.2
					c3.2,3,7.3,6.9,11.7,12.9l0,0l0,0c3,3,5.6,5.6,7.7,8.3c-2.4-2.2-5.2-4.6-8.3-7.7l0,0l0,0C-208.5,228.9-212.5,225-215.5,221.8z"
					/>
			</g>
		</g>
		<path id="XMLID_993_" class="st0" d="M-88.5,243.8c-3.6,4-14.7,16.1-14.9,16.1l-36.3,37.5c-0.4,0.4-0.6,0.6-0.2,0.8
			c0.8,0.8,3.2,1,5.2,0.6c9.9-2,34.5-28.8,34.5-28.8c-1.8-2.6-1-5.6,1-8.1c4.6-4.4,10.9-10.5,14.7-14.1c9.3-8.7,19.8-19,17.3-21.8
			C-70.2,223.4-80.2,234.1-88.5,243.8z M-103.6,269.6c-8.9,9.5-23.6,23.4-30.2,26l0,0l30-31C-104.2,266.4-104.2,268-103.6,269.6z
			 M-75.6,233.3c3.2-3,4.8-4.4,5.8-4.8c-0.6,1-1.8,3-4.6,6.2c-2.8,3-6.2,7.5-11.9,11.9l0,0l0,0c-2.8,2.8-5.4,5.4-7.9,7.5
			c2-2.4,4.4-5.2,7.3-8.1l0,0l0,0C-82.4,239.8-78.6,236.1-75.6,233.3z"/>
	</g>
	<g id="step-03" class="st5">
		<g id="XMLID_621_" class="st6">
			<path id="XMLID_665_" class="st7" d="M-195.6,297.4c0-29.2,0-58.3,0-87.5c0-6.2,5.2-12.3,11.1-13.3c0.8-0.2,1.4-0.2,2.2-0.2
				c24.4,0,49,0,73.4,0c2.2,0,4.2,0.6,6,1.6c3.2,2,5.8,4.8,7.5,8.3c0.8,1.4,1,3,1,4.6c0,58.5,0,116.9,0,175.2c0,3.4-1.2,6.5-3.6,9.1
				c-2,2.2-4.4,3.8-7.5,4.4c-0.6,0.2-1.2,0.2-1.6,0.2c-24.6,0-49.4,0-74,0c-1.6,0-3.2-0.4-4.6-1.2c-3.2-1.6-5.8-4-7.9-7.1
				c-1.4-2-1.8-4.2-1.8-6.7C-195.6,355.7-195.6,326.5-195.6,297.4z M-98.6,216.2c-31.2,0-62.3,0-93.5,0c0,55,0,109.9,0,164.9
				c31.2,0,62.3,0,93.5,0C-98.6,326.3-98.6,271.2-98.6,216.2z M-145.8,394.6c2.6,0,5.4,0,8.1,0c2,0,3.8-1.8,3.8-3.6c0-1,0-1.8,0-2.8
				c0-2-1.8-3.6-3.6-3.6c-5.4,0-10.9,0-16.3,0c-2,0-3.6,1.8-3.6,3.6c0,1,0,1.8,0,2.8c0,2,1.8,3.6,3.8,3.8
				C-151,394.6-148.4,394.6-145.8,394.6z M-145.8,204.3c2.8,0,5.6,0,8.5,0c1,0,1.6-0.4,1.6-1.2c0-0.8-0.6-1.2-1.8-1.2
				c-5.6,0-11.3,0-16.9,0c-0.2,0-0.4,0-0.6,0c-0.6,0-1,0.4-1,1c-0.2,0.6,0,1,0.6,1.2c0.2,0.2,0.6,0.2,1,0.2
				C-151.4,204.3-148.6,204.3-145.8,204.3z"/>
			<path id="XMLID_628_" class="st8" d="M-98.6,216.2c0,55,0,109.9,0,164.9c-31.2,0-62.3,0-93.5,0c0-55,0-109.9,0-164.9
				C-160.9,216.2-129.8,216.2-98.6,216.2z"/>
			<path id="XMLID_655_" class="st8" d="M-145.8,394.6c-2.6,0-5.4,0-8.1,0c-2,0-3.8-1.8-3.8-3.8c0-1,0-1.8,0-2.8
				c0-2,1.8-3.6,3.6-3.6c5.4,0,10.9,0,16.3,0c2,0,3.6,1.8,3.6,3.6c0,1,0,1.8,0,2.8c0,2-1.8,3.6-3.8,3.6
				C-140.3,394.6-142.9,394.6-145.8,394.6z M-145.8,394.2c2.6,0,5.2,0,8.1,0c1.8,0,3.4-1.6,3.4-3.4c0-0.8,0-1.6,0-2.6
				c0-1.8-1.6-3.4-3.4-3.4c-5.4,0-10.7,0-16.1,0c-1.8,0-3.4,1.6-3.4,3.4c0,0.8,0,1.6,0,2.4c0,2,1.6,3.6,3.6,3.6
				C-151,394.2-148.4,394.2-145.8,394.2z"/>
			<path id="XMLID_650_" class="st8" d="M-145.8,204.3c-2.8,0-5.8,0-8.7,0c-0.4,0-0.6,0-1-0.2c-0.4-0.2-0.6-0.6-0.6-1.2
				c0.2-0.6,0.6-0.8,1-1c0.2,0,0.4,0,0.6,0c5.6,0,11.3,0,16.9,0c1,0,1.6,0.4,1.8,1.2c0,0.8-0.6,1.2-1.6,1.2
				C-140.1,204.3-142.9,204.3-145.8,204.3z M-145.8,203.9c2.8,0,5.8,0,8.7,0c0.6,0,1-0.4,1-0.8s-0.4-0.8-1-0.8h-0.2
				c-5.6,0-11.3,0-17.1,0c-0.2,0-0.4,0-0.6,0c-0.2,0.2-0.6,0.4-0.6,0.8c0,0.2,0.2,0.6,0.4,0.8c0.2,0.2,0.4,0,0.6,0
				C-151.4,203.9-148.6,203.9-145.8,203.9z"/>
			<path id="XMLID_625_" class="st9" d="M-145.8,394.2c-2.6,0-5.2,0-7.9,0c-2,0-3.6-1.4-3.6-3.6c0-0.8,0-1.6,0-2.4
				c0-1.8,1.6-3.4,3.4-3.4c5.4,0,10.7,0,16.1,0c1.8,0,3.4,1.6,3.4,3.4c0,0.8,0,1.6,0,2.6c0,1.8-1.6,3.4-3.4,3.4
				C-140.3,394.2-142.9,394.2-145.8,394.2z"/>
			<path id="XMLID_651_" class="st9" d="M-145.8,203.9c-2.8,0-5.6,0-8.7,0c-0.2,0-0.6,0-0.6,0c-0.2-0.2-0.6-0.6-0.4-0.8
				c0-0.2,0.4-0.6,0.6-0.8c0.2,0,0.4,0,0.6,0c5.6,0,11.3,0,17.1,0h0.2c0.6,0,1,0.4,1,0.8s-0.4,0.8-1,0.8
				C-139.9,203.9-142.7,203.9-145.8,203.9z"/>
		</g>
		<g id="XMLID_654_" transform="matrix(.13949 0 0 .13949 -55.795 -55.795)" class="st6">
			<path id="XMLID_746_" class="st0" d="M-870.3,2690.9v-77h154.2v154.2h-154.2V2690.9z M-738.3,2690.9v-55h-110.1v110.1h110.1
				V2690.9z M-826.4,2690.9v-33.1h66.1v66.1h-66.1V2690.9z M-694.1,2734.8v-33.1h22v-22h-22v-88.1h22v-22h-22v-22h-44v-22h44v-22
				h-66.1v22h-22v22h22v44h-22v-44h-22v44h-22.2v-44h-22v22h-22v-44h22v-22h-22v-22.2h66.1v22h22v-22h88.1v-44h22v-44h22v22h22v-22
				h22v-22h22v44h-22v22h22v22h-22v-22h-22v66.1h22v-22.2h66.1v22h22v22h44v-44h22v22h44v88.1h-22v22h22v22h-22v66.1h22v22h-22v22
				h22v22h-44v-44h22v-22h-22v-66.1h-22v-22h-22v132.1h-21.8v22h-22v-22h22v-22h-22v-22h-22v-22h22v22h22v-44h-22v-22H-606v22h-22
				v22h-22v22h44v-22h22v44h-66.1v-22h-22v66.1h-22L-694.1,2734.8L-694.1,2734.8z M-650.2,2668.7v-11.1h22v-22h22v-22h22v-22h66.1
				v-22h22v22h22v22h22v-44h22v-22h-22v-22h-22v44h-22v-22h-21.8v22h-22v-22h-22v-44h-44v44h22v22h-22v44h-22v22h-22v-22h-22v66.1
				h22v-11.1L-650.2,2668.7L-650.2,2668.7z M-517.9,2624.7v-11.1h-22v22h22V2624.7z M-628,2580.6v-11.1h-22v22h22V2580.6z
				 M-650.2,2492.5v-55h-22v88.1h-22v22h44C-650.2,2547.5-650.2,2492.5-650.2,2492.5z M-804.2,2514.6v-11.1h-22.2v22h22
				L-804.2,2514.6L-804.2,2514.6z M-650.2,2756.8v-11.1h88.1v22h-88.1V2756.8z M-738.3,2580.6v-11.1h22v22h-22V2580.6z
				 M-870.3,2382.4v-77h154.2v154.2h-154.2V2382.4z M-738.3,2382.4v-55h-110.1v110.1h110.1V2382.4z M-826.4,2382.4v-33.1h66.1v66.1
				h-66.1V2382.4z M-562.1,2382.4v-77h154.2v154.2h-154.2V2382.4z M-429.8,2382.4v-55h-110.1v110.1h110.1V2382.4z M-517.9,2382.4
				v-33.1h66.1v66.1h-66.1V2382.4z M-694.1,2360.4v-11.1h22v22h-22V2360.4z M-650.2,2360.4v-11.1h22v22h-22V2360.4z M-606,2327.3
				v-22h22v44h-22V2327.3z M-650.2,2316.3v-11.1h22v22h-22V2316.3z"/>
			<path id="XMLID_702_" class="st0" d="M-870.3,2690.9v-77h154.2v154.2h-154.2V2690.9z M-738.3,2690.9v-55h-110.1v110.1h110.1
				V2690.9z M-826.4,2690.9v-33.1h66.1v66.1h-66.1V2690.9z M-694.1,2734.8v-33.1h22v-22h-22v-88.1h22v-22h-22v-22h-44v-22h44v-22
				h-66.1v22h-22v22h22v44h-22v-44h-22v44h-22.2v-44h-22v22h-22v-44h22v-22h-22v-22.2h66.1v22h22v-22h88.1v-44h22v-44h22v22h22v-22
				h22v-22h22v44h-22v22h22v22h-22v-22h-22v66.1h22v-22.2h66.1v22h22v22h44v-44h22v22h44v88.1h-22v22h22v22h-22v66.1h22v22h-22v22
				h22v22h-44v-44h22v-22h-22v-66.1h-22v-22h-22v132.1h-21.8v22h-22v-22h22v-22h-22v-22h-22v-22h22v22h22v-44h-22v-22H-606v22h-22
				v22h-22v22h44v-22h22v44h-66.1v-22h-22v66.1h-22L-694.1,2734.8L-694.1,2734.8z M-650.2,2668.7v-11.1h22v-22h22v-22h22v-22h66.1
				v-22h22v22h22v22h22v-44h22v-22h-22v-22h-22v44h-22v-22h-21.8v22h-22v-22h-22v-44h-44v44h22v22h-22v44h-22v22h-22v-22h-22v66.1
				h22v-11.1L-650.2,2668.7L-650.2,2668.7z M-517.9,2624.7v-11.1h-22v22h22V2624.7z M-628,2580.6v-11.1h-22v22h22V2580.6z
				 M-650.2,2492.5v-55h-22v88.1h-22v22h44C-650.2,2547.5-650.2,2492.5-650.2,2492.5z M-804.2,2514.6v-11.1h-22.2v22h22
				L-804.2,2514.6L-804.2,2514.6z M-650.2,2756.8v-11.1h88.1v22h-88.1V2756.8z M-738.3,2580.6v-11.1h22v22h-22V2580.6z
				 M-870.3,2382.4v-77h154.2v154.2h-154.2V2382.4z M-738.3,2382.4v-55h-110.1v110.1h110.1V2382.4z M-826.4,2382.4v-33.1h66.1v66.1
				h-66.1V2382.4z M-562.1,2382.4v-77h154.2v154.2h-154.2V2382.4z M-429.8,2382.4v-55h-110.1v110.1h110.1V2382.4z M-517.9,2382.4
				v-33.1h66.1v66.1h-66.1V2382.4z M-694.1,2360.4v-11.1h22v22h-22V2360.4z M-650.2,2360.4v-11.1h22v22h-22V2360.4z M-606,2327.3
				v-22h22v44h-22V2327.3z M-650.2,2316.3v-11.1h22v22h-22V2316.3z"/>
			<path id="XMLID_658_" class="st0" d="M-870.3,2690.9v-77h154.2v154.2h-154.2V2690.9z M-738.3,2690.9v-55h-110.1v110.1h110.1
				V2690.9z M-826.4,2690.9v-33.1h66.1v66.1h-66.1V2690.9z M-694.1,2734.8v-33.1h22v-22h-22v-88.1h22v-22h-22v-22h-44v-22h44v-22
				h-66.1v22h-22v22h22v44h-22v-44h-22v44h-22.2v-44h-22v22h-22v-44h22v-22h-22v-22.2h66.1v22h22v-22h88.1v-44h22v-44h22v22h22v-22
				h22v-22h22v44h-22v22h22v22h-22v-22h-22v66.1h22v-22.2h66.1v22h22v22h44v-44h22v22h44v88.1h-22v22h22v22h-22v66.1h22v22h-22v22
				h22v22h-44v-44h22v-22h-22v-66.1h-22v-22h-22v132.1h-21.8v22h-22v-22h22v-22h-22v-22h-22v-22h22v22h22v-44h-22v-22H-606v22h-22
				v22h-22v22h44v-22h22v44h-66.1v-22h-22v66.1h-22L-694.1,2734.8L-694.1,2734.8z M-650.2,2668.7v-11.1h22v-22h22v-22h22v-22h66.1
				v-22h22v22h22v22h22v-44h22v-22h-22v-22h-22v44h-22v-22h-21.8v22h-22v-22h-22v-44h-44v44h22v22h-22v44h-22v22h-22v-22h-22v66.1
				h22v-11.1L-650.2,2668.7L-650.2,2668.7z M-517.9,2624.7v-11.1h-22v22h22V2624.7z M-628,2580.6v-11.1h-22v22h22V2580.6z
				 M-650.2,2492.5v-55h-22v88.1h-22v22h44C-650.2,2547.5-650.2,2492.5-650.2,2492.5z M-804.2,2514.6v-11.1h-22.2v22h22
				L-804.2,2514.6L-804.2,2514.6z M-650.2,2756.8v-11.1h88.1v22h-88.1V2756.8z M-738.3,2580.6v-11.1h22v22h-22V2580.6z
				 M-870.3,2382.4v-77h154.2v154.2h-154.2V2382.4z M-738.3,2382.4v-55h-110.1v110.1h110.1V2382.4z M-826.4,2382.4v-33.1h66.1v66.1
				h-66.1V2382.4z M-562.1,2382.4v-77h154.2v154.2h-154.2V2382.4z M-429.8,2382.4v-55h-110.1v110.1h110.1V2382.4z M-517.9,2382.4
				v-33.1h66.1v66.1h-66.1V2382.4z M-694.1,2360.4v-11.1h22v22h-22V2360.4z M-650.2,2360.4v-11.1h22v22h-22V2360.4z M-606,2327.3
				v-22h22v44h-22V2327.3z M-650.2,2316.3v-11.1h22v22h-22V2316.3z"/>
		</g>
	</g>
</g>
</svg>
