<?xml version="1.0" encoding="utf-8"?>
<!-- Generator: Adobe Illustrator 19.0.0, SVG Export Plug-In . SVG Version: 6.00 Build 0)  -->
<svg version="1.1" id="Layer_1" xmlns="http://www.w3.org/2000/svg" xmlns:xlink="http://www.w3.org/1999/xlink" x="0px" y="0px"
	 viewBox="-255.5 188.3 220 220" style="enable-background:new -255.5 188.3 220 220;" xml:space="preserve">
<style type="text/css">
	.st0{fill:#387438;}
	.st1{fill:#CCE5C7;}
	.st2{fill:#D3E6C7;}
	.st3{fill:#387539;}
</style>
<g>
	<g id="step-05">
		<g id="XMLID_997_">
			<g id="XMLID_998_">
				<g id="XMLID_999_">
					<path id="XMLID_1415_" class="st0" d="M-174.6,311.2c1.9,5.7,6.1,10.8,11.2,13c0.1,0.1,0.4,0.1,0.5,0.1c0.5,0,1.1-0.3,1.3-0.8
						c0.3-0.7,0-1.5-0.8-1.9c-4.4-1.9-8-6.1-9.6-11.2c-0.3-0.8-0.9-1.1-1.7-0.9S-174.8,310.4-174.6,311.2z"/>
					<path id="XMLID_1412_" class="st0" d="M-107.9,299.8h-75.9c-1.3,0-2.5,1.1-2.5,2.5c0,1.5,1.1,2.5,2.5,2.5h0.7
						c0.7,13.1,11.2,27.1,25.1,27.1h24.2c13.9,0,24.6-14,25.1-27.1h0.7c1.3,0,2.5-1.1,2.5-2.5C-105.5,300.9-106.6,299.8-107.9,299.8
						z M-133.8,329.2H-158c-12.2,0-21.6-12.7-22.4-24.2h69.2C-112.1,316.5-121.6,329.2-133.8,329.2z"/>
					<g id="XMLID_1000_">
						<g id="XMLID_1410_">
							<circle id="XMLID_1411_" class="st1" cx="-145.9" cy="316.8" r="5.5"/>
						</g>
						<g id="XMLID_1408_">
							<circle id="XMLID_1409_" class="st2" cx="-145.9" cy="316.8" r="6"/>
						</g>
						<g id="XMLID_1406_">
							<circle id="XMLID_1407_" class="st0" cx="-145.9" cy="316.8" r="3.2"/>
						</g>
						<g id="XMLID_1342_">
							<g id="XMLID_1404_">
								<path id="XMLID_1405_" class="st0" d="M-150.8,317.2L-150.8,317.2C-150.9,317.3-150.9,317.3-150.8,317.2
									c0.1,0.1,0,0,0.1-0.1c0.1,0,0.1,0.1,0.1,0.1c0,0.1,0,0.1-0.1,0.1l0,0v-0.1l0,0c0,0,0,0,0-0.1v-0.1
									C-150.8,316.9-150.7,317.2-150.8,317.2C-150.8,317.3-150.8,317.3-150.8,317.2C-150.9,317.2-150.8,317-150.8,317.2
									L-150.8,317.2z"/>
							</g>
							<g id="XMLID_1402_">
								<path id="XMLID_1403_" class="st0" d="M-150.5,317.6L-150.5,317.6L-150.5,317.6L-150.5,317.6L-150.5,317.6
									C-150.4,317.7-150.5,317.7-150.5,317.6L-150.5,317.6C-150.5,317.7-150.5,317.7-150.5,317.6L-150.5,317.6l0.1,0.1
									c0,0.1,0,0.1-0.1,0.1l0,0c0.1,0,0.1,0.1,0.1,0.1c0,0.1,0,0.1-0.1,0.1h-0.1l0,0l0,0h-0.1V318v-0.1h0.1
									C-150.5,317.8-150.5,317.8-150.5,317.6h-0.1c0,0,0,0-0.1,0h-0.1v-0.1L-150.5,317.6C-150.5,317.7-150.5,317.7-150.5,317.6
									S-150.5,317.4-150.5,317.6C-150.5,317.4-150.5,317.4-150.5,317.6l-0.3-0.1v-0.1L-150.5,317.6z"/>
							</g>
							<g id="XMLID_1398_">
								<path id="XMLID_1399_" class="st0" d="M-150.4,318.6L-150.4,318.6L-150.4,318.6C-150.3,318.6-150.3,318.6-150.4,318.6
									C-150.3,318.5-150.3,318.5-150.4,318.6L-150.4,318.6L-150.4,318.6L-150.4,318.6c0.1-0.1,0.1,0,0.1,0c0.1,0.1,0,0.1-0.1,0.3
									l-0.1,0.1l0,0l0,0h-0.1v-0.1v-0.1l0,0l0,0c0,0-0.1,0-0.1-0.1c0-0.1,0-0.1,0.1-0.1C-150.4,318.4-150.4,318.5-150.4,318.6z
									 M-150.5,318.6c0,0.1,0.1,0.1,0.1,0.1l0,0l0,0C-150.4,318.5-150.4,318.5-150.5,318.6C-150.5,318.5-150.5,318.5-150.5,318.6z
									"/>
							</g>
							<g id="XMLID_1396_">
								<path id="XMLID_1397_" class="st0" d="M-150,318.9L-150,318.9L-150,318.9L-150,318.9h0.1v0.1l-0.3,0.1l0,0l0,0h-0.1
									l-0.1-0.1v-0.1H-150z"/>
							</g>
							<g id="XMLID_1394_">
								<path id="XMLID_1395_" class="st0" d="M-149.7,319.2L-149.7,319.2L-149.7,319.2L-149.7,319.2h0.1v0.1l-0.3,0.3l0,0l0,0
									l-0.1,0.1l-0.1-0.1v-0.1L-149.7,319.2z"/>
							</g>
							<g id="XMLID_1392_">
								<path id="XMLID_1393_" class="st0" d="M-149.6,320.1L-149.6,320.1L-149.6,320.1c0.1,0.1,0-0.1,0.1-0.1c0.1-0.1,0.1,0,0.1,0
									s0.1,0.1,0,0.1l0,0l-0.1-0.1l0,0c0,0,0,0,0-0.1h-0.1C-149.6,320-149.3,320.1-149.6,320.1
									C-149.6,320.2-149.6,320.1-149.6,320.1L-149.6,320.1L-149.6,320.1z"/>
							</g>
							<g id="XMLID_1390_">
								<path id="XMLID_1391_" class="st0" d="M-149.1,320.4L-149.1,320.4L-149.1,320.4L-149.1,320.4l0.1-0.1l0.1,0.1H-149.1
									l0.1,0.1l-0.1,0.1V320.4L-149.1,320.4c-0.1,0.3,0,0.3,0,0.3l0,0l-0.1,0.1l0,0C-149.2,320.6-149.2,320.6-149.1,320.4
									L-149.1,320.4z"/>
							</g>
							<g id="XMLID_1386_">
								<path id="XMLID_1387_" class="st0" d="M-148.5,320.6c0.1,0.1,0.1,0.1,0,0.3l0,0l-0.3-0.1c0,0.1,0,0.1,0,0.1
									c0.1,0,0.1,0,0.1,0v0.1c0,0-0.1,0-0.1-0.1c-0.1-0.1-0.1-0.1-0.1-0.3C-148.7,320.6-148.7,320.6-148.5,320.6z M-148.5,320.8
									L-148.5,320.8L-148.5,320.8L-148.5,320.8z"/>
							</g>
							<g id="XMLID_1382_">
								<path id="XMLID_1383_" class="st0" d="M-148.1,320.9L-148.1,320.9L-148.1,320.9L-148.1,320.9L-148.1,320.9L-148.1,320.9
									L-148.1,320.9L-148.1,320.9c0.1,0,0.1,0,0.3,0c0.1,0.1,0.1,0.1,0.1,0.3c-0.1,0.1-0.1,0.1-0.3,0.1c-0.1,0-0.1-0.1-0.1-0.1
									l0,0l0,0l-0.1,0.1l-0.1-0.1L-148.1,320.9z M-148.1,321.2c0.1,0,0.1,0,0.1-0.1s0-0.1,0-0.1
									C-148.1,320.9-148.1,320.9-148.1,321.2L-148.1,321.2z"/>
							</g>
							<g id="XMLID_1380_">
								<path id="XMLID_1381_" class="st0" d="M-147.3,321.3L-147.3,321.3L-147.3,321.3L-147.3,321.3L-147.3,321.3
									c0-0.1,0.1-0.1,0.1-0.1l0,0v0.1l0,0H-147.3L-147.3,321.3l0.1-0.1v0.1H-147.3v0.3l0,0V321.3z"/>
							</g>
							<g id="XMLID_1376_">
								<path id="XMLID_1377_" class="st0" d="M-146.7,321.5c0.1,0,0.1,0.1,0.1,0.3c0,0.1-0.1,0.1-0.3,0.1c-0.1,0-0.1-0.1-0.1-0.3
									C-146.9,321.5-146.8,321.5-146.7,321.5z M-146.8,321.7c0.1,0,0.1,0,0.1-0.1c0-0.1,0-0.1-0.1-0.1s-0.1,0-0.1,0.1
									C-146.8,321.7-146.8,321.7-146.8,321.7z"/>
							</g>
							<g id="XMLID_1374_">
								<path id="XMLID_1375_" class="st0" d="M-146.3,321.6L-146.3,321.6L-146.3,321.6L-146.3,321.6L-146.3,321.6
									c0.1-0.1,0.1-0.1,0.1,0l0,0l0,0l0,0c0-0.1,0.1-0.1,0.1-0.1l0,0v0.1l0,0c0,0-0.1,0-0.1,0.1c0,0,0,0,0,0.1v0.1h-0.1V321.6z"/>
							</g>
							<g id="XMLID_1370_">
								<path id="XMLID_1371_" class="st0" d="M-145.2,321.6L-145.2,321.6L-145.2,321.6L-145.2,321.6
									C-145.2,321.5-145.2,321.5-145.2,321.6L-145.2,321.6h-0.1l0,0C-145.3,321.5-145.2,321.5-145.2,321.6c0.1-0.1,0.1,0,0.1,0.1
									v0.1l0,0l0,0v0.1h-0.1h-0.1l0,0l0,0c0,0,0,0.1-0.1,0.1s-0.1,0-0.1-0.1C-145.5,321.7-145.2,321.7-145.2,321.6z M-145.2,321.9
									C-145.2,321.9-145.2,321.7-145.2,321.9L-145.2,321.9L-145.2,321.9C-145.2,321.7-145.3,321.7-145.2,321.9
									C-145.2,321.7-145.2,321.9-145.2,321.9z"/>
							</g>
							<g id="XMLID_1365_">
								<path id="XMLID_1366_" class="st0" d="M-144.4,321.3L-144.4,321.3L-144.4,321.3l0.1-0.1c0.1,0,0.1,0,0.1,0.1
									c0,0.1,0,0.1,0,0.1l0,0c0.1,0,0.1,0,0.1,0.1c0,0.1,0,0.1-0.1,0.3l-0.1,0.1h-0.1V321.3z M-144.3,321.3
									C-144.3,321.3-144.1,321.3-144.3,321.3C-144.3,321.3-144.4,321.2-144.3,321.3l-0.1-0.1L-144.3,321.3L-144.3,321.3z
									 M-144.1,321.5L-144.1,321.5C-144.1,321.5-144,321.5-144.1,321.5C-144,321.3-144.1,321.3-144.1,321.5l-0.1-0.1L-144.1,321.5
									C-144.3,321.5-144.3,321.5-144.1,321.5z"/>
							</g>
							<g id="XMLID_1363_">
								<path id="XMLID_1364_" class="st0" d="M-143.7,321.3L-143.7,321.3l-0.1-0.3h-0.1v-0.1l0.1-0.1v0.1h-0.1L-143.7,321.3
									l0.1-0.1v0.1H-143.7L-143.7,321.3z"/>
							</g>
							<g id="XMLID_1361_">
								<path id="XMLID_1362_" class="st0" d="M-143.3,320.6c0.1-0.1,0.1-0.1,0.1-0.1v0.1C-143.2,320.6-143.2,320.6-143.3,320.6
									c0,0.1-0.1,0.3,0,0.3c0.1,0.1,0.1,0.1,0.3,0.1c0.1-0.1,0.1-0.1,0.1-0.1l0,0l0,0l0,0l-0.1-0.1l0.1-0.1h0.1l0.1,0.1l-0.1,0.1
									l0,0l0,0l0,0c0,0,0,0.1-0.1,0.1s-0.3,0.1-0.3-0.1C-143.5,320.9-143.5,320.8-143.3,320.6z"/>
							</g>
							<g id="XMLID_1359_">
								<path id="XMLID_1360_" class="st0" d="M-142.5,320.1c0,0,0.1-0.1,0.1,0l0,0H-142.5L-142.5,320.1
									C-142.4,320.1-142.4,320.1-142.5,320.1c0,0.1,0,0.1,0.1,0.3c0.1,0.1,0.1,0.1,0.1,0c0.1-0.1,0.1-0.1,0.1-0.1h0.1
									c0,0,0,0.1-0.1,0.1c-0.1,0.1-0.3,0.1-0.3,0C-142.5,320.2-142.5,320.2-142.5,320.1z"/>
							</g>
							<g id="XMLID_1357_">
								<path id="XMLID_1358_" class="st0" d="M-142.3,319.7L-142.3,319.7L-142.3,319.7L-142.3,319.7L-142.3,319.7L-142.3,319.7h0.1
									l0,0l0,0v-0.1c0.1-0.1,0.1-0.1,0.1,0l0.1,0.1l0,0l0,0l0.1,0.1l-0.1,0.1h-0.1L-142.3,319.7L-142.3,319.7
									c0.1,0.1,0.1,0.3,0.1,0.3l0,0l0.1,0.1l-0.1,0.1L-142.3,319.7z"/>
							</g>
							<g id="XMLID_1353_">
								<path id="XMLID_1354_" class="st0" d="M-141.6,319.2L-141.6,319.2L-141.6,319.2C-141.7,319.2-141.7,319.2-141.6,319.2
									L-141.6,319.2L-141.6,319.2l-0.1,0.1l0,0c-0.1,0,0-0.1,0-0.1H-141.6h0.1l0,0l0,0h0.1l-0.1,0.1L-141.6,319.2L-141.6,319.2
									L-141.6,319.2c0.1,0.1,0.1,0.1,0.1,0.3c0,0.1-0.1,0.1-0.1,0.1C-141.7,319.4-141.6,319.2-141.6,319.2z M-141.5,319.4
									c0-0.1,0-0.1-0.1-0.1l0,0l0,0C-141.6,319.3-141.6,319.4-141.5,319.4C-141.6,319.4-141.6,319.4-141.5,319.4z"/>
							</g>
							<g id="XMLID_1351_">
								<path id="XMLID_1352_" class="st0" d="M-141.5,318.9L-141.5,318.9L-141.5,318.9L-141.5,318.9L-141.5,318.9
									C-141.6,318.8-141.5,318.8-141.5,318.9L-141.5,318.9L-141.5,318.9L-141.5,318.9c0-0.1-0.1-0.1,0-0.3c0-0.1,0.1-0.1,0.1-0.1
									l0.1,0.1l0,0l0,0h0.1v0.1c0,0,0,0-0.1,0l-0.1-0.1c-0.1,0-0.1,0-0.1,0C-141.5,318.8-141.5,318.8-141.5,318.9
									c0.1-0.1,0.1-0.1,0.1-0.1l0.1,0.1v0.1L-141.5,318.9z"/>
							</g>
							<g id="XMLID_1347_">
								<path id="XMLID_1348_" class="st0" d="M-141.2,318.1C-141.2,318-141.2,318-141.2,318.1L-141.2,318.1L-141.2,318.1
									c0.1-0.1,0.1-0.1,0.1-0.1v-0.1h0.1l0,0l0,0l0.3,0.1c0.1,0,0.1,0.1,0.1,0.3c0,0.1,0,0.1-0.1,0.1l-0.1-0.1c0,0,0,0,0.1-0.1
									c0-0.1,0-0.1-0.1-0.1l0,0l0,0l0,0v0.1C-140.9,318.1-141.1,318.2-141.2,318.1C-141.2,318.2-141.3,318.2-141.2,318.1z
									 M-141.1,318c-0.1,0-0.1,0-0.1,0.1c0,0.1,0,0.1,0.1,0.1C-141.1,318.2-141.1,318.2-141.1,318
									C-140.9,318.1-141.1,318-141.1,318z"/>
							</g>
							<g id="XMLID_1343_">
								<path id="XMLID_1344_" class="st0" d="M-141.2,317.4c0-0.1,0.1-0.1,0.1-0.1l0,0v0.3c0.1,0,0.1-0.1,0.1-0.1
									c0-0.1,0-0.1,0-0.1h0.1c0,0,0.1,0.1,0,0.1c0,0.1-0.1,0.1-0.3,0.1C-141.1,317.7-141.2,317.6-141.2,317.4z M-141.1,317.4
									L-141.1,317.4C-141.2,317.6-141.2,317.6-141.1,317.4L-141.1,317.4z"/>
							</g>
						</g>
						<g id="XMLID_1317_">
							<g id="XMLID_1340_">
								<path id="XMLID_1341_" class="st0" d="M-149.9,314.2l0.1-0.1l0.3,0.1c0,0.1,0,0.1,0,0.1c0,0.1,0,0.1-0.1,0.1
									c-0.1,0.1-0.1,0.1-0.1,0.1c-0.1,0.1-0.1,0.1-0.3,0.1c-0.1,0-0.1,0-0.3-0.1c-0.1-0.1-0.1-0.1-0.1-0.1c0-0.1-0.1-0.1-0.1-0.3
									c0-0.1,0-0.1,0.1-0.3c0-0.1,0.1-0.1,0.1-0.1c0.1-0.1,0.1-0.1,0.1-0.1l0.1,0.1c-0.1,0-0.1,0.1-0.3,0.1c0,0.1-0.1,0.1-0.1,0.1
									c0,0.1,0,0.1,0,0.1l0.1,0.1c0.1,0,0.1,0.1,0.1,0.1h0.1L-149.9,314.2h0.1H-149.9z"/>
							</g>
							<g id="XMLID_1336_">
								<path id="XMLID_1337_" class="st0" d="M-148.9,313.8c-0.1,0-0.1,0-0.3,0c-0.1,0-0.1-0.1-0.3-0.1c-0.1-0.1-0.1-0.1-0.1-0.3
									c0-0.1,0-0.1,0-0.3c0-0.1,0.1-0.1,0.1-0.3c0.1-0.1,0.1-0.1,0.3-0.1c0.1,0,0.1,0,0.3,0c0.1,0,0.1,0.1,0.3,0.1
									c0.1,0,0.1,0.1,0.1,0.3c0,0.1,0,0.1,0,0.3c0,0.1-0.1,0.1-0.1,0.3C-148.8,313.7-148.8,313.8-148.9,313.8z M-148.8,313.4
									C-148.8,313.3-148.8,313.3-148.8,313.4c0-0.3,0-0.3-0.1-0.3l-0.1-0.1h-0.1c0,0-0.1,0-0.1,0.1l-0.1,0.1c0,0.1,0,0.1,0,0.1
									s0,0.1,0.1,0.1l0.1,0.1h0.1c0,0,0.1,0,0.1-0.1C-148.8,313.6-148.8,313.6-148.8,313.4z"/>
							</g>
							<g id="XMLID_1334_">
								<path id="XMLID_1335_" class="st0" d="M-147.3,312.4l-0.1,0.1l0.1,0.3l-0.1,0.1l-0.3-0.8l0.1-0.1L-147.3,312.4l0.1-0.5
									l0.3-0.1l-0.3,0.4l0.5,0.3l-0.3,0.1L-147.3,312.4z"/>
							</g>
							<g id="XMLID_1332_">
								<path id="XMLID_1333_" class="st0" d="M-146.4,311.7h0.3l0.1,0.8h-0.3L-146.4,311.7z"/>
							</g>
							<g id="XMLID_1328_">
								<path id="XMLID_1329_" class="st0" d="M-145.5,311.7l0.4,0.1c0.1,0,0.1,0.1,0.3,0.1c0.1,0.1,0.1,0.1,0.1,0.1
									c0,0.1,0,0.1,0,0.3c0,0.1-0.1,0.1-0.1,0.3c-0.1,0.1-0.1,0.1-0.1,0.1c-0.1,0-0.1,0-0.3,0l-0.4-0.1L-145.5,311.7z
									 M-145.2,312.4c0.1,0,0.1,0,0.3-0.1c0.1-0.1,0.1-0.1,0.1-0.1s0-0.1-0.1-0.3c-0.1-0.1-0.1-0.1-0.1-0.1h-0.1l-0.1,0.5
									L-145.2,312.4L-145.2,312.4z"/>
							</g>
							<g id="XMLID_1324_">
								<path id="XMLID_1325_" class="st0" d="M-144.1,312.8c-0.1-0.1-0.1-0.1-0.1-0.3c0-0.1,0-0.1,0.1-0.3c0-0.1,0.1-0.1,0.1-0.1
									c0.1-0.1,0.1-0.1,0.3-0.1c0.1,0,0.1,0,0.3,0.1c0.1,0.1,0.1,0.1,0.1,0.1c0.1,0.1,0.1,0.1,0.1,0.3c0,0.1,0,0.1-0.1,0.3
									c0,0.1-0.1,0.1-0.1,0.1c-0.1,0.1-0.1,0.1-0.3,0.1c-0.1,0-0.1,0-0.3-0.1L-144.1,312.8z M-143.7,312.8c0.1,0,0.1,0,0.1-0.1
									c0.1,0,0.1-0.1,0.1-0.1c0-0.1,0-0.1,0-0.1c0-0.1,0-0.1-0.1-0.1c0-0.1-0.1-0.1-0.1-0.1c-0.1,0-0.1,0-0.1,0s-0.1,0-0.1,0.1
									c-0.1,0-0.1,0.1-0.1,0.1c0,0.1,0,0.1,0,0.1s0,0.1,0.1,0.1c0,0.1,0.1,0.1,0.1,0.1S-143.9,312.8-143.7,312.8z"/>
							</g>
							<g id="XMLID_1322_">
								<path id="XMLID_1323_" class="st0" d="M-142.5,313.4l0.1,0.1l-0.3,0.3c-0.1,0-0.1,0-0.1-0.1c-0.1,0-0.1-0.1-0.1-0.1
									c-0.1-0.1-0.1-0.1-0.1-0.3c0-0.1,0-0.1,0-0.3c0-0.1,0.1-0.1,0.1-0.3c0-0.1,0.1-0.1,0.3-0.1c0.1,0,0.1,0,0.3,0
									s0.1,0.1,0.3,0.1s0.1,0.1,0.1,0.1c0,0.1,0.1,0.1,0,0.1h-0.1c0-0.1,0-0.1-0.1-0.3c-0.1,0-0.1-0.1-0.1-0.1h-0.1l-0.1,0.1
									c0,0.1-0.1,0.1-0.1,0.1c0,0.1,0,0.1,0,0.1l0.1,0.1C-142.5,313.3-142.5,313.3-142.5,313.4L-142.5,313.4z"/>
							</g>
							<g id="XMLID_1318_">
								<path id="XMLID_1319_" class="st0" d="M-142.3,314.4c0-0.1,0-0.1,0.1-0.3c0-0.1,0.1-0.1,0.1-0.1c0.1-0.1,0.1-0.1,0.3-0.1
									c0.1,0,0.1,0,0.3,0.1c0.1,0.1,0.1,0.1,0.1,0.1c0.1,0.1,0.1,0.1,0.1,0.3s0,0.1-0.1,0.3c-0.1,0.1-0.1,0.1-0.1,0.1
									c-0.1,0.1-0.1,0.1-0.3,0.1c-0.1,0-0.1,0-0.3-0.1c-0.1-0.1-0.1-0.1-0.1-0.1C-142.1,314.5-142.3,314.5-142.3,314.4z
									 M-142,314.6c0.1,0,0.1,0,0.1,0s0.1,0,0.1-0.1c0.1,0,0.1-0.1,0.1-0.1c0-0.1,0-0.1,0-0.1c0-0.1,0-0.1-0.1-0.1
									c0-0.1-0.1-0.1-0.1-0.1c-0.1,0-0.1,0-0.1,0s-0.1,0-0.1,0.1c-0.1,0-0.1,0.1-0.1,0.1c0,0.1,0,0.1,0,0.1
									C-142.1,314.5-142.1,314.5-142,314.6L-142,314.6z"/>
							</g>
						</g>
						<g id="XMLID_1084_">
							<g id="XMLID_1100_">
								<path id="XMLID_1316_" class="st2" d="M-148.8,317.2c0.1,0.3,0.1,0.5,0.3,0.7c0.4,0.9,1.1,1.5,2,1.6c0.1,0,0.1,0.1,0.3,0.1
									c0,0.1-0.1,0.3-0.3,0.3c-0.4-0.1-0.7-0.1-1.1-0.4c-0.9-0.5-1.5-1.2-1.6-2.1c0,0,0,0,0-0.1c-0.1,0.1-0.1,0.1-0.1,0.1
									c-0.1,0.1-0.3,0.1-0.3,0c-0.1-0.1-0.1-0.1,0-0.3c0.1-0.1,0.3-0.4,0.4-0.5c0.1-0.1,0.1-0.1,0.3,0c0.1,0.1,0.4,0.3,0.5,0.4
									c0.1,0.1,0.1,0.1,0.1,0.3c-0.1,0.1-0.1,0.1-0.3,0C-148.7,317.3-148.7,317.3-148.8,317.2
									C-148.8,317.3-148.8,317.3-148.8,317.2z"/>
								<path id="XMLID_1313_" class="st3" d="M-146.5,320L-146.5,320c-0.4-0.1-0.8-0.3-1.1-0.4c-0.8-0.5-1.5-1.2-1.6-2.1l0,0
									c-0.1,0.1-0.3,0.1-0.4,0.1c-0.1-0.1-0.1-0.3,0-0.4c0.1-0.3,0.3-0.4,0.4-0.5c0.1-0.1,0.3-0.1,0.4,0c0.1,0.1,0.4,0.3,0.5,0.4
									c0.1,0.1,0.1,0.3,0.1,0.4c-0.1,0.1-0.3,0.1-0.4,0l0,0l0,0c0.1,0.1,0.1,0.3,0.1,0.4c0.4,0.8,1.1,1.3,2,1.6
									c0.1,0,0.3,0.1,0.3,0.3s0,0.1-0.1,0.3C-146.4,320-146.4,320-146.5,320z M-149.2,317.2l0.1,0.3c0.1,0.9,0.7,1.6,1.5,2.1
									c0.3,0.1,0.7,0.3,0.9,0.4c0.1,0,0.1,0,0.1,0v-0.1c0-0.1,0-0.1-0.1-0.1c-0.9-0.3-1.7-0.8-2.1-1.6c-0.1-0.1-0.1-0.3-0.1-0.4
									c0-0.1-0.1-0.1-0.1-0.3L-149.2,317.2L-149.2,317.2l0.3,0.1l0.1,0.1l0.1,0.1c0.1,0.1,0.1,0,0.1,0s0.1-0.1,0-0.1
									c-0.1-0.1-0.4-0.3-0.5-0.4C-149.2,316.9-149.2,316.9-149.2,317.2c-0.1,0-0.3,0.3-0.4,0.4c-0.1,0.1-0.1,0.1,0,0.1
									c0.1,0,0.1,0,0.1,0l0.1-0.1L-149.2,317.2z"/>
							</g>
							<g id="XMLID_1095_">
								<path id="XMLID_1099_" class="st2" d="M-143.2,316.2c0-0.1-0.1-0.3-0.1-0.4c-0.4-0.9-1.1-1.6-2.1-1.9c-0.1,0-0.1,0-0.1-0.1
									c-0.1-0.1-0.1-0.1-0.1-0.3c0.1-0.1,0.1-0.1,0.3-0.1c0.5,0.1,1.1,0.4,1.5,0.7c0.7,0.5,0.9,1.1,1.1,1.9v0.1
									c0.1-0.1,0.1-0.1,0.1-0.1c0.1-0.1,0.3-0.1,0.3-0.1c0.1,0.1,0.1,0.1,0,0.3c-0.1,0.1-0.3,0.4-0.4,0.5c-0.1,0.1-0.3,0.1-0.3,0
									c-0.1-0.1-0.4-0.3-0.5-0.4c-0.1-0.1-0.1-0.3-0.1-0.3s0.1-0.1,0.3,0C-143.3,316.2-143.3,316.2-143.2,316.2
									C-143.2,316.4-143.2,316.4-143.2,316.2z"/>
								<path id="XMLID_1096_" class="st3" d="M-142.9,317c-0.1,0-0.1,0-0.3-0.1c-0.1-0.1-0.4-0.3-0.5-0.4c-0.1-0.1-0.1-0.1-0.1-0.3
									s0-0.1,0.1-0.3c0.1-0.1,0.3-0.1,0.4,0l0,0c0-0.1,0-0.1-0.1-0.1c-0.3-0.9-0.9-1.6-2-1.9c-0.1,0-0.1-0.1-0.3-0.1
									c-0.1-0.1-0.1-0.3-0.1-0.3c0.1-0.1,0.1-0.1,0.3-0.1c0.7,0.1,1.1,0.4,1.5,0.8c0.5,0.4,0.9,1.1,1.1,1.9c0,0,0,0,0-0.1
									c0.1-0.1,0.3-0.1,0.4-0.1c0.1,0.1,0.1,0.3,0,0.4c-0.1,0.3-0.3,0.4-0.4,0.5C-142.8,317-142.8,317-142.9,317z M-143.5,316.2
									C-143.6,316.2-143.6,316.2-143.5,316.2C-143.6,316.2-143.6,316.2-143.5,316.2C-143.6,316.4-143.6,316.4-143.5,316.2
									c0.1,0.3,0.4,0.4,0.5,0.5c0.1,0.1,0.1,0.1,0.1,0c0.1-0.1,0.3-0.4,0.4-0.5c0,0,0.1-0.1,0-0.1s-0.1,0-0.1,0l-0.1,0.1l-0.1,0.1
									l-0.1-0.1v-0.1c-0.1-0.7-0.4-1.3-1.1-1.9c-0.4-0.4-0.9-0.7-1.5-0.7c-0.1,0-0.1,0-0.1,0.1c-0.1,0.1,0,0.1,0,0.1l0.1,0.1
									c1.1,0.3,1.9,0.9,2.1,2c0,0.1,0.1,0.1,0.1,0.3c0,0.1,0,0.1,0,0.1v0.1h-0.1l0,0L-143.5,316.2L-143.5,316.2L-143.5,316.2z"/>
							</g>
							<g id="XMLID_1090_">
								<path id="XMLID_1094_" class="st2" d="M-146.4,314.1c-0.4,0.1-0.7,0.1-0.9,0.3c-0.7,0.4-1.1,1.1-1.3,1.9
									c0,0.1,0,0.1-0.1,0.1c-0.1,0.1-0.1,0.1-0.3,0.1c-0.1-0.1-0.1-0.1-0.1-0.3c0.1-0.4,0.3-0.9,0.7-1.3c0.5-0.7,1.1-1.1,2-1.2
									l0,0l0,0c-0.1-0.1-0.1-0.1-0.1-0.1c-0.1-0.1-0.1-0.3-0.1-0.3s0.1-0.1,0.3,0c0.1,0.1,0.4,0.3,0.5,0.4c0.1,0.1,0.1,0.3,0,0.3
									c-0.1,0.1-0.3,0.4-0.4,0.5c-0.1,0.1-0.1,0.1-0.3,0.1c-0.1,0-0.1-0.1-0.1-0.1c0-0.1,0-0.1,0.1-0.1
									C-146.5,314.2-146.4,314.1-146.4,314.1z"/>
								<path id="XMLID_1091_" class="st3" d="M-148.9,316.5c-0.1,0-0.1,0-0.1,0c-0.1-0.1-0.1-0.1-0.1-0.3c0.1-0.5,0.3-0.9,0.7-1.3
									c0.5-0.7,1.1-1.1,2-1.2l0,0c-0.1-0.1-0.1-0.3-0.1-0.4s0.1-0.1,0.3-0.1s0.1,0,0.3,0.1c0.1,0.1,0.4,0.3,0.5,0.4
									c0.1,0.1,0.1,0.3,0.1,0.4l-0.1,0.1c-0.1,0.1-0.3,0.3-0.3,0.4s-0.1,0.1-0.3,0.1c-0.1,0-0.1-0.1-0.3-0.3c0-0.1,0-0.3,0.1-0.3
									l0,0c-0.3,0.1-0.5,0.1-0.8,0.3c-0.7,0.4-1.1,0.9-1.3,1.7c0,0.1,0,0.1-0.1,0.1C-148.8,316.5-148.8,316.5-148.9,316.5z
									 M-146.5,313.2L-146.5,313.2C-146.7,313.2-146.7,313.2-146.5,313.2c-0.1,0.1-0.1,0.1,0,0.3l0.3,0.3l-0.1,0.1l0,0
									c0,0,0,0-0.1,0c-0.8,0.1-1.5,0.5-1.9,1.1c-0.3,0.4-0.4,0.8-0.7,1.3c0,0.1,0,0.1,0.1,0.1c0.1,0,0.1,0,0.1,0s0-0.1,0.1-0.1
									c0.3-0.8,0.7-1.5,1.5-1.9c0.3-0.1,0.7-0.3,0.9-0.4h0.3l-0.1,0.1l-0.1,0.1c-0.1,0.1-0.1,0.1-0.1,0.1c0,0.1,0,0.1,0,0.1
									l0.1,0.1c0,0,0.1,0,0.1-0.1c0.1-0.1,0.3-0.3,0.3-0.4l0.1-0.1c0.1-0.1,0.1-0.1,0-0.3c-0.1-0.1-0.4-0.3-0.5-0.4
									C-146.5,313.2-146.5,313.2-146.5,313.2z"/>
							</g>
							<g id="XMLID_1085_">
								<path id="XMLID_1089_" class="st2" d="M-145.5,319.6c1.1-0.3,1.9-0.9,2.1-2.1c0.1-0.3,0.1-0.3,0.3-0.3
									c0.1,0,0.1,0.1,0.1,0.3c-0.4,1.3-1.1,2-2.4,2.3L-145.5,319.6c0.1,0.3,0.1,0.3,0.1,0.3c0.1,0.1,0.1,0.1,0.1,0.3
									c-0.1,0.1-0.1,0.1-0.3,0c-0.1-0.1-0.4-0.3-0.5-0.4c-0.1-0.1-0.1-0.1,0-0.3c0.1-0.1,0.3-0.4,0.4-0.5c0.1-0.1,0.3-0.1,0.3,0
									c0,0.1,0.1,0.1,0,0.3l-0.1,0.1C-145.5,319.4-145.5,319.6-145.5,319.6z"/>
								<path id="XMLID_1086_" class="st3" d="M-145.3,320.5c-0.1,0-0.1,0-0.3-0.1c-0.1-0.1-0.4-0.3-0.5-0.4c-0.1-0.1-0.1-0.3,0-0.4
									c0.1-0.3,0.3-0.4,0.4-0.5c0.1-0.1,0.1-0.1,0.3-0.1c0.1,0,0.1,0,0.3,0.1c0.1,0.1,0.1,0.3,0.1,0.4c0.9-0.3,1.6-0.9,1.9-2
									c0-0.1,0.1-0.4,0.4-0.3c0.1,0,0.1,0.1,0.1,0.1c0.1,0.1,0.1,0.1,0,0.3c-0.4,1.3-1.2,2.1-2.5,2.4c0,0,0,0,0.1,0.1
									c0.1,0.1,0.1,0.3,0.1,0.4C-145.2,320.5-145.2,320.5-145.3,320.5z M-145.5,319.2L-145.5,319.2L-145.5,319.2
									c-0.3,0.3-0.4,0.4-0.5,0.7c-0.1,0.1-0.1,0.1,0,0.1c0.1,0.1,0.4,0.3,0.5,0.4c0,0,0.1,0.1,0.1,0c0,0,0.1-0.1,0-0.1
									s-0.1-0.1-0.1-0.1l-0.3-0.1l0.3-0.1c1.2-0.3,2-1.1,2.4-2.3c0-0.1,0-0.1,0-0.1s0,0-0.1-0.1c-0.1,0-0.1,0-0.1,0.1
									c-0.3,1.1-1.1,1.9-2.3,2.1l-0.3,0.1l0.1-0.3C-145.7,319.4-145.7,319.3-145.5,319.2C-145.6,319.3-145.6,319.3-145.5,319.2
									C-145.6,319.2-145.6,319.2-145.5,319.2C-145.3,319.2-145.3,319.2-145.5,319.2L-145.5,319.2z"/>
							</g>
						</g>
						<g id="XMLID_1039_">
							<g id="XMLID_1082_">
								<path id="XMLID_1083_" class="st3" d="M-141.5,316.9L-141.5,316.9C-141.6,316.9-141.6,316.8-141.5,316.9L-141.5,316.9
									C-141.5,316.8-141.5,316.8-141.5,316.9z"/>
							</g>
							<g id="XMLID_1042_">
								<path id="XMLID_1043_" class="st3" d="M-145.9,321.2c-0.1,0-0.1,0-0.1,0v-0.1C-146,321.1-146,321.1-145.9,321.2
									L-145.9,321.2z M-145.7,321.2L-145.7,321.2c0.1-0.1,0.1-0.1,0.1-0.1v0.1H-145.7z M-146.3,321.1c-0.1,0-0.1,0-0.1,0v-0.1
									C-146.4,321.1-146.3,321.1-146.3,321.1L-146.3,321.1z M-145.5,321.1L-145.5,321.1c0.1-0.1,0.1-0.1,0.1-0.1v0.1
									C-145.2,321.1-145.3,321.1-145.5,321.1z M-146.7,321.1c-0.1,0-0.1,0-0.1,0v-0.1C-146.7,320.9-146.7,320.9-146.7,321.1
									L-146.7,321.1z M-145.1,321.1L-145.1,321.1c0.1-0.1,0.1-0.1,0.1-0.1v0.1H-145.1z M-146.9,320.9c-0.1,0-0.1,0-0.1-0.1v-0.1
									C-147.1,320.9-146.9,320.9-146.9,320.9L-146.9,320.9z M-144.7,320.9L-144.7,320.9c0.1-0.1,0.1-0.1,0.1-0.1v0.1H-144.7z
									 M-147.3,320.8c-0.1,0-0.1-0.1-0.1-0.1v-0.1C-147.3,320.8-147.3,320.8-147.3,320.8L-147.3,320.8z M-144.4,320.8
									L-144.4,320.8c0-0.1,0.1-0.1,0.1-0.1v0.1H-144.4z M-147.6,320.8c-0.1,0-0.1-0.1-0.1-0.1v-0.1
									C-147.6,320.6-147.6,320.6-147.6,320.8L-147.6,320.8z M-144,320.8L-144,320.8c0-0.1,0.1-0.1,0.1-0.1v0.1
									C-144,320.6-144,320.6-144,320.8z M-147.9,320.6c-0.1,0-0.1-0.1-0.1-0.1v-0.1C-148,320.4-148,320.5-147.9,320.6
									L-147.9,320.6z M-143.7,320.6L-143.7,320.6c0-0.1,0.1-0.1,0.1-0.1v0.1C-143.7,320.5-143.7,320.5-143.7,320.6z M-148.1,320.4
									c-0.1,0-0.1-0.1-0.1-0.1l0,0C-148.3,320.2-148.1,320.2-148.1,320.4L-148.1,320.4z M-143.5,320.4L-143.5,320.4
									c0-0.1,0.1-0.1,0.1-0.1L-143.5,320.4C-143.3,320.2-143.3,320.4-143.5,320.4z M-148.5,320.2c-0.1,0-0.1-0.1-0.1-0.1V320
									C-148.5,320.1-148.5,320.1-148.5,320.2L-148.5,320.2z M-143.2,320.2L-143.2,320.2c0-0.1,0.1-0.1,0.1-0.1L-143.2,320.2
									C-143.1,320.1-143.2,320.1-143.2,320.2z M-148.7,320c-0.1-0.1-0.1-0.1-0.1-0.1l0.1-0.1C-148.8,319.8-148.8,320-148.7,320
									L-148.7,320z M-142.9,320L-142.9,320c0-0.1,0.1-0.1,0.1-0.1l0.1,0.1C-142.8,320-142.8,320-142.9,320z M-149.1,319.7
									c-0.1-0.1-0.1-0.1-0.1-0.1l0.1-0.1C-149.1,319.6-149.1,319.6-149.1,319.7L-149.1,319.7z M-142.7,319.7L-142.7,319.7
									c0-0.1,0-0.1,0.1-0.1h0.1C-142.5,319.6-142.7,319.7-142.7,319.7z M-149.2,319.4c0-0.1-0.1-0.1-0.1-0.1L-149.2,319.4
									L-149.2,319.4L-149.2,319.4z M-142.5,319.4L-142.5,319.4c0-0.1,0-0.1,0.1-0.1h0.1C-142.4,319.4-142.4,319.4-142.5,319.4z
									 M-149.3,319.2c0-0.1-0.1-0.1-0.1-0.1L-149.3,319.2C-149.5,319-149.3,319-149.3,319.2L-149.3,319.2z M-142.3,319.2
									L-142.3,319.2c0-0.1,0-0.1,0.1-0.1h0.1C-142.1,319-142.1,319-142.3,319.2z M-149.6,318.9c0-0.1-0.1-0.1-0.1-0.1
									L-149.6,318.9C-149.6,318.8-149.6,318.8-149.6,318.9L-149.6,318.9z M-142,318.9L-142,318.9C-142,318.8-142,318.8-142,318.9
									l0.1-0.1C-142,318.8-142,318.8-142,318.9z M-149.7,318.5c0-0.1-0.1-0.1-0.1-0.1L-149.7,318.5L-149.7,318.5L-149.7,318.5z
									 M-141.9,318.5L-141.9,318.5C-141.9,318.4-141.9,318.4-141.9,318.5l0.1-0.1C-141.9,318.5-141.9,318.5-141.9,318.5z
									 M-149.9,318.2c0-0.1-0.1-0.1-0.1-0.1L-149.9,318.2L-149.9,318.2L-149.9,318.2z M-141.7,318.2L-141.7,318.2
									C-141.7,318.1-141.7,318.1-141.7,318.2l0.1-0.1C-141.7,318.1-141.7,318.2-141.7,318.2z M-150,317.8c0-0.1,0-0.1-0.1-0.1
									L-150,317.8C-150,317.8-149.9,317.8-150,317.8L-150,317.8z M-141.6,317.8L-141.6,317.8
									C-141.7,317.7-141.6,317.7-141.6,317.8l0.1-0.1C-141.6,317.8-141.6,317.8-141.6,317.8z M-150,317.6
									C-150,317.4-150,317.4-150,317.6l0.1-0.1C-150,317.4-150,317.4-150,317.6L-150,317.6z M-141.6,317.6L-141.6,317.6
									C-141.7,317.4-141.7,317.4-141.6,317.6l0.1-0.1C-141.6,317.4-141.6,317.4-141.6,317.6z M-150.1,317.2
									C-150.1,317-150.1,317-150.1,317.2l0.1-0.1C-150,317.2-150,317.2-150.1,317.2L-150.1,317.2z M-141.6,317.2L-141.6,317.2
									c-0.1-0.1-0.1-0.1-0.1-0.1L-141.6,317.2C-141.5,317.2-141.6,317.2-141.6,317.2z"/>
							</g>
							<g id="XMLID_1040_">
								<path id="XMLID_1041_" class="st3" d="M-150.1,316.9L-150.1,316.9L-150.1,316.9C-150,316.8-150,316.8-150.1,316.9
									L-150.1,316.9z"/>
							</g>
						</g>
						<g id="XMLID_1037_">
							<circle id="XMLID_1038_" class="st0" cx="-150" cy="316" r="0.3"/>
						</g>
						<g id="XMLID_1035_">
							<circle id="XMLID_1036_" class="st0" cx="-141.7" cy="316" r="0.3"/>
						</g>
						<g id="XMLID_1001_">
							<g id="XMLID_1024_">
								<g id="XMLID_1030_">
									<g id="XMLID_1031_">
										<path id="XMLID_1032_" class="st2" d="M-147.6,316.5c0.1,0,0.1-0.1,0.1-0.1c0-0.1,0,0,0,0v-0.7c0,0,0,0.4,0,0.7l0,0
											c0-0.3,0-0.7,0-0.7s0,0.4,0,0.7l0,0c0-0.3,0-0.7,0-0.7s0,0.4,0,0.7l0,0c0-0.3,0-0.7,0-0.7s0,0.5,0,0.7
											C-147.7,316.5-147.7,316.5-147.6,316.5 M-147.6,316.5C-147.6,316.5-147.6,316.4-147.6,316.5L-147.6,316.5
											c0-0.1,0.1,0,0.1,0C-147.5,316.5-147.6,316.5-147.6,316.5z"/>
									</g>
								</g>
								<g id="XMLID_1025_">
									<g id="XMLID_1026_">
										<path id="XMLID_1027_" class="st2" d="M-147.5,316.5L-147.5,316.5c-0.1,0.1-0.1,0.7-0.1,0.9s0,0.7,0.1,0.7
											s0.1-0.4,0.1-0.7C-147.5,317.2-147.5,316.6-147.5,316.5z M-147.6,317.8C-147.6,318-147.6,318-147.6,317.8L-147.6,317.8
											c-0.1-0.1-0.1-0.3,0-0.4l0,0l0,0c0-0.1,0-0.1,0-0.3c0,0.1,0,0.1,0,0.3l0,0l0,0C-147.6,317.6-147.6,317.7-147.6,317.8z"/>
									</g>
								</g>
							</g>
							<g id="XMLID_1019_">
								<path id="XMLID_1020_" class="st2" d="M-144,317.4c0-0.1,0-0.4,0-0.4V316l0,0c0,0-0.1,0-0.1,0.1c-0.1,0.1-0.1,0.9-0.1,0.9
									c0.1,0,0.1,0.1,0.1,0.1C-144,317.2-144,317.3-144,317.4c-0.1,0.4-0.1,0.7,0,0.7C-144,318-144,317.7-144,317.4z
									 M-144.1,316.8c0-0.3,0-0.8,0.1-0.9l0,0L-144.1,316.8C-144,316.8-144.1,316.8-144.1,316.8z M-144,317.8
									C-144,318-144,318-144,317.8L-144,317.8c-0.1-0.1-0.1-0.3,0-0.4l0,0l0,0c0-0.1,0-0.1,0-0.3c0,0.1,0,0.1,0,0.3l0,0l0,0
									C-144,317.6-144,317.7-144,317.8z"/>
							</g>
							<g id="XMLID_1002_">
								<g id="XMLID_1012_">
									<g id="XMLID_1017_">
										<path id="XMLID_1018_" class="st2" d="M-146.8,317.3c0.1,0.3,0.3,0.4,0.4,0.4l0,0c0,0,0,0,0.1,0v-0.1
											c-0.1-0.1-0.3-0.3-0.3-0.4C-146.7,317.3-146.7,317.3-146.8,317.3L-146.8,317.3z"/>
									</g>
									<g id="XMLID_1013_">
										<path id="XMLID_1014_" class="st2" d="M-144.5,316.9h-2.5c-0.1,0-0.1,0-0.1,0.1s0,0.1,0.1,0.1l0,0c0,0.4,0.4,0.9,0.8,0.9
											h0.8c0.4,0,0.8-0.4,0.8-0.9l0,0C-144.5,317-144.5,317-144.5,316.9C-144.4,317-144.4,316.9-144.5,316.9z M-145.3,318h-0.8
											c-0.4,0-0.8-0.4-0.8-0.8h2.3C-144.7,317.4-144.9,318-145.3,318z"/>
									</g>
								</g>
								<g id="XMLID_1005_">
									<g id="XMLID_1010_">
										<path id="XMLID_1011_" class="st2" d="M-146.5,316.5c0.1,0.1,0.1,0.3,0.3,0.4l0,0l0,0v-0.1
											C-146.3,316.6-146.4,316.6-146.5,316.5C-146.4,316.4-146.5,316.4-146.5,316.5C-146.5,316.4-146.5,316.5-146.5,316.5z"/>
									</g>
									<g id="XMLID_1006_">
										<path id="XMLID_1007_" class="st2" d="M-144.7,316.1h-2c0,0-0.1,0-0.1,0.1c0,0,0,0.1,0.1,0.1l0,0c0,0.4,0.3,0.8,0.7,0.8
											h0.7c0.4,0,0.7-0.4,0.7-0.8l0,0C-144.7,316.2-144.7,316.2-144.7,316.1L-144.7,316.1z M-145.5,317h-0.7
											c-0.3,0-0.7-0.4-0.7-0.7h1.9C-144.9,316.6-145.1,317-145.5,317z"/>
									</g>
								</g>
								<g id="XMLID_1003_">
									<g id="XMLID_1004_">
										<path id="XMLID_1416_" class="st2" d="M-146.4,315.8c0.1,0.1,0.1,0.3,0.3,0.3l0,0l0,0c0,0,0,0,0-0.1
											C-146.3,316-146.3,315.8-146.4,315.8C-146.3,315.7-146.4,315.7-146.4,315.8C-146.4,315.7-146.4,315.8-146.4,315.8z"/>
									</g>
									<g id="XMLID_1417_">
										<path id="XMLID_1418_" class="st2" d="M-144.9,315.6h-1.6c0,0-0.1,0-0.1,0.1c0,0,0,0.1,0.1,0.1l0,0c0,0.3,0.3,0.7,0.5,0.7
											h0.5c0.3,0,0.5-0.3,0.5-0.7l0,0C-144.9,315.6-144.9,315.6-144.9,315.6L-144.9,315.6z M-145.5,316.1h-0.5
											c-0.3,0-0.4-0.3-0.4-0.5h1.5C-145.1,315.8-145.2,316.1-145.5,316.1z"/>
									</g>
								</g>
							</g>
						</g>
					</g>
				</g>
			</g>
			<g id="XMLID_1421_">
				<g id="XMLID_1422_">
					<path id="XMLID_1629_" class="st0" d="M-174.6,281.7c1.9,5.7,6.1,10.8,11.2,13c0.1,0.1,0.4,0.1,0.5,0.1c0.5,0,1.1-0.3,1.3-0.8
						c0.3-0.7,0-1.5-0.8-1.9c-4.4-1.9-8-6.1-9.6-11.2c-0.3-0.8-0.9-1.1-1.7-0.9C-174.4,280.2-174.8,281-174.6,281.7z"/>
					<path id="XMLID_1626_" class="st0" d="M-107.9,270.4h-75.9c-1.3,0-2.5,1.1-2.5,2.5c0,1.5,1.1,2.5,2.5,2.5h0.7
						c0.7,13.1,11.2,27.1,25.1,27.1h24.2c13.9,0,24.6-14,25.1-27.1h0.7c1.3,0,2.5-1.1,2.5-2.5C-105.5,271.5-106.6,270.4-107.9,270.4
						z M-133.8,299.8H-158c-12.2,0-21.6-12.7-22.4-24.2h69.2C-112.1,287-121.6,299.8-133.8,299.8z"/>
					<g id="XMLID_1423_">
						<g id="XMLID_1624_">
							<circle id="XMLID_1625_" class="st1" cx="-145.9" cy="287.4" r="5.5"/>
						</g>
						<g id="XMLID_1622_">
							<circle id="XMLID_1623_" class="st2" cx="-145.9" cy="287.4" r="6"/>
						</g>
						<g id="XMLID_1620_">
							<circle id="XMLID_1621_" class="st0" cx="-145.9" cy="287.4" r="3.2"/>
						</g>
						<g id="XMLID_1556_">
							<g id="XMLID_1618_">
								<path id="XMLID_1619_" class="st0" d="M-150.8,287.7L-150.8,287.7C-150.9,287.8-150.9,287.8-150.8,287.7
									c0.1,0.1,0,0,0.1-0.1c0.1,0,0.1,0.1,0.1,0.1c0,0.1,0,0.1-0.1,0.1l0,0v-0.1l0,0c0,0,0,0,0-0.1v-0.1
									C-150.8,287.4-150.7,287.7-150.8,287.7C-150.8,287.9-150.8,287.9-150.8,287.7C-150.9,287.7-150.8,287.7-150.8,287.7
									L-150.8,287.7z"/>
							</g>
							<g id="XMLID_1616_">
								<path id="XMLID_1617_" class="st0" d="M-150.5,288.2L-150.5,288.2L-150.5,288.2L-150.5,288.2L-150.5,288.2
									C-150.4,288.2-150.5,288.2-150.5,288.2L-150.5,288.2L-150.5,288.2L-150.5,288.2l0.1,0.1c0,0.1,0,0.1-0.1,0.1l0,0
									c0.1,0,0.1,0.1,0.1,0.1c0,0.1,0,0.1-0.1,0.1h-0.1l0,0l0,0h-0.1v-0.1v-0.1h0.1C-150.5,288.5-150.5,288.5-150.5,288.2h-0.1
									c0,0,0,0-0.1,0h-0.1v-0.1L-150.5,288.2L-150.5,288.2C-150.5,288.1-150.5,288.1-150.5,288.2
									C-150.5,288.1-150.5,288.1-150.5,288.2l-0.3-0.1v-0.1L-150.5,288.2z"/>
							</g>
							<g id="XMLID_1612_">
								<path id="XMLID_1613_" class="st0" d="M-150.4,289.3L-150.4,289.3L-150.4,289.3C-150.3,289.3-150.3,289.3-150.4,289.3
									C-150.3,289.1-150.3,289.1-150.4,289.3L-150.4,289.3L-150.4,289.3L-150.4,289.3c0.1-0.1,0.1,0,0.1,0c0.1,0.1,0,0.1-0.1,0.3
									l-0.1,0.1l0,0l0,0h-0.1v-0.1v-0.1l0,0l0,0c0,0-0.1,0-0.1-0.1c0-0.1,0-0.1,0.1-0.1C-150.4,289-150.4,289.1-150.4,289.3z
									 M-150.5,289.3c0,0.1,0.1,0.1,0.1,0.1l0,0l0,0C-150.4,289.1-150.4,289.1-150.5,289.3C-150.5,289.1-150.5,289.1-150.5,289.3z
									"/>
							</g>
							<g id="XMLID_1610_">
								<path id="XMLID_1611_" class="st0" d="M-150,289.5L-150,289.5L-150,289.5L-150,289.5h0.1v0.1l-0.3,0.1l0,0l0,0h-0.1
									l-0.1-0.1v-0.1H-150z"/>
							</g>
							<g id="XMLID_1608_">
								<path id="XMLID_1609_" class="st0" d="M-149.7,289.8L-149.7,289.8L-149.7,289.8L-149.7,289.8h0.1v0.1l-0.3,0.3l0,0l0,0
									l-0.1,0.1l-0.1-0.1v-0.1L-149.7,289.8z"/>
							</g>
							<g id="XMLID_1606_">
								<path id="XMLID_1607_" class="st0" d="M-149.6,290.7L-149.6,290.7L-149.6,290.7c0.1,0.1,0-0.1,0.1-0.1c0.1-0.1,0.1,0,0.1,0
									s0.1,0.1,0,0.1l0,0l-0.1-0.1l0,0c0,0,0,0,0-0.1h-0.1C-149.6,290.5-149.3,290.7-149.6,290.7
									C-149.6,290.9-149.6,290.7-149.6,290.7L-149.6,290.7L-149.6,290.7z"/>
							</g>
							<g id="XMLID_1604_">
								<path id="XMLID_1605_" class="st0" d="M-149.1,291L-149.1,291L-149.1,291L-149.1,291l0.1-0.1l0.1,0.1H-149.1l0.1,0.1
									l-0.1,0.1V291L-149.1,291c-0.1,0.3,0,0.3,0,0.3l0,0l-0.1,0.1l0,0C-149.2,291.3-149.2,291.1-149.1,291L-149.1,291z"/>
							</g>
							<g id="XMLID_1600_">
								<path id="XMLID_1601_" class="st0" d="M-148.5,291.3c0.1,0.1,0.1,0.1,0,0.3l0,0l-0.3-0.1c0,0.1,0,0.1,0,0.1
									c0.1,0,0.1,0,0.1,0v0.1c0,0-0.1,0-0.1-0.1c-0.1-0.1-0.1-0.1-0.1-0.3C-148.7,291.1-148.7,291.1-148.5,291.3z M-148.5,291.4
									L-148.5,291.4L-148.5,291.4L-148.5,291.4z"/>
							</g>
							<g id="XMLID_1596_">
								<path id="XMLID_1597_" class="st0" d="M-148.1,291.5L-148.1,291.5L-148.1,291.5L-148.1,291.5L-148.1,291.5L-148.1,291.5
									L-148.1,291.5L-148.1,291.5c0.1,0,0.1,0,0.3,0c0.1,0.1,0.1,0.1,0.1,0.3c-0.1,0.1-0.1,0.1-0.3,0.1c-0.1,0-0.1-0.1-0.1-0.1
									l0,0l0,0l-0.1,0.1l-0.1-0.1L-148.1,291.5z M-148.1,291.8c0.1,0,0.1,0,0.1-0.1c0-0.1,0-0.1,0-0.1
									C-148.1,291.5-148.1,291.5-148.1,291.8L-148.1,291.8z"/>
							</g>
							<g id="XMLID_1594_">
								<path id="XMLID_1595_" class="st0" d="M-147.3,291.9L-147.3,291.9L-147.3,291.9L-147.3,291.9L-147.3,291.9
									c0-0.1,0.1-0.1,0.1-0.1l0,0v0.1l0,0H-147.3L-147.3,291.9l0.1-0.1v0.1H-147.3v0.3l0,0V291.9z"/>
							</g>
							<g id="XMLID_1590_">
								<path id="XMLID_1591_" class="st0" d="M-146.7,292.1c0.1,0,0.1,0.1,0.1,0.3c0,0.1-0.1,0.1-0.3,0.1c-0.1,0-0.1-0.1-0.1-0.3
									C-146.9,292.1-146.8,292.1-146.7,292.1z M-146.8,292.3c0.1,0,0.1,0,0.1-0.1c0-0.1,0-0.1-0.1-0.1s-0.1,0-0.1,0.1
									C-146.8,292.2-146.8,292.3-146.8,292.3z"/>
							</g>
							<g id="XMLID_1588_">
								<path id="XMLID_1589_" class="st0" d="M-146.3,292.2L-146.3,292.2L-146.3,292.2L-146.3,292.2L-146.3,292.2
									c0.1-0.1,0.1-0.1,0.1,0l0,0l0,0l0,0c0-0.1,0.1-0.1,0.1-0.1l0,0v0.1l0,0c0,0-0.1,0-0.1,0.1c0,0,0,0,0,0.1v0.1h-0.1V292.2z"/>
							</g>
							<g id="XMLID_1584_">
								<path id="XMLID_1585_" class="st0" d="M-145.2,292.2L-145.2,292.2L-145.2,292.2L-145.2,292.2
									C-145.2,292.1-145.2,292.1-145.2,292.2L-145.2,292.2h-0.1l0,0C-145.3,292.1-145.2,292.1-145.2,292.2c0.1-0.1,0.1,0,0.1,0.1
									v0.1l0,0l0,0v0.1h-0.1h-0.1l0,0l0,0c0,0,0,0.1-0.1,0.1s-0.1,0-0.1-0.1C-145.5,292.2-145.2,292.2-145.2,292.2z M-145.2,292.3
									L-145.2,292.3L-145.2,292.3L-145.2,292.3C-145.2,292.2-145.3,292.3-145.2,292.3L-145.2,292.3z"/>
							</g>
							<g id="XMLID_1579_">
								<path id="XMLID_1580_" class="st0" d="M-144.4,291.9L-144.4,291.9L-144.4,291.9l0.1-0.1c0.1,0,0.1,0,0.1,0.1
									c0,0.1,0,0.1,0,0.1l0,0c0.1,0,0.1,0,0.1,0.1c0,0.1,0,0.1-0.1,0.3l-0.1,0.1h-0.1V291.9z M-144.3,291.9
									C-144.3,291.9-144.1,291.9-144.3,291.9C-144.3,291.9-144.4,291.8-144.3,291.9l-0.1-0.1L-144.3,291.9L-144.3,291.9z
									 M-144.1,292.1L-144.1,292.1C-144.1,292.1-144,292.1-144.1,292.1C-144,291.9-144.1,291.9-144.1,292.1l-0.1-0.1L-144.1,292.1
									C-144.3,292.1-144.3,292.1-144.1,292.1z"/>
							</g>
							<g id="XMLID_1577_">
								<path id="XMLID_1578_" class="st0" d="M-143.7,291.9L-143.7,291.9l-0.1-0.3h-0.1v-0.1l0.1-0.1v0.1h-0.1L-143.7,291.9
									l0.1-0.1v0.1H-143.7L-143.7,291.9z"/>
							</g>
							<g id="XMLID_1575_">
								<path id="XMLID_1576_" class="st0" d="M-143.3,291.3c0.1-0.1,0.1-0.1,0.1-0.1v0.1C-143.2,291.3-143.2,291.3-143.3,291.3
									c0,0.1-0.1,0.3,0,0.3c0.1,0.1,0.1,0.1,0.3,0.1c0.1-0.1,0.1-0.1,0.1-0.1l0,0l0,0l0,0l-0.1-0.1l0.1-0.1h0.1l0.1,0.1l-0.1,0.1
									l0,0l0,0l0,0c0,0,0,0.1-0.1,0.1s-0.3,0.1-0.3-0.1C-143.5,291.5-143.5,291.4-143.3,291.3z"/>
							</g>
							<g id="XMLID_1573_">
								<path id="XMLID_1574_" class="st0" d="M-142.5,290.7c0,0,0.1-0.1,0.1,0l0,0H-142.5L-142.5,290.7
									C-142.4,290.7-142.4,290.7-142.5,290.7c0,0.1,0,0.1,0.1,0.3c0.1,0.1,0.1,0.1,0.1,0c0.1-0.1,0.1-0.1,0.1-0.1h0.1
									c0,0,0,0.1-0.1,0.1c-0.1,0.1-0.3,0.1-0.3,0C-142.5,290.9-142.5,290.9-142.5,290.7z"/>
							</g>
							<g id="XMLID_1571_">
								<path id="XMLID_1572_" class="st0" d="M-142.3,290.3L-142.3,290.3L-142.3,290.3L-142.3,290.3L-142.3,290.3L-142.3,290.3h0.1
									l0,0l0,0v-0.1c0.1-0.1,0.1-0.1,0.1,0l0.1,0.1l0,0l0,0l0.1,0.1l-0.1,0.1h-0.1L-142.3,290.3L-142.3,290.3
									c0.1,0.1,0.1,0.3,0.1,0.3l0,0l0.1,0.1l-0.1,0.1L-142.3,290.3z"/>
							</g>
							<g id="XMLID_1567_">
								<path id="XMLID_1568_" class="st0" d="M-141.6,289.8L-141.6,289.8L-141.6,289.8C-141.7,289.8-141.7,289.8-141.6,289.8
									L-141.6,289.8L-141.6,289.8l-0.1,0.1l0,0c-0.1,0,0-0.1,0-0.1H-141.6h0.1l0,0l0,0h0.1l-0.1,0.1L-141.6,289.8L-141.6,289.8
									L-141.6,289.8c0.1,0.1,0.1,0.1,0.1,0.3c0,0.1-0.1,0.1-0.1,0.1C-141.7,289.9-141.6,289.8-141.6,289.8z M-141.5,289.9
									c0-0.1,0-0.1-0.1-0.1l0,0l0,0C-141.6,289.9-141.6,289.9-141.5,289.9C-141.6,289.9-141.6,289.9-141.5,289.9z"/>
							</g>
							<g id="XMLID_1565_">
								<path id="XMLID_1566_" class="st0" d="M-141.5,289.4L-141.5,289.4L-141.5,289.4L-141.5,289.4L-141.5,289.4
									C-141.6,289.4-141.5,289.4-141.5,289.4L-141.5,289.4L-141.5,289.4L-141.5,289.4c0-0.1-0.1-0.1,0-0.3c0-0.1,0.1-0.1,0.1-0.1
									l0.1,0.1l0,0l0,0h0.1v0.1c0,0,0,0-0.1,0l-0.1-0.1c-0.1,0-0.1,0-0.1,0C-141.5,289.3-141.5,289.3-141.5,289.4
									c0.1-0.1,0.1-0.1,0.1-0.1l0.1,0.1v0.1L-141.5,289.4z"/>
							</g>
							<g id="XMLID_1561_">
								<path id="XMLID_1562_" class="st0" d="M-141.2,288.7C-141.2,288.6-141.2,288.6-141.2,288.7L-141.2,288.7L-141.2,288.7
									c0.1-0.1,0.1-0.1,0.1-0.1v-0.1h0.1l0,0l0,0l0.3,0.1c0.1,0,0.1,0.1,0.1,0.3c0,0.1,0,0.1-0.1,0.1l-0.1-0.1c0,0,0,0,0.1-0.1
									c0-0.1,0-0.1-0.1-0.1l0,0l0,0l0,0v0.1C-140.9,288.7-141.1,288.7-141.2,288.7C-141.2,288.9-141.3,288.7-141.2,288.7z
									 M-141.1,288.6c-0.1,0-0.1,0-0.1,0.1c0,0.1,0,0.1,0.1,0.1C-141.1,288.7-141.1,288.7-141.1,288.6
									C-140.9,288.7-141.1,288.6-141.1,288.6z"/>
							</g>
							<g id="XMLID_1557_">
								<path id="XMLID_1558_" class="st0" d="M-141.2,288.1c0-0.1,0.1-0.1,0.1-0.1l0,0v0.3c0.1,0,0.1-0.1,0.1-0.1
									c0-0.1,0-0.1,0-0.1h0.1c0,0,0.1,0.1,0,0.1c0,0.1-0.1,0.1-0.3,0.1C-141.1,288.2-141.2,288.2-141.2,288.1z M-141.1,288.1
									L-141.1,288.1C-141.2,288.2-141.2,288.2-141.1,288.1L-141.1,288.1z"/>
							</g>
						</g>
						<g id="XMLID_1531_">
							<g id="XMLID_1554_">
								<path id="XMLID_1555_" class="st0" d="M-149.9,284.9l0.1-0.1l0.3,0.1c0,0.1,0,0.1,0,0.1c0,0.1,0,0.1-0.1,0.1
									c-0.1,0.1-0.1,0.1-0.1,0.1c-0.1,0.1-0.1,0.1-0.3,0.1c-0.1,0-0.1,0-0.3-0.1c-0.1-0.1-0.1-0.1-0.1-0.1c0-0.1-0.1-0.1-0.1-0.3
									c0-0.1,0-0.1,0.1-0.3c0-0.1,0.1-0.1,0.1-0.1c0.1-0.1,0.1-0.1,0.1-0.1l0.1,0.1c-0.1,0-0.1,0.1-0.3,0.1c0,0.1-0.1,0.1-0.1,0.1
									c0,0.1,0,0.1,0,0.1l0.1,0.1c0.1,0,0.1,0.1,0.1,0.1h0.1L-149.9,284.9h0.1H-149.9z"/>
							</g>
							<g id="XMLID_1550_">
								<path id="XMLID_1551_" class="st0" d="M-148.9,284.5c-0.1,0-0.1,0-0.3,0c-0.1,0-0.1-0.1-0.3-0.1c-0.1-0.1-0.1-0.1-0.1-0.3
									c0-0.1,0-0.1,0-0.3c0-0.1,0.1-0.1,0.1-0.3c0.1-0.1,0.1-0.1,0.3-0.1c0.1,0,0.1,0,0.3,0c0.1,0,0.1,0.1,0.3,0.1
									c0.1,0,0.1,0.1,0.1,0.3c0,0.1,0,0.1,0,0.3c0,0.1-0.1,0.1-0.1,0.3C-148.8,284.3-148.8,284.5-148.9,284.5z M-148.8,284.1
									C-148.8,283.9-148.8,283.9-148.8,284.1c0-0.3,0-0.3-0.1-0.3l-0.1-0.1h-0.1c0,0-0.1,0-0.1,0.1l-0.1,0.1c0,0.1,0,0.1,0,0.1
									s0,0.1,0.1,0.1l0.1,0.1h0.1c0,0,0.1,0,0.1-0.1C-148.8,284.1-148.8,284.1-148.8,284.1z"/>
							</g>
							<g id="XMLID_1548_">
								<path id="XMLID_1549_" class="st0" d="M-147.3,283l-0.1,0.1l0.1,0.3l-0.1,0.1l-0.3-0.8l0.1-0.1L-147.3,283l0.1-0.5l0.3-0.1
									l-0.3,0.4l0.5,0.3l-0.3,0.1L-147.3,283z"/>
							</g>
							<g id="XMLID_1546_">
								<path id="XMLID_1547_" class="st0" d="M-146.4,282.3h0.3l0.1,0.8h-0.3L-146.4,282.3z"/>
							</g>
							<g id="XMLID_1542_">
								<path id="XMLID_1543_" class="st0" d="M-145.5,282.3l0.4,0.1c0.1,0,0.1,0.1,0.3,0.1c0.1,0.1,0.1,0.1,0.1,0.1
									c0,0.1,0,0.1,0,0.3c0,0.1-0.1,0.1-0.1,0.3c-0.1,0.1-0.1,0.1-0.1,0.1c-0.1,0-0.1,0-0.3,0l-0.4-0.1L-145.5,282.3z M-145.2,283
									c0.1,0,0.1,0,0.3-0.1c0.1-0.1,0.1-0.1,0.1-0.1s0-0.1-0.1-0.3c-0.1-0.1-0.1-0.1-0.1-0.1h-0.1l-0.1,0.5L-145.2,283L-145.2,283
									z"/>
							</g>
							<g id="XMLID_1538_">
								<path id="XMLID_1539_" class="st0" d="M-144.1,283.4c-0.1-0.1-0.1-0.1-0.1-0.3c0-0.1,0-0.1,0.1-0.3c0-0.1,0.1-0.1,0.1-0.1
									c0.1-0.1,0.1-0.1,0.3-0.1c0.1,0,0.1,0,0.3,0.1c0.1,0.1,0.1,0.1,0.1,0.1c0.1,0.1,0.1,0.1,0.1,0.3c0,0.1,0,0.1-0.1,0.3
									c0,0.1-0.1,0.1-0.1,0.1c-0.1,0.1-0.1,0.1-0.3,0.1c-0.1,0-0.1,0-0.3-0.1L-144.1,283.4z M-143.7,283.4c0.1,0,0.1,0,0.1-0.1
									c0.1,0,0.1-0.1,0.1-0.1c0-0.1,0-0.1,0-0.1c0-0.1,0-0.1-0.1-0.1c0-0.1-0.1-0.1-0.1-0.1c-0.1,0-0.1,0-0.1,0s-0.1,0-0.1,0.1
									c-0.1,0-0.1,0.1-0.1,0.1c0,0.1,0,0.1,0,0.1s0,0.1,0.1,0.1c0,0.1,0.1,0.1,0.1,0.1S-143.9,283.4-143.7,283.4z"/>
							</g>
							<g id="XMLID_1536_">
								<path id="XMLID_1537_" class="st0" d="M-142.5,284.1l0.1,0.1l-0.3,0.3c-0.1,0-0.1,0-0.1-0.1c-0.1,0-0.1-0.1-0.1-0.1
									c-0.1-0.1-0.1-0.1-0.1-0.3c0-0.1,0-0.1,0-0.3s0.1-0.1,0.1-0.3c0-0.1,0.1-0.1,0.3-0.1c0.1,0,0.1,0,0.3,0s0.1,0.1,0.3,0.1
									s0.1,0.1,0.1,0.1c0,0.1,0.1,0.1,0,0.1h-0.1c0-0.1,0-0.1-0.1-0.3c-0.1,0-0.1-0.1-0.1-0.1h-0.1l-0.1,0.1
									c0,0.1-0.1,0.1-0.1,0.1c0,0.1,0,0.1,0,0.1l0.1,0.1C-142.5,283.9-142.5,283.9-142.5,284.1L-142.5,284.1z"/>
							</g>
							<g id="XMLID_1532_">
								<path id="XMLID_1533_" class="st0" d="M-142.3,285c0-0.1,0-0.1,0.1-0.3c0-0.1,0.1-0.1,0.1-0.1c0.1-0.1,0.1-0.1,0.3-0.1
									c0.1,0,0.1,0,0.3,0.1c0.1,0.1,0.1,0.1,0.1,0.1c0.1,0.1,0.1,0.1,0.1,0.3c0,0.1,0,0.1-0.1,0.3c-0.1,0.1-0.1,0.1-0.1,0.1
									c-0.1,0.1-0.1,0.1-0.3,0.1c-0.1,0-0.1,0-0.3-0.1c-0.1-0.1-0.1-0.1-0.1-0.1C-142.1,285.1-142.3,285.1-142.3,285z M-142,285.3
									c0.1,0,0.1,0,0.1,0s0.1,0,0.1-0.1c0.1,0,0.1-0.1,0.1-0.1c0-0.1,0-0.1,0-0.1c0-0.1,0-0.1-0.1-0.1c0-0.1-0.1-0.1-0.1-0.1
									c-0.1,0-0.1,0-0.1,0s-0.1,0-0.1,0.1c-0.1,0-0.1,0.1-0.1,0.1c0,0.1,0,0.1,0,0.1C-142.1,285.1-142.1,285.1-142,285.3
									L-142,285.3z"/>
							</g>
						</g>
						<g id="XMLID_1510_">
							<g id="XMLID_1526_">
								<path id="XMLID_1530_" class="st2" d="M-148.8,287.8c0.1,0.3,0.1,0.5,0.3,0.7c0.4,0.9,1.1,1.5,2,1.6c0.1,0,0.1,0.1,0.3,0.1
									c0,0.1-0.1,0.3-0.3,0.3c-0.4-0.1-0.7-0.1-1.1-0.4c-0.9-0.5-1.5-1.2-1.6-2.1c0,0,0,0,0-0.1c-0.1,0.1-0.1,0.1-0.1,0.1
									c-0.1,0.1-0.3,0.1-0.3,0c-0.1-0.1-0.1-0.1,0-0.3c0.1-0.1,0.3-0.4,0.4-0.5c0.1-0.1,0.1-0.1,0.3,0c0.1,0.1,0.4,0.3,0.5,0.4
									c0.1,0.1,0.1,0.1,0.1,0.3c-0.1,0.1-0.1,0.1-0.3,0C-148.7,287.9-148.7,287.9-148.8,287.8
									C-148.8,287.9-148.8,287.9-148.8,287.8z"/>
								<path id="XMLID_1527_" class="st3" d="M-146.5,290.6L-146.5,290.6c-0.4-0.1-0.8-0.3-1.1-0.4c-0.8-0.5-1.5-1.2-1.6-2.1l0,0
									c-0.1,0.1-0.3,0.1-0.4,0.1c-0.1-0.1-0.1-0.3,0-0.4c0.1-0.3,0.3-0.4,0.4-0.5c0.1-0.1,0.3-0.1,0.4,0c0.1,0.1,0.4,0.3,0.5,0.4
									c0.1,0.1,0.1,0.3,0.1,0.4c-0.1,0.1-0.3,0.1-0.4,0l0,0l0,0c0.1,0.1,0.1,0.3,0.1,0.4c0.4,0.8,1.1,1.3,2,1.6
									c0.1,0,0.3,0.1,0.3,0.3c0,0.1,0,0.1-0.1,0.3C-146.4,290.6-146.4,290.6-146.5,290.6z M-149.2,287.7l0.1,0.3
									c0.1,0.9,0.7,1.6,1.5,2.1c0.3,0.1,0.7,0.3,0.9,0.4c0.1,0,0.1,0,0.1,0v-0.1c0-0.1,0-0.1-0.1-0.1c-0.9-0.3-1.7-0.8-2.1-1.6
									c-0.1-0.1-0.1-0.3-0.1-0.4c0-0.1-0.1-0.1-0.1-0.3L-149.2,287.7L-149.2,287.7l0.3,0.1l0.1,0.1l0.1,0.1c0.1,0.1,0.1,0,0.1,0
									s0.1-0.1,0-0.1c-0.1-0.1-0.4-0.3-0.5-0.4C-149.2,287.4-149.2,287.4-149.2,287.7c-0.1,0-0.3,0.3-0.4,0.4
									c-0.1,0.1-0.1,0.1,0,0.1c0.1,0,0.1,0,0.1,0l0.1-0.1L-149.2,287.7z"/>
							</g>
							<g id="XMLID_1521_">
								<path id="XMLID_1525_" class="st2" d="M-143.2,286.9c0-0.1-0.1-0.3-0.1-0.4c-0.4-0.9-1.1-1.6-2.1-1.9c-0.1,0-0.1,0-0.1-0.1
									c-0.1-0.1-0.1-0.1-0.1-0.3c0.1-0.1,0.1-0.1,0.3-0.1c0.5,0.1,1.1,0.4,1.5,0.7c0.7,0.5,0.9,1.1,1.1,1.9v0.3
									c0.1-0.1,0.1-0.1,0.1-0.1c0.1-0.1,0.3-0.1,0.3-0.1c0.1,0.1,0.1,0.1,0,0.3c-0.1,0.1-0.3,0.4-0.4,0.5c-0.1,0.1-0.3,0.1-0.3,0
									c-0.1-0.1-0.4-0.3-0.5-0.4c-0.1-0.1-0.1-0.3-0.1-0.3s0.1-0.1,0.3,0C-143.3,286.9-143.3,286.9-143.2,286.9
									C-143.2,287-143.2,287-143.2,286.9z"/>
								<path id="XMLID_1522_" class="st3" d="M-142.9,287.7c-0.1,0-0.1,0-0.3-0.1c-0.1-0.1-0.4-0.3-0.5-0.4
									c-0.1-0.1-0.1-0.1-0.1-0.3c0-0.1,0-0.1,0.1-0.3c0.1-0.1,0.3-0.1,0.4,0l0,0c0-0.1,0-0.1-0.1-0.1c-0.3-0.9-0.9-1.6-2-1.9
									c-0.1,0-0.1-0.1-0.3-0.1c-0.1-0.1-0.1-0.3-0.1-0.3c0.1-0.1,0.1-0.1,0.3-0.1c0.7,0.1,1.1,0.4,1.5,0.8
									c0.5,0.4,0.9,1.1,1.1,1.9c0,0,0,0,0-0.1c0.1-0.1,0.3-0.1,0.4-0.1c0.1,0.1,0.1,0.3,0,0.4c-0.1,0.3-0.3,0.4-0.4,0.5
									C-142.8,287.7-142.8,287.7-142.9,287.7z M-143.5,286.9C-143.6,286.9-143.6,286.9-143.5,286.9
									C-143.6,286.9-143.6,286.9-143.5,286.9C-143.6,287-143.6,287-143.5,286.9c0.1,0.3,0.4,0.4,0.5,0.5c0.1,0.1,0.1,0.1,0.1,0
									c0.1-0.1,0.3-0.4,0.4-0.5c0,0,0.1-0.1,0-0.1s-0.1,0-0.1,0l-0.1,0.1l-0.1,0.1l-0.1-0.1v-0.1c-0.1-0.7-0.4-1.3-1.1-1.9
									c-0.4-0.4-0.9-0.7-1.5-0.7c-0.1,0-0.1,0-0.1,0.1c-0.1,0.1,0,0.1,0,0.1l0.1,0.1c1.1,0.3,1.9,0.9,2.1,2c0,0.1,0.1,0.1,0.1,0.3
									c0,0.1,0,0.1,0,0.1v0.1h-0.1l0,0L-143.5,286.9L-143.5,286.9L-143.5,286.9z"/>
							</g>
							<g id="XMLID_1516_">
								<path id="XMLID_1520_" class="st2" d="M-146.4,284.6c-0.4,0.1-0.7,0.1-0.9,0.3c-0.7,0.4-1.1,1.1-1.3,1.9
									c0,0.1,0,0.1-0.1,0.1c-0.1,0.1-0.1,0.1-0.3,0.1c-0.1-0.1-0.1-0.1-0.1-0.3c0.1-0.4,0.3-0.9,0.7-1.3c0.5-0.7,1.1-1.1,2-1.2
									l0,0l0,0c-0.1-0.1-0.1-0.1-0.1-0.1c-0.1-0.1-0.1-0.3-0.1-0.3s0.1-0.1,0.3,0c0.1,0.1,0.4,0.3,0.5,0.4c0.1,0.1,0.1,0.3,0,0.3
									c-0.1,0.1-0.3,0.4-0.4,0.5c-0.1,0.1-0.1,0.1-0.3,0.1c-0.1,0-0.1-0.1-0.1-0.1c0-0.1,0-0.1,0.1-0.1
									C-146.5,284.7-146.4,284.7-146.4,284.6z"/>
								<path id="XMLID_1517_" class="st3" d="M-148.9,287c-0.1,0-0.1,0-0.1,0c-0.1-0.1-0.1-0.1-0.1-0.3c0.1-0.5,0.3-0.9,0.7-1.3
									c0.5-0.7,1.1-1.1,2-1.2l0,0c-0.1-0.1-0.1-0.3-0.1-0.4s0.1-0.1,0.3-0.1s0.1,0,0.3,0.1c0.1,0.1,0.4,0.3,0.5,0.4
									c0.1,0.1,0.1,0.3,0.1,0.4l-0.1,0.1c-0.1,0.1-0.3,0.3-0.3,0.4c0,0.1-0.1,0.1-0.3,0.1c-0.1,0-0.1-0.1-0.3-0.3
									c0-0.1,0-0.3,0.1-0.3l0,0c-0.3,0.1-0.5,0.1-0.8,0.3c-0.7,0.4-1.1,0.9-1.3,1.7c0,0.1,0,0.1-0.1,0.1
									C-148.8,287-148.8,287-148.9,287z M-146.5,283.8L-146.5,283.8C-146.7,283.8-146.7,283.8-146.5,283.8c-0.1,0.1-0.1,0.1,0,0.3
									l0.3,0.3l-0.1,0.1l0,0c0,0,0,0-0.1,0c-0.8,0.1-1.5,0.5-1.9,1.1c-0.3,0.4-0.4,0.8-0.7,1.3c0,0.1,0,0.1,0.1,0.1
									c0.1,0,0.1,0,0.1,0s0-0.1,0.1-0.1c0.3-0.8,0.7-1.5,1.5-1.9c0.3-0.1,0.7-0.3,0.9-0.4h0.3l-0.1,0.1l-0.1,0.1
									c-0.1,0.1-0.1,0.1-0.1,0.1c0,0.1,0,0.1,0,0.1l0.1,0.1c0,0,0.1,0,0.1-0.1c0.1-0.1,0.3-0.3,0.3-0.4l0.1-0.1
									c0.1-0.1,0.1-0.1,0-0.3c-0.1-0.1-0.4-0.3-0.5-0.4C-146.5,283.8-146.5,283.8-146.5,283.8z"/>
							</g>
							<g id="XMLID_1511_">
								<path id="XMLID_1515_" class="st2" d="M-145.5,290.2c1.1-0.3,1.9-0.9,2.1-2.1c0.1-0.3,0.1-0.3,0.3-0.3
									c0.1,0,0.1,0.1,0.1,0.3c-0.4,1.3-1.1,2-2.4,2.3L-145.5,290.2c0.1,0.3,0.1,0.3,0.1,0.3c0.1,0.1,0.1,0.1,0.1,0.3
									c-0.1,0.1-0.1,0.1-0.3,0c-0.1-0.1-0.4-0.3-0.5-0.4c-0.1-0.1-0.1-0.1,0-0.3c0.1-0.1,0.3-0.4,0.4-0.5c0.1-0.1,0.3-0.1,0.3,0
									c0,0.1,0.1,0.1,0,0.3l-0.1,0.1C-145.5,290.1-145.5,290.2-145.5,290.2z"/>
								<path id="XMLID_1512_" class="st3" d="M-145.3,291.1c-0.1,0-0.1,0-0.3-0.1c-0.1-0.1-0.4-0.3-0.5-0.4c-0.1-0.1-0.1-0.3,0-0.4
									c0.1-0.3,0.3-0.4,0.4-0.5c0.1-0.1,0.1-0.1,0.3-0.1c0.1,0,0.1,0,0.3,0.1c0.1,0.1,0.1,0.3,0.1,0.4c0.9-0.3,1.6-0.9,1.9-2
									c0-0.1,0.1-0.4,0.4-0.3c0.1,0,0.1,0.1,0.1,0.1c0.1,0.1,0.1,0.1,0,0.3c-0.4,1.3-1.2,2.1-2.5,2.4c0,0,0,0,0.1,0.1
									s0.1,0.3,0.1,0.4C-145.2,291.1-145.2,291.1-145.3,291.1z M-145.5,289.8L-145.5,289.8L-145.5,289.8c-0.3,0.3-0.4,0.4-0.5,0.7
									c-0.1,0.1-0.1,0.1,0,0.1c0.1,0.1,0.4,0.3,0.5,0.4c0,0,0.1,0.1,0.1,0c0,0,0.1-0.1,0-0.1s-0.1-0.1-0.1-0.1l-0.3-0.1l0.3-0.1
									c1.2-0.3,2-1.1,2.4-2.3c0-0.1,0-0.1,0-0.1s0,0-0.1-0.1c-0.1,0-0.1,0-0.1,0.1c-0.3,1.1-1.1,1.9-2.3,2.1l-0.3,0.1l0.1-0.3
									C-145.7,290.1-145.7,289.9-145.5,289.8C-145.6,289.9-145.6,289.9-145.5,289.8C-145.6,289.8-145.6,289.8-145.5,289.8
									C-145.3,289.8-145.3,289.8-145.5,289.8L-145.5,289.8z"/>
							</g>
						</g>
						<g id="XMLID_1465_">
							<g id="XMLID_1508_">
								<path id="XMLID_1509_" class="st3" d="M-141.5,287.5L-141.5,287.5C-141.6,287.5-141.6,287.4-141.5,287.5L-141.5,287.5
									C-141.5,287.4-141.5,287.4-141.5,287.5z"/>
							</g>
							<g id="XMLID_1468_">
								<path id="XMLID_1469_" class="st3" d="M-145.9,291.7c-0.1,0-0.1,0-0.1,0v-0.1C-146,291.7-146,291.7-145.9,291.7
									L-145.9,291.7z M-145.7,291.7L-145.7,291.7c0.1-0.1,0.1-0.1,0.1-0.1v0.1H-145.7z M-146.3,291.7c-0.1,0-0.1,0-0.1,0v-0.1
									C-146.4,291.7-146.3,291.7-146.3,291.7L-146.3,291.7z M-145.5,291.7L-145.5,291.7c0.1-0.1,0.1-0.1,0.1-0.1v0.1
									C-145.2,291.7-145.3,291.7-145.5,291.7z M-146.7,291.7c-0.1,0-0.1,0-0.1,0v-0.1C-146.7,291.5-146.7,291.5-146.7,291.7
									L-146.7,291.7z M-145.1,291.7L-145.1,291.7c0.1-0.1,0.1-0.1,0.1-0.1v0.1H-145.1z M-146.9,291.5c-0.1,0-0.1,0-0.1-0.1v-0.1
									C-147.1,291.5-146.9,291.5-146.9,291.5L-146.9,291.5z M-144.7,291.5L-144.7,291.5c0.1-0.1,0.1-0.1,0.1-0.1v0.1H-144.7z
									 M-147.3,291.4c-0.1,0-0.1-0.1-0.1-0.1v-0.1C-147.3,291.4-147.3,291.4-147.3,291.4L-147.3,291.4z M-144.4,291.4
									L-144.4,291.4c0-0.1,0.1-0.1,0.1-0.1v0.1H-144.4z M-147.6,291.4c-0.1,0-0.1-0.1-0.1-0.1v-0.1
									C-147.6,291.1-147.6,291.3-147.6,291.4L-147.6,291.4z M-144,291.4L-144,291.4c0-0.1,0.1-0.1,0.1-0.1v0.1
									C-144,291.3-144,291.3-144,291.4z M-147.9,291.1c-0.1,0-0.1-0.1-0.1-0.1v-0.1C-148,291-148,291.1-147.9,291.1L-147.9,291.1z
									 M-143.7,291.1L-143.7,291.1c0-0.1,0.1-0.1,0.1-0.1v0.1C-143.7,291.1-143.7,291.1-143.7,291.1z M-148.1,291
									c-0.1,0-0.1-0.1-0.1-0.1l0,0C-148.3,290.9-148.1,290.9-148.1,291L-148.1,291z M-143.5,291L-143.5,291c0-0.1,0.1-0.1,0.1-0.1
									L-143.5,291C-143.3,290.9-143.3,291-143.5,291z M-148.5,290.9c-0.1,0-0.1-0.1-0.1-0.1v-0.1
									C-148.5,290.7-148.5,290.7-148.5,290.9L-148.5,290.9z M-143.2,290.9L-143.2,290.9c0-0.1,0.1-0.1,0.1-0.1L-143.2,290.9
									C-143.1,290.7-143.2,290.7-143.2,290.9z M-148.7,290.6c-0.1-0.1-0.1-0.1-0.1-0.1l0.1-0.1
									C-148.8,290.5-148.8,290.5-148.7,290.6L-148.7,290.6z M-142.9,290.6L-142.9,290.6c0-0.1,0.1-0.1,0.1-0.1l0.1,0.1
									C-142.8,290.5-142.8,290.5-142.9,290.6z M-149.1,290.3c-0.1-0.1-0.1-0.1-0.1-0.1l0.1-0.1
									C-149.1,290.2-149.1,290.2-149.1,290.3L-149.1,290.3z M-142.7,290.3L-142.7,290.3c0-0.1,0-0.1,0.1-0.1h0.1
									C-142.5,290.2-142.7,290.3-142.7,290.3z M-149.2,290.1c0-0.1-0.1-0.1-0.1-0.1L-149.2,290.1
									C-149.2,289.9-149.2,289.9-149.2,290.1L-149.2,290.1z M-142.5,290.1L-142.5,290.1c0-0.1,0-0.1,0.1-0.1h0.1
									C-142.4,289.9-142.4,289.9-142.5,290.1z M-149.3,289.8c0-0.1-0.1-0.1-0.1-0.1L-149.3,289.8
									C-149.5,289.7-149.3,289.7-149.3,289.8L-149.3,289.8z M-142.3,289.8L-142.3,289.8c0-0.1,0-0.1,0.1-0.1h0.1
									C-142.1,289.7-142.1,289.7-142.3,289.8z M-149.6,289.4c0-0.1-0.1-0.1-0.1-0.1L-149.6,289.4L-149.6,289.4L-149.6,289.4z
									 M-142,289.4L-142,289.4C-142,289.3-142,289.3-142,289.4l0.1-0.1C-142,289.4-142,289.4-142,289.4z M-149.7,289.1
									c0-0.1-0.1-0.1-0.1-0.1L-149.7,289.1L-149.7,289.1L-149.7,289.1z M-141.9,289.1L-141.9,289.1
									C-141.9,289-141.9,289-141.9,289.1l0.1-0.1C-141.9,289.1-141.9,289.1-141.9,289.1z M-149.9,288.9c0-0.1-0.1-0.1-0.1-0.1
									L-149.9,288.9C-149.9,288.7-149.9,288.7-149.9,288.9L-149.9,288.9z M-141.7,288.9L-141.7,288.9
									C-141.7,288.7-141.7,288.7-141.7,288.9l0.1-0.1C-141.7,288.7-141.7,288.7-141.7,288.9z M-150,288.5c0-0.1,0-0.1-0.1-0.1
									L-150,288.5C-150,288.5-149.9,288.5-150,288.5L-150,288.5z M-141.6,288.5L-141.6,288.5
									C-141.7,288.3-141.6,288.3-141.6,288.5l0.1-0.1C-141.6,288.5-141.6,288.5-141.6,288.5z M-150,288.2
									C-150,288.1-150,288.1-150,288.2l0.1-0.1C-150,288.1-150,288.1-150,288.2L-150,288.2z M-141.6,288.2L-141.6,288.2
									C-141.7,288.1-141.7,288.1-141.6,288.2l0.1-0.1C-141.6,288.1-141.6,288.1-141.6,288.2z M-150.1,287.8
									C-150.1,287.7-150.1,287.7-150.1,287.8l0.1-0.1C-150,287.7-150,287.7-150.1,287.8L-150.1,287.8z M-141.6,287.8L-141.6,287.8
									c-0.1-0.1-0.1-0.1-0.1-0.1L-141.6,287.8C-141.5,287.7-141.6,287.7-141.6,287.8z"/>
							</g>
							<g id="XMLID_1466_">
								<path id="XMLID_1467_" class="st3" d="M-150.1,287.5L-150.1,287.5L-150.1,287.5C-150,287.4-150,287.4-150.1,287.5
									L-150.1,287.5z"/>
							</g>
						</g>
						<g id="XMLID_1463_">
							<circle id="XMLID_1464_" class="st0" cx="-150" cy="286.5" r="0.3"/>
						</g>
						<g id="XMLID_1461_">
							<circle id="XMLID_1462_" class="st0" cx="-141.7" cy="286.5" r="0.3"/>
						</g>
						<g id="XMLID_1424_">
							<g id="XMLID_1450_">
								<g id="XMLID_1456_">
									<g id="XMLID_1457_">
										<path id="XMLID_1458_" class="st2" d="M-147.6,287.1c0.1,0,0.1-0.1,0.1-0.1c0-0.1,0,0,0,0v-0.7c0,0,0,0.4,0,0.7l0,0
											c0-0.3,0-0.7,0-0.7s0,0.4,0,0.7l0,0c0-0.3,0-0.7,0-0.7s0,0.4,0,0.7l0,0c0-0.3,0-0.7,0-0.7s0,0.5,0,0.7
											C-147.7,287-147.7,287.1-147.6,287.1 M-147.6,287L-147.6,287L-147.6,287c0-0.1,0.1,0,0.1,0
											C-147.5,287-147.6,287-147.6,287z"/>
									</g>
								</g>
								<g id="XMLID_1451_">
									<g id="XMLID_1452_">
										<path id="XMLID_1453_" class="st2" d="M-147.5,287.1L-147.5,287.1c-0.1,0.1-0.1,0.7-0.1,0.9s0,0.7,0.1,0.7
											s0.1-0.4,0.1-0.7C-147.5,287.8-147.5,287.3-147.5,287.1z M-147.6,288.5C-147.6,288.6-147.6,288.6-147.6,288.5
											L-147.6,288.5c-0.1-0.1-0.1-0.3,0-0.4l0,0l0,0c0-0.1,0-0.1,0-0.3c0,0.1,0,0.1,0,0.3l0,0l0,0
											C-147.6,288.2-147.6,288.3-147.6,288.5z"/>
									</g>
								</g>
							</g>
							<g id="XMLID_1445_">
								<path id="XMLID_1446_" class="st2" d="M-144,288.1c0-0.1,0-0.4,0-0.4v-1.1l0,0c0,0-0.1,0-0.1,0.1c-0.1,0.1-0.1,0.9-0.1,0.9
									c0.1,0,0.1,0.1,0.1,0.1C-144,287.8-144,287.9-144,288.1c-0.1,0.4-0.1,0.7,0,0.7C-144,288.6-144,288.2-144,288.1z
									 M-144.1,287.4c0-0.3,0-0.8,0.1-0.9l0,0L-144.1,287.4C-144,287.4-144.1,287.4-144.1,287.4z M-144,288.5
									C-144,288.6-144,288.6-144,288.5L-144,288.5c-0.1-0.1-0.1-0.3,0-0.4l0,0l0,0c0-0.1,0-0.1,0-0.3c0,0.1,0,0.1,0,0.3l0,0l0,0
									C-144,288.2-144,288.2-144,288.5z"/>
							</g>
							<g id="XMLID_1425_">
								<g id="XMLID_1438_">
									<g id="XMLID_1443_">
										<path id="XMLID_1444_" class="st2" d="M-146.8,287.9c0.1,0.3,0.3,0.4,0.4,0.4l0,0c0,0,0,0,0.1,0v-0.1
											c-0.1-0.1-0.3-0.3-0.3-0.4C-146.7,287.9-146.7,287.9-146.8,287.9L-146.8,287.9z"/>
									</g>
									<g id="XMLID_1439_">
										<path id="XMLID_1440_" class="st2" d="M-144.5,287.5h-2.5c-0.1,0-0.1,0-0.1,0.1c0,0.1,0,0.1,0.1,0.1l0,0
											c0,0.4,0.4,0.9,0.8,0.9h0.8c0.4,0,0.8-0.4,0.8-0.9l0,0C-144.5,287.7-144.5,287.7-144.5,287.5
											C-144.4,287.5-144.4,287.5-144.5,287.5z M-145.3,288.6h-0.8c-0.4,0-0.8-0.4-0.8-0.8h2.3
											C-144.7,288.1-144.9,288.6-145.3,288.6z"/>
									</g>
								</g>
								<g id="XMLID_1431_">
									<g id="XMLID_1436_">
										<path id="XMLID_1437_" class="st2" d="M-146.5,287c0.1,0.1,0.1,0.3,0.3,0.4l0,0l0,0v-0.1
											C-146.3,287.3-146.4,287.3-146.5,287C-146.4,287-146.5,287-146.5,287L-146.5,287z"/>
									</g>
									<g id="XMLID_1432_">
										<path id="XMLID_1433_" class="st2" d="M-144.7,286.7h-2c0,0-0.1,0-0.1,0.1c0,0,0,0.1,0.1,0.1l0,0c0,0.4,0.3,0.8,0.7,0.8
											h0.7c0.4,0,0.7-0.4,0.7-0.8l0,0C-144.7,286.9-144.7,286.9-144.7,286.7L-144.7,286.7z M-145.5,287.5h-0.7
											c-0.3,0-0.7-0.4-0.7-0.7h1.9C-144.9,287.3-145.1,287.5-145.5,287.5z"/>
									</g>
								</g>
								<g id="XMLID_1426_">
									<g id="XMLID_1429_">
										<path id="XMLID_1430_" class="st2" d="M-146.4,286.3c0.1,0.1,0.1,0.3,0.3,0.3l0,0l0,0c0,0,0,0,0-0.1
											C-146.3,286.5-146.3,286.5-146.4,286.3C-146.3,286.3-146.4,286.3-146.4,286.3L-146.4,286.3z"/>
									</g>
									<g id="XMLID_1427_">
										<path id="XMLID_1428_" class="st2" d="M-144.9,286.2h-1.6c0,0-0.1,0-0.1,0.1c0,0,0,0.1,0.1,0.1l0,0c0,0.3,0.3,0.7,0.5,0.7
											h0.5c0.3,0,0.5-0.3,0.5-0.7l0,0C-144.9,286.2-144.9,286.2-144.9,286.2L-144.9,286.2z M-145.5,286.7h-0.5
											c-0.3,0-0.4-0.3-0.4-0.5h1.5C-145.1,286.5-145.2,286.7-145.5,286.7z"/>
									</g>
								</g>
							</g>
						</g>
					</g>
				</g>
			</g>
		</g>
	</g>
	<g id="XMLID_249_">
		<g id="XMLID_252_">
			<path class="st2" d="M-87.6,289.3c-0.7-2.7-1.1-5.2-1.9-7.9c-7.3-21.2-21.9-34.9-44.1-40.5c-1.2-0.3-2.4-0.7-3.3-1.5
				c-1.6-1.2-1.7-3.1-0.8-4.8s2.7-2.4,4.7-2c11.5,2.4,21.8,7.3,30.5,15C-90.6,258-83,271-80,286.5c0.1,0.5,0.3,0.9,0.7,1.7
				c1.2-1.3,2-2.4,3.1-3.6c1.7-2,4.1-2.3,6-0.8c1.7,1.5,1.9,3.9,0.3,5.9c-3.1,3.7-6,7.5-9.2,11.1c-2,2.4-4,2.5-6.5,0.7
				c-3.7-2.9-7.3-5.9-11.1-8.9c-2.3-1.9-2.7-4.1-1.1-6c1.6-1.9,3.7-2,6.1-0.1c1.2,0.9,2.4,1.9,3.5,2.7
				C-88.3,289.4-88.2,289.4-87.6,289.3z"/>
			<path class="st0" d="M-82.7,304.8c-1.3,0-2.8-0.5-4.3-1.7c-3.9-3.1-7.5-6-11.1-8.9c-1.6-1.3-2.5-2.8-2.7-4.4
				c-0.1-1.5,0.3-2.9,1.3-4.1c2.3-2.7,5.5-2.8,8.7-0.4l0.1,0.1c-0.3-1.1-0.5-2.1-0.8-3.2c-7.1-20.7-21.5-33.9-42.7-39.3
				c-1.5-0.4-2.9-0.8-4.1-1.9c-2.1-1.7-2.7-4.3-1.3-6.9c1.5-2.5,3.9-3.6,6.7-2.9c11.9,2.5,22.4,7.7,31.4,15.4
				c11.9,10.3,19.6,23.1,22.8,38.2c0.3-0.3,0.5-0.7,0.8-0.9c2.4-2.7,5.9-3.1,8.5-1.1c2.5,2.3,2.8,5.6,0.5,8.4
				c-3.3,4.1-6.4,7.7-9.2,11.1C-79.4,304-81,304.8-82.7,304.8z M-95.1,287c-0.8,0-1.2,0.5-1.5,0.8c-0.4,0.5-0.5,0.9-0.5,1.5
				c0,0.7,0.5,1.3,1.3,2c3.5,2.9,7.1,5.7,11.1,8.9c1.7,1.3,2.5,1.3,4-0.4c2.8-3.3,5.9-6.9,9.2-11.1c0.5-0.7,1.3-2.1,0-3.3
				c-1.2-0.9-2.5-0.3-3.3,0.7c-0.7,0.8-1.3,1.5-2,2.3l-3.1,3.7L-81,289c-0.1-0.3-0.1-0.5-0.3-0.8c-0.1-0.4-0.3-0.8-0.4-1.2
				c-2.8-15-10.3-27.8-22-37.9c-8.4-7.2-18.4-12.2-29.6-14.6c-1.7-0.4-2.3,0.4-2.7,1.1c-0.8,1.5,0,2.1,0.4,2.4
				c0.7,0.5,1.7,0.8,2.7,1.2c22.4,5.7,37.7,19.8,45.3,41.7c0.5,1.7,0.9,3.5,1.3,5.2c0.3,0.9,0.4,1.9,0.7,2.8l0.5,2l-2.3,0.3
				c-0.4,0-1.1,0.1-1.7-0.4l-0.7-0.5c-0.7-0.5-1.3-1.1-2.1-1.6l-0.7-0.5C-93.8,287.3-94.6,287-95.1,287z"/>
		</g>
		<g id="XMLID_733_">
			<g>
				<path class="st2" d="M-204.1,308.1c5.9,25,20.7,41,45.1,47.7c4.3,1.2,5.9,2.7,5.2,5.3c-0.7,2.9-2.9,3.9-7.2,2.7
					c-27-7.5-44.2-25-51.2-52.5c-0.3-0.8-0.4-1.6-0.7-2.8c-1.2,1.5-2.3,2.7-3.3,4c-1.9,2.1-4,2.5-6,0.9c-1.9-1.5-2.1-3.9-0.4-6
					c3.1-4,6.3-8,9.6-11.9c1.7-2,3.9-2.3,6-0.5c3.9,3.2,7.9,6.4,11.8,9.6c2.1,1.9,2.3,4.1,0.7,6c-1.5,1.7-3.9,1.9-5.9,0.3
					c-0.7-0.5-1.3-1.1-2-1.6C-202.9,308.9-203.6,308.5-204.1,308.1z"/>
			</g>
			<g>
				<path class="st0" d="M-225.6,310.5c0-1.3,0.5-2.8,1.5-4.1c3.3-4.4,6.9-8.7,9.6-11.9c2.4-2.8,5.7-3.2,8.7-0.8
					c3.6,2.9,7.5,6,11.8,9.6c1.5,1.2,2.3,2.7,2.4,4.4c0.1,1.5-0.4,3.1-1.5,4.3c-2,2.3-5.1,2.7-7.9,0.9c6.5,21.6,20.4,35,42.5,41
					c2.1,0.5,7.9,2.1,6.5,7.6c-0.4,1.7-1.2,3.1-2.5,3.7c-1.7,0.9-3.9,1.1-6.9,0.3c-27.5-7.7-45.1-25.5-52.2-53
					c-0.3,0.4-0.7,0.8-1.1,1.2c-2.5,2.9-5.9,3.3-8.5,1.2C-224.8,313.8-225.6,312.1-225.6,310.5z M-195.3,308.1V308
					c0-0.7-0.4-1.2-1.1-1.9c-4.3-3.6-8.1-6.8-11.8-9.6c-1.3-1.1-2.4-0.9-3.5,0.3c-2.7,3.2-6.1,7.5-9.5,11.8
					c-1.1,1.3-0.9,2.5,0.1,3.5c0.5,0.4,1.6,1.3,3.3-0.8c1.1-1.2,2.1-2.4,3.3-3.9l2.3-2.8l0.9,3.5c0.3,0.7,0.4,1.3,0.5,1.9
					c0,0.3,0.1,0.7,0.3,0.9c6.7,26.6,23.5,43.7,49.8,51.2c2.5,0.7,3.6,0.4,4,0.1c0.3-0.1,0.7-0.4,0.8-1.5c0.3-0.9,0.5-2-3.9-3.1
					c-24.8-6.8-40.5-23.2-46.5-49.1l-1.2-4.8l4,2.9c0.7,0.4,1.2,0.9,1.9,1.5c0.3,0.3,0.7,0.5,0.9,0.8s0.7,0.5,0.9,0.7
					c0.5,0.3,2.1,1.5,3.3,0C-195.6,309-195.3,308.5-195.3,308.1z"/>
			</g>
		</g>
		<g id="XMLID_253_">
			<g>
				<path class="st2" d="M-155.9,241.2c-24.8,6-40.9,21-47.4,45.5c-1.1,4.3-2.5,5.9-5.3,5.2c-2.9-0.7-3.9-2.9-2.7-7.2
					c7.3-27.1,24.7-44.3,52.2-51.6c0.8-0.3,1.6-0.4,2.8-0.7c-1.5-1.2-2.7-2.3-4-3.3c-2.1-1.9-2.5-4-1.1-6c1.5-1.9,3.9-2.1,6-0.5
					c4,3.1,8,6.3,11.9,9.5c2,1.7,2.3,3.9,0.7,6c-3.2,4-6.3,7.9-9.6,11.8c-1.9,2.1-4.1,2.4-6,0.8c-1.7-1.5-1.9-3.9-0.3-5.9
					c0.5-0.7,1.1-1.3,1.6-2C-156.7,242.4-156.3,241.7-155.9,241.2z"/>
			</g>
			<g>
				<path class="st0" d="M-158.4,219.7c1.3,0,2.8,0.5,4.1,1.5c4.4,3.3,8.7,6.9,12,9.5c2.8,2.4,3.2,5.7,0.9,8.7
					c-2.8,3.6-6,7.5-9.6,11.8c-1.2,1.5-2.7,2.3-4.3,2.4c-1.5,0.1-3.1-0.4-4.3-1.5c-2.3-2-2.7-5.1-1.1-7.9
					c-21.5,6.7-34.9,20.7-40.7,42.7c-0.5,2.1-2,7.9-7.5,6.7c-1.7-0.4-3.1-1.2-3.7-2.5c-1.1-1.7-1.1-3.9-0.3-6.9
					c7.5-27.5,25.2-45.3,52.8-52.6c-0.4-0.3-0.8-0.7-1.2-1.1c-2.9-2.5-3.5-5.7-1.3-8.5C-161.8,220.5-160.2,219.7-158.4,219.7z
					 M-155.9,249.9h0.1c0.7,0,1.2-0.4,1.9-1.1c3.6-4.3,6.7-8.1,9.6-11.8c1.1-1.3,0.9-2.4-0.3-3.3c-3.2-2.7-7.5-6.1-11.9-9.5
					c-1.3-1.1-2.5-0.9-3.5,0.1c-0.4,0.5-1.2,1.6,0.8,3.3c1.2,1.1,2.5,2.1,4,3.3l2.8,2.3l-3.5,1.1c-0.7,0.3-1.3,0.4-1.9,0.5
					c-0.3,0-0.7,0.1-0.9,0.3c-26.6,6.9-43.7,23.8-50.9,50.2c-0.7,2.5-0.4,3.6-0.1,4c0.1,0.3,0.4,0.7,1.5,0.8c0.9,0.3,2,0.4,3.1-3.9
					c6.7-24.8,23.1-40.6,48.9-46.7l4.8-1.2l-2.9,4.1c-0.4,0.7-0.9,1.2-1.5,1.9c-0.3,0.3-0.5,0.7-0.8,0.9c-0.3,0.3-0.5,0.7-0.7,0.9
					c-0.3,0.5-1.3,2.1,0,3.3C-156.8,249.7-156.3,249.9-155.9,249.9z"/>
			</g>
		</g>
		<g id="XMLID_251_">
			<g>
				<path class="st2" d="M-88.4,289.4c-5.7-25-20.6-41-45-47.8c-4.3-1.2-5.9-2.7-5.2-5.3c0.7-2.9,2.9-3.9,7.2-2.7
					c27,7.6,44.2,25.1,51,52.6c0.3,0.8,0.4,1.6,0.7,2.8c1.2-1.5,2.3-2.7,3.3-4c1.9-2.1,4-2.5,6-0.9c1.9,1.5,2.1,3.9,0.4,6
					c-3.1,4-6.3,7.9-9.6,11.8c-1.7,2-3.9,2.3-6,0.5c-3.9-3.2-7.9-6.4-11.8-9.7c-2.1-1.9-2.3-4.1-0.7-6c1.5-1.7,3.9-1.9,5.9-0.3
					c0.7,0.5,1.3,1.1,2,1.6C-89.6,288.5-89,288.9-88.4,289.4z"/>
			</g>
			<g>
				<path class="st0" d="M-66.4,287.1c0,1.3-0.5,2.8-1.5,4.1c-3.5,4.4-6.9,8.5-9.6,11.8c-2.4,2.8-5.7,3.1-8.7,0.8
					c-3.6-2.9-7.3-6.1-11.8-9.7c-1.5-1.2-2.3-2.7-2.4-4.4c-0.1-1.5,0.4-3.1,1.5-4.3c2-2.3,5.1-2.5,7.9-0.9
					c-6.4-21.6-20.2-35.1-42.2-41.3c-2.1-0.7-7.9-2.1-6.5-7.6c0.4-1.7,1.2-3.1,2.5-3.7c1.7-0.9,3.9-1.1,6.9-0.1
					c27.4,7.9,44.9,25.9,51.8,53.4c0.3-0.4,0.7-0.8,1.1-1.2c2.5-2.9,5.9-3.3,8.5-1.2C-67.1,283.8-66.3,285.5-66.4,287.1z
					 M-96.6,289.4v0.1c0,0.7,0.4,1.2,1.1,1.9c4.3,3.6,8.1,6.8,11.6,9.7c1.2,1.1,2.4,0.9,3.5-0.3c2.7-3.2,6.3-7.5,9.6-11.8
					c1.1-1.3,0.9-2.5-0.1-3.5c-0.5-0.4-1.6-1.3-3.3,0.7c-1.1,1.2-2.1,2.4-3.3,3.9l-2.3,2.8l-0.9-3.5c-0.3-0.8-0.3-1.3-0.5-1.9
					c0-0.3-0.1-0.7-0.3-0.9c-6.5-26.6-23.2-43.9-49.4-51.6c-2.5-0.7-3.6-0.4-4-0.1c-0.3,0.1-0.7,0.4-0.8,1.5c-0.3,0.9-0.5,2,3.9,3.2
					c24.7,6.9,40.3,23.6,46.1,49.4l1.1,4.9l-4-2.9c-0.7-0.4-1.2-0.9-1.9-1.5c-0.3-0.3-0.7-0.5-0.9-0.8s-0.7-0.5-0.9-0.8
					c-0.5-0.3-2.1-1.5-3.3,0C-96.3,288.3-96.6,288.9-96.6,289.4z"/>
			</g>
		</g>
		<g id="XMLID_735_">
			<g>
				<path class="st2" d="M-136.7,356c25-5.9,41-20.8,47.5-45.3c1.2-4.3,2.7-5.9,5.3-5.2c2.9,0.7,3.9,2.9,2.7,7.2
					c-7.5,27.1-24.8,44.3-52.4,51.3c-0.8,0.3-1.6,0.4-2.8,0.7c1.5,1.2,2.7,2.3,4,3.3c2.1,1.9,2.5,4,1.1,6c-1.5,1.9-3.9,2.1-6,0.5
					c-4-3.1-8-6.3-11.9-9.5c-2-1.7-2.3-3.9-0.7-6c3.2-3.9,6.4-7.9,9.6-11.8c1.9-2.1,4.1-2.3,6-0.8c1.7,1.5,1.9,3.9,0.3,5.9
					c-0.5,0.7-1.1,1.3-1.6,2C-135.7,354.8-136.1,355.5-136.7,356z"/>
			</g>
			<g>
				<path class="st0" d="M-79.4,306.2c-0.8-1.2-2.1-2.1-3.7-2.5c-5.5-1.3-7.1,4.4-7.6,6.5c-5.9,22-19.4,35.9-40.9,42.5
					c1.6-2.7,1.2-5.9-1.1-7.9c-1.3-1.1-2.8-1.6-4.3-1.5c-1.6,0.1-3.1,0.9-4.3,2.4c-3.6,4.4-6.8,8.1-9.6,11.8c-2.4,2.9-2,6.3,0.8,8.7
					c3.2,2.7,7.5,6.1,11.9,9.6c1.3,1.1,2.8,1.5,4.1,1.5c1.7,0,3.3-0.8,4.5-2.4c2.1-2.7,1.7-6-1.2-8.5c-0.4-0.4-0.8-0.7-1.2-1.1
					c27.4-7.2,45.3-25,52.9-52.5C-78.3,310.2-78.4,308-79.4,306.2z M-83,312.4c-7.3,26.3-24.4,43.1-51,49.9c-0.3,0-0.7,0.1-0.9,0.3
					c-0.5,0.1-1.2,0.3-1.9,0.5l-3.5,0.9l2.8,2.3c1.5,1.2,2.7,2.1,4,3.3c2,1.7,1.2,2.8,0.8,3.3c-0.9,1.2-2.1,1.2-3.5,0.1
					c-4.3-3.3-8.5-6.8-11.8-9.5c-1.2-1.1-1.3-2.1-0.3-3.5c2.8-3.6,6-7.5,9.6-11.8c0.7-0.7,1.2-1.1,1.9-1.1h0.1
					c0.5,0,0.9,0.3,1.3,0.7c1.5,1.2,0.3,2.9,0,3.3c-0.3,0.3-0.4,0.7-0.7,0.9s-0.5,0.7-0.8,0.9c-0.5,0.7-0.9,1.2-1.5,1.9l-2.9,4.1
					l4.8-1.2c25.8-6.1,42.2-21.8,49-46.6c1.2-4.4,2.1-4.1,3.1-3.9c0.9,0.3,1.2,0.5,1.5,0.8C-82.6,308.8-82.2,309.8-83,312.4z"/>
			</g>
		</g>
	</g>
</g>
</svg>
