<?xml version="1.0" encoding="utf-8"?>
<!-- Generator: Adobe Illustrator 19.0.0, SVG Export Plug-In . SVG Version: 6.00 Build 0)  -->
<svg version="1.1" id="Layer_1" xmlns="http://www.w3.org/2000/svg" xmlns:xlink="http://www.w3.org/1999/xlink" x="0px" y="0px"
	 viewBox="-255.5 188.3 220 220" style="enable-background:new -255.5 188.3 220 220;" xml:space="preserve">
<style type="text/css">
	.st0{fill:#377438;}
	.st1{fill:#CCE5C7;}
	.st2{fill:#D3E6C7;}
	.st3{fill:#387438;}
	.st4{fill:#387539;}
</style>
<g>
	<path id="XMLID_1310_" class="st0" d="M-196,347.4c3.2,10.3,10.8,18.9,19.8,22.8c0.4,0.2,0.7,0.2,0.9,0.2c0.9,0,1.9-0.5,2.3-1.4
		c0.5-1.2,0-2.7-1.4-3.2c-7.8-3.4-14.1-11-17-19.8c-0.4-1.4-1.8-1.9-3-1.6C-195.8,344.8-196.3,346.2-196,347.4z"/>
	<g id="XMLID_1305_">
		<circle id="XMLID_1306_" class="st1" cx="-145.4" cy="357.5" r="9.5"/>
	</g>
	<g id="XMLID_1303_">
		<circle id="XMLID_1304_" class="st2" cx="-145.4" cy="357.5" r="10.4"/>
	</g>
	<g id="XMLID_1301_">
		<circle id="XMLID_1302_" class="st3" cx="-145.4" cy="357.5" r="5.7"/>
	</g>
	<g id="XMLID_1237_">
		<g id="XMLID_1299_">
			<path id="XMLID_1300_" class="st3" d="M-154.1,358.2L-154.1,358.2c-0.2,0.2-0.2,0.4,0,0.4c0.2,0,0-0.4,0.4-0.4
				c0.2,0,0.2,0.2,0.4,0.4c0,0.2,0,0.4-0.2,0.4l0,0v-0.2l0,0c0,0,0,0,0-0.2v-0.2c-0.2,0,0,0.4-0.4,0.4
				C-154.1,358.6-154.1,358.4-154.1,358.2C-154.3,358.2-154.1,358-154.1,358.2L-154.1,358.2z"/>
		</g>
		<g id="XMLID_1297_">
			<path id="XMLID_1298_" class="st3" d="M-153.7,358.9L-153.7,358.9L-153.7,358.9L-153.7,358.9L-153.7,358.9
				C-153.4,359.1-153.5,359.1-153.7,358.9L-153.7,358.9C-153.5,359.1-153.5,359.1-153.7,358.9L-153.7,358.9l0.4,0.4
				c0,0.2,0,0.2-0.2,0.4l0,0c0.2,0,0.2,0.2,0.2,0.2c0,0.2,0,0.4-0.2,0.4h-0.4l0,0l0,0h-0.2V360v-0.2h0.4c0.2,0,0.2,0,0.2-0.2
				c0-0.2-0.2-0.2-0.2-0.2s0,0-0.2,0h-0.4v-0.2L-153.7,358.9C-153.7,359.1-153.5,359.1-153.7,358.9
				C-153.5,358.8-153.7,358.8-153.7,358.9C-153.7,358.8-153.7,358.8-153.7,358.9l-0.4-0.2v-0.2L-153.7,358.9z"/>
		</g>
		<g id="XMLID_1293_">
			<path id="XMLID_1294_" class="st3" d="M-153.4,360.9L-153.4,360.9L-153.4,360.9C-153.2,360.9-153.2,360.9-153.4,360.9
				C-153.2,360.7-153.2,360.5-153.4,360.9L-153.4,360.9v-0.4l0,0c0.2,0,0.2,0.2,0.4,0.2c0.2,0.2,0,0.4-0.2,0.4l-0.4,0.2l0,0l0,0
				h-0.2v-0.2v-0.2l0,0l0,0c0,0-0.2,0-0.2-0.2c0-0.2,0-0.4,0.2-0.4C-153.4,360.3-153.4,360.7-153.4,360.9z M-153.5,360.9
				c0,0.2,0.2,0.2,0.4,0.2l0,0l0,0C-153.4,360.7-153.4,360.7-153.5,360.9C-153.5,360.7-153.5,360.7-153.5,360.9z"/>
		</g>
		<g id="XMLID_1291_">
			<path id="XMLID_1292_" class="st3" d="M-152.7,361.4L-152.7,361.4L-152.7,361.4L-152.7,361.4h0.4v0.2l-0.5,0.4l0,0l0,0h-0.2
				l-0.2-0.2v-0.2L-152.7,361.4z"/>
		</g>
		<g id="XMLID_1289_">
			<path id="XMLID_1290_" class="st3" d="M-152.3,361.9L-152.3,361.9L-152.3,361.9L-152.3,361.9h0.4v0.2l-0.5,0.4l0,0l0,0l-0.2,0.2
				l-0.2-0.2v-0.2L-152.3,361.9z"/>
		</g>
		<g id="XMLID_1287_">
			<path id="XMLID_1288_" class="st3" d="M-151.8,363.4L-151.8,363.4L-151.8,363.4c0.2,0.2,0-0.2,0.2-0.4c0.2-0.2,0.4,0,0.4,0
				s0.2,0.2,0,0.4l0,0l-0.2-0.2l0,0c0,0,0,0,0-0.2h-0.2C-151.8,363-151.6,363.4-151.8,363.4C-151.8,363.5-152,363.5-151.8,363.4
				C-152,363.5-152,363.4-151.8,363.4L-151.8,363.4z"/>
		</g>
		<g id="XMLID_1285_">
			<path id="XMLID_1286_" class="st3" d="M-151.1,363.9L-151.1,363.9L-151.1,363.9L-151.1,363.9l0.2-0.4l0.2,0.2L-151.1,363.9
				l0.4,0.2l-0.2,0.2L-151.1,363.9v0.4c-0.2,0.2,0,0.2,0,0.2l0,0l-0.2,0.2l0,0C-151.2,364.4-151.2,364.2-151.1,363.9L-151.1,363.9z"
				/>
		</g>
		<g id="XMLID_1281_">
			<path id="XMLID_1282_" class="st3" d="M-150.2,364.4c0.2,0.2,0.2,0.4,0,0.4l0,0l-0.4-0.4c0,0.2,0,0.2,0,0.4c0.2,0,0.2,0,0.2,0
				v0.2c0,0-0.2,0-0.4-0.2c-0.2-0.2-0.2-0.4-0.2-0.4C-150.4,364.2-150.2,364.2-150.2,364.4z M-150.2,364.6L-150.2,364.6
				L-150.2,364.6L-150.2,364.6z"/>
		</g>
		<g id="XMLID_1277_">
			<path id="XMLID_1278_" class="st3" d="M-149.5,364.9L-149.5,364.9L-149.5,364.9L-149.5,364.9L-149.5,364.9
				C-149.3,364.8-149.3,364.9-149.5,364.9L-149.5,364.9L-149.5,364.9c0.2,0,0.4,0,0.4,0c0.2,0.2,0.2,0.4,0.2,0.4
				c-0.2,0.2-0.4,0.4-0.4,0.2c-0.2,0-0.2-0.2-0.2-0.2l0,0l0,0l-0.2,0.4l-0.2-0.2L-149.5,364.9z M-149.5,365.3c0.2,0,0.2,0,0.4-0.2
				c0-0.2,0-0.4,0-0.4c-0.2,0-0.2,0-0.4,0.2C-149.5,365.1-149.5,365.3-149.5,365.3z"/>
		</g>
		<g id="XMLID_1275_">
			<path id="XMLID_1276_" class="st3" d="M-147.9,365.7L-147.9,365.7L-147.9,365.7L-147.9,365.7L-147.9,365.7c0-0.4,0.4-0.4,0.4-0.4
				l0,0v0.2l0,0L-147.9,365.7L-147.9,365.7l0.4-0.2v0.2H-147.9v0.5h-0.2L-147.9,365.7z"/>
		</g>
		<g id="XMLID_1271_">
			<path id="XMLID_1272_" class="st3" d="M-146.8,365.7c0.2,0,0.4,0.2,0.4,0.4c0,0.2-0.4,0.4-0.4,0.4c-0.2,0-0.4-0.2-0.4-0.4
				C-147.2,365.8-147,365.7-146.8,365.7z M-147,366.2c0.2,0,0.2,0,0.4-0.2c0-0.2,0-0.4-0.2-0.4c-0.2,0-0.2,0-0.4,0.2
				C-147,366.2-147,366.2-147,366.2z"/>
		</g>
		<g id="XMLID_1269_">
			<path id="XMLID_1270_" class="st3" d="M-145.9,366L-145.9,366L-145.9,366L-145.9,366L-145.9,366c0.2-0.2,0.4-0.2,0.4,0l0,0l0,0
				l0,0c0-0.2,0.2-0.2,0.4-0.2l0,0v0.2l0,0c0,0-0.2,0-0.2,0.2c0,0,0,0,0,0.2v0.4h-0.2L-145.9,366z"/>
		</g>
		<g id="XMLID_1265_">
			<path id="XMLID_1266_" class="st3" d="M-144.2,366L-144.2,366L-144.2,366L-144.2,366C-144.4,365.8-144.4,365.8-144.2,366
				L-144.2,366h-0.4l0,0C-144.4,365.8-144.4,365.8-144.2,366c0.4-0.2,0.4,0,0.4,0.2v0.4l0,0l0,0v0.2h-0.2h-0.2l0,0l0,0
				c0,0,0,0.2-0.2,0.2c-0.2,0-0.4,0-0.4-0.2C-144.5,366.2-144.4,366.2-144.2,366z M-144.4,366.4
				C-144.2,366.4-144.2,366.2-144.4,366.4L-144.4,366.4L-144.4,366.4C-144.4,366.2-144.4,366.2-144.4,366.4
				C-144.4,366.2-144.4,366.4-144.4,366.4z"/>
		</g>
		<g id="XMLID_1260_">
			<path id="XMLID_1261_" class="st3" d="M-142.8,365.5L-142.8,365.5L-142.8,365.5l0.4-0.4c0.2,0,0.4,0,0.4,0.2c0,0.2,0,0.2,0,0.4
				l0,0c0.2,0,0.2,0,0.2,0.2c0,0.2,0,0.4-0.2,0.4l-0.4,0.2h-0.4V365.5z M-142.6,365.7C-142.6,365.7-142.4,365.5-142.6,365.7
				C-142.6,365.5-142.8,365.3-142.6,365.7l-0.4-0.2L-142.6,365.7L-142.6,365.7z M-142.4,365.8L-142.4,365.8
				C-142.2,365.8-142.2,365.7-142.4,365.8c0.2-0.4,0-0.4,0-0.4h-0.2L-142.4,365.8C-142.6,365.8-142.6,365.8-142.4,365.8z"/>
		</g>
		<g id="XMLID_1258_">
			<path id="XMLID_1259_" class="st3" d="M-141.7,365.7L-141.7,365.7l-0.2-0.5h-0.2v-0.2l0.4-0.2v0.2h-0.2L-141.7,365.7l0.4-0.2v0.2
				H-141.7L-141.7,365.7z"/>
		</g>
		<g id="XMLID_1256_">
			<path id="XMLID_1257_" class="st3" d="M-141,364.4c0.2-0.2,0.4-0.2,0.4-0.2v0.2C-140.6,364.4-140.6,364.4-141,364.4
				c0,0.4-0.2,0.4,0,0.5c0.2,0.2,0.4,0.2,0.4,0.2c0.2-0.2,0.2-0.2,0.2-0.2l0,0l0,0l0,0l-0.2-0.2l0.2-0.2h0.2l0.2,0.4l-0.2,0.2l0,0
				l0,0l0,0c0,0,0,0.2-0.2,0.4c-0.2,0.2-0.4,0.2-0.5-0.2C-141.2,364.8-141.2,364.6-141,364.4z"/>
		</g>
		<g id="XMLID_1254_">
			<path id="XMLID_1255_" class="st3" d="M-139.4,363.5c0,0,0.2-0.2,0.4,0l0,0H-139.4L-139.4,363.5
				C-139.2,363.5-139.2,363.5-139.4,363.5c0,0.2,0,0.4,0.2,0.4c0.2,0.2,0.4,0.2,0.4,0c0.2-0.2,0.2-0.2,0.2-0.2h0.2
				c0,0,0,0.2-0.2,0.4c-0.2,0.2-0.4,0.2-0.4,0C-139.6,363.7-139.6,363.5-139.4,363.5z"/>
		</g>
		<g id="XMLID_1252_">
			<path id="XMLID_1253_" class="st3" d="M-139,362.8L-139,362.8L-139,362.8L-139,362.8L-139,362.8L-139,362.8h0.4l0,0l0,0
				c0,0,0-0.2,0-0.4c0.2-0.2,0.2-0.2,0.4,0l0.2,0.2l0,0l0,0l0.2,0.2l-0.2,0.2h-0.2l-0.4-0.2H-139c0.2,0,0.2,0.2,0.2,0.4l0,0l0.4,0.2
				l-0.2,0.2L-139,362.8z"/>
		</g>
		<g id="XMLID_1248_">
			<path id="XMLID_1249_" class="st3" d="M-138,361.9L-138,361.9L-138,361.9L-138,361.9L-138,361.9L-138,361.9l-0.4,0.4l0,0
				c-0.2,0,0-0.4,0-0.4C-138,361.8-138,361.8-138,361.9h0.4l0,0l0,0h0.2l-0.2,0.2L-138,361.9L-138,361.9L-138,361.9
				c0.2,0.2,0.4,0.4,0.2,0.4c0,0.2-0.2,0.2-0.4,0.2C-138,362.1-138,361.9-138,361.9z M-137.6,362.1c0-0.2,0-0.2-0.2-0.4l0,0l0,0
				C-137.8,361.9-138,362.1-137.6,362.1C-137.8,362.1-137.8,362.1-137.6,362.1z"/>
		</g>
		<g id="XMLID_1246_">
			<path id="XMLID_1247_" class="st3" d="M-137.6,361.2L-137.6,361.2L-137.6,361.2L-137.6,361.2L-137.6,361.2
				C-137.8,361.1-137.6,361.1-137.6,361.2L-137.6,361.2L-137.6,361.2L-137.6,361.2c0-0.2-0.2-0.4,0-0.4c0-0.2,0.2-0.2,0.4-0.2
				l0.4,0.2l0,0l0,0h0.2v0.2c0,0,0,0-0.2,0l-0.4-0.2c-0.2,0-0.2,0-0.2,0C-137.5,360.9-137.5,360.9-137.6,361.2
				c0.2-0.2,0.2-0.2,0.4-0.2l0.4,0.2v0.2L-137.6,361.2z"/>
		</g>
		<g id="XMLID_1242_">
			<path id="XMLID_1243_" class="st3" d="M-137.3,359.8C-137.3,359.8-137.1,359.8-137.3,359.8L-137.3,359.8L-137.3,359.8
				c0.2-0.2,0.2-0.2,0.2-0.4v-0.2h0.2l0,0l0,0l0.4,0.2c0.4,0,0.4,0.4,0.2,0.4c0,0.2,0,0.2-0.2,0.2l-0.2-0.2c0,0,0,0,0.2-0.2
				c0-0.2,0-0.2-0.2-0.4l0,0l0,0l0,0v0.2C-136.7,359.8-136.9,360-137.3,359.8C-137.3,360.2-137.5,360-137.3,359.8z M-136.9,359.8
				c-0.2,0-0.2,0-0.4,0.2c0,0.2,0,0.2,0.2,0.2C-136.9,360-136.9,360-136.9,359.8C-136.7,359.8-136.9,359.8-136.9,359.8z"/>
		</g>
		<g id="XMLID_1238_">
			<path id="XMLID_1239_" class="st3" d="M-137.1,358.8c0-0.2,0.2-0.4,0.4-0.4l0,0v0.4c0.2,0,0.2-0.2,0.2-0.2c0-0.2,0-0.2,0-0.2h0.2
				c0,0,0.2,0.2,0,0.4c0,0.4-0.2,0.4-0.4,0.4C-136.9,359.1-137.1,358.9-137.1,358.8z M-136.9,358.8L-136.9,358.8
				c-0.2,0.4-0.2,0.4,0,0.4V358.8z"/>
		</g>
	</g>
	<g id="XMLID_1212_">
		<g id="XMLID_1235_">
			<path id="XMLID_1236_" class="st3" d="M-152.3,353.1l0.2-0.4l0.5,0.4c0,0.2,0,0.4,0,0.4c0,0.2,0,0.4-0.2,0.4
				c-0.2,0.2-0.2,0.4-0.4,0.4c-0.2,0.2-0.4,0.2-0.4,0.2c-0.2,0-0.4,0-0.4-0.2c-0.2-0.2-0.4-0.2-0.4-0.4c0-0.2-0.2-0.4-0.2-0.4
				c0-0.2,0-0.4,0.2-0.4c0-0.2,0.2-0.4,0.4-0.4c0.2-0.2,0.2-0.2,0.4-0.2l0.2,0.4c-0.2,0-0.4,0.2-0.4,0.4c0,0.2-0.2,0.2-0.2,0.4
				c0,0.2,0,0.2,0,0.4s0.2,0.2,0.2,0.2c0.2,0,0.2,0.2,0.4,0.2c0.2,0,0.2,0,0.4,0c0.2,0,0.2-0.2,0.2-0.2c0-0.2,0.2-0.2,0.2-0.4
				L-152.3,353.1z"/>
		</g>
		<g id="XMLID_1231_">
			<path id="XMLID_1232_" class="st3" d="M-150.7,352.2c-0.2,0-0.4,0-0.4,0s-0.4-0.2-0.4-0.4c-0.2-0.2-0.2-0.4-0.2-0.4
				c0-0.2,0-0.4,0-0.4c0-0.2,0.2-0.4,0.4-0.4c0.2-0.2,0.4-0.2,0.4-0.4c0.2,0,0.4,0,0.4,0s0.4,0.2,0.4,0.4c0.2,0.2,0.2,0.4,0.2,0.4
				c0,0.2,0,0.4,0,0.4c0,0.2-0.2,0.4-0.4,0.4C-150.5,352.2-150.7,352.2-150.7,352.2z M-150.5,351.7c0-0.2,0-0.2,0-0.4s0-0.2-0.2-0.4
				c0,0-0.2-0.2-0.4-0.2c-0.2,0-0.2,0-0.4,0c-0.2,0-0.2,0-0.4,0.2c0,0-0.2,0.2-0.2,0.4s0,0.2,0,0.4c0,0.2,0,0.2,0.2,0.4
				c0,0,0.2,0.2,0.4,0.2c0.2,0,0.2,0,0.4,0c0.2,0,0.2,0,0.4-0.2C-150.7,351.7-150.5,351.7-150.5,351.7z"/>
		</g>
		<g id="XMLID_1229_">
			<path id="XMLID_1230_" class="st3" d="M-147.9,349.7l-0.2,0.4l0.2,0.4l-0.4,0.2l-0.4-1.4l0.4-0.2L-147.9,349.7l0.4-0.9l0.4-0.2
				l-0.4,0.9l0.9,0.5l-0.4,0.2L-147.9,349.7z"/>
		</g>
		<g id="XMLID_1227_">
			<path id="XMLID_1228_" class="st3" d="M-146.3,348.5h0.4l0.2,1.4h-0.4L-146.3,348.5z"/>
		</g>
		<g id="XMLID_1223_">
			<path id="XMLID_1224_" class="st3" d="M-144.7,348.5l0.7,0.2c0.2,0,0.4,0.2,0.4,0.2c0.2,0.2,0.2,0.2,0.4,0.4c0,0.2,0,0.4,0,0.4
				c0,0.2-0.2,0.4-0.2,0.4c-0.2,0.2-0.2,0.2-0.4,0.4c-0.2,0-0.4,0-0.4,0l-0.7-0.2L-144.7,348.5z M-144.2,349.7c0.2,0,0.4,0,0.4-0.2
				c0.2-0.2,0.2-0.2,0.2-0.4c0-0.2,0-0.4-0.2-0.4c-0.2-0.2-0.2-0.2-0.4-0.2h-0.4l-0.2,0.9L-144.2,349.7L-144.2,349.7z"/>
		</g>
		<g id="XMLID_1219_">
			<path id="XMLID_1220_" class="st3" d="M-142.4,350.4c-0.2-0.2-0.2-0.4-0.2-0.4c0-0.2,0-0.4,0.2-0.4c0-0.2,0.2-0.4,0.4-0.4
				c0.2-0.2,0.4-0.2,0.4-0.2c0.2,0,0.4,0,0.4,0.2c0.2,0.2,0.4,0.2,0.4,0.4c0.2,0.2,0.2,0.4,0.2,0.4c0,0.2,0,0.4-0.2,0.4
				c0,0.2-0.2,0.4-0.4,0.4c-0.2,0.2-0.4,0.2-0.4,0.2s-0.4,0-0.4-0.2C-142.2,350.6-142.2,350.6-142.4,350.4z M-141.7,350.6
				c0.2,0,0.2,0,0.4-0.2c0.2,0,0.2-0.2,0.2-0.2c0-0.2,0-0.2,0-0.4c0-0.2,0-0.2-0.2-0.4c0-0.2-0.2-0.2-0.2-0.2c-0.2,0-0.2,0-0.4,0
				s-0.2,0-0.4,0.2c-0.2,0-0.2,0.2-0.2,0.2c0,0.2,0,0.2,0,0.4s0,0.2,0.2,0.4c0,0.2,0.2,0.2,0.2,0.2H-141.7z"/>
		</g>
		<g id="XMLID_1217_">
			<path id="XMLID_1218_" class="st3" d="M-139.4,351.7l0.4,0.4l-0.4,0.4c-0.2,0-0.4,0-0.4-0.2c-0.2,0-0.2-0.2-0.4-0.2
				c-0.2-0.2-0.2-0.4-0.4-0.4c0-0.2,0-0.4,0-0.4c0-0.2,0.2-0.4,0.2-0.4c0-0.2,0.4-0.2,0.4-0.4c0.2,0,0.4,0,0.4,0
				c0.2,0,0.4,0.2,0.4,0.4c0.2,0.2,0.2,0.2,0.4,0.4c0,0.2,0.2,0.4,0,0.4h-0.4c0-0.2,0-0.4-0.2-0.4c-0.2,0-0.2-0.2-0.4-0.2
				c-0.2,0-0.2,0-0.4,0c-0.2,0-0.2,0.2-0.4,0.2c0,0.2-0.2,0.2-0.2,0.4c0,0.2,0,0.2,0,0.4c0,0.2,0.2,0.2,0.2,0.4
				c0.2,0.2,0.2,0.2,0.4,0.2L-139.4,351.7z"/>
		</g>
		<g id="XMLID_1213_">
			<path id="XMLID_1214_" class="st3" d="M-139,353.3c0-0.2,0-0.4,0.2-0.4c0-0.2,0.2-0.4,0.4-0.4c0.2-0.2,0.4-0.2,0.4-0.2
				c0.2,0,0.4,0,0.4,0.2c0.2,0.2,0.4,0.2,0.4,0.4c0.2,0.2,0.2,0.4,0.2,0.4c0,0.2,0,0.4-0.2,0.4c-0.2,0.2-0.2,0.4-0.4,0.4
				c-0.2,0.2-0.4,0.2-0.4,0.2c-0.2,0-0.4,0-0.4-0.2c-0.2-0.2-0.4-0.2-0.4-0.4C-138.9,353.6-139,353.5-139,353.3z M-138.5,353.8
				c0.2,0,0.2,0,0.4,0c0.2,0,0.2,0,0.4-0.2c0.2,0,0.2-0.2,0.2-0.2c0-0.2,0-0.2,0-0.4s0-0.2-0.2-0.4c0-0.2-0.2-0.2-0.2-0.2
				c-0.2,0-0.2,0-0.4,0c-0.2,0-0.2,0-0.4,0.2c-0.2,0-0.2,0.2-0.2,0.2c0,0.2,0,0.2,0,0.4C-138.9,353.5-138.7,353.5-138.5,353.8
				L-138.5,353.8z"/>
		</g>
	</g>
	<g id="XMLID_1191_">
		<g id="XMLID_1207_">
			<path id="XMLID_1211_" class="st2" d="M-150.7,358.2c0.2,0.4,0.4,0.9,0.4,1.2c0.7,1.6,1.9,2.5,3.5,2.8c0.2,0,0.4,0.2,0.4,0.4
				c0,0.4-0.2,0.4-0.4,0.4c-0.7-0.2-1.2-0.4-1.9-0.7c-1.6-0.9-2.5-2.1-2.8-3.9c0,0,0,0,0-0.2c-0.2,0.2-0.2,0.4-0.4,0.4
				c-0.2,0.2-0.4,0.2-0.5,0s-0.2-0.4,0-0.5c0.4-0.4,0.5-0.7,0.9-0.9c0.2-0.2,0.4-0.4,0.5,0c0.2,0.4,0.7,0.5,0.9,0.9
				c0.2,0.2,0.4,0.4,0.2,0.5c-0.2,0.2-0.4,0.2-0.5,0C-150.2,358.6-150.4,358.4-150.7,358.2C-150.5,358.4-150.5,358.4-150.7,358.2z"
				/>
			<path id="XMLID_1208_" class="st4" d="M-146.5,363.2L-146.5,363.2c-0.9-0.2-1.4-0.4-1.9-0.7c-1.4-0.9-2.5-2.1-2.8-3.9l0,0
				c-0.2,0.4-0.5,0.4-0.7,0.2c-0.4-0.2-0.4-0.5,0-0.7c0.4-0.4,0.5-0.7,0.9-0.9c0.4-0.4,0.5-0.4,0.9,0c0.4,0.4,0.7,0.5,0.9,0.9
				c0.4,0.4,0.4,0.5,0.2,0.7c-0.2,0.4-0.4,0.4-0.7,0l0,0l0,0c0.2,0.4,0.2,0.5,0.4,0.9c0.7,1.4,1.9,2.5,3.5,2.8
				c0.2,0,0.4,0.2,0.5,0.4c0,0.2,0,0.4-0.2,0.4C-146.3,363.2-146.5,363.2-146.5,363.2z M-151.2,358.2l0.2,0.4c0.4,1.6,1.2,3,2.7,3.9
				c0.5,0.4,1.2,0.5,1.8,0.7c0.2,0,0.2,0,0.4,0V363c0-0.2,0-0.2-0.4-0.2c-1.8-0.4-3-1.4-3.7-3c-0.2-0.4-0.4-0.5-0.4-0.9
				c0-0.2-0.2-0.4-0.2-0.4L-151.2,358.2h0.5h0.2l0.2,0.2l0.2,0.2c0.2,0.2,0.4,0,0.4,0s0.2-0.2,0-0.4c-0.4-0.4-0.7-0.5-0.9-0.9
				c-0.2-0.2-0.4-0.2-0.4,0c-0.4,0.4-0.5,0.7-0.9,0.9c-0.2,0.2-0.2,0.2,0,0.4c0.2,0.2,0.2,0,0.4,0L-151.2,358.2L-151.2,358.2z"/>
		</g>
		<g id="XMLID_1202_">
			<path id="XMLID_1206_" class="st2" d="M-140.6,356.6c0-0.4-0.2-0.4-0.2-0.7c-0.7-1.8-1.9-3-3.7-3.4c-0.2,0-0.4,0-0.4-0.2
				c-0.2-0.2-0.2-0.4-0.2-0.4c0.2-0.2,0.4-0.4,0.4-0.2c0.9,0.4,1.9,0.7,2.5,1.2c1.1,0.9,1.6,1.9,1.9,3.2v0.2
				c0.2-0.2,0.2-0.4,0.4-0.4c0.2-0.2,0.4-0.2,0.5-0.2c0.2,0.2,0.2,0.4,0,0.5c-0.4,0.4-0.5,0.7-0.9,0.9c-0.2,0.4-0.4,0.4-0.5,0
				c-0.4-0.4-0.7-0.5-0.9-0.9c-0.2-0.2-0.4-0.4-0.2-0.5c0.2-0.2,0.4-0.2,0.5,0C-140.8,356.6-140.8,356.6-140.6,356.6
				C-140.6,356.8-140.6,356.8-140.6,356.6z"/>
			<path id="XMLID_1203_" class="st4" d="M-140.1,358c-0.2,0-0.4,0-0.4-0.2c-0.4-0.4-0.7-0.5-0.9-0.9c-0.2-0.2-0.4-0.4-0.4-0.4
				s0-0.4,0.2-0.4c0.2-0.4,0.4-0.4,0.7,0l0,0c0-0.2,0-0.2-0.2-0.4c-0.5-1.8-1.8-2.8-3.5-3.4c-0.2,0-0.4-0.2-0.4-0.2
				c-0.2-0.2-0.4-0.4-0.2-0.5c0.2-0.4,0.4-0.4,0.5-0.4c1.1,0.4,1.9,0.7,2.7,1.4c0.9,0.9,1.6,1.9,1.9,3.2c0,0,0,0,0-0.2
				c0.4-0.4,0.5-0.4,0.7-0.2c0.4,0.2,0.4,0.5,0,0.7c-0.4,0.4-0.5,0.7-0.9,0.9C-139.9,358-140.1,358-140.1,358z M-141.2,356.6
				C-141.3,356.6-141.3,356.6-141.2,356.6C-141.3,356.6-141.3,356.6-141.2,356.6c-0.2,0.2-0.2,0.4,0,0.4c0.4,0.4,0.7,0.5,0.9,0.9
				c0.2,0.2,0.4,0.2,0.4,0c0.4-0.4,0.5-0.7,0.9-0.9c0,0,0.2-0.2,0-0.4c-0.2-0.2-0.4,0-0.4,0l-0.2,0.2l-0.4,0.4l-0.2-0.4v-0.2
				c-0.4-1.2-0.9-2.3-1.9-3.2c-0.7-0.7-1.6-1.1-2.5-1.2c-0.2,0-0.2,0-0.4,0.2c-0.2,0.2,0,0.2,0,0.4c0,0,0.2,0.2,0.4,0.2
				c1.9,0.5,3.2,1.6,3.7,3.5c0,0.2,0.2,0.4,0.2,0.4c0,0.2,0,0.2,0,0.4v0.2h-0.4l0,0L-141.2,356.6L-141.2,356.6L-141.2,356.6z"/>
		</g>
		<g id="XMLID_1197_">
			<path id="XMLID_1201_" class="st2" d="M-146.5,352.7c-0.7,0.2-1.2,0.4-1.8,0.5c-1.2,0.7-1.9,1.9-2.5,3.2c0,0.2,0,0.2-0.2,0.4
				c-0.2,0.2-0.4,0.2-0.4,0.2c-0.2-0.2-0.4-0.4-0.2-0.4c0.2-0.9,0.5-1.6,1.1-2.3c0.9-1.1,1.9-1.9,3.5-2.1l0,0l0,0
				c-0.2-0.2-0.2-0.2-0.4-0.4c-0.2-0.2-0.4-0.4-0.2-0.5c0.2-0.2,0.4-0.2,0.5,0c0.4,0.4,0.7,0.5,0.9,0.9c0.4,0.2,0.4,0.4,0,0.5
				c-0.4,0.4-0.5,0.7-0.9,0.9c-0.2,0.2-0.4,0.2-0.4,0.2s-0.4-0.2-0.4-0.4c0-0.2,0-0.4,0.2-0.4C-146.5,352.9-146.5,352.7-146.5,352.7
				z"/>
			<path id="XMLID_1198_" class="st4" d="M-150.7,357c-0.2,0-0.2,0-0.4,0c-0.4-0.2-0.4-0.4-0.4-0.5c0.2-0.9,0.5-1.8,1.1-2.5
				c0.9-1.1,1.9-1.9,3.5-2.1l0,0c-0.4-0.4-0.4-0.5-0.2-0.7c0.2-0.2,0.4-0.2,0.4-0.2c0.2,0,0.4,0,0.4,0.2c0.4,0.4,0.7,0.5,0.9,0.9
				c0.4,0.4,0.4,0.5,0.2,0.9l-0.2,0.4c-0.2,0.4-0.4,0.5-0.5,0.7s-0.4,0.2-0.5,0.2s-0.4-0.2-0.4-0.4c0-0.2,0-0.4,0.2-0.4l0,0
				c-0.4,0.2-0.9,0.4-1.4,0.5c-1.2,0.7-1.9,1.8-2.3,3c0,0.2,0,0.4-0.2,0.4C-150.5,357-150.7,357-150.7,357z M-146.5,351.2
				L-146.5,351.2C-146.6,351.2-146.6,351.2-146.5,351.2c-0.4,0.2-0.2,0.4,0,0.4l0.4,0.4l-0.4,0.2l0,0c0,0,0,0-0.2,0
				c-1.4,0.4-2.5,0.9-3.4,1.9c-0.5,0.7-0.9,1.4-1.1,2.3c0,0.2,0,0.2,0.2,0.4c0.2,0,0.2,0,0.4,0c0,0,0-0.2,0.2-0.4
				c0.4-1.4,1.2-2.5,2.5-3.4c0.5-0.4,1.2-0.5,1.8-0.7h0.4l-0.4,0.4l-0.2,0.2c-0.2,0.2-0.2,0.2-0.2,0.4c0,0.2,0,0.2,0,0.2l0.2,0.2
				c0,0,0.2,0,0.4-0.2c0.4-0.4,0.4-0.4,0.5-0.7l0.2-0.4c0.2-0.2,0.2-0.4,0-0.4c-0.4-0.4-0.7-0.5-0.9-0.7
				C-146.5,351.2-146.5,351.2-146.5,351.2z"/>
		</g>
		<g id="XMLID_1192_">
			<path id="XMLID_1196_" class="st2" d="M-144.5,362.5c1.9-0.5,3.4-1.8,3.9-3.7c0.2-0.4,0.4-0.5,0.4-0.4c0.4,0,0.4,0.4,0.4,0.5
				c-0.7,2.3-1.9,3.5-4.2,4.1c0,0-0.2,0-0.4,0c0.2,0.2,0.4,0.2,0.4,0.4c0.2,0.2,0.4,0.4,0.2,0.5c-0.2,0.2-0.4,0.2-0.5,0
				c-0.4-0.4-0.7-0.5-0.9-0.9c-0.2-0.2-0.2-0.4,0-0.5c0.4-0.4,0.5-0.7,0.9-0.9c0.2-0.2,0.4-0.2,0.5,0c0.2,0.2,0.2,0.4,0,0.5
				l-0.2,0.2C-144.5,362.3-144.5,362.5-144.5,362.5z"/>
			<path id="XMLID_1193_" class="st4" d="M-144.4,364.1c-0.2,0-0.4,0-0.4-0.2c-0.4-0.4-0.7-0.5-0.9-0.9c-0.4-0.2-0.4-0.5,0-0.7
				c0.4-0.4,0.5-0.7,0.9-0.9c0.2-0.2,0.4-0.2,0.4-0.2s0.4,0,0.4,0.2c0.2,0.2,0.4,0.4,0.2,0.7c1.8-0.5,3-1.8,3.4-3.5
				c0-0.2,0.2-0.7,0.7-0.5c0.2,0,0.4,0.2,0.4,0.4c0.2,0.2,0.2,0.4,0,0.5c-0.7,2.3-2.1,3.7-4.4,4.2c0,0,0,0,0.2,0.2
				c0.4,0.4,0.4,0.5,0.2,0.7C-144.2,364.1-144.4,364.1-144.4,364.1z M-144.5,361.8L-144.5,361.8
				C-144.5,361.8-144.7,361.8-144.5,361.8c-0.4,0.4-0.7,0.9-0.9,1.1c-0.2,0.2-0.2,0.2,0,0.4c0.4,0.4,0.7,0.5,0.9,0.9
				c0,0,0.2,0.2,0.4,0c0,0,0.2-0.2,0-0.4c-0.2,0-0.2-0.2-0.4-0.2l-0.4-0.4l0.5-0.2c2.1-0.5,3.5-1.9,4.2-4.1c0-0.2,0-0.4,0-0.4
				s0,0-0.2-0.2c-0.2,0-0.2,0-0.4,0.4c-0.5,1.9-1.9,3.4-4.1,3.9l-0.4,0.2l0.4-0.4c0,0,0-0.2,0.2-0.2c0,0,0,0,0-0.2c0,0,0,0,0.2-0.2
				C-144.4,361.9-144.4,361.9-144.5,361.8L-144.5,361.8z"/>
		</g>
	</g>
	<g id="XMLID_1146_">
		<g id="XMLID_1189_">
			<path id="XMLID_1190_" class="st4" d="M-137.6,357.7L-137.6,357.7C-137.8,357.7-137.8,357.7-137.6,357.7L-137.6,357.7
				L-137.6,357.7z"/>
		</g>
		<g id="XMLID_1149_">
			<path id="XMLID_1150_" class="st4" d="M-145.4,365.1c-0.2,0-0.4,0-0.4,0v-0.2C-145.6,365.1-145.6,365.1-145.4,365.1L-145.4,365.1
				z M-145.1,365.1L-145.1,365.1c0.2-0.2,0.4-0.2,0.4-0.2v0.2C-144.9,365.1-145.1,365.1-145.1,365.1z M-145.9,365.1
				c-0.2,0-0.4,0-0.4,0v-0.2C-146.3,365.1-146.1,365.1-145.9,365.1L-145.9,365.1z M-144.5,365.1L-144.5,365.1
				c0.2-0.2,0.2-0.2,0.4-0.2v0.2C-144.4,365.1-144.4,365.1-144.5,365.1z M-146.6,365.1c-0.2,0-0.4,0-0.4,0v-0.2
				C-146.8,364.9-146.8,364.9-146.6,365.1L-146.6,365.1z M-143.8,365.1L-143.8,365.1c0.2-0.2,0.2-0.2,0.4-0.2v0.2
				C-143.8,365.1-143.8,365.1-143.8,365.1z M-147.2,364.9c-0.2,0-0.2,0-0.4-0.2v-0.2C-147.5,364.8-147.4,364.8-147.2,364.9
				L-147.2,364.9z M-143.3,364.9L-143.3,364.9c0.2-0.2,0.2-0.2,0.4-0.2v0.2C-143.1,364.8-143.3,364.9-143.3,364.9z M-147.9,364.6
				c-0.2,0-0.2-0.2-0.4-0.2v-0.2C-148.1,364.6-147.9,364.6-147.9,364.6L-147.9,364.6z M-142.8,364.6L-142.8,364.6
				c0-0.2,0.2-0.2,0.4-0.4v0.2C-142.6,364.6-142.8,364.6-142.8,364.6z M-148.4,364.6c-0.2,0-0.2-0.2-0.4-0.2v-0.2
				C-148.6,364.2-148.6,364.4-148.4,364.6L-148.4,364.6z M-142.2,364.6L-142.2,364.6c0-0.2,0.2-0.2,0.4-0.4v0.2
				C-142.1,364.4-142.1,364.4-142.2,364.6z M-148.9,364.2c-0.2,0-0.2-0.2-0.4-0.2v-0.2C-149.1,364.1-149.1,364.1-148.9,364.2
				L-148.9,364.2z M-141.7,364.2L-141.7,364.2c0-0.2,0.2-0.2,0.4-0.4v0.2C-141.5,364.1-141.5,364.1-141.7,364.2z M-149.5,363.9
				c-0.2,0-0.2-0.2-0.4-0.2v-0.2C-149.7,363.7-149.5,363.7-149.5,363.9L-149.5,363.9z M-141.2,363.9L-141.2,363.9
				c0-0.2,0.2-0.2,0.2-0.4L-141.2,363.9C-141,363.7-141,363.9-141.2,363.9z M-150,363.5c-0.2,0-0.2-0.2-0.4-0.2v-0.2
				C-150.2,363.4-150,363.5-150,363.5L-150,363.5z M-140.6,363.5L-140.6,363.5c0-0.2,0.2-0.4,0.2-0.4L-140.6,363.5
				C-140.5,363.5-140.6,363.5-140.6,363.5z M-150.4,363.2c-0.2-0.2-0.2-0.2-0.4-0.4l0.2-0.2C-150.5,363-150.5,363-150.4,363.2
				L-150.4,363.2z M-140.1,363.2L-140.1,363.2c0-0.2,0.2-0.4,0.2-0.4l0.2,0.2C-140.1,363-140.1,363-140.1,363.2z M-150.9,362.6
				c-0.2-0.2-0.2-0.2-0.4-0.4l0.2-0.2C-150.9,362.5-150.9,362.5-150.9,362.6L-150.9,362.6z M-139.8,362.6L-139.8,362.6
				c0-0.2,0-0.4,0.2-0.4h0.2C-139.6,362.5-139.6,362.6-139.8,362.6z M-151.2,362.3c0-0.2-0.2-0.2-0.2-0.4h0.2
				C-151.2,361.9-151.2,362.1-151.2,362.3L-151.2,362.3z M-139.4,362.3L-139.4,362.3c0-0.2,0-0.4,0.2-0.4h0.2
				C-139.2,362.1-139.2,362.1-139.4,362.3z M-151.6,361.8c0-0.2-0.2-0.2-0.2-0.4h0.2C-151.8,361.4-151.6,361.6-151.6,361.8
				L-151.6,361.8z M-139,361.8L-139,361.8c0-0.2,0-0.4,0.2-0.4h0.2C-138.9,361.6-138.9,361.6-139,361.8z M-152,361.2
				c0-0.2-0.2-0.2-0.2-0.4h0.2C-152,360.9-152,361.1-152,361.2L-152,361.2z M-138.5,361.2L-138.5,361.2c0-0.2,0-0.4,0-0.4h0.2
				C-138.5,361.1-138.5,361.1-138.5,361.2z M-152.3,360.7c0-0.2-0.2-0.2-0.2-0.4h0.2C-152.3,360.3-152.3,360.5-152.3,360.7
				L-152.3,360.7z M-138.3,360.7L-138.3,360.7c0-0.2,0-0.4,0-0.4h0.2C-138.3,360.5-138.3,360.5-138.3,360.7z M-152.5,360.2
				c0-0.2-0.2-0.2-0.2-0.4h0.2C-152.3,359.8-152.3,360-152.5,360.2L-152.5,360.2z M-138.2,360.2L-138.2,360.2c0-0.2,0-0.4,0-0.4h0.2
				C-138,359.8-138,360-138.2,360.2z M-152.7,359.5c0-0.2,0-0.2-0.2-0.4h0.2C-152.7,359.3-152.5,359.3-152.7,359.5L-152.7,359.5z
				 M-138,359.5L-138,359.5c-0.2-0.2,0-0.4,0-0.4h0.2C-138,359.3-138,359.5-138,359.5z M-152.8,358.9c0-0.2,0-0.4,0-0.4h0.2
				C-152.8,358.8-152.7,358.8-152.8,358.9L-152.8,358.9z M-137.8,358.9L-137.8,358.9c-0.2-0.2-0.2-0.4,0-0.4h0.2
				C-137.8,358.8-137.8,358.8-137.8,358.9z M-152.8,358.2c0-0.2,0-0.4,0-0.4h0.2C-152.8,358.2-152.8,358.2-152.8,358.2L-152.8,358.2
				z M-137.8,358.2L-137.8,358.2c-0.2-0.2-0.2-0.4-0.2-0.4h0.2C-137.6,358.2-137.8,358.2-137.8,358.2z"/>
		</g>
		<g id="XMLID_1147_">
			<path id="XMLID_1148_" class="st4" d="M-152.8,357.7L-152.8,357.7L-152.8,357.7L-152.8,357.7L-152.8,357.7z"/>
		</g>
	</g>
	<g id="XMLID_1144_">
		<circle id="XMLID_1145_" class="st3" cx="-152.8" cy="356.1" r="0.4"/>
	</g>
	<g id="XMLID_1142_">
		<circle id="XMLID_1143_" class="st3" cx="-138" cy="356.1" r="0.4"/>
	</g>
	<g id="XMLID_1103_">
		<g id="XMLID_1131_">
			<g id="XMLID_1137_">
				<g id="XMLID_1138_">
					<path id="XMLID_1139_" class="st2" d="M-148.4,357.2c0.2,0,0.4-0.2,0.4-0.4c0-0.4,0,0,0,0v-1.1c0,0,0,0.7,0,1.1l0,0
						c0-0.4,0-1.1,0-1.1s0,0.7,0,1.1l0,0c0-0.4,0-1.1,0-1.1s0,0.7,0,1.1l0,0c0-0.4,0-1.1,0-1.1s0,0.9,0,1.1
						C-148.6,357-148.6,357.2-148.4,357.2 M-148.4,357C-148.6,357-148.6,356.8-148.4,357L-148.4,357c0-0.2,0.2,0,0.4,0
						C-148.2,357-148.4,357-148.4,357z"/>
				</g>
			</g>
			<g id="XMLID_1132_">
				<g id="XMLID_1133_">
					<path id="XMLID_1134_" class="st2" d="M-148.2,357.2L-148.2,357.2c-0.2,0.2-0.2,1.2-0.2,1.6c0,0.5,0,1.1,0.2,1.1
						s0.2-0.7,0.2-1.1C-148.2,358.2-148.2,357.2-148.2,357.2z M-148.4,359.3c0,0.2,0,0.4,0,0.4S-148.4,359.5-148.4,359.3
						c-0.2-0.2-0.2-0.4,0-0.7l0,0l0,0c0-0.2,0-0.4,0-0.4c0,0.2,0,0.4,0,0.4l0,0l0,0C-148.4,358.9-148.4,359.3-148.4,359.3z"/>
				</g>
			</g>
		</g>
		<g id="XMLID_1126_">
			<path id="XMLID_1127_" class="st2" d="M-142.1,358.8c0-0.4,0-0.9,0-0.9v-1.9l0,0c0,0-0.2,0-0.2,0.2c-0.4,0.4-0.2,1.8-0.2,1.8
				c0.2,0,0.2,0.2,0.2,0.4C-142.2,358.2-142.2,358.6-142.1,358.8c-0.2,0.7-0.2,1.2,0,1.2C-142.1,359.8-142.1,359.1-142.1,358.8z
				 M-142.2,357.5c0-0.5,0-1.4,0.2-1.6l0,0L-142.2,357.5C-142.2,357.7-142.2,357.5-142.2,357.5z M-142.2,359.3c0,0.2,0,0.4,0,0.4
				S-142.2,359.5-142.2,359.3c-0.2-0.2-0.2-0.4,0-0.7l0,0l0,0c0-0.2,0-0.4,0-0.4c0,0.2,0,0.4,0,0.4l0,0l0,0
				C-142.1,358.9-142.1,359.1-142.2,359.3z"/>
		</g>
		<g id="XMLID_1104_">
			<g id="XMLID_1119_">
				<g id="XMLID_1124_">
					<path id="XMLID_1125_" class="st2" d="M-147,358.4c0.2,0.4,0.4,0.7,0.7,0.9l0,0c0,0,0,0,0.2,0v-0.2c-0.4-0.2-0.5-0.4-0.5-0.7
						C-146.8,358.4-146.8,358.4-147,358.4L-147,358.4z"/>
				</g>
				<g id="XMLID_1120_">
					<path id="XMLID_1121_" class="st2" d="M-142.9,357.7h-4.6c-0.2,0-0.2,0-0.2,0.2c0,0.2,0,0.2,0.2,0.2l0,0c0,0.9,0.7,1.6,1.4,1.6
						h1.4c0.9,0,1.4-0.9,1.4-1.6l0,0C-142.9,358-142.9,358-142.9,357.7C-142.8,357.9-142.8,357.7-142.9,357.7z M-144.4,359.6h-1.4
						c-0.7,0-1.4-0.9-1.4-1.4h4.1C-143.3,358.8-143.8,359.6-144.4,359.6z"/>
				</g>
			</g>
			<g id="XMLID_1112_">
				<g id="XMLID_1117_">
					<path id="XMLID_1118_" class="st2" d="M-146.5,357c0.2,0.4,0.4,0.5,0.5,0.7l0,0l0,0v-0.2C-146.1,357.3-146.5,357.2-146.5,357
						S-146.5,356.8-146.5,357C-146.5,356.8-146.5,357-146.5,357z"/>
				</g>
				<g id="XMLID_1113_">
					<path id="XMLID_1114_" class="st2" d="M-143.3,356.5h-3.5c0,0-0.2,0-0.2,0.2c0,0,0,0.2,0.2,0.2l0,0c0,0.7,0.5,1.4,1.2,1.4h1.2
						c0.7,0,1.2-0.7,1.2-1.4l0,0C-143.3,356.6-143.3,356.6-143.3,356.5L-143.3,356.5z M-144.7,357.9h-1.1c-0.5,0-1.1-0.7-1.1-1.2
						h3.4C-143.6,357.2-144,357.9-144.7,357.9z"/>
				</g>
			</g>
			<g id="XMLID_1105_">
				<g id="XMLID_1110_">
					<path id="XMLID_1111_" class="st2" d="M-146.3,355.7c0.2,0.4,0.4,0.4,0.4,0.5l0,0l0,0c0,0,0,0,0-0.2
						C-145.9,356.1-146.1,355.9-146.3,355.7C-146.1,355.6-146.3,355.6-146.3,355.7C-146.3,355.6-146.3,355.7-146.3,355.7z"/>
				</g>
				<g id="XMLID_1106_">
					<path id="XMLID_1107_" class="st2" d="M-143.8,355.4h-3c0,0-0.2,0-0.2,0.2c0,0,0,0.2,0.2,0.2l0,0c0,0.5,0.4,1.1,0.9,1.1h0.9
						c0.5,0,0.9-0.5,0.9-1.1l0,0C-143.8,355.4-143.6,355.4-143.8,355.4C-143.6,355.4-143.8,355.4-143.8,355.4z M-144.7,356.5h-0.9
						c-0.4,0-0.9-0.5-0.9-0.9h2.7C-143.8,355.9-144.4,356.5-144.7,356.5z"/>
				</g>
			</g>
		</g>
	</g>
	<path id="XMLID_622_" class="st0" d="M-132.1,215.2c-0.9,8.7-1.6,17-2.1,19.5c-1.1,6-6,9.9-4.8,18.2c0.9,6.9,2.8,10.4,3.9,14.7
		c1.8,3.2,1.2,8.8,1.9,11.3v0.2l0,0c0.7,2.5,4.4,9.4,9.7,7.6s2.5-9.7,1.1-12.9c-0.9-2.1-1.1-6-1.1-8.3c-0.2-0.7-0.2-1.4,0-1.8
		c0.7-1.6,4.6,0.9,8,3.7c1.1,1.1,2.7,2.5,4.2,4.1c-0.4,0.5-1.2,1.6-1.8,1.9c-0.9,0.7-1.8,2.7-1.6,3.2c0.2,0.5,1.6,2.3,2.3,2.3
		c0.5,0,3.5-2.8,4.6-3.9c0.4,0.4,0.9,0.9,1.2,1.2c-0.9,0.9-2.3,2.5-3.2,3c-1.2,0.9-5.5,3.4-6.7,4.8c-1.4,1.4,0.7,5.3,1.1,5.7
		c0.4,0.4,6.9-2.8,8.3-3.7c1.1-0.7,3.4-3,4.8-4.2c0.4,0.4,0.5,0.9,0.9,1.2c-0.9,1.9-2.3,5.1-2.7,6c-0.5,1.4-4.2,5-5,7.6
		c-0.9,2.8,1.4,4.8,3,5.3c1.4,0.4,7.1-8.1,9-11c0.5,1.2,0.9,2.8,1.2,4.2c1.2,7.1,3.7,9.2,6.2,9.7s3.4-0.5,2.3-4.4
		c-1.9-7.4,0.5-17.5-4.1-22.5c-3-3.2-3.5-7.4-4.4-11.3c-0.9-3.9-0.7-8.3-1.8-9.5c-1.1-1.2-13.6-21-12.7-26.9
		c0.4-2.5,2.3-9.9,4.4-17.9c-5.5,0-14.1,0.2-20.9,1.6C-128.6,214.3-130.6,214.8-132.1,215.2"/>
	<path id="XMLID_1311_" class="st0" d="M-157.8,215.2c0.9,8.7,1.6,17,2.1,19.5c1.1,6,6,9.9,4.8,18.2c-0.9,6.9-2.8,10.4-3.9,14.7
		c-1.8,3.2-1.2,8.8-1.9,11.3v0.2l0,0c-0.7,2.5-4.4,9.4-9.7,7.6c-5.3-1.8-2.5-9.7-1.1-12.9c0.9-2.1,1.1-6,1.1-8.3
		c0.2-0.7,0.2-1.4,0-1.8c-0.7-1.6-4.6,0.9-8,3.7c-1.1,1.1-2.7,2.5-4.2,4.1c0.4,0.5,1.2,1.6,1.8,1.9c0.9,0.7,1.8,2.7,1.6,3.2
		c-0.2,0.5-1.6,2.3-2.3,2.3c-0.5,0-3.5-2.8-4.6-3.9c-0.4,0.4-0.9,0.9-1.2,1.2c0.9,0.9,2.3,2.5,3.2,3c1.2,0.9,5.5,3.4,6.7,4.8
		c1.4,1.4-0.7,5.3-1.1,5.7c-0.4,0.4-6.9-2.8-8.3-3.7c-1.1-0.7-3.4-3-4.8-4.2c-0.4,0.4-0.5,0.9-0.9,1.2c0.9,1.9,2.3,5.1,2.7,6
		c0.5,1.4,4.2,5,5,7.6c0.9,2.8-1.4,4.8-3,5.3c-1.4,0.4-7.1-8.1-9-11c-0.5,1.2-0.9,2.8-1.2,4.2c-1.2,7.1-3.7,9.2-6.2,9.7
		c-2.5,0.5-3.4-0.5-2.3-4.4c1.9-7.4-0.5-17.5,4.1-22.5c3-3.2,3.5-7.4,4.4-11.3c0.9-3.9,0.7-8.3,1.8-9.5c1.1-1.2,13.6-21,12.7-26.9
		c-0.4-2.5-2.3-9.9-4.4-17.9c5.5,0,14.1,0.2,20.9,1.6C-161.3,214.3-159.4,214.8-157.8,215.2"/>
	<path class="st0" d="M-78.6,327.6h-5.8v9.2c-1.4,20.2-18.2,42.6-39.6,42.6h-42.6c-21.4,0-38.2-22.5-39.4-42.6
		c-0.7-5.7-0.7-8.1-0.7-9.2h-5.7c-2.5,0-4.4,1.9-4.4,4.4c0,2.5,1.9,4.4,4.4,4.4h1.2c1.2,23,19.8,47.7,44.4,47.7h42.6
		c24.6,0,43.3-24.8,44.4-47.7h1.2c2.5,0,4.4-1.9,4.4-4.4C-74.1,329.6-76.1,327.6-78.6,327.6z"/>
	<path class="st0" d="M-101.7,311.9L-101.7,311.9c-0.9-3-3.7-5.3-6.9-5.3c-2.5,0-4.8,1.4-6,3.5c-0.2,0-0.4,0-0.5,0
		c-2.7-3.4-6.7-5.3-11-5.3c-5.5,0-10.4,3.2-12.7,8.3c-1.8,1.2-3,3.4-3,5.8v0.2c-1.4,0.4-2.7,1.2-3.5,2.3c-3-5.7-8.8-9.5-15.7-9.5
		h-0.2c-0.7-3-3.5-5.3-6.9-5.3c-2.7,0-5,1.4-6.2,3.5c-0.2,0-0.4,0-0.5,0c-2.7-3.4-6.7-5.3-11-5.3c-5.7,0-10.6,3.2-12.9,8.3
		c-1.8,1.2-3,3.4-3,5.8v0.2c-3,0.7-5.3,3.5-5.3,6.9c0,0.5,0.2,1.2,0.2,1.8h3.7c-0.4-0.5-0.5-1.1-0.5-1.8c0-1.8,1.2-3.2,2.8-3.5
		c0.7,1.2,1.8,2.1,3,2.8c-0.9,0.5-1.6,1.4-1.9,2.5h5.1c1.8-0.9,2.8-2.8,2.7-4.8c0-0.5,0.2-1.1,0.5-1.4c0.2-0.2,0.5-0.4,1.1-0.2
		c2.1,0.9,4.6,0,5.8-1.9c0.5-0.9,1.6-0.9,2.1,0c1.2,1.9,3.7,2.8,5.8,1.9c0.5-0.2,0.9,0,1.1,0.2c0.4,0.4,0.7,0.7,0.5,1.4
		c-0.2,1.9,1.1,3.9,2.7,4.8h7.6c0.5-1.1,1.8-1.8,3-1.8s2.5,0.7,3,1.8h3.7c-0.7-3-3.5-5.3-6.9-5.3c-2.8,0-5.1,1.6-6.4,4.1
		c-0.4-0.5-0.9-0.9-1.4-1.2c1.6-2.8,4.4-4.6,7.8-4.6c4.2,0,7.8,3,8.7,7.1h3.5l0,0c-0.9-6-6-10.6-12.2-10.6c-4.1,0-7.6,1.9-9.9,5
		c-0.2-0.7-0.4-1.4-0.7-1.9c2.7-3,6.5-5,10.6-5c7.2,0,13.1,5.5,14,12.4h0.2h3.4h0.4c-0.4-0.5-0.5-1.1-0.5-1.8c0-1.8,1.2-3.2,2.8-3.5
		c0.7,1.2,1.8,2.1,3,2.8c-0.9,0.5-1.6,1.4-1.9,2.5h5c1.6-0.9,2.7-2.8,2.7-4.8c0-0.5,0.2-1.1,0.5-1.4c0.2-0.2,0.5-0.4,1.1-0.2
		c2.1,0.9,4.6,0,5.8-1.9c0.5-0.9,1.6-0.9,2.1,0c1.2,1.9,3.7,2.8,5.8,1.9c0.5-0.2,0.9,0,1.1,0.2c0.4,0.4,0.7,0.7,0.5,1.4
		c-0.2,1.9,0.9,3.9,2.7,4.8h7.6c0.5-1.1,1.8-1.8,3-1.8c1.2,0,2.5,0.7,3,1.8h3.7c-0.7-3-3.5-5.3-6.7-5.3c-2.8,0-5.1,1.6-6.2,4.1
		c-0.4-0.5-0.9-0.9-1.4-1.2c1.6-2.8,4.4-4.6,7.6-4.6c4.2,0,7.8,3,8.5,7.1h3.5c-0.9-6-6-10.6-12-10.6c-3.9,0-7.6,1.9-9.7,5
		c-0.2-0.7-0.4-1.4-0.7-1.9c2.7-3,6.5-5,10.4-5c7.1,0,12.9,5.5,13.8,12.4h3.5C-85.3,318.8-92.7,311.9-101.7,311.9z M-193.3,318.8
		c-1.2,0.9-1.9,2.1-2.1,3.5c-1.6-0.4-2.8-1.8-2.8-3.5c0-1.9,1.6-3.5,3.5-3.5c0.7,0,1.6,0.4,2.1,0.7l0,0l0,0c0.5,0.5,1.1,1.1,1.2,1.8
		C-192.1,318.1-192.8,318.3-193.3,318.8z M-182.2,315.4c-0.4,0-0.7-0.2-1.1-0.2c-1.6,0-3.2,0.9-4.1,2.3c-0.2,0.2-0.2,0.4-0.4,0.4
		c-0.2-1.2-0.5-2.5-1.4-3.4c0.9-0.7,1.9-1.1,3.2-1.1c1.4,0,2.8,0.7,3.9,1.6C-182,315.3-182,315.4-182.2,315.4z M-185.9,310.1
		c-2.3,0-4.4,0.9-6,2.3c-0.5-0.4-1.2-0.4-1.9-0.5c1.9-2.3,4.8-3.7,8-3.7c2.7,0,5.1,1.1,7.1,2.7c-0.5,0.4-1.1,0.7-1.4,1.1
		C-181.8,310.8-183.8,310.1-185.9,310.1z M-174.6,318.1c-1.1-0.4-2.1-0.2-3,0.2c-0.5,0.2-1.1,0-1.4-0.4c0.2-0.2,0.2-0.5,0.2-0.7
		c0-1.9,1.6-3.5,3.5-3.5c1.4,0,2.7,0.9,3.2,2.1C-173,316.3-173.9,317.2-174.6,318.1z M-169.1,313.7c-0.5-0.9-1.1-1.6-1.9-2.3
		c0.7-0.9,1.8-1.4,2.8-1.4c1.4,0,2.7,0.9,3.2,2.1C-166.3,312.6-167.7,313.1-169.1,313.7z M-133.6,318.8c-1.2,0.9-1.9,2.1-1.9,3.5
		c-1.6-0.4-2.8-1.8-2.8-3.5c0-1.9,1.6-3.5,3.5-3.5c0.7,0,1.4,0.4,2.1,0.7l0,0l0,0c0.5,0.5,1.1,1.1,1.2,1.8
		C-132.3,318.1-133,318.3-133.6,318.8z M-122.4,315.4c-0.4,0-0.7-0.2-1.1-0.2c-1.6,0-3.2,0.9-4.1,2.3c-0.2,0.2-0.2,0.4-0.4,0.4
		c-0.2-1.2-0.5-2.5-1.2-3.4c0.9-0.7,1.9-1.1,3.2-1.1c1.4,0,2.8,0.7,3.7,1.6C-122.4,315.3-122.4,315.4-122.4,315.4z M-126.1,310.1
		c-2.3,0-4.2,0.9-5.8,2.3c-0.5-0.4-1.2-0.4-1.9-0.5c1.9-2.3,4.8-3.7,7.8-3.7c2.7,0,5.1,1.1,7.1,2.7c-0.5,0.4-1.1,0.7-1.4,1.1
		C-122.2,310.8-124.2,310.1-126.1,310.1z M-115,318.1c-1.1-0.4-1.9-0.2-3,0.2c-0.5,0.2-1.1,0-1.4-0.4c0.2-0.2,0.2-0.5,0.2-0.7
		c0-1.9,1.6-3.5,3.5-3.5c1.4,0,2.7,0.9,3.2,2.1C-113.4,316.3-114.3,317.2-115,318.1z M-109.7,313.7c-0.5-0.9-1.1-1.6-1.9-2.3
		c0.7-0.9,1.6-1.4,2.8-1.4c1.4,0,2.7,0.9,3.2,2.1C-106.9,312.6-108.3,313.1-109.7,313.7z"/>
</g>
</svg>
