<?xml version="1.0" encoding="utf-8"?>
<!-- Generator: Adobe Illustrator 19.0.0, SVG Export Plug-In . SVG Version: 6.00 Build 0)  -->
<svg version="1.1" id="Layer_1" xmlns="http://www.w3.org/2000/svg" xmlns:xlink="http://www.w3.org/1999/xlink" x="0px" y="0px"
	 viewBox="-255.5 188.3 220 220" style="enable-background:new -255.5 188.3 220 220;" xml:space="preserve">
<style type="text/css">
	.st0{fill:#377438;}
</style>
<g id="step-01">
	<g id="XMLID_592_">
		<g id="XMLID_8_">
			<path id="XMLID_22_" class="st0" d="M-62.5,378h-13.3v-79.7c9.2-1.7,16.4-9.8,16.4-19.4l0,0l0,0c0-0.2,0-0.6,0-0.7V278
				c0-0.2-0.2-0.4-0.2-0.6c0,0,0,0,0-0.2l-21.3-39.9c-0.6-1.1-1.7-1.7-2.8-1.7h-5.7v-12.6c0-6.3-5.2-11.3-11.3-11.3H-190
				c-6.3,0-11.3,5.2-11.3,11.3v12.6h-5.7c-1.1,0-2.2,0.7-2.8,1.7l-21.8,39.7c0,0,0,0,0,0.2s-0.2,0.4-0.2,0.6v0.2c0,0.2,0,0.4,0,0.7
				l0,0l0,0c0,10,7.6,18.1,17.2,19.6V378h-14c-1.8,0-3.3,1.5-3.3,3.3s1.5,3.3,3.3,3.3h17.2h13.1h40.1h79.5h16.4
				c1.8,0,3.3-1.5,3.3-3.3C-59.4,379.5-60.7,378-62.5,378z M-79.1,292.1c-6.3,0-11.5-4.3-12.9-10.2H-66
				C-67.7,287.7-72.9,292.1-79.1,292.1z M-99.5,281.9c-1.5,5.9-6.7,10.2-12.9,10.2c-6.3,0-11.5-4.3-12.9-10.2H-99.5z M-132.7,281.9
				c-1.5,5.9-6.7,10.2-12.9,10.2c-6.3,0-11.5-4.3-12.9-10.2H-132.7z M-166,281.9c-1.5,5.9-6.7,10.2-12.9,10.2
				c-6.3,0-11.5-4.3-12.9-10.2H-166z M-105.8,250.9l5.7,24.6h-26.1l-0.2-3.9l-1.1-20.7C-127.4,250.9-105.8,250.9-105.8,250.9z
				 M-133.7,250.9l0.2,3.9l1.1,20.7h-26.4l1.1-20.7l0.2-3.9H-133.7z M-165.1,271.6l-0.2,3.9h-26.1l5.7-24.6h21.6L-165.1,271.6z
				 M-68.1,275.5h-25.3l-5.9-24.8c4.6-0.7,8.3-4.3,9.2-8.7h4.1L-68.1,275.5z M-195.2,223c0-2.8,2.2-4.8,4.8-4.8h89.5
				c2.8,0,4.8,2.2,4.8,4.8v15.9v0.7c0,2.8-2.2,4.8-4.8,4.8h-2.2h-27.5h-30.1h-27.5h-2.2c-2.6,0-4.8-2.2-4.8-4.8v-0.7L-195.2,223
				L-195.2,223z M-205.6,242h4.1c0.9,4.4,4.6,7.9,9.2,8.7l-5.9,24.8h-25.1L-205.6,242z M-225.2,281.9h25.9
				c-1.5,5.7-6.5,10-12.6,10.2c-0.2,0-0.4,0-0.4,0C-218.5,292.1-223.7,287.8-225.2,281.9z M-161.8,378h-33.6 M-201.7,378h-6.7v-79.8
				c5.4-0.9,10-4.3,12.9-8.5c3.5,5.4,9.6,9.1,16.6,9.1c7,0,13.1-3.5,16.6-9.1c3.5,5.4,9.6,9.1,16.6,9.1c7,0,13.1-3.5,16.6-9.1
				c3.5,5.4,9.6,9.1,16.6,9.1s13.1-3.5,16.6-9.1c3,4.6,7.9,7.9,13.5,8.7V378h-73"/>
		</g>
		<g id="XMLID_176_">
			<g id="XMLID_185_">
				<path id="XMLID_186_" class="st0" d="M-171,359.6c1.7,5.2,5.4,9.4,10,11.5c0.2,0,0.4,0,0.6,0c0.6,0,0.9-0.2,1.1-0.7
					c0.2-0.6,0-1.3-0.7-1.7c-3.9-1.7-7.2-5.5-8.5-10c-0.2-0.7-0.9-0.9-1.5-0.7C-171,358.3-171.2,359-171,359.6z"/>
				<path id="XMLID_228_" class="st0" d="M-112.2,349.8h-67.1c-1.1,0-2.2,0.9-2.2,2.2c0,1.1,0.9,2.2,2.2,2.2h0.6
					c0.6,11.5,10,23.8,22.2,23.8h21.4c12.4,0,21.6-12.4,22.2-23.8h0.6c1.1,0,2.2-0.9,2.2-2.2C-110,350.7-110.9,349.8-112.2,349.8z
					 M-135,375.6h-21.4c-10.7,0-19.2-11.3-19.8-21.4h61C-115.9,364.4-124.2,375.6-135,375.6z"/>
				<g id="XMLID_508_">
					<g id="XMLID_731_">
						<circle id="XMLID_732_" class="st0" cx="-145.7" cy="364.5" r="4.8"/>
					</g>
					<g id="XMLID_729_">
						<circle id="XMLID_730_" class="st0" cx="-145.7" cy="364.5" r="5.2"/>
					</g>
					<g id="XMLID_727_">
						<circle id="XMLID_728_" class="st0" cx="-145.7" cy="364.5" r="2.8"/>
					</g>
					<g id="XMLID_647_">
						<g id="XMLID_724_">
							<path id="XMLID_725_" class="st0" d="M-150.1,364.9L-150.1,364.9C-150.1,364.9-150.1,365.1-150.1,364.9
								C-149.9,365.1-150.1,364.9-150.1,364.9c0.2,0,0.2,0,0.2,0v0.2l0,0l0,0l0,0l0,0l0,0c0,0,0,0.2-0.2,0.2
								C-150.1,365.1-150.1,365.1-150.1,364.9L-150.1,364.9L-150.1,364.9z"/>
						</g>
						<g id="XMLID_721_">
							<path id="XMLID_722_" class="st0" d="M-149.9,365.3L-149.9,365.3L-149.9,365.3L-149.9,365.3L-149.9,365.3
								C-149.8,365.5-149.8,365.5-149.9,365.3L-149.9,365.3C-149.8,365.5-149.8,365.5-149.9,365.3L-149.9,365.3L-149.9,365.3
								c0.2,0.2,0.2,0.2,0,0.2l0,0l0,0v0.2h-0.2l0,0l0,0l0,0l0,0l0,0h0.2l0,0l0,0l0,0h-0.2l0,0L-149.9,365.3
								C-149.9,365.5-149.8,365.5-149.9,365.3C-149.8,365.3-149.9,365.3-149.9,365.3L-149.9,365.3h-0.2l0,0H-149.9z"/>
						</g>
						<g id="XMLID_717_">
							<path id="XMLID_718_" class="st0" d="M-149.8,366.2L-149.8,366.2L-149.8,366.2C-149.6,366.2-149.6,366.2-149.8,366.2
								C-149.6,366.2-149.6,366.2-149.8,366.2L-149.8,366.2L-149.8,366.2L-149.8,366.2C-149.6,366.2-149.6,366.2-149.8,366.2
								C-149.6,366.2-149.6,366.4-149.8,366.2v0.2l0,0l0,0l0,0V366.2L-149.8,366.2L-149.8,366.2L-149.8,366.2c-0.2,0-0.2,0-0.2,0
								S-149.9,366.2-149.8,366.2C-149.8,366-149.8,366.2-149.8,366.2z M-149.8,366.2C-149.8,366.4-149.8,366.4-149.8,366.2
								L-149.8,366.2L-149.8,366.2L-149.8,366.2L-149.8,366.2z"/>
						</g>
						<g id="XMLID_714_">
							<path id="XMLID_715_" class="st0" d="M-149.4,366.6L-149.4,366.6L-149.4,366.6L-149.4,366.6L-149.4,366.6L-149.4,366.6
								l-0.2,0.2l0,0l0,0l0,0l0,0l0,0L-149.4,366.6z"/>
						</g>
						<g id="XMLID_710_">
							<path id="XMLID_712_" class="st0" d="M-149.2,366.8L-149.2,366.8L-149.2,366.8L-149.2,366.8L-149.2,366.8L-149.2,366.8
								l-0.2,0.2l0,0l0,0l0,0l0,0l0,0L-149.2,366.8z"/>
						</g>
						<g id="XMLID_707_">
							<path id="XMLID_708_" class="st0" d="M-149,367.5L-149,367.5L-149,367.5C-148.8,367.7-149,367.5-149,367.5
								c0.2-0.2,0.2-0.2,0.2-0.2s0,0,0,0.2l0,0H-149L-149,367.5C-148.8,367.5-148.8,367.5-149,367.5L-149,367.5
								C-149,367.3-148.8,367.5-149,367.5C-149,367.7-149,367.7-149,367.5C-149,367.7-149,367.5-149,367.5L-149,367.5z"/>
						</g>
						<g id="XMLID_703_">
							<path id="XMLID_704_" class="st0" d="M-148.6,367.9L-148.6,367.9L-148.6,367.9L-148.6,367.9L-148.6,367.9L-148.6,367.9
								L-148.6,367.9L-148.6,367.9L-148.6,367.9L-148.6,367.9L-148.6,367.9c0,0.2,0,0.2,0,0.2l0,0l0,0l0,0
								C-148.6,368.1-148.6,368.1-148.6,367.9L-148.6,367.9z"/>
						</g>
						<g id="XMLID_698_">
							<path id="XMLID_700_" class="st0" d="M-148.1,368.1v0.2l0,0l-0.2-0.2c0,0,0,0,0,0.2l0,0l0,0c0,0,0,0-0.2,0v-0.2
								C-148.3,368.1-148.1,368.1-148.1,368.1z M-148.1,368.2L-148.1,368.2L-148.1,368.2L-148.1,368.2z"/>
						</g>
						<g id="XMLID_694_">
							<path id="XMLID_695_" class="st0" d="M-147.7,368.4L-147.7,368.4L-147.7,368.4L-147.7,368.4L-147.7,368.4
								C-147.7,368.2-147.7,368.4-147.7,368.4L-147.7,368.4L-147.7,368.4h0.2v0.2c0,0-0.2,0.2-0.2,0l0,0l0,0l0,0v0.2l0,0V368.4z
								 M-147.7,368.6L-147.7,368.6c0.2-0.2,0.2-0.2,0.2-0.2C-147.7,368.4-147.7,368.4-147.7,368.6
								C-147.7,368.4-147.7,368.6-147.7,368.6z"/>
						</g>
						<g id="XMLID_691_">
							<path id="XMLID_692_" class="st0" d="M-147,368.6L-147,368.6L-147,368.6L-147,368.6L-147,368.6
								C-147,368.6-146.8,368.6-147,368.6L-147,368.6L-147,368.6L-147,368.6L-147,368.6L-147,368.6L-147,368.6L-147,368.6
								L-147,368.6v0.2l0,0V368.6z"/>
						</g>
						<g id="XMLID_687_">
							<path id="XMLID_688_" class="st0" d="M-146.4,368.8c0,0,0.2,0,0.2,0.2l-0.2,0.2c0,0-0.2,0-0.2-0.2S-146.6,368.8-146.4,368.8z
								 M-146.4,369L-146.4,369c0.2-0.2,0.2-0.2,0-0.2C-146.6,368.8-146.4,368.8-146.4,369C-146.6,369-146.6,369-146.4,369z"/>
						</g>
						<g id="XMLID_684_">
							<path id="XMLID_685_" class="st0" d="M-146.1,368.8L-146.1,368.8L-146.1,368.8L-146.1,368.8L-146.1,368.8
								C-146.1,368.8-145.9,368.8-146.1,368.8L-146.1,368.8L-146.1,368.8L-146.1,368.8c0.2,0,0.2,0,0.2,0l0,0l0,0l0,0l0,0l0,0v0.2
								l0,0L-146.1,368.8z"/>
						</g>
						<g id="XMLID_680_">
							<path id="XMLID_681_" class="st0" d="M-145.1,368.8L-145.1,368.8L-145.1,368.8L-145.1,368.8L-145.1,368.8L-145.1,368.8
								L-145.1,368.8L-145.1,368.8C-145.3,368.8-145.1,368.8-145.1,368.8C-144.9,368.8-144.9,368.8-145.1,368.8l0.2,0.2l0,0l0,0l0,0
								l0,0l0,0l0,0l0,0l0,0h-0.2C-145.3,369-145.1,369-145.1,368.8z M-145.1,369L-145.1,369L-145.1,369L-145.1,369
								C-145.1,369-145.3,369-145.1,369L-145.1,369z"/>
						</g>
						<g id="XMLID_675_">
							<path id="XMLID_676_" class="st0" d="M-144.4,368.6L-144.4,368.6L-144.4,368.6L-144.4,368.6c0.2-0.2,0.2-0.2,0.2,0
								c0,0,0,0,0,0.2l0,0l0,0v0.2h-0.2l0,0V368.6z M-144.4,368.6C-144.4,368.6-144.2,368.6-144.4,368.6L-144.4,368.6L-144.4,368.6
								L-144.4,368.6L-144.4,368.6z M-144.2,368.8L-144.2,368.8C-144.2,368.8-144,368.8-144.2,368.8
								C-144.2,368.6-144.2,368.6-144.2,368.8L-144.2,368.8L-144.2,368.8C-144.4,368.8-144.4,368.8-144.2,368.8z"/>
						</g>
						<g id="XMLID_672_">
							<path id="XMLID_673_" class="st0" d="M-143.8,368.6L-143.8,368.6v-0.2l0,0l0,0h0.2l0,0l0,0L-143.8,368.6L-143.8,368.6
								L-143.8,368.6L-143.8,368.6L-143.8,368.6z"/>
						</g>
						<g id="XMLID_669_">
							<path id="XMLID_670_" class="st0" d="M-143.5,368.1C-143.5,368.1-143.3,368.1-143.5,368.1L-143.5,368.1
								C-143.3,368.1-143.3,368.1-143.5,368.1c0,0.2,0,0.2,0,0.2h0.2l0,0l0,0l0,0l0,0l0,0l0,0l0,0v0.2l0,0l0,0l0,0l0,0
								c0,0,0,0,0,0.2s-0.2,0-0.2,0C-143.7,368.2-143.7,368.1-143.5,368.1z"/>
						</g>
						<g id="XMLID_666_">
							<path id="XMLID_667_" class="st0" d="M-142.7,367.7C-142.7,367.7-142.7,367.5-142.7,367.7L-142.7,367.7L-142.7,367.7
								L-142.7,367.7L-142.7,367.7v0.2h0.2l0,0l0,0c0,0,0,0,0,0.2h-0.2C-142.7,367.7-142.7,367.7-142.7,367.7z"/>
						</g>
						<g id="XMLID_663_">
							<path id="XMLID_664_" class="st0" d="M-142.5,367.3L-142.5,367.3L-142.5,367.3L-142.5,367.3L-142.5,367.3L-142.5,367.3
								L-142.5,367.3L-142.5,367.3L-142.5,367.3C-142.4,367.3-142.4,367.1-142.5,367.3c0.2-0.2,0.2-0.2,0.2-0.2l0,0l0,0l0,0l0,0l0,0
								l0,0L-142.5,367.3L-142.5,367.3C-142.4,367.3-142.4,367.3-142.5,367.3L-142.5,367.3l0.2,0.2l0,0L-142.5,367.3z"/>
						</g>
						<g id="XMLID_659_">
							<path id="XMLID_660_" class="st0" d="M-142,366.8L-142,366.8L-142,366.8L-142,366.8L-142,366.8L-142,366.8L-142,366.8
								L-142,366.8C-142.2,366.9-142.2,366.8-142,366.8L-142,366.8L-142,366.8L-142,366.8L-142,366.8h0.2H-142L-142,366.8
								L-142,366.8L-142,366.8c0,0,0.2,0.2,0,0.2c0,0,0,0-0.2,0C-142,366.9-142,366.8-142,366.8z M-141.8,366.9L-141.8,366.9
								L-141.8,366.9L-141.8,366.9C-142,366.9-142,366.9-141.8,366.9C-142,366.9-142,366.9-141.8,366.9z"/>
						</g>
						<g id="XMLID_656_">
							<path id="XMLID_657_" class="st0" d="M-141.8,366.4L-141.8,366.4L-141.8,366.4L-141.8,366.4L-141.8,366.4
								C-142,366.4-141.8,366.4-141.8,366.4L-141.8,366.4L-141.8,366.4L-141.8,366.4v-0.2c0,0,0,0,0.2,0h0.2l0,0l0,0l0,0l0,0l0,0
								h-0.2l0,0C-141.8,366.4-141.8,366.4-141.8,366.4L-141.8,366.4h0.2l0,0H-141.8z"/>
						</g>
						<g id="XMLID_652_">
							<path id="XMLID_653_" class="st0" d="M-141.6,365.8C-141.6,365.7-141.6,365.7-141.6,365.8L-141.6,365.8L-141.6,365.8
								C-141.6,365.7-141.6,365.7-141.6,365.8v-0.2l0,0l0,0l0,0h0.2c0.2,0,0.2,0.2,0,0.2l0,0l0,0l0,0c0,0,0,0,0-0.2l0,0l0,0l0,0l0,0
								C-141.4,365.8-141.4,365.8-141.6,365.8C-141.6,366-141.6,365.8-141.6,365.8z M-141.4,365.7
								C-141.6,365.7-141.6,365.7-141.4,365.7C-141.6,365.8-141.6,365.8-141.4,365.7C-141.4,365.8-141.4,365.8-141.4,365.7
								C-141.4,365.8-141.4,365.7-141.4,365.7z"/>
						</g>
						<g id="XMLID_648_">
							<path id="XMLID_649_" class="st0" d="M-141.6,365.3C-141.6,365.1-141.4,365.1-141.6,365.3L-141.6,365.3L-141.6,365.3
								c0.2,0,0.2,0,0.2,0l0,0l0,0c0,0,0,0,0,0.2c0,0.2,0,0.2-0.2,0.2C-141.4,365.5-141.6,365.3-141.6,365.3z M-141.4,365.3
								L-141.4,365.3L-141.4,365.3L-141.4,365.3z"/>
						</g>
					</g>
					<g id="XMLID_618_">
						<g id="XMLID_644_">
							<path id="XMLID_645_" class="st0" d="M-149.2,362.3L-149.2,362.3h0.4v0.2v0.2c0,0,0,0.2-0.2,0.2h-0.2h-0.2c0,0-0.2,0-0.2-0.2
								s0-0.2,0-0.2v-0.2c0,0,0-0.2,0.2-0.2c0,0,0,0,0.2,0L-149.2,362.3c0,0-0.2,0-0.2,0.2c0,0,0,0,0,0.2s0,0,0,0.2l0,0
								c0,0,0,0,0.2,0c0,0,0,0,0.2,0s0,0,0,0C-149.2,362.7-149,362.7-149.2,362.3L-149.2,362.3z"/>
						</g>
						<g id="XMLID_640_">
							<path id="XMLID_641_" class="st0" d="M-148.5,362h-0.2c0,0-0.2,0-0.2-0.2s0-0.2,0-0.2v-0.2c0,0,0-0.2,0.2-0.2
								c0,0,0.2,0,0.2-0.2h0.2c0,0,0.2,0,0.2,0.2v0.2v0.2c0,0,0,0.2-0.2,0.2S-148.3,362-148.5,362z M-148.3,361.6L-148.3,361.6
								c0-0.2,0-0.2,0-0.2s0,0-0.2,0c-0.2,0,0,0-0.2,0c0,0,0,0-0.2,0c0,0,0,0,0,0.2c0,0,0,0,0,0.2s0,0,0,0.2c0,0,0,0,0.2,0
								c0,0,0,0,0.2,0C-148.3,362-148.5,362-148.3,361.6C-148.3,361.8-148.3,361.8-148.3,361.6z"/>
						</g>
						<g id="XMLID_637_">
							<path id="XMLID_638_" class="st0" d="M-147,360.7L-147,360.7v0.4h-0.2l-0.2-0.7h0.2L-147,360.7l0.2-0.6h0.2L-147,360.7
								l0.6,0.2h-0.2L-147,360.7z"/>
						</g>
						<g id="XMLID_634_">
							<path id="XMLID_635_" class="st0" d="M-146.2,360.1h0.2v0.7h-0.2V360.1z"/>
						</g>
						<g id="XMLID_630_">
							<path id="XMLID_631_" class="st0" d="M-145.3,360.1h0.4h0.2c0,0,0,0,0.2,0.2v0.2v0.2c0,0,0,0-0.2,0.2h-0.2h-0.4V360.1z
								 M-145.1,360.7h0.2c0,0,0,0,0-0.2s0-0.2,0-0.2s0,0-0.2,0h-0.2L-145.1,360.7L-145.1,360.7z"/>
						</g>
						<g id="XMLID_626_">
							<path id="XMLID_627_" class="st0" d="M-144.2,361v-0.2v-0.2c0,0,0-0.2,0.2-0.2h0.2h0.2c0,0,0.2,0,0.2,0.2v0.2v0.2
								c0,0,0,0.2-0.2,0.2h-0.2C-144,361.2-144,361.2-144.2,361C-144,361.2-144.2,361.2-144.2,361z M-143.8,361.2L-143.8,361.2
								c0.2,0,0.2-0.2,0.2-0.2s0,0,0-0.2c0,0,0,0,0-0.2l0,0c0,0,0,0-0.2,0c-0.2,0,0,0-0.2,0l0,0c0,0,0,0,0,0.2c0,0.2,0,0,0,0.2
								C-144,361.2-144,361.2-143.8,361.2C-144,361.2-143.8,361.2-143.8,361.2z"/>
						</g>
						<g id="XMLID_623_">
							<path id="XMLID_624_" class="st0" d="M-142.7,361.6L-142.7,361.6v0.4h-0.2c0,0,0,0-0.2,0c0,0,0-0.2-0.2-0.2v-0.2v-0.2
								c0,0,0.2,0,0.2-0.2h0.2c0,0,0.2,0,0.2,0.2s0,0,0.2,0.2v0.2L-142.7,361.6L-142.7,361.6c0,0,0,0-0.2,0s0,0-0.2,0c0,0,0,0-0.2,0
								c0,0,0,0,0,0.2c0,0,0,0,0,0.2s0,0,0,0.2C-142.9,361.8-142.9,361.8-142.7,361.6L-142.7,361.6z"/>
						</g>
						<g id="XMLID_619_">
							<path id="XMLID_620_" class="st0" d="M-142.5,362.5v-0.2c0,0,0-0.2,0.2-0.2h0.2h0.2c0,0,0.2,0,0.2,0.2v0.2v0.2
								c0,0,0,0.2-0.2,0.2h-0.2h-0.2c0,0-0.2,0-0.2-0.2S-142.5,362.7-142.5,362.5z M-142.2,362.7L-142.2,362.7c0.2,0,0.2,0,0.2,0
								l0,0c0,0,0,0,0-0.2c0,0,0,0,0-0.2l0,0c0,0,0,0-0.2,0s0,0-0.2,0l0,0c0,0,0,0,0,0.2C-142.4,362.7-142.4,362.7-142.2,362.7
								L-142.2,362.7z"/>
						</g>
					</g>
					<g id="XMLID_597_">
						<g id="XMLID_613_">
							<path id="XMLID_617_" class="st0" d="M-148.3,364.9c0,0.2,0.2,0.6,0.2,0.6c0.4,0.7,0.9,1.3,1.8,1.5c0,0,0.2,0,0.2,0.2
								c0,0.2,0,0.2-0.2,0.2c-0.4,0-0.6-0.2-0.9-0.4c-0.7-0.6-1.3-1.1-1.5-1.8l0,0c0,0,0,0.2-0.2,0.2h-0.2v-0.2
								c0.2-0.2,0.2-0.4,0.4-0.6c0,0,0.2-0.2,0.2,0c0.2,0.2,0.4,0.2,0.6,0.4c0,0,0.2,0.2,0,0.2h-0.2
								C-148.1,365.1-148.3,365.1-148.3,364.9C-148.3,365.1-148.3,365.1-148.3,364.9z"/>
							<path id="XMLID_614_" class="st0" d="M-146.2,367.5L-146.2,367.5c-0.4,0-0.7-0.2-0.9-0.4c-0.7-0.6-1.3-1.1-1.5-1.8l0,0
								c0,0.2-0.2,0.2-0.4,0c-0.2,0-0.2-0.2,0-0.4s0.2-0.4,0.4-0.6c0.2-0.2,0.2-0.2,0.4,0c0.2,0.2,0.4,0.2,0.6,0.4
								c0.2,0.2,0.2,0.2,0,0.4c0,0.2-0.2,0.2-0.4,0l0,0l0,0c0,0.2,0,0.2,0.2,0.4c0.4,0.7,0.9,1.1,1.8,1.5c0,0,0.2,0,0.2,0.2v0.2
								C-146.2,367.5-146.2,367.5-146.2,367.5z M-148.6,364.9v0.2c0.2,0.7,0.6,1.5,1.3,1.8c0.2,0.2,0.6,0.2,0.9,0.4c0,0,0,0,0.2,0
								l0,0c0,0,0,0-0.2,0c-0.9-0.2-1.5-0.7-1.8-1.5c0-0.2-0.2-0.2-0.2-0.4v-0.2L-148.6,364.9l0.2,0.2l0,0l0,0l0,0h0.2
								c0,0,0,0,0-0.2c-0.2-0.2-0.4-0.2-0.6-0.4h-0.2c-0.2,0.2-0.2,0.4-0.4,0.6c0,0,0,0,0,0.2c0,0,0,0,0.2,0l0,0L-148.6,364.9z"/>
						</g>
						<g id="XMLID_608_">
							<path id="XMLID_612_" class="st0" d="M-143.3,364.2c0-0.2,0-0.2,0-0.4c-0.4-0.9-0.9-1.5-1.8-1.7h-0.2V362c0,0,0.2-0.2,0.2,0
								c0.6,0.2,0.9,0.4,1.3,0.6c0.6,0.6,0.7,0.9,0.9,1.7l0,0c0,0,0-0.2,0.2-0.2h0.2v0.2c-0.2,0.2-0.2,0.4-0.4,0.6
								c0,0.2-0.2,0.2-0.2,0c-0.2-0.2-0.4-0.2-0.6-0.4c0,0-0.2-0.2,0-0.2L-143.3,364.2C-143.5,364.2-143.5,364.2-143.3,364.2
								C-143.3,364.4-143.3,364.4-143.3,364.2z"/>
							<path id="XMLID_609_" class="st0" d="M-143.1,364.9h-0.2c-0.2-0.2-0.4-0.2-0.6-0.4l-0.2-0.2v-0.2c0-0.2,0.2-0.2,0.4,0l0,0
								c0,0,0,0,0-0.2c-0.2-0.9-0.9-1.5-1.8-1.7h-0.2c0,0-0.2-0.2,0-0.2c0-0.2,0.2-0.2,0.2-0.2c0.6,0.2,0.9,0.4,1.3,0.7
								c0.6,0.4,0.7,0.9,0.9,1.7l0,0c0.2-0.2,0.2-0.2,0.4,0c0.2,0,0.2,0.2,0,0.4c-0.2,0.2-0.2,0.4-0.4,0.6
								C-142.9,364.9-143.1,364.9-143.1,364.9z M-143.7,364.2L-143.7,364.2L-143.7,364.2C-143.7,364.2-143.7,364.4-143.7,364.2
								c0.2,0.2,0.4,0.4,0.6,0.6h0.2c0.2-0.2,0.2-0.4,0.4-0.6c0,0,0,0,0-0.2h-0.2l0,0l-0.2,0.2V364l0,0c-0.2-0.6-0.4-1.1-0.9-1.7
								c-0.4-0.4-0.7-0.6-1.3-0.6c0,0,0,0-0.2,0c-0.2,0,0,0,0,0.2c0,0,0,0,0.2,0c0.9,0.2,1.7,0.7,1.8,1.7v0.2c0,0,0,0,0,0.2l0,0
								L-143.7,364.2L-143.7,364.2L-143.7,364.2L-143.7,364.2L-143.7,364.2z"/>
						</g>
						<g id="XMLID_603_">
							<path id="XMLID_607_" class="st0" d="M-146.2,362.1c-0.4,0-0.6,0.2-0.9,0.2c-0.6,0.4-0.9,0.9-1.1,1.7c0,0,0,0,0,0.2h-0.2
								c0,0-0.2-0.2,0-0.2c0-0.4,0.2-0.7,0.6-1.1c0.6-0.6,0.9-0.9,1.7-1.1l0,0l0,0c0,0,0,0-0.2-0.2c0,0-0.2-0.2,0-0.2h0.2
								c0.2,0.2,0.4,0.2,0.6,0.4c0.2,0,0.2,0.2,0,0.2c-0.2,0.2-0.2,0.4-0.4,0.6h-0.2c0,0-0.2,0-0.2-0.2s0-0.2,0-0.2
								C-146.2,362.3-146.2,362.3-146.2,362.1z"/>
							<path id="XMLID_604_" class="st0" d="M-148.5,364.4L-148.5,364.4c-0.2,0-0.2-0.2-0.2-0.2c0-0.6,0.2-0.9,0.6-1.1
								c0.6-0.6,0.9-0.9,1.7-1.1l0,0c-0.2-0.2-0.2-0.2,0-0.4c0.2-0.2,0.2,0,0.2,0h0.2c0.2,0.2,0.4,0.2,0.6,0.4
								c0.2,0.2,0.2,0.2,0,0.4v0.2c0,0.2-0.2,0.2-0.2,0.4h-0.2c0,0-0.2,0-0.2-0.2v-0.2l0,0c-0.2,0-0.6,0.2-0.7,0.2
								c-0.6,0.4-0.9,0.9-1.1,1.5v0.2C-148.3,364.4-148.3,364.4-148.5,364.4z M-146.2,361.4L-146.2,361.4
								C-146.4,361.4-146.4,361.4-146.2,361.4c-0.2,0,0,0.2,0,0.2l0.2,0.2h-0.2l0,0l0,0c-0.7,0.2-1.3,0.6-1.7,0.9
								c-0.2,0.4-0.4,0.7-0.6,1.1c0,0,0,0,0,0.2c0,0,0,0,0.2,0c0,0,0,0,0-0.2c0.2-0.7,0.6-1.3,1.3-1.7c0.2-0.2,0.6-0.2,0.9-0.4h0.2
								l-0.2,0.2l0,0c0,0,0,0,0,0.2c0,0.2,0,0,0,0l0,0c0,0,0,0,0.2,0c0.2-0.2,0.2-0.2,0.2-0.4v-0.2v-0.2c-0.2-0.2-0.4-0.2-0.6-0.4
								C-146.2,361.4-146.2,361.4-146.2,361.4z"/>
						</g>
						<g id="XMLID_598_">
							<path id="XMLID_602_" class="st0" d="M-145.3,367.1c0.9-0.2,1.7-0.9,1.8-1.8c0-0.2,0.2-0.2,0.2-0.2c0.2,0,0.2,0.2,0.2,0.2
								c-0.4,1.1-0.9,1.8-2.2,2c0,0,0,0-0.2,0c0,0,0.2,0,0.2,0.2c0,0,0.2,0.2,0,0.2h-0.2c-0.2-0.2-0.4-0.2-0.6-0.4v-0.2
								c0.2-0.2,0.2-0.4,0.4-0.6h0.2v0.2L-145.3,367.1C-145.3,366.9-145.3,367.1-145.3,367.1z"/>
							<path id="XMLID_599_" class="st0" d="M-145.3,367.9h-0.2c-0.2-0.2-0.4-0.2-0.6-0.4c-0.2,0-0.2-0.2,0-0.4
								c0.2-0.2,0.2-0.4,0.4-0.6h0.2h0.2c0,0,0.2,0.2,0,0.4c0.9-0.2,1.5-0.9,1.7-1.7c0,0,0-0.4,0.4-0.2c0,0,0.2,0,0.2,0.2v0.2
								C-143.5,366.6-144.2,367.3-145.3,367.9L-145.3,367.9c0.2,0,0.2,0,0,0.2C-145.1,367.9-145.1,367.9-145.3,367.9z M-145.3,366.8
								L-145.3,366.8L-145.3,366.8c-0.2,0.2-0.4,0.4-0.6,0.6c0,0,0,0,0,0.2c0.2,0.2,0.4,0.2,0.6,0.4c0,0,0,0,0.2,0c0,0,0,0,0-0.2
								c0,0,0,0-0.2,0l-0.2-0.2h0.2c1.1-0.2,1.8-0.9,2.2-2v-0.2l0,0c0,0,0,0-0.2,0.2c-0.2,0.9-0.9,1.7-2,1.8h-0.2l0.2-0.2l0,0l0,0
								C-145.3,366.9-145.3,366.9-145.3,366.8L-145.3,366.8L-145.3,366.8z"/>
						</g>
					</g>
					<g id="XMLID_552_">
						<g id="XMLID_595_">
							<path id="XMLID_596_" class="st0" d="M-141.8,364.7L-141.8,364.7C-142,364.7-142,364.7-141.8,364.7L-141.8,364.7
								L-141.8,364.7z"/>
						</g>
						<g id="XMLID_555_">
							<path id="XMLID_556_" class="st0" d="M-145.7,368.4C-145.9,368.4-145.9,368.4-145.7,368.4L-145.7,368.4
								C-145.9,368.4-145.9,368.4-145.7,368.4L-145.7,368.4z M-145.5,368.4L-145.5,368.4L-145.5,368.4L-145.5,368.4L-145.5,368.4z
								 M-146.1,368.4C-146.1,368.4-146.2,368.4-146.1,368.4L-146.1,368.4C-146.2,368.4-146.1,368.4-146.1,368.4L-146.1,368.4z
								 M-145.3,368.4L-145.3,368.4L-145.3,368.4L-145.3,368.4C-145.1,368.4-145.3,368.4-145.3,368.4z M-146.4,368.4L-146.4,368.4
								L-146.4,368.4L-146.4,368.4L-146.4,368.4z M-144.9,368.4L-144.9,368.4L-144.9,368.4L-144.9,368.4L-144.9,368.4z
								 M-146.6,368.4L-146.6,368.4L-146.6,368.4C-146.8,368.2-146.6,368.2-146.6,368.4L-146.6,368.4z M-144.8,368.4L-144.8,368.4
								C-144.6,368.2-144.6,368.2-144.8,368.4L-144.8,368.4C-144.6,368.2-144.6,368.4-144.8,368.4z M-147,368.2
								C-147,368.2-147,368.1-147,368.2L-147,368.2C-147,368.1-147,368.1-147,368.2L-147,368.2z M-144.4,368.2L-144.4,368.2
								C-144.4,368.1-144.4,368.1-144.4,368.2L-144.4,368.2L-144.4,368.2z M-147.2,368.1C-147.3,368.1-147.3,368.1-147.2,368.1
								L-147.2,368.1C-147.3,368.1-147.3,368.1-147.2,368.1L-147.2,368.1z M-144,368.1L-144,368.1L-144,368.1L-144,368.1L-144,368.1
								z M-147.5,368.1C-147.5,368.1-147.5,367.9-147.5,368.1L-147.5,368.1C-147.5,367.9-147.5,367.9-147.5,368.1L-147.5,368.1z
								 M-143.8,368.1L-143.8,368.1C-143.8,367.9-143.8,367.9-143.8,368.1L-143.8,368.1C-143.8,367.9-143.8,367.9-143.8,368.1z
								 M-147.7,367.9C-147.9,367.9-147.9,367.7-147.7,367.9L-147.7,367.9C-147.9,367.7-147.7,367.7-147.7,367.9L-147.7,367.9z
								 M-143.7,367.9L-143.7,367.9C-143.7,367.7-143.5,367.7-143.7,367.9L-143.7,367.9C-143.5,367.7-143.5,367.9-143.7,367.9z
								 M-148.1,367.7L-148.1,367.7L-148.1,367.7C-148.1,367.5-148.1,367.7-148.1,367.7L-148.1,367.7z M-143.3,367.7L-143.3,367.7
								C-143.3,367.7-143.3,367.5-143.3,367.7L-143.3,367.7L-143.3,367.7z M-148.3,367.5C-148.3,367.3-148.3,367.3-148.3,367.5v-0.2
								C-148.3,367.3-148.3,367.3-148.3,367.5L-148.3,367.5z M-143.1,367.5L-143.1,367.5C-143.1,367.3-143.1,367.3-143.1,367.5
								L-143.1,367.5C-143.1,367.3-143.1,367.3-143.1,367.5z M-148.5,367.1C-148.6,367.1-148.6,367.1-148.5,367.1v-0.2
								C-148.5,367.1-148.5,367.1-148.5,367.1L-148.5,367.1z M-142.9,367.1L-142.9,367.1L-142.9,367.1L-142.9,367.1
								C-142.7,367.1-142.9,367.1-142.9,367.1z M-148.6,366.9C-148.6,366.9-148.8,366.9-148.6,366.9L-148.6,366.9L-148.6,366.9
								L-148.6,366.9z M-142.7,366.9L-142.7,366.9L-142.7,366.9L-142.7,366.9L-142.7,366.9z M-148.8,366.8L-148.8,366.8
								L-148.8,366.8C-148.8,366.6-148.8,366.8-148.8,366.8L-148.8,366.8z M-142.5,366.8L-142.5,366.8
								C-142.5,366.8-142.5,366.6-142.5,366.8L-142.5,366.8C-142.4,366.8-142.4,366.8-142.5,366.8z M-149,366.4L-149,366.4
								L-149,366.4L-149,366.4L-149,366.4z M-142.4,366.4L-142.4,366.4L-142.4,366.4L-142.4,366.4L-142.4,366.4z M-149.2,366.2
								L-149.2,366.2L-149.2,366.2C-149.2,366-149.2,366.2-149.2,366.2L-149.2,366.2z M-142.2,366.2L-142.2,366.2
								C-142.2,366.2-142.2,366-142.2,366.2L-142.2,366.2L-142.2,366.2z M-149.4,366C-149.4,365.8-149.4,365.8-149.4,366L-149.4,366
								C-149.2,365.8-149.2,365.8-149.4,366L-149.4,366z M-142.2,366L-142.2,366C-142.2,365.8-142.2,365.8-142.2,366L-142.2,366
								C-142,365.8-142,365.8-142.2,366z M-149.4,365.7C-149.4,365.5-149.4,365.5-149.4,365.7L-149.4,365.7
								C-149.4,365.5-149.4,365.5-149.4,365.7L-149.4,365.7z M-142,365.7L-142,365.7C-142,365.5-142,365.5-142,365.7L-142,365.7
								C-142,365.5-142,365.7-142,365.7z M-149.4,365.3L-149.4,365.3L-149.4,365.3L-149.4,365.3L-149.4,365.3z M-142,365.3
								L-142,365.3L-142,365.3L-142,365.3L-142,365.3z M-149.6,364.9L-149.6,364.9L-149.6,364.9
								C-149.4,364.9-149.4,364.9-149.6,364.9L-149.6,364.9z M-142,364.9L-142,364.9L-142,364.9L-142,364.9
								C-141.8,364.9-142,364.9-142,364.9z"/>
						</g>
						<g id="XMLID_553_">
							<path id="XMLID_554_" class="st0" d="M-149.6,364.7L-149.6,364.7L-149.6,364.7C-149.4,364.7-149.4,364.7-149.6,364.7
								L-149.6,364.7z"/>
						</g>
					</g>
					<g id="XMLID_550_">
						<circle id="XMLID_551_" class="st0" cx="-149.4" cy="363.8" r="0.2"/>
					</g>
					<g id="XMLID_548_">
						<circle id="XMLID_549_" class="st0" cx="-142" cy="363.8" r="0.2"/>
					</g>
					<g id="XMLID_509_">
						<g id="XMLID_537_">
							<g id="XMLID_543_">
								<g id="XMLID_544_">
									<path id="XMLID_545_" class="st0" d="M-147.2,364.4L-147.2,364.4C-147.2,364.2-147.2,364.4-147.2,364.4l0.2-0.7
										C-147.2,363.8-147.2,364-147.2,364.4L-147.2,364.4c0.2-0.4,0.2-0.7,0.2-0.7S-147.2,364-147.2,364.4L-147.2,364.4
										c0.2-0.4,0.2-0.7,0.2-0.7S-147.2,364-147.2,364.4L-147.2,364.4c0.2-0.4,0.2-0.7,0.2-0.7S-147.2,364.2-147.2,364.4
										C-147.3,364.4-147.3,364.4-147.2,364.4 M-147.2,364.4C-147.3,364.4-147.3,364.4-147.2,364.4L-147.2,364.4L-147.2,364.4
										L-147.2,364.4z"/>
								</g>
							</g>
							<g id="XMLID_538_">
								<g id="XMLID_539_">
									<path id="XMLID_540_" class="st0" d="M-147.2,364.4L-147.2,364.4c0,0,0,0.6,0,0.7s0,0.6,0,0.6s0-0.4,0-0.6
										C-147.2,364.9-147.2,364.5-147.2,364.4z M-147.2,365.5C-147.2,365.7-147.2,365.7-147.2,365.5
										C-147.2,365.7-147.2,365.7-147.2,365.5c0,0,0-0.2,0-0.4l0,0l0,0v-0.2v0.2l0,0l0,0C-147.2,365.3-147.2,365.5-147.2,365.5z"
										/>
								</g>
							</g>
						</g>
						<g id="XMLID_532_">
							<path id="XMLID_533_" class="st0" d="M-144,365.3c0-0.2,0-0.4,0-0.4V364l0,0l0,0c-0.2,0.2,0,0.9,0,0.9S-144,364.9-144,365.3
								C-144,364.9-144,365.1-144,365.3c0,0.4,0,0.6,0,0.6C-144,365.7-144,365.5-144,365.3z M-144.2,364.5c0-0.2,0-0.7,0-0.7l0,0
								V364.5C-144,364.7-144.2,364.5-144.2,364.5z M-144,365.5C-144,365.7-144,365.7-144,365.5C-144,365.7-144,365.7-144,365.5
								c0,0,0-0.2,0-0.4l0,0l0,0v-0.2v0.2l0,0l0,0C-144,365.3-144,365.5-144,365.5z"/>
						</g>
						<g id="XMLID_510_">
							<g id="XMLID_525_">
								<g id="XMLID_530_">
									<path id="XMLID_531_" class="st0" d="M-146.4,365.1c0,0.2,0.2,0.4,0.4,0.4l0,0l0,0l0,0
										C-146.2,365.3-146.4,365.3-146.4,365.1L-146.4,365.1L-146.4,365.1z"/>
								</g>
								<g id="XMLID_526_">
									<path id="XMLID_527_" class="st0" d="M-144.6,364.7h-2.2l0,0l0,0l0,0c0,0.4,0.4,0.7,0.7,0.7h0.7
										C-144.9,365.7-144.6,365.3-144.6,364.7L-144.6,364.7C-144.6,364.9-144.6,364.9-144.6,364.7
										C-144.4,364.7-144.4,364.7-144.6,364.7z M-145.3,365.7h-0.7c-0.4,0-0.7-0.4-0.7-0.7h2
										C-144.6,365.3-144.9,365.7-145.3,365.7z"/>
								</g>
							</g>
							<g id="XMLID_518_">
								<g id="XMLID_523_">
									<path id="XMLID_524_" class="st0" d="M-146.2,364.4c0,0.2,0.2,0.2,0.2,0.4l0,0l0,0l0,0
										C-146.1,364.5-146.2,364.5-146.2,364.4L-146.2,364.4L-146.2,364.4z"/>
								</g>
								<g id="XMLID_519_">
									<path id="XMLID_520_" class="st0" d="M-144.8,364h-1.8l0,0l0,0l0,0c0,0.4,0.2,0.7,0.6,0.7h0.6
										C-144.9,364.9-144.8,364.5-144.8,364L-144.8,364C-144.8,364.2-144.6,364.2-144.8,364C-144.6,364-144.8,364-144.8,364z
										 M-145.3,364.7h-0.6c-0.2,0-0.6-0.4-0.6-0.6h1.7C-144.8,364.5-144.9,364.7-145.3,364.7z"/>
								</g>
							</g>
							<g id="XMLID_511_">
								<g id="XMLID_516_">
									<path id="XMLID_517_" class="st0" d="M-146.2,363.8c0,0.2,0.2,0.2,0.2,0.2l0,0l0,0l0,0
										C-146.1,363.8-146.1,363.8-146.2,363.8C-146.1,363.6-146.2,363.6-146.2,363.8C-146.2,363.6-146.2,363.8-146.2,363.8z"/>
								</g>
								<g id="XMLID_512_">
									<path id="XMLID_513_" class="st0" d="M-144.9,363.6h-1.5l0,0l0,0l0,0c0,0.2,0.2,0.6,0.6,0.6h0.6
										C-145.1,364.2-144.9,364-144.9,363.6L-144.9,363.6C-144.9,363.6-144.8,363.6-144.9,363.6
										C-144.8,363.6-144.9,363.6-144.9,363.6z M-145.3,364h-0.6c-0.2,0-0.4-0.2-0.4-0.6h1.3C-144.9,363.8-145.1,364-145.3,364z"
										/>
								</g>
							</g>
						</g>
					</g>
				</g>
			</g>
			<g id="XMLID_187_">
				<path id="XMLID_200_" class="st0" d="M-166,337c1.3,4.1,4.3,7.6,7.9,9.2c0.2,0,0.2,0,0.4,0c0.4,0,0.7-0.2,0.9-0.6
					c0.2-0.6,0-1.1-0.6-1.3c-3.1-1.3-5.7-4.3-6.8-7.9c-0.2-0.6-0.7-0.7-1.1-0.7C-165.8,335.9-166.2,336.4-166,337z"/>
				<path id="XMLID_193_" class="st0" d="M-118.9,329.1h-53.6c-0.9,0-1.7,0.7-1.7,1.7c0,0.9,0.7,1.7,1.7,1.7h0.6
					c0.6,9.2,7.9,19,17.7,19h17.2c9.8,0,17.4-10,17.7-19h0.6c0.9,0,1.7-0.7,1.7-1.7C-117.2,330-118,329.1-118.9,329.1z
					 M-137.2,349.8h-17.2c-8.5,0-15.3-9.1-15.9-17.2h48.8C-121.8,340.9-128.7,349.8-137.2,349.8z"/>
				<g id="XMLID_37_">
					<g id="XMLID_505_">
						<circle id="XMLID_506_" class="st0" cx="-145.7" cy="341.1" r="3.9"/>
					</g>
					<g id="XMLID_503_">
						<circle id="XMLID_504_" class="st0" cx="-145.7" cy="341.1" r="4.3"/>
					</g>
					<g id="XMLID_501_">
						<circle id="XMLID_502_" class="st0" cx="-145.7" cy="341.1" r="2.2"/>
					</g>
					<g id="XMLID_424_">
						<g id="XMLID_498_">
							<path id="XMLID_499_" class="st0" d="M-149.4,341.3L-149.4,341.3L-149.4,341.3C-149.2,341.3-149.4,341.3-149.4,341.3
								c0.2,0,0.2,0,0.2,0C-149,341.3-149,341.3-149.4,341.3L-149.4,341.3L-149.4,341.3L-149.4,341.3L-149.4,341.3L-149.4,341.3
								C-149.2,341.3-149.2,341.3-149.4,341.3L-149.4,341.3L-149.4,341.3L-149.4,341.3z"/>
						</g>
						<g id="XMLID_495_">
							<path id="XMLID_496_" class="st0" d="M-149,341.6L-149,341.6L-149,341.6L-149,341.6L-149,341.6L-149,341.6L-149,341.6
								L-149,341.6L-149,341.6L-149,341.6C-149,341.8-149,341.8-149,341.6L-149,341.6L-149,341.6c0,0.2,0,0.2,0,0.4l0,0l0,0l0,0l0,0
								l0,0l0,0h0.2l0,0L-149,341.6L-149,341.6L-149,341.6L-149,341.6L-149,341.6L-149,341.6L-149,341.6L-149,341.6L-149,341.6
								L-149,341.6L-149,341.6z"/>
						</g>
						<g id="XMLID_491_">
							<path id="XMLID_492_" class="st0" d="M-149,342.4L-149,342.4L-149,342.4C-148.8,342.4-148.8,342.4-149,342.4L-149,342.4
								L-149,342.4L-149,342.4L-149,342.4C-148.8,342.2-148.8,342.4-149,342.4C-148.8,342.4-148.8,342.4-149,342.4L-149,342.4
								L-149,342.4L-149,342.4L-149,342.4L-149,342.4L-149,342.4L-149,342.4L-149,342.4c-0.2,0-0.2,0-0.2-0.2c0,0,0,0,0-0.2
								C-149,342.2-149,342.4-149,342.4z M-149,342.4L-149,342.4L-149,342.4L-149,342.4L-149,342.4L-149,342.4z"/>
						</g>
						<g id="XMLID_488_">
							<path id="XMLID_489_" class="st0" d="M-148.6,342.5L-148.6,342.5L-148.6,342.5L-148.6,342.5L-148.6,342.5L-148.6,342.5
								L-148.6,342.5L-148.6,342.5L-148.6,342.5l-0.2,0.2l0,0l0,0L-148.6,342.5L-148.6,342.5z"/>
						</g>
						<g id="XMLID_485_">
							<path id="XMLID_486_" class="st0" d="M-148.6,342.7L-148.6,342.7L-148.6,342.7L-148.6,342.7L-148.6,342.7
								C-148.5,342.9-148.5,342.9-148.6,342.7l-0.2,0.2l0,0l0,0l0,0l0,0l0,0L-148.6,342.7z"/>
						</g>
						<g id="XMLID_482_">
							<path id="XMLID_483_" class="st0" d="M-148.5,343.3L-148.5,343.3C-148.5,343.5-148.5,343.5-148.5,343.3
								C-148.3,343.5-148.5,343.3-148.5,343.3c0.2-0.2,0.2-0.2,0.2-0.2l0,0l0,0L-148.5,343.3L-148.5,343.3c0.2-0.2,0.2-0.2,0.2-0.2
								l0,0C-148.3,343.1-148.3,343.3-148.5,343.3L-148.5,343.3C-148.5,343.5-148.5,343.3-148.5,343.3L-148.5,343.3z"/>
						</g>
						<g id="XMLID_479_">
							<path id="XMLID_480_" class="st0" d="M-148.1,343.7L-148.1,343.7L-148.1,343.7L-148.1,343.7L-148.1,343.7L-148.1,343.7
								L-148.1,343.7L-148.1,343.7l0.2,0.2L-148.1,343.7L-148.1,343.7L-148.1,343.7L-148.1,343.7L-148.1,343.7L-148.1,343.7
								C-148.1,343.8-148.1,343.8-148.1,343.7L-148.1,343.7z"/>
						</g>
						<g id="XMLID_475_">
							<path id="XMLID_476_" class="st0" d="M-147.7,343.8L-147.7,343.8L-147.7,343.8L-147.7,343.8
								C-147.9,343.8-147.9,343.8-147.7,343.8L-147.7,343.8L-147.7,343.8c0,0.2-0.2,0.2-0.2,0.2v-0.2
								C-147.9,343.8-147.7,343.8-147.7,343.8z M-147.7,343.8L-147.7,343.8L-147.7,343.8L-147.7,343.8z"/>
						</g>
						<g id="XMLID_471_">
							<path id="XMLID_472_" class="st0" d="M-147.3,344L-147.3,344L-147.3,344L-147.3,344L-147.3,344L-147.3,344L-147.3,344
								L-147.3,344L-147.3,344c0.2,0,0.2,0,0.2,0.2L-147.3,344C-147.3,344.2-147.3,344.2-147.3,344L-147.3,344L-147.3,344
								L-147.3,344L-147.3,344L-147.3,344z M-147.3,344.2L-147.3,344.2C-147.3,344-147.3,344-147.3,344.2
								C-147.3,344-147.3,344-147.3,344.2L-147.3,344.2z"/>
						</g>
						<g id="XMLID_468_">
							<path id="XMLID_469_" class="st0" d="M-146.8,344.4L-146.8,344.4L-146.8,344.4L-146.8,344.4L-146.8,344.4
								C-146.6,344.2-146.6,344.2-146.8,344.4L-146.8,344.4L-146.8,344.4L-146.8,344.4L-146.8,344.4L-146.8,344.4L-146.8,344.4
								L-146.8,344.4L-146.8,344.4L-146.8,344.4L-146.8,344.4L-146.8,344.4z"/>
						</g>
						<g id="XMLID_464_">
							<path id="XMLID_465_" class="st0" d="M-146.4,344.4C-146.2,344.4-146.2,344.4-146.4,344.4
								C-146.2,344.6-146.4,344.6-146.4,344.4C-146.4,344.6-146.4,344.6-146.4,344.4L-146.4,344.4z M-146.4,344.6L-146.4,344.6
								C-146.4,344.4-146.4,344.4-146.4,344.6C-146.4,344.4-146.4,344.4-146.4,344.6L-146.4,344.6z"/>
						</g>
						<g id="XMLID_461_">
							<path id="XMLID_462_" class="st0" d="M-146.1,344.4L-146.1,344.4L-146.1,344.4L-146.1,344.4L-146.1,344.4L-146.1,344.4
								L-146.1,344.4L-146.1,344.4L-146.1,344.4C-146.1,344.4-145.9,344.4-146.1,344.4L-146.1,344.4L-146.1,344.4L-146.1,344.4
								L-146.1,344.4C-146.1,344.6-146.1,344.6-146.1,344.4L-146.1,344.4L-146.1,344.4L-146.1,344.4z"/>
						</g>
						<g id="XMLID_457_">
							<path id="XMLID_458_" class="st0" d="M-145.3,344.4L-145.3,344.4L-145.3,344.4L-145.3,344.4L-145.3,344.4L-145.3,344.4
								L-145.3,344.4L-145.3,344.4C-145.5,344.4-145.3,344.4-145.3,344.4L-145.3,344.4L-145.3,344.4L-145.3,344.4L-145.3,344.4
								L-145.3,344.4L-145.3,344.4C-145.3,344.6-145.3,344.6-145.3,344.4L-145.3,344.4L-145.3,344.4c0,0.2,0,0.2-0.2,0.2l0,0
								C-145.5,344.6-145.3,344.4-145.3,344.4z M-145.3,344.6L-145.3,344.6L-145.3,344.6L-145.3,344.6L-145.3,344.6L-145.3,344.6z"
								/>
						</g>
						<g id="XMLID_452_">
							<path id="XMLID_453_" class="st0" d="M-144.8,344.2L-144.8,344.2L-144.8,344.2L-144.8,344.2c0.2,0,0.2,0,0.2,0l0,0l0,0l0,0
								v0.2l0,0l0,0L-144.8,344.2z M-144.6,344.2L-144.6,344.2L-144.6,344.2L-144.6,344.2L-144.6,344.2L-144.6,344.2z M-144.6,344.4
								L-144.6,344.4L-144.6,344.4C-144.6,344.4-144.6,344.2-144.6,344.4L-144.6,344.4L-144.6,344.4L-144.6,344.4z"/>
						</g>
						<g id="XMLID_449_">
							<path id="XMLID_450_" class="st0" d="M-144.4,344.2L-144.4,344.2L-144.4,344.2L-144.4,344.2L-144.4,344.2l0.2-0.2l0,0l0,0
								l0.2,0.2l0,0l0,0H-144.4L-144.4,344.2z"/>
						</g>
						<g id="XMLID_446_">
							<path id="XMLID_447_" class="st0" d="M-144,343.8C-144,343.7-143.8,343.8-144,343.8L-144,343.8
								C-143.8,343.8-144,343.8-144,343.8L-144,343.8l0.2,0.2l0,0l0,0l0,0l0,0l0,0l0,0l0,0v0.2l0,0l0,0l0,0l0,0l0,0h-0.2
								C-144,343.8-144,343.8-144,343.8z"/>
						</g>
						<g id="XMLID_443_">
							<path id="XMLID_444_" class="st0" d="M-143.3,343.3L-143.3,343.3L-143.3,343.3L-143.3,343.3L-143.3,343.3
								C-143.3,343.5-143.3,343.5-143.3,343.3C-143.3,343.5-143.3,343.5-143.3,343.3c0.2,0.2,0.2,0.2,0.2,0.2l0,0l0,0c0,0,0,0,0,0.2
								h-0.2C-143.5,343.7-143.5,343.5-143.3,343.3z"/>
						</g>
						<g id="XMLID_440_">
							<path id="XMLID_441_" class="st0" d="M-143.3,343.1L-143.3,343.1L-143.3,343.1L-143.3,343.1L-143.3,343.1L-143.3,343.1
								L-143.3,343.1L-143.3,343.1L-143.3,343.1L-143.3,343.1c0.2-0.2,0.2-0.2,0.2,0l0,0l0,0l0,0l0,0l0,0l0,0H-143.3L-143.3,343.1
								L-143.3,343.1L-143.3,343.1L-143.3,343.1L-143.3,343.1L-143.3,343.1z"/>
						</g>
						<g id="XMLID_436_">
							<path id="XMLID_437_" class="st0" d="M-142.7,342.7L-142.7,342.7L-142.7,342.7C-142.9,342.7-142.9,342.7-142.7,342.7
								C-142.9,342.7-142.9,342.7-142.7,342.7L-142.7,342.7L-142.7,342.7L-142.7,342.7C-142.9,342.9-142.9,342.7-142.7,342.7
								C-142.9,342.7-142.9,342.7-142.7,342.7L-142.7,342.7L-142.7,342.7L-142.7,342.7h0.2l0,0
								C-142.5,342.9-142.5,342.9-142.7,342.7L-142.7,342.7L-142.7,342.7L-142.7,342.7C-142.5,342.9-142.7,342.9-142.7,342.7
								C-142.9,342.9-142.9,342.7-142.7,342.7z M-142.7,342.9L-142.7,342.9L-142.7,342.9L-142.7,342.9L-142.7,342.9L-142.7,342.9z"
								/>
						</g>
						<g id="XMLID_433_">
							<path id="XMLID_434_" class="st0" d="M-142.7,342.5L-142.7,342.5L-142.7,342.5L-142.7,342.5L-142.7,342.5
								C-142.7,342.4-142.7,342.4-142.7,342.5L-142.7,342.5C-142.7,342.4-142.7,342.4-142.7,342.5L-142.7,342.5
								C-142.7,342.4-142.7,342.4-142.7,342.5c0-0.2,0-0.2,0.2-0.2l0,0l0,0l0,0l0,0l0,0l0,0L-142.7,342.5L-142.7,342.5
								C-142.7,342.4-142.7,342.4-142.7,342.5C-142.7,342.4-142.7,342.5-142.7,342.5h0.2l0,0H-142.7z"/>
						</g>
						<g id="XMLID_429_">
							<path id="XMLID_430_" class="st0" d="M-142.5,342L-142.5,342L-142.5,342L-142.5,342L-142.5,342L-142.5,342L-142.5,342
								L-142.5,342L-142.5,342h0.2c0,0,0,0,0,0.2l0,0l0,0l0,0l0,0l0,0l0,0l0,0l0,0C-142.4,342.2-142.4,342.2-142.5,342
								C-142.5,342.2-142.5,342-142.5,342z M-142.4,342C-142.5,342-142.5,342-142.4,342C-142.5,342-142.5,342-142.4,342L-142.4,342
								L-142.4,342z"/>
						</g>
						<g id="XMLID_425_">
							<path id="XMLID_426_" class="st0" d="M-142.4,341.4L-142.4,341.4L-142.4,341.4L-142.4,341.4c0.2,0.2,0.2,0.2,0.2,0l0,0l0,0
								c0,0,0,0,0,0.2c0,0,0,0.2-0.2,0.2C-142.4,341.6-142.5,341.6-142.4,341.4z M-142.4,341.4L-142.4,341.4
								C-142.4,341.6-142.4,341.6-142.4,341.4L-142.4,341.4z"/>
						</g>
					</g>
					<g id="XMLID_395_">
						<g id="XMLID_421_">
							<path id="XMLID_422_" class="st0" d="M-148.6,339.2L-148.6,339.2h0.2c0,0,0,0,0,0.2c0,0,0,0,0,0.2c0,0,0,0-0.2,0.2
								c0,0,0,0-0.2,0h-0.2c0,0,0,0-0.2-0.2c0,0,0,0,0-0.2v-0.2c0,0,0,0,0-0.2c0,0,0,0,0.2,0L-148.6,339.2c-0.2,0-0.2,0-0.2,0l0,0
								l0,0l0,0l0,0l0,0H-148.6C-148.6,339.4-148.6,339.4-148.6,339.2L-148.6,339.2z"/>
						</g>
						<g id="XMLID_417_">
							<path id="XMLID_418_" class="st0" d="M-147.9,339C-148.1,339-148.1,339-147.9,339c-0.2,0-0.2,0-0.2,0s0,0,0-0.2v-0.2v-0.2
								c0,0,0,0,0.2,0c0.2,0,0.2,0,0.2,0s0,0,0.2,0s0,0,0,0.2v0.2C-147.7,338.8-147.9,338.8-147.9,339
								C-147.9,338.8-147.9,338.8-147.9,339z M-147.9,338.7L-147.9,338.7L-147.9,338.7l-0.2-0.2l0,0l0,0l0,0l0,0l0,0l0,0
								L-147.9,338.7C-147.9,338.8-147.9,338.8-147.9,338.7C-147.9,338.8-147.9,338.7-147.9,338.7z"/>
						</g>
						<g id="XMLID_414_">
							<path id="XMLID_415_" class="st0" d="M-146.8,337.9L-146.8,337.9L-146.8,337.9l-0.2,0.2l-0.2-0.6h0.2L-146.8,337.9v-0.4h0.2
								L-146.8,337.9l0.4,0.2L-146.8,337.9L-146.8,337.9z"/>
						</g>
						<g id="XMLID_411_">
							<path id="XMLID_412_" class="st0" d="M-146.2,337.4L-146.2,337.4l0.2,0.6h-0.2V337.4z"/>
						</g>
						<g id="XMLID_407_">
							<path id="XMLID_408_" class="st0" d="M-145.5,337.4h0.2h0.2c0,0,0,0,0,0.2v0.2v0.2c0,0,0,0-0.2,0h-0.2h-0.2L-145.5,337.4z
								 M-145.3,337.9C-145.3,337.9-145.1,337.9-145.3,337.9c0.2,0,0.2,0,0.2-0.2v-0.2c0,0,0,0-0.2,0h-0.2L-145.3,337.9
								L-145.3,337.9z"/>
						</g>
						<g id="XMLID_403_">
							<path id="XMLID_404_" class="st0" d="M-144.6,338.3C-144.6,338.1-144.6,338.1-144.6,338.3
								C-144.6,338.1-144.6,338.1-144.6,338.3c0-0.2,0-0.2,0.2-0.4c0,0,0,0,0.2,0c0.2,0,0.2,0,0.2,0s0,0,0.2,0.2c0,0,0,0,0,0.2v0.2
								c0,0,0,0-0.2,0.2c0,0,0,0-0.2,0c-0.2,0-0.2,0-0.2,0C-144.6,338.3-144.6,338.3-144.6,338.3z M-144.4,338.3L-144.4,338.3
								L-144.4,338.3L-144.4,338.3l0.2-0.2l0,0l0,0l0,0l0,0L-144.4,338.3L-144.4,338.3L-144.4,338.3L-144.4,338.3z"/>
						</g>
						<g id="XMLID_400_">
							<path id="XMLID_401_" class="st0" d="M-143.5,338.7L-143.5,338.7L-143.5,338.7c0,0.2,0,0.2-0.2,0.2c0,0,0,0-0.2,0
								c0,0,0,0,0-0.2v-0.2v-0.2c0,0,0,0,0.2,0h0.2h0.2C-143.3,338.5-143.3,338.5-143.5,338.7C-143.3,338.7-143.3,338.7-143.5,338.7
								L-143.5,338.7L-143.5,338.7l-0.2-0.2l0,0l0,0l0,0l0,0l0,0l0,0L-143.5,338.7z"/>
						</g>
						<g id="XMLID_396_">
							<path id="XMLID_397_" class="st0" d="M-143.3,339.4C-143.3,339.2-143.3,339.2-143.3,339.4c0-0.2,0.2-0.2,0.2-0.2h0.2h0.2
								c0,0,0,0,0.2,0.2v0.2v0.2c0,0,0,0-0.2,0.2h-0.2h-0.2C-143.1,339.6-143.1,339.6-143.3,339.4L-143.3,339.4z M-142.9,339.6
								L-142.9,339.6L-142.9,339.6h0.2l0,0l0,0l0,0l0,0l0,0l0,0H-142.9L-142.9,339.6C-143.1,339.6-143.1,339.6-142.9,339.6z"/>
						</g>
					</g>
					<g id="XMLID_224_">
						<g id="XMLID_367_">
							<path id="XMLID_394_" class="st0" d="M-147.9,341.4c0,0.2,0,0.4,0.2,0.6c0.2,0.6,0.7,0.9,1.5,1.1c0,0,0.2,0,0.2,0.2
								c0,0,0,0.2-0.2,0.2c-0.2,0-0.6-0.2-0.7-0.2c-0.6-0.4-0.9-0.9-1.1-1.5l0,0c0,0,0,0-0.2,0.2h-0.2v-0.2c0.2-0.2,0.2-0.2,0.4-0.4
								H-147.9c0.2,0,0.2,0.2,0.4,0.4v0.2C-147.7,341.6-147.7,341.6-147.9,341.4C-147.7,341.4-147.9,341.4-147.9,341.4L-147.9,341.4
								z"/>
							<path id="XMLID_391_" class="st0" d="M-146.2,343.3L-146.2,343.3c-0.4,0-0.6-0.2-0.7-0.2c-0.6-0.4-0.9-0.9-1.1-1.5l0,0h-0.2
								v-0.2c0.2-0.2,0.2-0.2,0.4-0.4c0,0,0.2-0.2,0.2,0c0.2,0.2,0.2,0.2,0.4,0.4c0,0,0.2,0.2,0,0.2h-0.2l0,0l0,0
								c0,0.2,0,0.2,0.2,0.4c0.2,0.6,0.7,0.9,1.5,1.1c0,0,0.2,0,0.2,0.2v0.2C-146.2,343.3-146.2,343.3-146.2,343.3z M-148.1,341.3
								L-148.1,341.3c0.2,0.9,0.6,1.3,1.1,1.7c0.2,0.2,0.6,0.2,0.7,0.2l0,0l0,0l0,0c-0.7-0.2-1.1-0.6-1.5-1.1c0-0.2,0-0.2-0.2-0.4
								v-0.2L-148.1,341.3l0.2,0.2l0,0l0,0l0,0h0.2c0,0,0,0,0-0.2c-0.2-0.2-0.2-0.2-0.4-0.4c0,0,0,0-0.2,0c-0.2,0.2-0.2,0.2-0.4,0.4
								c0,0,0,0,0,0.2c0,0,0,0,0.2,0l0,0L-148.1,341.3z"/>
						</g>
						<g id="XMLID_333_">
							<path id="XMLID_362_" class="st0" d="M-143.8,340.7L-143.8,340.7c-0.2-0.9-0.7-1.3-1.5-1.5c0,0,0,0-0.2,0c-0.2,0,0-0.2,0-0.2
								s0,0,0.2,0c0.4,0,0.7,0.2,0.9,0.6c0.4,0.4,0.7,0.7,0.7,1.3l0,0c0,0,0,0,0.2-0.2h0.2v0.2c-0.2,0.2-0.2,0.2-0.4,0.4h-0.2
								c-0.2,0-0.2-0.2-0.4-0.2v-0.2h0.2C-144,340.7-144,340.7-143.8,340.7L-143.8,340.7z"/>
							<path id="XMLID_334_" class="st0" d="M-143.7,341.3C-143.8,341.3-143.8,341.3-143.7,341.3c-0.2-0.2-0.4-0.2-0.6-0.4
								c0,0,0,0,0-0.2c0,0,0,0,0-0.2h0.2l0,0c0,0,0,0,0-0.2c-0.2-0.7-0.7-1.1-1.5-1.3c0,0,0,0-0.2,0v-0.2c0,0,0.2-0.2,0.2,0
								c0.4,0,0.7,0.2,1.1,0.6c0.4,0.4,0.7,0.7,0.7,1.3l0,0c0,0,0.2-0.2,0.2,0v0.2C-143.5,340.9-143.5,341.1-143.7,341.3
								L-143.7,341.3z M-144.2,340.7L-144.2,340.7L-144.2,340.7L-144.2,340.7c0.2,0.2,0.2,0.4,0.4,0.4c0,0,0,0,0.2,0
								c0.2-0.2,0.2-0.2,0.4-0.4c0,0,0,0,0-0.2h-0.2l0,0l-0.2,0.2v-0.2l0,0c0-0.6-0.4-0.9-0.7-1.3c-0.2-0.2-0.6-0.4-0.9-0.6l0,0l0,0
								l0,0c0.7,0.2,1.3,0.7,1.5,1.5v0.2l0,0l0,0h-0.2l0,0L-144.2,340.7L-144.2,340.7C-144,340.7-144,340.7-144.2,340.7z"/>
						</g>
						<g id="XMLID_320_">
							<path id="XMLID_332_" class="st0" d="M-146.2,339c-0.2,0-0.6,0.2-0.7,0.2c-0.6,0.2-0.7,0.7-0.9,1.3c0,0,0,0,0,0.2
								c0,0,0,0-0.2,0c0,0,0,0,0-0.2c0-0.4,0.2-0.7,0.4-0.9c0.4-0.6,0.7-0.7,1.5-0.9l0,0l0,0c0,0,0,0-0.2,0v-0.2h0.2
								c0.2,0,0.2,0.2,0.4,0.2v0.2C-146.1,339-146.1,339-146.2,339c0,0.2,0,0.2-0.2,0.2l0,0c0,0,0,0,0-0.2
								C-146.2,339.2-146.2,339.2-146.2,339z"/>
							<path id="XMLID_324_" class="st0" d="M-147.9,340.9L-147.9,340.9c-0.2,0-0.2-0.2-0.2-0.2c0-0.4,0.2-0.7,0.6-0.9
								c0.4-0.6,0.7-0.7,1.3-0.9l0,0c-0.2,0-0.2-0.2,0-0.2c0.2,0,0,0,0.2,0h0.2c0.2,0,0.2,0.2,0.4,0.2c0.2,0,0.2,0.2,0,0.4l0,0
								l-0.2,0.2h-0.2c0,0-0.2,0-0.2-0.2V339l0,0c-0.2,0-0.4,0.2-0.6,0.2C-147.3,339.8-147.7,340.1-147.9,340.9
								C-147.9,340.7-147.9,340.7-147.9,340.9C-147.9,340.7-147.9,340.9-147.9,340.9z M-146.2,338.5L-146.2,338.5
								C-146.2,338.5-146.2,338.7-146.2,338.5C-146.4,338.7-146.4,338.7-146.2,338.5l0.2,0.2l0,0l0,0l0,0c-0.6,0.2-0.9,0.4-1.3,0.7
								c-0.2,0.2-0.4,0.6-0.4,0.9l0,0l0,0l0,0c0.2-0.6,0.6-0.9,0.9-1.3c0.2-0.2,0.6-0.2,0.7-0.2h0.2l-0.2,0.2l0,0l0,0l0,0l0,0l0,0
								l0.2-0.2l0,0c0,0,0,0,0-0.2C-146.1,338.8-146.1,338.7-146.2,338.5C-146.2,338.7-146.2,338.5-146.2,338.5z"/>
						</g>
						<g id="XMLID_230_">
							<path id="XMLID_316_" class="st0" d="M-145.5,342.9c0.7-0.2,1.3-0.7,1.7-1.5c0-0.2,0-0.2,0.2-0.2c0,0,0.2,0,0,0.2
								c-0.2,0.9-0.7,1.5-1.7,1.7l0,0c0,0,0,0,0.2,0.2v0.2h-0.2C-145.5,343.3-145.5,343.3-145.5,342.9L-145.5,342.9
								c0-0.2,0-0.2,0.2-0.4h0.2C-145.3,342.7-145.3,342.7-145.5,342.9L-145.5,342.9L-145.5,342.9z"/>
							<path id="XMLID_233_" class="st0" d="M-145.5,343.7L-145.5,343.7c-0.2-0.2-0.4-0.2-0.6-0.4c0,0-0.2-0.2,0-0.2
								c0.2-0.2,0.2-0.2,0.4-0.4c0,0,0,0,0.2,0c0.2,0,0,0,0.2,0v0.2c0.7-0.2,1.1-0.7,1.3-1.5c0,0,0-0.2,0.2-0.2c0,0,0,0,0.2,0v0.2
								c-0.2,0.9-0.9,1.5-1.7,1.7l0,0c0,0,0.2,0.2,0,0.2C-145.3,343.7-145.3,343.7-145.5,343.7z M-145.5,342.7L-145.5,342.7
								L-145.5,342.7c-0.2,0.2-0.2,0.2-0.4,0.4c0,0,0,0,0,0.2c0.2,0.2,0.2,0.2,0.4,0.4c0,0,0,0,0.2,0c0,0,0,0,0-0.2l0,0l-0.2-0.2
								h0.2c0.9-0.2,1.5-0.7,1.7-1.7v-0.2l0,0c0,0,0,0-0.2,0.2c-0.2,0.7-0.7,1.3-1.7,1.5h-0.2L-145.5,342.7L-145.5,342.7
								L-145.5,342.7L-145.5,342.7C-145.5,342.9-145.5,342.7-145.5,342.7L-145.5,342.7z"/>
						</g>
					</g>
					<g id="XMLID_82_">
						<g id="XMLID_222_">
							<path id="XMLID_223_" class="st0" d="M-142.7,341.1L-142.7,341.1L-142.7,341.1L-142.7,341.1L-142.7,341.1z"/>
						</g>
						<g id="XMLID_86_">
							<path id="XMLID_138_" class="st0" d="M-145.9,344L-145.9,344L-145.9,344L-145.9,344L-145.9,344z M-145.7,344L-145.7,344
								L-145.7,344L-145.7,344L-145.7,344z M-146.1,344C-146.2,344-146.2,344-146.1,344L-146.1,344C-146.2,344-146.1,344-146.1,344
								L-146.1,344z M-145.5,344L-145.5,344C-145.3,344-145.3,344-145.5,344L-145.5,344C-145.3,344-145.5,344-145.5,344z
								 M-146.2,344C-146.4,344-146.4,344-146.2,344L-146.2,344C-146.4,344-146.4,344-146.2,344L-146.2,344z M-145.3,344L-145.3,344
								C-145.3,344-145.1,344-145.3,344L-145.3,344C-145.1,344-145.1,344-145.3,344z M-146.6,344L-146.6,344L-146.6,344
								C-146.6,343.8-146.6,344-146.6,344L-146.6,344z M-144.9,344L-144.9,344C-144.9,343.8-144.9,343.8-144.9,344L-144.9,344
								L-144.9,344z M-146.8,343.8L-146.8,343.8L-146.8,343.8L-146.8,343.8L-146.8,343.8z M-144.8,343.8L-144.8,343.8L-144.8,343.8
								L-144.8,343.8C-144.6,343.8-144.8,343.8-144.8,343.8z M-147,343.8C-147.2,343.8-147.2,343.8-147,343.8L-147,343.8
								C-147.2,343.8-147,343.8-147,343.8L-147,343.8z M-144.6,343.8L-144.6,343.8C-144.6,343.8-144.4,343.8-144.6,343.8
								L-144.6,343.8C-144.4,343.8-144.6,343.8-144.6,343.8z M-147.2,343.7C-147.3,343.7-147.3,343.7-147.2,343.7L-147.2,343.7
								C-147.3,343.7-147.2,343.7-147.2,343.7L-147.2,343.7z M-144.4,343.7L-144.4,343.7C-144.4,343.7-144.2,343.7-144.4,343.7
								L-144.4,343.7C-144.2,343.7-144.2,343.7-144.4,343.7z M-147.3,343.7C-147.5,343.7-147.5,343.5-147.3,343.7L-147.3,343.7
								C-147.5,343.5-147.3,343.5-147.3,343.7L-147.3,343.7z M-144,343.7L-144,343.7C-144,343.5-144,343.5-144,343.7L-144,343.7
								L-144,343.7z M-147.7,343.5L-147.7,343.5L-147.7,343.5C-147.7,343.3-147.7,343.3-147.7,343.5L-147.7,343.5z M-143.8,343.5
								L-143.8,343.5C-143.8,343.3-143.8,343.3-143.8,343.5L-143.8,343.5C-143.8,343.3-143.8,343.5-143.8,343.5z M-147.9,343.3
								L-147.9,343.3L-147.9,343.3L-147.9,343.3L-147.9,343.3z M-143.7,343.3L-143.7,343.3L-143.7,343.3L-143.7,343.3L-143.7,343.3z
								 M-148.1,343.1L-148.1,343.1L-148.1,343.1L-148.1,343.1L-148.1,343.1z M-143.5,343.1L-143.5,343.1L-143.5,343.1L-143.5,343.1
								L-143.5,343.1z M-148.1,342.9L-148.1,342.9L-148.1,342.9L-148.1,342.9L-148.1,342.9z M-143.3,342.9L-143.3,342.9
								L-143.3,342.9L-143.3,342.9L-143.3,342.9z M-148.3,342.7C-148.3,342.5-148.3,342.5-148.3,342.7L-148.3,342.7
								C-148.3,342.5-148.3,342.7-148.3,342.7L-148.3,342.7z M-143.3,342.7L-143.3,342.7C-143.3,342.5-143.3,342.5-143.3,342.7
								L-143.3,342.7C-143.1,342.5-143.1,342.7-143.3,342.7z M-148.5,342.5C-148.5,342.4-148.5,342.4-148.5,342.5L-148.5,342.5
								C-148.5,342.4-148.5,342.4-148.5,342.5L-148.5,342.5z M-143.1,342.5L-143.1,342.5C-143.1,342.4-143.1,342.4-143.1,342.5
								L-143.1,342.5C-143.1,342.4-143.1,342.5-143.1,342.5z M-148.6,342.4C-148.6,342.2-148.6,342.2-148.6,342.4L-148.6,342.4
								C-148.6,342.2-148.5,342.2-148.6,342.4L-148.6,342.4z M-142.9,342.4L-142.9,342.4C-142.9,342.2-142.9,342.2-142.9,342.4
								L-142.9,342.4C-142.9,342.2-142.9,342.2-142.9,342.4z M-148.6,342.2C-148.6,342-148.6,342-148.6,342.2L-148.6,342.2
								C-148.6,342-148.6,342-148.6,342.2L-148.6,342.2z M-142.9,342L-142.9,342L-142.9,342L-142.9,342L-142.9,342z M-148.6,341.8
								L-148.6,341.8L-148.6,341.8L-148.6,341.8L-148.6,341.8z M-142.9,341.8L-142.9,341.8L-142.9,341.8L-142.9,341.8
								C-142.7,341.8-142.9,341.8-142.9,341.8z M-148.8,341.6C-148.8,341.4-148.8,341.4-148.8,341.6L-148.8,341.6
								C-148.8,341.4-148.8,341.6-148.8,341.6L-148.8,341.6z M-142.7,341.6L-142.7,341.6C-142.7,341.4-142.7,341.4-142.7,341.6
								L-142.7,341.6C-142.7,341.4-142.7,341.6-142.7,341.6z M-148.8,341.4C-148.8,341.3-148.8,341.3-148.8,341.4L-148.8,341.4
								C-148.8,341.3-148.8,341.3-148.8,341.4L-148.8,341.4z M-142.7,341.4L-142.7,341.4C-142.7,341.3-142.7,341.3-142.7,341.4
								L-142.7,341.4C-142.7,341.3-142.7,341.3-142.7,341.4z"/>
						</g>
						<g id="XMLID_84_">
							<path id="XMLID_85_" class="st0" d="M-148.8,341.1L-148.8,341.1L-148.8,341.1L-148.8,341.1L-148.8,341.1z"/>
						</g>
					</g>
					<g id="XMLID_79_">
						<circle id="XMLID_81_" class="st0" cx="-148.8" cy="340.5" r="0.2"/>
					</g>
					<g id="XMLID_76_">
						<circle id="XMLID_77_" class="st0" cx="-142.9" cy="340.5" r="0.2"/>
					</g>
					<g id="XMLID_38_">
						<g id="XMLID_67_">
							<g id="XMLID_71_">
								<g id="XMLID_72_">
									<path id="XMLID_73_" class="st0" d="M-147,340.9C-147,340.9-147,340.7-147,340.9C-147,340.7-147,340.7-147,340.9v-0.6
										c0,0,0,0.2,0,0.4l0,0c0-0.2,0-0.4,0-0.4s0,0.2,0,0.4l0,0c0-0.2,0-0.4,0-0.4s0,0.2,0,0.4l0,0c0-0.2,0-0.4,0-0.4
										S-147,340.5-147,340.9C-147.2,340.9-147.2,340.9-147,340.9 M-147,340.9C-147.2,340.9-147.2,340.7-147,340.9L-147,340.9
										C-147,340.7-147,340.9-147,340.9L-147,340.9z"/>
								</g>
							</g>
							<g id="XMLID_68_">
								<g id="XMLID_69_">
									<path id="XMLID_70_" class="st0" d="M-147,340.9L-147,340.9v0.6c0,0.2,0,0.6,0,0.6s0-0.2,0-0.6V340.9z M-147,341.8
										C-147,341.8-147,342-147,341.8L-147,341.8L-147,341.8L-147,341.8L-147,341.8v-0.4V341.8L-147,341.8L-147,341.8
										C-147,341.6-147,341.6-147,341.8z"/>
								</g>
							</g>
						</g>
						<g id="XMLID_65_">
							<path id="XMLID_66_" class="st0" d="M-144.4,341.4v-0.4v-0.7l0,0l0,0c0,0.2,0,0.7,0,0.7l0,0
								C-144.6,341.4-144.6,341.4-144.4,341.4c0,0.2,0,0.6,0,0.6S-144.4,341.6-144.4,341.4z M-144.6,341.1c0-0.2,0-0.6,0-0.6l0,0
								V341.1L-144.6,341.1z M-144.6,341.8C-144.6,341.8-144.6,342-144.6,341.8L-144.6,341.8L-144.6,341.8L-144.6,341.8
								L-144.6,341.8v-0.4V341.8L-144.6,341.8L-144.6,341.8C-144.6,341.6-144.6,341.6-144.6,341.8z"/>
						</g>
						<g id="XMLID_39_">
							<g id="XMLID_60_">
								<g id="XMLID_63_">
									<path id="XMLID_64_" class="st0" d="M-146.4,341.4c0,0.2,0.2,0.2,0.2,0.4l0,0l0,0l0,0
										C-146.2,341.6-146.2,341.4-146.4,341.4L-146.4,341.4L-146.4,341.4z"/>
								</g>
								<g id="XMLID_61_">
									<path id="XMLID_62_" class="st0" d="M-144.8,341.3h-1.8l0,0l0,0l0,0c0,0.4,0.2,0.7,0.6,0.7h0.6
										C-145.1,342-144.8,341.6-144.8,341.3L-144.8,341.3L-144.8,341.3L-144.8,341.3z M-145.5,341.8h-0.6c-0.2,0-0.6-0.4-0.6-0.6
										h1.7C-144.9,341.6-145.1,341.8-145.5,341.8z"/>
								</g>
							</g>
							<g id="XMLID_46_">
								<g id="XMLID_49_">
									<path id="XMLID_50_" class="st0" d="M-146.2,340.9c0,0.2,0.2,0.2,0.2,0.2l0,0l0,0l0,0
										C-146.1,340.9-146.2,340.9-146.2,340.9C-146.2,340.7-146.2,340.7-146.2,340.9C-146.2,340.7-146.2,340.7-146.2,340.9z"/>
								</g>
								<g id="XMLID_47_">
									<path id="XMLID_48_" class="st0" d="M-144.9,340.5h-1.5l0,0l0,0l0,0c0,0.2,0.2,0.6,0.6,0.6h0.6
										C-145.3,341.3-145.1,340.9-144.9,340.5L-144.9,340.5C-144.9,340.7-144.9,340.7-144.9,340.5
										C-144.9,340.7-144.9,340.5-144.9,340.5z M-145.5,341.3h-0.6c-0.2,0-0.4-0.2-0.4-0.6h1.3
										C-145.1,340.9-145.3,341.3-145.5,341.3z"/>
								</g>
							</g>
							<g id="XMLID_41_">
								<g id="XMLID_44_">
									<path id="XMLID_45_" class="st0" d="M-146.2,340.3c0,0,0,0.2,0.2,0.2l0,0l0,0l0,0C-146.1,340.5-146.1,340.3-146.2,340.3
										C-146.1,340.3-146.2,340.3-146.2,340.3L-146.2,340.3z"/>
								</g>
								<g id="XMLID_42_">
									<path id="XMLID_43_" class="st0" d="M-145.1,340.1h-1.1l0,0l0,0l0,0c0,0.2,0.2,0.4,0.4,0.4h0.4
										C-145.3,340.7-145.1,340.5-145.1,340.1L-145.1,340.1C-145.1,340.3-145.1,340.3-145.1,340.1L-145.1,340.1z M-145.5,340.5
										h-0.4c-0.2,0-0.4-0.2-0.4-0.4h1.1C-145.3,340.5-145.3,340.5-145.5,340.5z"/>
								</g>
							</g>
						</g>
					</g>
				</g>
			</g>
			<g id="XMLID_226_">
				<path id="XMLID_236_" class="st0" d="M-161.9,319.1c1.1,3.3,3.5,6.1,6.3,7.4c0.2,0,0.2,0,0.4,0c0.4,0,0.6-0.2,0.7-0.6
					c0.2-0.4,0-0.9-0.4-0.9c-2.4-1.1-4.4-3.5-5.5-6.5c-0.2-0.4-0.6-0.7-0.9-0.6C-161.9,318.1-162.1,318.5-161.9,319.1z"/>
				<path id="XMLID_232_" class="st0" d="M-124.2,312.8h-42.9c-0.7,0-1.5,0.6-1.5,1.5c0,0.9,0.6,1.5,1.5,1.5h0.4
					c0.4,7.4,6.3,15.3,14.2,15.3h13.7c7.9,0,13.9-7.9,14.2-15.3h0.4c0.7,0,1.5-0.6,1.5-1.5C-122.8,313.3-123.5,312.8-124.2,312.8z
					 M-138.8,329.2h-13.7c-6.8,0-12.2-7.2-12.6-13.7h38.8C-126.6,322-132,329.2-138.8,329.2z"/>
			</g>
			<g id="XMLID_87_">
				<g id="XMLID_389_">
					<circle id="XMLID_390_" class="st0" cx="-145.7" cy="322.4" r="3.1"/>
				</g>
				<g id="XMLID_387_">
					<circle id="XMLID_388_" class="st0" cx="-145.7" cy="322.4" r="3.3"/>
				</g>
				<g id="XMLID_385_">
					<circle id="XMLID_386_" class="st0" cx="-145.7" cy="322.4" r="1.8"/>
				</g>
				<g id="XMLID_291_">
					<g id="XMLID_382_">
						<path id="XMLID_383_" class="st0" d="M-148.6,322.4C-148.6,322.4-148.6,322.6-148.6,322.4
							C-148.6,322.6-148.6,322.6-148.6,322.4C-148.6,322.6-148.6,322.4-148.6,322.4C-148.5,322.4-148.5,322.4-148.6,322.4
							C-148.5,322.4-148.5,322.6-148.6,322.4L-148.6,322.4L-148.6,322.4L-148.6,322.4L-148.6,322.4L-148.6,322.4
							C-148.5,322.4-148.5,322.6-148.6,322.4C-148.6,322.6-148.6,322.6-148.6,322.4L-148.6,322.4L-148.6,322.4z"/>
					</g>
					<g id="XMLID_379_">
						<path id="XMLID_380_" class="st0" d="M-148.5,322.8L-148.5,322.8L-148.5,322.8L-148.5,322.8L-148.5,322.8L-148.5,322.8
							L-148.5,322.8L-148.5,322.8L-148.5,322.8C-148.3,323-148.3,323-148.5,322.8L-148.5,322.8L-148.5,322.8c0,0.2,0.2,0.2,0.2,0.2
							l0,0l0,0l0,0l0,0l0,0l0,0l0,0l0,0C-148.5,323-148.3,323-148.5,322.8C-148.5,323-148.5,323-148.5,322.8L-148.5,322.8
							L-148.5,322.8L-148.5,322.8L-148.5,322.8C-148.5,322.8-148.3,322.8-148.5,322.8C-148.5,323-148.5,322.8-148.5,322.8
							L-148.5,322.8L-148.5,322.8L-148.5,322.8L-148.5,322.8z"/>
					</g>
					<g id="XMLID_375_">
						<path id="XMLID_376_" class="st0" d="M-148.3,323.3L-148.3,323.3L-148.3,323.3L-148.3,323.3L-148.3,323.3L-148.3,323.3
							L-148.3,323.3L-148.3,323.3C-148.3,323.1-148.3,323.3-148.3,323.3L-148.3,323.3L-148.3,323.3L-148.3,323.3L-148.3,323.3
							L-148.3,323.3L-148.3,323.3L-148.3,323.3L-148.3,323.3L-148.3,323.3c-0.2,0-0.2,0-0.2,0l0,0
							C-148.3,323.1-148.3,323.3-148.3,323.3z M-148.5,323.3C-148.5,323.3-148.3,323.3-148.5,323.3L-148.5,323.3L-148.5,323.3
							C-148.3,323.3-148.3,323.3-148.5,323.3L-148.5,323.3z"/>
					</g>
					<g id="XMLID_372_">
						<path id="XMLID_373_" class="st0" d="M-148.1,323.5L-148.1,323.5L-148.1,323.5L-148.1,323.5L-148.1,323.5L-148.1,323.5
							L-148.1,323.5L-148.1,323.5L-148.1,323.5l-0.2,0.2l0,0l0,0L-148.1,323.5L-148.1,323.5z"/>
					</g>
					<g id="XMLID_369_">
						<path id="XMLID_370_" class="st0" d="M-148.1,323.7L-148.1,323.7L-148.1,323.7L-148.1,323.7L-148.1,323.7
							C-147.9,323.7-147.9,323.7-148.1,323.7L-148.1,323.7L-148.1,323.7L-148.1,323.7l-0.2,0.2l0,0l0,0L-148.1,323.7L-148.1,323.7z"
							/>
					</g>
					<g id="XMLID_365_">
						<path id="XMLID_366_" class="st0" d="M-147.9,324.2L-147.9,324.2L-147.9,324.2L-147.9,324.2L-147.9,324.2
							C-147.7,324.1-147.7,324.2-147.9,324.2L-147.9,324.2L-147.9,324.2L-147.9,324.2L-147.9,324.2L-147.9,324.2
							C-147.7,324.2-147.7,324.2-147.9,324.2L-147.9,324.2L-147.9,324.2L-147.9,324.2z"/>
					</g>
					<g id="XMLID_361_">
						<path id="XMLID_363_" class="st0" d="M-147.5,324.2L-147.5,324.2L-147.5,324.2L-147.5,324.2L-147.5,324.2L-147.5,324.2
							L-147.5,324.2L-147.5,324.2L-147.5,324.2L-147.5,324.2L-147.5,324.2L-147.5,324.2L-147.5,324.2L-147.5,324.2L-147.5,324.2
							C-147.7,324.4-147.7,324.4-147.5,324.2L-147.5,324.2z"/>
					</g>
					<g id="XMLID_357_">
						<path id="XMLID_358_" class="st0" d="M-147.3,324.4C-147.2,324.6-147.2,324.6-147.3,324.4L-147.3,324.4L-147.3,324.4
							L-147.3,324.4L-147.3,324.4L-147.3,324.4L-147.3,324.4C-147.5,324.6-147.5,324.6-147.3,324.4L-147.3,324.4z M-147.3,324.6
							L-147.3,324.6L-147.3,324.6L-147.3,324.6z"/>
					</g>
					<g id="XMLID_352_">
						<path id="XMLID_353_" class="st0" d="M-147.2,324.6L-147.2,324.6L-147.2,324.6L-147.2,324.6L-147.2,324.6
							C-147,324.6-147,324.6-147.2,324.6L-147.2,324.6L-147.2,324.6C-147,324.6-147,324.6-147.2,324.6
							C-147,324.6-147,324.8-147.2,324.6C-147,324.8-147.2,324.8-147.2,324.6C-147.2,324.8-147.2,324.8-147.2,324.6L-147.2,324.6
							L-147.2,324.6l-0.2,0.2l0,0L-147.2,324.6z M-147.2,324.8L-147.2,324.8L-147.2,324.8L-147.2,324.8L-147.2,324.8z"/>
					</g>
					<g id="XMLID_349_">
						<path id="XMLID_350_" class="st0" d="M-146.6,324.8L-146.6,324.8L-146.6,324.8L-146.6,324.8L-146.6,324.8
							C-146.6,324.8-146.4,324.8-146.6,324.8L-146.6,324.8L-146.6,324.8L-146.6,324.8C-146.4,324.8-146.4,324.8-146.6,324.8
							L-146.6,324.8L-146.6,324.8L-146.6,324.8L-146.6,324.8L-146.6,324.8L-146.6,324.8L-146.6,324.8z"/>
					</g>
					<g id="XMLID_345_">
						<path id="XMLID_346_" class="st0" d="M-146.2,325L-146.2,325C-146.2,325.2-146.2,325.2-146.2,325
							C-146.4,325.2-146.4,325-146.2,325C-146.4,325-146.2,325-146.2,325z M-146.2,325L-146.2,325L-146.2,325
							C-146.2,325-146.4,325-146.2,325C-146.4,325-146.2,325-146.2,325z"/>
					</g>
					<g id="XMLID_342_">
						<path id="XMLID_343_" class="st0" d="M-146.1,325L-146.1,325L-146.1,325L-146.1,325L-146.1,325L-146.1,325L-146.1,325
							L-146.1,325L-146.1,325L-146.1,325L-146.1,325L-146.1,325L-146.1,325C-145.9,325-146.1,325-146.1,325L-146.1,325L-146.1,325
							L-146.1,325L-146.1,325z"/>
					</g>
					<g id="XMLID_338_">
						<path id="XMLID_339_" class="st0" d="M-145.5,325L-145.5,325L-145.5,325C-145.3,325-145.5,325-145.5,325L-145.5,325
							L-145.5,325L-145.5,325L-145.5,325L-145.5,325C-145.3,325-145.3,325-145.5,325L-145.5,325C-145.3,325-145.3,325-145.5,325
							L-145.5,325L-145.5,325L-145.5,325L-145.5,325L-145.5,325L-145.5,325C-145.5,325.2-145.5,325.2-145.5,325
							C-145.5,325.2-145.5,325.2-145.5,325L-145.5,325z M-145.5,325.2C-145.5,325.2-145.3,325-145.5,325.2L-145.5,325.2
							L-145.5,325.2C-145.5,325-145.5,325-145.5,325.2L-145.5,325.2z"/>
					</g>
					<g id="XMLID_323_">
						<path id="XMLID_328_" class="st0" d="M-144.9,324.8L-144.9,324.8L-144.9,324.8L-144.9,324.8c0.2,0,0.2,0,0.2,0l0,0l0,0l0,0
							c0,0,0,0,0,0.2l0,0l0,0L-144.9,324.8z M-144.8,324.8L-144.8,324.8C-144.8,324.8-144.9,324.8-144.8,324.8L-144.8,324.8
							L-144.8,324.8L-144.8,324.8z M-144.8,325L-144.8,325L-144.8,325L-144.8,325L-144.8,325L-144.8,325
							C-144.9,325-144.8,325-144.8,325z"/>
					</g>
					<g id="XMLID_319_">
						<path id="XMLID_321_" class="st0" d="M-144.6,324.8L-144.6,324.8L-144.6,324.8L-144.6,324.8L-144.6,324.8L-144.6,324.8
							L-144.6,324.8L-144.6,324.8L-144.6,324.8L-144.6,324.8L-144.6,324.8L-144.6,324.8L-144.6,324.8z"/>
					</g>
					<g id="XMLID_315_">
						<path id="XMLID_317_" class="st0" d="M-144.4,324.4C-144.4,324.4-144.2,324.4-144.4,324.4L-144.4,324.4
							C-144.2,324.6-144.4,324.6-144.4,324.4C-144.4,324.6-144.4,324.6-144.4,324.4C-144.4,324.6-144.4,324.6-144.4,324.4
							c0.2,0.2,0.2,0,0.2,0l0,0l0,0l0,0l0,0l0,0l0,0l0,0l0,0l0,0l0,0l0,0l0,0C-144.2,324.6-144.2,324.6-144.4,324.4
							C-144.4,324.6-144.4,324.6-144.4,324.4z"/>
					</g>
					<g id="XMLID_311_">
						<path id="XMLID_312_" class="st0" d="M-143.8,324.2C-143.8,324.2-143.8,324.1-143.8,324.2L-143.8,324.2L-143.8,324.2
							L-143.8,324.2L-143.8,324.2L-143.8,324.2L-143.8,324.2L-143.8,324.2L-143.8,324.2L-143.8,324.2
							C-143.8,324.4-144,324.4-143.8,324.2L-143.8,324.2z"/>
					</g>
					<g id="XMLID_307_">
						<path id="XMLID_308_" class="st0" d="M-143.7,324.1C-143.8,324.1-143.8,324.1-143.7,324.1L-143.7,324.1L-143.7,324.1
							L-143.7,324.1C-143.8,323.9-143.8,323.9-143.7,324.1L-143.7,324.1L-143.7,324.1L-143.7,324.1L-143.7,324.1
							c0-0.2,0.2-0.2,0.2,0l0,0l0,0l0,0l0,0l0,0l0,0H-143.7L-143.7,324.1L-143.7,324.1L-143.7,324.1L-143.7,324.1l0.2,0.2
							L-143.7,324.1z"/>
					</g>
					<g id="XMLID_303_">
						<path id="XMLID_304_" class="st0" d="M-143.3,323.7L-143.3,323.7L-143.3,323.7C-143.5,323.7-143.5,323.7-143.3,323.7
							C-143.5,323.7-143.5,323.7-143.3,323.7L-143.3,323.7L-143.3,323.7L-143.3,323.7L-143.3,323.7
							C-143.5,323.7-143.3,323.7-143.3,323.7L-143.3,323.7L-143.3,323.7L-143.3,323.7L-143.3,323.7L-143.3,323.7L-143.3,323.7
							L-143.3,323.7L-143.3,323.7L-143.3,323.7C-143.3,323.9-143.3,323.9-143.3,323.7C-143.5,323.9-143.3,323.7-143.3,323.7z
							 M-143.3,323.7L-143.3,323.7L-143.3,323.7L-143.3,323.7L-143.3,323.7C-143.3,323.9-143.3,323.9-143.3,323.7z"/>
					</g>
					<g id="XMLID_300_">
						<path id="XMLID_301_" class="st0" d="M-143.3,323.5L-143.3,323.5L-143.3,323.5L-143.3,323.5L-143.3,323.5
							C-143.3,323.3-143.3,323.3-143.3,323.5L-143.3,323.5C-143.3,323.3-143.3,323.3-143.3,323.5L-143.3,323.5
							C-143.3,323.3-143.3,323.3-143.3,323.5C-143.3,323.3-143.3,323.3-143.3,323.5L-143.3,323.5L-143.3,323.5L-143.3,323.5
							L-143.3,323.5L-143.3,323.5C-143.1,323.3-143.1,323.3-143.3,323.5L-143.3,323.5L-143.3,323.5
							C-143.3,323.3-143.3,323.3-143.3,323.5L-143.3,323.5L-143.3,323.5L-143.3,323.5L-143.3,323.5z"/>
					</g>
					<g id="XMLID_296_">
						<path id="XMLID_297_" class="st0" d="M-143.1,323.1C-143.1,323-143.1,323-143.1,323.1L-143.1,323.1
							C-143.1,323-143.1,323-143.1,323.1C-143.1,323-143.1,323-143.1,323.1L-143.1,323.1L-143.1,323.1L-143.1,323.1L-143.1,323.1
							h0.2c0,0,0,0,0,0.2l0,0L-143.1,323.1L-143.1,323.1L-143.1,323.1L-143.1,323.1L-143.1,323.1L-143.1,323.1L-143.1,323.1
							L-143.1,323.1C-143.1,323.1-143.3,323.1-143.1,323.1z M-143.1,323L-143.1,323C-143.1,323-143.1,323.1-143.1,323
							C-143.1,323.1-143.1,323.1-143.1,323C-143.1,323.1-143.1,323-143.1,323z"/>
					</g>
					<g id="XMLID_292_">
						<path id="XMLID_293_" class="st0" d="M-143.1,322.6L-143.1,322.6L-143.1,322.6L-143.1,322.6c0.2,0,0.2,0,0.2,0l0,0l0,0l0,0
							C-142.9,322.8-142.9,322.8-143.1,322.6C-143.1,322.8-143.1,322.8-143.1,322.6z M-143.1,322.6L-143.1,322.6
							C-143.1,322.8-143.1,322.8-143.1,322.6L-143.1,322.6z"/>
					</g>
				</g>
				<g id="XMLID_262_">
					<g id="XMLID_288_">
						<path id="XMLID_289_" class="st0" d="M-148.1,320.9L-148.1,320.9h0.2l0,0l0,0l0,0C-147.9,320.9-147.9,320.9-148.1,320.9
							c0,0,0,0-0.2,0l0,0c0,0,0,0,0-0.2C-148.3,320.7-148.3,320.7-148.1,320.9C-148.3,320.7-148.1,320.7-148.1,320.9L-148.1,320.9
							L-148.1,320.9C-148.1,320.7-148.1,320.7-148.1,320.9L-148.1,320.9L-148.1,320.9L-148.1,320.9L-148.1,320.9L-148.1,320.9
							L-148.1,320.9L-148.1,320.9L-148.1,320.9z"/>
					</g>
					<g id="XMLID_284_">
						<path id="XMLID_285_" class="st0" d="M-147.5,320.6C-147.7,320.6-147.7,320.6-147.5,320.6c-0.2,0-0.2,0-0.2,0s0,0,0-0.2
							c0-0.2,0,0,0-0.2c0,0,0,0,0-0.2c0,0,0,0,0.2,0c0,0,0,0,0.2,0s0,0,0.2,0c0,0,0,0,0,0.2c0,0,0,0,0,0.2
							C-147.2,320.6-147.3,320.6-147.5,320.6C-147.3,320.6-147.5,320.6-147.5,320.6z M-147.3,320.4L-147.3,320.4
							C-147.3,320.4-147.3,320.2-147.3,320.4l-0.2-0.2l0,0l0,0l0,0l0,0l0,0l0,0L-147.3,320.4C-147.5,320.6-147.5,320.6-147.3,320.4
							C-147.3,320.6-147.3,320.6-147.3,320.4z"/>
					</g>
					<g id="XMLID_281_">
						<path id="XMLID_282_" class="st0" d="M-146.6,319.8L-146.6,319.8L-146.6,319.8L-146.6,319.8l-0.2-0.4h0.2V319.8v-0.4h0.2
							L-146.6,319.8l0.2,0.2L-146.6,319.8L-146.6,319.8z"/>
					</g>
					<g id="XMLID_278_">
						<path id="XMLID_279_" class="st0" d="M-146.1,319.4L-146.1,319.4l0.2,0.6h-0.2V319.4z"/>
					</g>
					<g id="XMLID_274_">
						<path id="XMLID_275_" class="st0" d="M-145.5,319.4h0.2c0,0,0,0,0.2,0l0,0c0,0,0,0,0,0.2c0,0,0,0,0,0.2c0,0,0,0-0.2,0
							s0,0-0.2,0h-0.2L-145.5,319.4z M-145.5,319.8C-145.3,319.8-145.3,319.8-145.5,319.8h0.2c0,0,0,0,0-0.2
							C-145.3,319.6-145.3,319.6-145.5,319.8L-145.5,319.8L-145.5,319.8L-145.5,319.8z"/>
					</g>
					<g id="XMLID_270_">
						<path id="XMLID_271_" class="st0" d="M-144.8,320C-144.8,320-144.9,320-144.8,320C-144.8,319.8-144.8,319.8-144.8,320
							L-144.8,320c0-0.2,0-0.2,0.2-0.2c0,0,0,0,0.2,0s0,0,0.2,0c0,0,0,0,0,0.2c0,0,0,0,0,0.2c0,0.2,0,0,0,0s0,0-0.2,0
							S-144.6,320.2-144.8,320C-144.8,320.2-144.8,320-144.8,320z M-144.6,320L-144.6,320L-144.6,320L-144.6,320l0.2-0.2l0,0l0,0
							l0,0l0,0L-144.6,320L-144.6,320L-144.6,320L-144.6,320z"/>
					</g>
					<g id="XMLID_267_">
						<path id="XMLID_268_" class="st0" d="M-143.8,320.4L-143.8,320.4L-143.8,320.4L-143.8,320.4L-143.8,320.4
							C-143.8,320.6-143.8,320.6-143.8,320.4L-143.8,320.4c0-0.2,0-0.2,0-0.4c0,0,0,0,0.2,0s0,0,0.2,0c0,0,0,0,0.2,0l0,0
							c0,0,0,0,0,0.2l0,0c0,0,0,0,0-0.2l0,0l0,0l0,0C-144,320.2-144,320.2-143.8,320.4L-143.8,320.4
							C-144,320.4-144,320.4-143.8,320.4L-143.8,320.4L-143.8,320.4z"/>
					</g>
					<g id="XMLID_263_">
						<path id="XMLID_264_" class="st0" d="M-143.7,320.9L-143.7,320.9C-143.7,320.7-143.7,320.7-143.7,320.9c0-0.2,0-0.2,0.2-0.2
							c0.2,0,0,0,0.2,0l0,0c0,0,0,0,0,0.2c0,0,0,0,0,0.2l0,0c0,0,0,0-0.2,0C-143.7,321.1-143.5,321.1-143.7,320.9
							C-143.7,321.1-143.7,321.1-143.7,320.9C-143.7,321.1-143.7,320.9-143.7,320.9z M-143.7,321.1L-143.7,321.1L-143.7,321.1h0.2
							l0,0l0,0l0,0l0,0l0,0l0,0H-143.7C-143.7,320.9-143.7,320.9-143.7,321.1L-143.7,321.1z"/>
					</g>
				</g>
				<g id="XMLID_235_">
					<g id="XMLID_257_">
						<path id="XMLID_261_" class="st0" d="M-147.3,322.6c0,0.2,0,0.2,0.2,0.4c0.2,0.6,0.6,0.7,1.1,0.9h0.2c0,0,0,0.2-0.2,0.2
							s-0.4-0.2-0.6-0.2C-147.2,323.7-147.5,323.1-147.3,322.6C-147.5,322.6-147.5,322.6-147.3,322.6c-0.2,0-0.2,0-0.2,0h-0.2v-0.2
							c0-0.2,0.2-0.2,0.2-0.4h0.2c0.2,0,0.2,0.2,0.4,0.2v0.2L-147.3,322.6L-147.3,322.6L-147.3,322.6z"/>
						<path id="XMLID_258_" class="st0" d="M-146.2,324.1L-146.2,324.1c-0.2,0-0.6-0.2-0.6-0.2c-0.6-0.2-0.7-0.7-0.9-1.1l0,0h-0.2
							v-0.2c0-0.2,0.2-0.2,0.2-0.4h0.2c0.2,0,0.2,0.2,0.4,0.2v0.2h-0.2l0,0l0,0v0.2c0.2,0.6,0.6,0.7,1.1,0.9c0,0,0.2,0,0.2,0.2
							c0,0,0,0,0,0.2C-146.1,324.1-146.1,324.1-146.2,324.1z M-147.7,322.4L-147.7,322.4c0,0.7,0.4,1.1,0.9,1.3
							c0.2,0.2,0.4,0.2,0.6,0.2l0,0l0,0l0,0c-0.6-0.2-0.9-0.6-1.1-0.9v-0.2C-147.5,322.6-147.5,322.6-147.7,322.4L-147.7,322.4h0.2
							l0,0l0,0l0,0l0,0l0,0H-147.7c0-0.2,0-0.2-0.2-0.2c0,0-0.2,0.2-0.2,0.4l0,0L-147.7,322.4L-147.7,322.4L-147.7,322.4z"/>
					</g>
					<g id="XMLID_247_">
						<path id="XMLID_256_" class="st0" d="M-144.2,322L-144.2,322c-0.2-0.7-0.6-1.1-1.1-1.3l0,0c0,0,0,0,0-0.2c0,0,0,0,0.2,0
							c0.4,0,0.6,0.2,0.7,0.4c0.4,0.2,0.6,0.6,0.6,1.1l0,0l0,0h0.2v0.2l-0.2,0.2h-0.2L-144.2,322L-144.2,322L-144.2,322
							C-144.4,322-144.4,322-144.2,322C-144.4,322-144.4,322-144.2,322z"/>
						<path id="XMLID_248_" class="st0" d="M-144.2,322.4L-144.2,322.4c-0.2-0.2-0.4-0.2-0.4-0.4c0,0,0,0,0-0.2c0,0,0,0,0-0.2h0.2
							l0,0l0,0c-0.2-0.6-0.6-0.9-1.1-1.1c0,0,0,0-0.2,0v-0.2h0.2c0.4,0,0.6,0.2,0.9,0.4c0.4,0.2,0.6,0.6,0.6,0.9l0,0h0.2v0.2
							c0,0.2-0.2,0.2-0.2,0.2C-144,322.4-144,322.4-144.2,322.4z M-144.4,322C-144.6,322-144.6,322-144.4,322
							C-144.6,322-144.6,322-144.4,322C-144.6,322-144.6,322-144.4,322c0,0.2,0.2,0.2,0.2,0.4c0,0,0,0,0.2,0l0.2-0.2l0,0l0,0l0,0
							v0.2v-0.2l0,0c0-0.4-0.2-0.7-0.6-0.9c-0.2-0.2-0.6-0.4-0.7-0.4l0,0l0,0l0,0c0.6,0.2,0.9,0.6,1.1,1.1c0,0,0,0,0,0.2l0,0l0,0
							l0,0l0,0L-144.4,322L-144.4,322L-144.4,322z"/>
					</g>
					<g id="XMLID_242_">
						<path id="XMLID_246_" class="st0" d="M-146.1,320.7c-0.2,0-0.4,0-0.6,0.2c-0.4,0.2-0.7,0.6-0.7,0.9l0,0c0,0,0,0-0.2,0
							c0,0,0,0,0-0.2c0-0.2,0.2-0.6,0.4-0.7c0.2-0.4,0.7-0.6,1.1-0.7l0,0l0,0l0,0V320h0.2l0.2,0.2v0.2l-0.2,0.2c0,0,0,0-0.2,0l0,0
							l0,0C-146.2,320.7-146.2,320.7-146.1,320.7z"/>
						<path id="XMLID_243_" class="st0" d="M-147.5,322.2L-147.5,322.2c-0.2,0-0.2-0.2-0.2-0.2c0-0.2,0.2-0.6,0.4-0.7
							c0.2-0.4,0.7-0.6,1.1-0.7l0,0v-0.2c0,0,0,0,0.2,0s0,0,0.2,0l0.2,0.2c0,0,0.2,0.2,0,0.2l0,0l-0.2,0.2h-0.2c0,0,0,0-0.2-0.2
							v-0.2l0,0c-0.2,0-0.2,0-0.4,0.2C-147.2,321.3-147.3,321.7-147.5,322.2L-147.5,322.2C-147.3,322.2-147.5,322.2-147.5,322.2z
							 M-146.2,320.2L-146.2,320.2L-146.2,320.2C-146.2,320.4-146.2,320.4-146.2,320.2l0.2,0.2l0,0l0,0l0,0c-0.6,0-0.7,0.4-1.1,0.7
							c-0.2,0.2-0.2,0.6-0.4,0.7l0,0l0,0l0,0c0.2-0.6,0.4-0.7,0.7-1.1c0.2-0.2,0.4-0.2,0.6-0.2h0.2l0,0l0,0l0,0l0,0l0,0l0,0l0.2-0.2
							l0,0c0,0,0,0,0-0.2C-145.9,320.6-146.1,320.4-146.2,320.2L-146.2,320.2z"/>
					</g>
					<g id="XMLID_237_">
						<path id="XMLID_241_" class="st0" d="M-145.5,323.9c0.7-0.2,1.1-0.6,1.3-1.1c0-0.2,0-0.2,0.2-0.2c0.2,0,0.2,0,0,0.2
							C-144.2,323.5-144.8,323.9-145.5,323.9L-145.5,323.9c0,0.2,0,0.2,0.2,0.2v0.2h-0.2c-0.2,0-0.2-0.2-0.4-0.2v-0.2
							c0-0.2,0.2-0.2,0.2-0.4h0.2L-145.5,323.9L-145.5,323.9L-145.5,323.9z"/>
						<path id="XMLID_238_" class="st0" d="M-145.5,324.4L-145.5,324.4c-0.2-0.2-0.4-0.2-0.6-0.4v-0.2c0-0.2,0.2-0.2,0.2-0.4
							c0,0,0,0,0.2,0c0.2,0,0,0,0.2,0v0.2c0.6-0.2,0.9-0.6,1.1-1.1c0,0,0-0.2,0.2-0.2l0,0v0.2c-0.2,0.7-0.7,1.1-1.5,1.5l0,0
							C-145.5,324.1-145.5,324.2-145.5,324.4C-145.3,324.4-145.5,324.4-145.5,324.4z M-145.5,323.7L-145.5,323.7L-145.5,323.7
							c-0.2,0.2-0.2,0.2-0.4,0.4l0,0c0.2,0,0.2,0.2,0.4,0.2l0,0l0,0l0,0h-0.2h0.2c0.7-0.2,1.1-0.6,1.3-1.3c0,0,0,0,0-0.2l0,0
							c0,0,0,0,0,0.2c-0.2,0.7-0.6,1.1-1.3,1.1h-0.2L-145.5,323.7L-145.5,323.7L-145.5,323.7L-145.5,323.7L-145.5,323.7
							L-145.5,323.7z"/>
					</g>
				</g>
				<g id="XMLID_216_">
					<g id="XMLID_231_">
						<path id="XMLID_234_" class="st0" d="M-143.3,322.4L-143.3,322.4L-143.3,322.4L-143.3,322.4L-143.3,322.4z"/>
					</g>
					<g id="XMLID_102_">
						<path id="XMLID_103_" class="st0" d="M-145.9,324.8L-145.9,324.8L-145.9,324.8L-145.9,324.8L-145.9,324.8z M-145.7,324.8
							L-145.7,324.8C-145.7,324.6-145.7,324.6-145.7,324.8L-145.7,324.8L-145.7,324.8z M-146.1,324.8L-146.1,324.8L-146.1,324.8
							C-146.1,324.6-146.1,324.6-146.1,324.8L-146.1,324.8z M-145.5,324.8L-145.5,324.8C-145.5,324.6-145.5,324.6-145.5,324.8
							L-145.5,324.8L-145.5,324.8z M-146.2,324.8L-146.2,324.8L-146.2,324.8C-146.2,324.6-146.2,324.6-146.2,324.8L-146.2,324.8z
							 M-145.3,324.8L-145.3,324.8C-145.3,324.6-145.3,324.6-145.3,324.8L-145.3,324.8C-145.3,324.6-145.3,324.6-145.3,324.8z
							 M-146.4,324.6L-146.4,324.6L-146.4,324.6L-146.4,324.6L-146.4,324.6z M-145.1,324.6L-145.1,324.6
							C-145.1,324.6-144.9,324.6-145.1,324.6L-145.1,324.6L-145.1,324.6z M-146.6,324.6L-146.6,324.6L-146.6,324.6L-146.6,324.6
							L-146.6,324.6z M-144.9,324.6L-144.9,324.6L-144.9,324.6L-144.9,324.6L-144.9,324.6z M-146.8,324.6L-146.8,324.6L-146.8,324.6
							C-146.8,324.4-146.8,324.4-146.8,324.6L-146.8,324.6z M-144.8,324.6L-144.8,324.6C-144.8,324.4-144.8,324.4-144.8,324.6
							L-144.8,324.6L-144.8,324.6z M-147,324.4L-147,324.4L-147,324.4L-147,324.4L-147,324.4z M-144.6,324.4L-144.6,324.4
							L-144.6,324.4L-144.6,324.4L-144.6,324.4z M-147.2,324.2L-147.2,324.2L-147.2,324.2L-147.2,324.2L-147.2,324.2z M-144.4,324.2
							L-144.4,324.2L-144.4,324.2L-144.4,324.2L-144.4,324.2z M-147.3,324.2L-147.3,324.2L-147.3,324.2
							C-147.3,324.1-147.3,324.2-147.3,324.2L-147.3,324.2z M-144.2,324.2L-144.2,324.2C-144.2,324.1-144.2,324.1-144.2,324.2
							L-144.2,324.2L-144.2,324.2z M-147.3,324.1L-147.3,324.1L-147.3,324.1L-147.3,324.1L-147.3,324.1z M-144,324.1L-144,324.1
							L-144,324.1L-144,324.1L-144,324.1z M-147.5,323.9L-147.5,323.9L-147.5,323.9L-147.5,323.9L-147.5,323.9z M-144,323.9
							L-144,323.9L-144,323.9L-144,323.9C-143.8,323.9-144,323.9-144,323.9z M-147.7,323.9L-147.7,323.9L-147.7,323.9
							C-147.7,323.7-147.7,323.7-147.7,323.9L-147.7,323.9z M-143.8,323.9L-143.8,323.9C-143.8,323.7-143.8,323.7-143.8,323.9
							L-143.8,323.9L-143.8,323.9z M-147.9,323.7L-147.9,323.7L-147.9,323.7C-147.9,323.7-147.7,323.7-147.9,323.7L-147.9,323.7z
							 M-143.7,323.7L-143.7,323.7L-143.7,323.7L-143.7,323.7L-143.7,323.7z M-147.9,323.5C-147.9,323.5-147.9,323.3-147.9,323.5
							L-147.9,323.5C-147.9,323.3-147.9,323.5-147.9,323.5L-147.9,323.5z M-143.7,323.5L-143.7,323.5
							C-143.7,323.3-143.7,323.3-143.7,323.5L-143.7,323.5C-143.7,323.3-143.7,323.5-143.7,323.5z M-147.9,323.3L-147.9,323.3
							L-147.9,323.3L-147.9,323.3L-147.9,323.3z M-143.7,323.3L-143.7,323.3L-143.7,323.3L-143.7,323.3
							C-143.5,323.3-143.5,323.3-143.7,323.3z M-148.1,323.1L-148.1,323.1L-148.1,323.1L-148.1,323.1L-148.1,323.1z M-143.5,323.1
							L-143.5,323.1L-143.5,323.1L-143.5,323.1L-143.5,323.1z M-148.1,323L-148.1,323L-148.1,323L-148.1,323L-148.1,323z
							 M-143.5,323L-143.5,323L-143.5,323L-143.5,323C-143.3,323-143.3,323-143.5,323z M-148.1,322.8L-148.1,322.8L-148.1,322.8
							L-148.1,322.8L-148.1,322.8z M-143.3,322.8L-143.3,322.8C-143.3,322.6-143.3,322.6-143.3,322.8L-143.3,322.8
							C-143.3,322.6-143.3,322.8-143.3,322.8z M-148.1,322.6L-148.1,322.6L-148.1,322.6L-148.1,322.6L-148.1,322.6z M-143.3,322.6
							L-143.3,322.6C-143.3,322.4-143.3,322.4-143.3,322.6L-143.3,322.6C-143.3,322.4-143.3,322.6-143.3,322.6z"/>
					</g>
					<g id="XMLID_100_">
						<path id="XMLID_101_" class="st0" d="M-148.3,322.4L-148.3,322.4L-148.3,322.4C-148.1,322.4-148.1,322.4-148.3,322.4
							L-148.3,322.4z"/>
					</g>
				</g>
				<g id="XMLID_215_">
					<circle id="XMLID_99_" class="st0" cx="-148.1" cy="321.8" r="0.2"/>
				</g>
				<g id="XMLID_214_">
					<circle id="XMLID_98_" class="st0" cx="-143.5" cy="321.8" r="0.2"/>
				</g>
				<g id="XMLID_88_">
					<g id="XMLID_201_">
						<g id="XMLID_208_">
							<g id="XMLID_210_">
								<path id="XMLID_711_" class="st0" d="M-146.8,322.2C-146.6,322.2-146.6,322-146.8,322.2C-146.6,321.8-146.6,322-146.8,322.2
									v-0.6C-146.6,321.7-146.6,321.8-146.8,322.2L-146.8,322.2c0-0.2,0-0.6,0-0.6S-146.6,321.8-146.8,322.2L-146.8,322.2
									c0-0.2,0-0.6,0-0.6S-146.6,321.8-146.8,322.2L-146.8,322.2c0-0.2,0-0.6,0-0.6S-146.6,321.8-146.8,322.2L-146.8,322.2
									 M-146.8,322.2C-146.8,322.2-146.8,322-146.8,322.2C-146.8,322-146.8,322-146.8,322.2C-146.8,322-146.8,322.2-146.8,322.2
									C-146.6,322.2-146.8,322.2-146.8,322.2z"/>
							</g>
						</g>
						<g id="XMLID_203_">
							<g id="XMLID_204_">
								<path id="XMLID_706_" class="st0" d="M-146.6,322.2L-146.6,322.2c0,0,0,0.4,0,0.6s0,0.4,0,0.4s0-0.2,0-0.4
									C-146.6,322.6-146.8,322.2-146.6,322.2z M-146.8,323L-146.8,323L-146.8,323L-146.8,323L-146.8,323L-146.8,323v-0.4
									C-146.8,322.6-146.8,322.6-146.8,323L-146.8,323L-146.8,323C-146.8,322.8-146.8,322.8-146.8,323z"/>
							</g>
						</g>
					</g>
					<g id="XMLID_191_">
						<path id="XMLID_699_" class="st0" d="M-144.8,322.6L-144.8,322.6v-0.9l0,0l0,0c0,0.2,0,0.6,0,0.6l0,0
							C-144.8,322.4-144.8,322.6-144.8,322.6c0,0.2,0,0.4,0,0.4S-144.8,322.8-144.8,322.6z M-144.8,322.2c0-0.2,0-0.4,0-0.6l0,0
							V322.2C-144.8,322.4-144.8,322.4-144.8,322.2z M-144.8,323L-144.8,323L-144.8,323L-144.8,323L-144.8,323L-144.8,323
							c0-0.2,0-0.2,0-0.4C-144.8,322.6-144.8,322.6-144.8,323L-144.8,323L-144.8,323C-144.8,322.8-144.8,322.8-144.8,323z"/>
					</g>
					<g id="XMLID_89_">
						<g id="XMLID_178_">
							<g id="XMLID_189_">
								<path id="XMLID_97_" class="st0" d="M-146.2,322.6c0,0.2,0.2,0.2,0.2,0.2l0,0l0,0l0,0L-146.2,322.6L-146.2,322.6
									L-146.2,322.6z"/>
							</g>
							<g id="XMLID_179_">
								<path id="XMLID_96_" class="st0" d="M-144.9,322.4h-1.5l0,0l0,0l0,0c0,0.2,0.2,0.6,0.6,0.6h0.6
									C-145.3,323.1-145.1,322.8-144.9,322.4L-144.9,322.4L-144.9,322.4L-144.9,322.4z M-145.5,323h-0.6c-0.2,0-0.4-0.2-0.4-0.6
									h1.3C-145.1,322.8-145.3,323-145.5,323z"/>
							</g>
						</g>
						<g id="XMLID_172_">
							<g id="XMLID_177_">
								<path id="XMLID_95_" class="st0" d="M-146.2,322.2c0,0,0,0.2,0.2,0.2l0,0l0,0l0,0C-146.1,322.2-146.1,322.2-146.2,322.2
									C-146.2,322-146.2,322-146.2,322.2C-146.2,322-146.2,322.2-146.2,322.2z"/>
							</g>
							<g id="XMLID_173_">
								<path id="XMLID_93_" class="st0" d="M-145.1,321.8h-1.1l0,0l0,0l0,0c0,0.2,0.2,0.4,0.4,0.4h0.4
									C-145.3,322.4-145.1,322.2-145.1,321.8L-145.1,321.8C-145.1,322-145.1,322-145.1,321.8L-145.1,321.8z M-145.5,322.4h-0.4
									c-0.2,0-0.4-0.2-0.4-0.4h1.1C-145.3,322.2-145.3,322.4-145.5,322.4z"/>
							</g>
						</g>
						<g id="XMLID_160_">
							<g id="XMLID_171_">
								<path id="XMLID_92_" class="st0" d="M-146.1,321.7C-146.1,321.8-146.1,321.8-146.1,321.7L-146.1,321.7L-146.1,321.7
									L-146.1,321.7C-146.1,321.8-146.1,321.8-146.1,321.7L-146.1,321.7L-146.1,321.7z"/>
							</g>
							<g id="XMLID_161_">
								<path id="XMLID_90_" class="st0" d="M-145.3,321.7h-0.9l0,0l0,0l0,0c0,0.2,0.2,0.4,0.4,0.4h0.2
									C-145.5,322-145.3,321.8-145.3,321.7L-145.3,321.7L-145.3,321.7L-145.3,321.7z M-145.5,321.8h-0.4c-0.2,0-0.2-0.2-0.2-0.2
									h0.9C-145.3,321.8-145.5,321.8-145.5,321.8z"/>
							</g>
						</g>
					</g>
				</g>
			</g>
		</g>
	</g>
</g>
</svg>
