<?xml version="1.0" encoding="utf-8"?>
<!-- Generator: Adobe Illustrator 19.0.0, SVG Export Plug-In . SVG Version: 6.00 Build 0)  -->
<svg version="1.1" id="Layer_1" xmlns="http://www.w3.org/2000/svg" xmlns:xlink="http://www.w3.org/1999/xlink" x="0px" y="0px"
	 viewBox="-255.5 188.3 220 220" style="enable-background:new -255.5 188.3 220 220;" xml:space="preserve">
<style type="text/css">
	.st0{fill:#377438;}
	.st1{fill:#FFFFFF;}
</style>
<g id="step-03_1_">
	<g id="XMLID_5_">
		<path id="XMLID_11_" class="st0" d="M-185,297.6c0-23.1,0-46.1,0-69.2c0-4.9,4.1-9.7,8.8-10.5c0.6-0.2,1.1-0.2,1.8-0.2
			c19.3,0,38.7,0,58,0c1.8,0,3.3,0.5,4.8,1.3c2.6,1.6,4.6,3.8,5.9,6.5c0.6,1.1,0.8,2.4,0.8,3.7c0,46.2,0,92.5,0,138.6
			c0,2.7-1,5.1-2.9,7.2c-1.6,1.8-3.5,3-5.9,3.5c-0.5,0.2-1,0.2-1.3,0.2c-19.5,0-39.1,0-58.5,0c-1.3,0-2.6-0.3-3.7-1
			c-2.6-1.3-4.6-3.2-6.2-5.6c-1.1-1.6-1.4-3.3-1.4-5.3C-185,343.7-185,320.5-185,297.6z M-108.3,233.3c-24.7,0-49.3,0-74,0
			c0,43.5,0,86.9,0,130.4c24.7,0,49.3,0,74,0C-108.3,320.4-108.3,276.8-108.3,233.3z M-145.6,374.4c2.1,0,4.3,0,6.4,0
			c1.6,0,3-1.4,3-2.9c0-0.8,0-1.4,0-2.2c0-1.6-1.4-2.9-2.9-2.9c-4.3,0-8.6,0-12.9,0c-1.6,0-2.9,1.4-2.9,2.9c0,0.8,0,1.4,0,2.2
			c0,1.6,1.4,2.9,3,3C-149.8,374.4-147.7,374.4-145.6,374.4z M-145.6,223.9c2.2,0,4.5,0,6.7,0c0.8,0,1.3-0.3,1.3-1
			c0-0.6-0.5-1-1.4-1c-4.5,0-8.9,0-13.4,0c-0.2,0-0.3,0-0.5,0c-0.5,0-0.8,0.3-0.8,0.8c-0.2,0.5,0,0.8,0.5,1c0.2,0.2,0.5,0.2,0.8,0.2
			C-150.1,223.9-147.9,223.9-145.6,223.9z"/>
		<path id="XMLID_10_" class="st1" d="M-108.3,233.3c0,43.5,0,86.9,0,130.4c-24.7,0-49.3,0-74,0c0-43.5,0-86.9,0-130.4
			C-157.6,233.3-133,233.3-108.3,233.3z"/>
		<path id="XMLID_9_" class="st1" d="M-145.6,374.4c-2.1,0-4.3,0-6.4,0c-1.6,0-3-1.4-3-3c0-0.8,0-1.4,0-2.2c0-1.6,1.4-2.9,2.9-2.9
			c4.3,0,8.6,0,12.9,0c1.6,0,2.9,1.4,2.9,2.9c0,0.8,0,1.4,0,2.2c0,1.6-1.4,2.9-3,2.9C-141.3,374.4-143.4,374.4-145.6,374.4z
			 M-145.6,374.1c2.1,0,4.1,0,6.4,0c1.4,0,2.7-1.3,2.7-2.7c0-0.6,0-1.3,0-2.1c0-1.4-1.3-2.7-2.7-2.7c-4.3,0-8.5,0-12.8,0
			c-1.4,0-2.7,1.3-2.7,2.7c0,0.6,0,1.3,0,1.9c0,1.6,1.3,2.9,2.9,2.9C-149.8,374.1-147.7,374.1-145.6,374.1z"/>
		<path id="XMLID_8_" class="st1" d="M-145.6,223.9c-2.2,0-4.6,0-6.9,0c-0.3,0-0.5,0-0.8-0.2c-0.3-0.2-0.5-0.5-0.5-1
			c0.2-0.5,0.5-0.6,0.8-0.8c0.2,0,0.3,0,0.5,0c4.5,0,8.9,0,13.4,0c0.8,0,1.3,0.3,1.4,1c0,0.6-0.5,1-1.3,1
			C-141.2,223.9-143.4,223.9-145.6,223.9z M-145.6,223.6c2.2,0,4.6,0,6.9,0c0.5,0,0.8-0.3,0.8-0.6s-0.3-0.6-0.8-0.6h-0.2
			c-4.5,0-8.9,0-13.6,0c-0.2,0-0.3,0-0.5,0c-0.2,0.2-0.5,0.3-0.5,0.6c0,0.2,0.2,0.5,0.3,0.6c0.2,0.2,0.3,0,0.5,0
			C-150.1,223.6-147.9,223.6-145.6,223.6z"/>
		<path id="XMLID_7_" class="st1" d="M-145.6,374.1c-2.1,0-4.1,0-6.2,0c-1.6,0-2.9-1.1-2.9-2.9c0-0.6,0-1.3,0-1.9
			c0-1.4,1.3-2.7,2.7-2.7c4.3,0,8.5,0,12.8,0c1.4,0,2.7,1.3,2.7,2.7c0,0.6,0,1.3,0,2.1c0,1.4-1.3,2.7-2.7,2.7
			C-141.3,374.1-143.4,374.1-145.6,374.1z"/>
		<path id="XMLID_6_" class="st1" d="M-145.6,223.6c-2.2,0-4.5,0-6.9,0c-0.2,0-0.5,0-0.5,0c-0.2-0.2-0.5-0.5-0.3-0.6
			c0-0.2,0.3-0.5,0.5-0.6c0.2,0,0.3,0,0.5,0c4.5,0,8.9,0,13.6,0h0.2c0.5,0,0.8,0.3,0.8,0.6s-0.3,0.6-0.8,0.6
			C-141,223.6-143.2,223.6-145.6,223.6z"/>
	</g>
	<g id="XMLID_1_" transform="matrix(.13949 0 0 .13949 -55.795 -55.795)">
		<path id="XMLID_4_" class="st0" d="M-822.4,2658.7v-60.9h122v122h-122V2658.7z M-717.9,2658.7v-43.5H-805v87.1h87.1V2658.7z
			 M-787.6,2658.7v-26.2h52.3v52.3h-52.3V2658.7z M-683,2693.5v-26.2h17.4V2650H-683v-69.7h17.4v-17.4H-683v-17.4h-34.8v-17.4h34.8
			v-17.4h-52.3v17.4h-17.4v17.4h17.4v34.8h-17.4v-34.8h-17.4v34.8h-17.5v-34.8H-805v17.4h-17.4v-34.8h17.4v-17.4h-17.4v-17.5h52.3
			v17.4h17.4v-17.4h69.7v-34.8h17.4v-34.8h17.4v17.4h17.4v-17.4h17.4v-17.4h17.4v34.8h-17.4v17.4h17.4v17.4h-17.4v-17.4h-17.4v52.3
			h17.4v-17.5h52.3v17.4h17.4v17.4h34.8v-34.8h17.4v17.4h34.8v69.7h-17.4v17.4h17.4v17.4h-17.4v52.3h17.4v17.4h-17.4v17.4h17.4v17.4
			h-34.8v-34.8h17.4v-17.4h-17.4v-52.3H-509v-17.4h-17.4v104.4h-17.2v17.4H-561v-17.4h17.4v-17.4H-561v-17.4h-17.4V2650h17.4v17.4
			h17.4v-34.8H-561v-17.4h-52.3v17.4h-17.4v17.4h-17.4v17.4h34.8V2650h17.4v34.8h-52.3v-17.4h-17.4v52.3H-683L-683,2693.5
			L-683,2693.5z M-648.2,2641.2v-8.8h17.4v-17.4h17.4v-17.4h17.4v-17.4h52.3v-17.4h17.4v17.4h17.4v17.4h17.4v-34.8h17.4v-17.4h-17.4
			v-17.4H-509v34.8h-17.4v-17.4h-17.2v17.4H-561v-17.4h-17.4v-34.8h-34.8v34.8h17.4v17.4h-17.4v34.8h-17.4v17.4h-17.4v-17.4h-17.4
			v52.3h17.4v-8.8L-648.2,2641.2L-648.2,2641.2z M-543.6,2606.4v-8.8H-561v17.4h17.4V2606.4z M-630.7,2571.5v-8.8h-17.4v17.4h17.4
			V2571.5z M-648.2,2501.8v-43.5h-17.4v69.7H-683v17.4h34.8C-648.2,2545.4-648.2,2501.8-648.2,2501.8z M-770.1,2519.4v-8.8h-17.5
			v17.4h17.4L-770.1,2519.4L-770.1,2519.4z M-648.2,2710.9v-8.8h69.7v17.4h-69.7V2710.9z M-717.9,2571.5v-8.8h17.4v17.4h-17.4
			V2571.5z M-822.4,2414.8v-60.9h122v122h-122V2414.8z M-717.9,2414.8v-43.5H-805v87.1h87.1V2414.8z M-787.6,2414.8v-26.2h52.3v52.3
			h-52.3V2414.8z M-578.6,2414.8v-60.9h122v122h-122V2414.8z M-473.9,2414.8v-43.5H-561v87.1h87.1V2414.8z M-543.6,2414.8v-26.2
			h52.3v52.3h-52.3V2414.8z M-683,2397.4v-8.8h17.4v17.4H-683V2397.4z M-648.2,2397.4v-8.8h17.4v17.4h-17.4V2397.4z M-613.3,2371.2
			v-17.4h17.4v34.8h-17.4V2371.2z M-648.2,2362.5v-8.8h17.4v17.4h-17.4V2362.5z"/>
		<path id="XMLID_3_" class="st0" d="M-822.4,2658.7v-60.9h122v122h-122V2658.7z M-717.9,2658.7v-43.5H-805v87.1h87.1V2658.7z
			 M-787.6,2658.7v-26.2h52.3v52.3h-52.3V2658.7z M-683,2693.5v-26.2h17.4V2650H-683v-69.7h17.4v-17.4H-683v-17.4h-34.8v-17.4h34.8
			v-17.4h-52.3v17.4h-17.4v17.4h17.4v34.8h-17.4v-34.8h-17.4v34.8h-17.5v-34.8H-805v17.4h-17.4v-34.8h17.4v-17.4h-17.4v-17.5h52.3
			v17.4h17.4v-17.4h69.7v-34.8h17.4v-34.8h17.4v17.4h17.4v-17.4h17.4v-17.4h17.4v34.8h-17.4v17.4h17.4v17.4h-17.4v-17.4h-17.4v52.3
			h17.4v-17.5h52.3v17.4h17.4v17.4h34.8v-34.8h17.4v17.4h34.8v69.7h-17.4v17.4h17.4v17.4h-17.4v52.3h17.4v17.4h-17.4v17.4h17.4v17.4
			h-34.8v-34.8h17.4v-17.4h-17.4v-52.3H-509v-17.4h-17.4v104.4h-17.2v17.4H-561v-17.4h17.4v-17.4H-561v-17.4h-17.4V2650h17.4v17.4
			h17.4v-34.8H-561v-17.4h-52.3v17.4h-17.4v17.4h-17.4v17.4h34.8V2650h17.4v34.8h-52.3v-17.4h-17.4v52.3H-683L-683,2693.5
			L-683,2693.5z M-648.2,2641.2v-8.8h17.4v-17.4h17.4v-17.4h17.4v-17.4h52.3v-17.4h17.4v17.4h17.4v17.4h17.4v-34.8h17.4v-17.4h-17.4
			v-17.4H-509v34.8h-17.4v-17.4h-17.2v17.4H-561v-17.4h-17.4v-34.8h-34.8v34.8h17.4v17.4h-17.4v34.8h-17.4v17.4h-17.4v-17.4h-17.4
			v52.3h17.4v-8.8L-648.2,2641.2L-648.2,2641.2z M-543.6,2606.4v-8.8H-561v17.4h17.4V2606.4z M-630.7,2571.5v-8.8h-17.4v17.4h17.4
			V2571.5z M-648.2,2501.8v-43.5h-17.4v69.7H-683v17.4h34.8C-648.2,2545.4-648.2,2501.8-648.2,2501.8z M-770.1,2519.4v-8.8h-17.5
			v17.4h17.4L-770.1,2519.4L-770.1,2519.4z M-648.2,2710.9v-8.8h69.7v17.4h-69.7V2710.9z M-717.9,2571.5v-8.8h17.4v17.4h-17.4
			V2571.5z M-822.4,2414.8v-60.9h122v122h-122V2414.8z M-717.9,2414.8v-43.5H-805v87.1h87.1V2414.8z M-787.6,2414.8v-26.2h52.3v52.3
			h-52.3V2414.8z M-578.6,2414.8v-60.9h122v122h-122V2414.8z M-473.9,2414.8v-43.5H-561v87.1h87.1V2414.8z M-543.6,2414.8v-26.2
			h52.3v52.3h-52.3V2414.8z M-683,2397.4v-8.8h17.4v17.4H-683V2397.4z M-648.2,2397.4v-8.8h17.4v17.4h-17.4V2397.4z M-613.3,2371.2
			v-17.4h17.4v34.8h-17.4V2371.2z M-648.2,2362.5v-8.8h17.4v17.4h-17.4V2362.5z"/>
		<path id="XMLID_2_" class="st0" d="M-822.4,2658.7v-60.9h122v122h-122V2658.7z M-717.9,2658.7v-43.5H-805v87.1h87.1V2658.7z
			 M-787.6,2658.7v-26.2h52.3v52.3h-52.3V2658.7z M-683,2693.5v-26.2h17.4V2650H-683v-69.7h17.4v-17.4H-683v-17.4h-34.8v-17.4h34.8
			v-17.4h-52.3v17.4h-17.4v17.4h17.4v34.8h-17.4v-34.8h-17.4v34.8h-17.5v-34.8H-805v17.4h-17.4v-34.8h17.4v-17.4h-17.4v-17.5h52.3
			v17.4h17.4v-17.4h69.7v-34.8h17.4v-34.8h17.4v17.4h17.4v-17.4h17.4v-17.4h17.4v34.8h-17.4v17.4h17.4v17.4h-17.4v-17.4h-17.4v52.3
			h17.4v-17.5h52.3v17.4h17.4v17.4h34.8v-34.8h17.4v17.4h34.8v69.7h-17.4v17.4h17.4v17.4h-17.4v52.3h17.4v17.4h-17.4v17.4h17.4v17.4
			h-34.8v-34.8h17.4v-17.4h-17.4v-52.3H-509v-17.4h-17.4v104.4h-17.2v17.4H-561v-17.4h17.4v-17.4H-561v-17.4h-17.4V2650h17.4v17.4
			h17.4v-34.8H-561v-17.4h-52.3v17.4h-17.4v17.4h-17.4v17.4h34.8V2650h17.4v34.8h-52.3v-17.4h-17.4v52.3H-683L-683,2693.5
			L-683,2693.5z M-648.2,2641.2v-8.8h17.4v-17.4h17.4v-17.4h17.4v-17.4h52.3v-17.4h17.4v17.4h17.4v17.4h17.4v-34.8h17.4v-17.4h-17.4
			v-17.4H-509v34.8h-17.4v-17.4h-17.2v17.4H-561v-17.4h-17.4v-34.8h-34.8v34.8h17.4v17.4h-17.4v34.8h-17.4v17.4h-17.4v-17.4h-17.4
			v52.3h17.4v-8.8L-648.2,2641.2L-648.2,2641.2z M-543.6,2606.4v-8.8H-561v17.4h17.4V2606.4z M-630.7,2571.5v-8.8h-17.4v17.4h17.4
			V2571.5z M-648.2,2501.8v-43.5h-17.4v69.7H-683v17.4h34.8C-648.2,2545.4-648.2,2501.8-648.2,2501.8z M-770.1,2519.4v-8.8h-17.5
			v17.4h17.4L-770.1,2519.4L-770.1,2519.4z M-648.2,2710.9v-8.8h69.7v17.4h-69.7V2710.9z M-717.9,2571.5v-8.8h17.4v17.4h-17.4
			V2571.5z M-822.4,2414.8v-60.9h122v122h-122V2414.8z M-717.9,2414.8v-43.5H-805v87.1h87.1V2414.8z M-787.6,2414.8v-26.2h52.3v52.3
			h-52.3V2414.8z M-578.6,2414.8v-60.9h122v122h-122V2414.8z M-473.9,2414.8v-43.5H-561v87.1h87.1V2414.8z M-543.6,2414.8v-26.2
			h52.3v52.3h-52.3V2414.8z M-683,2397.4v-8.8h17.4v17.4H-683V2397.4z M-648.2,2397.4v-8.8h17.4v17.4h-17.4V2397.4z M-613.3,2371.2
			v-17.4h17.4v34.8h-17.4V2371.2z M-648.2,2362.5v-8.8h17.4v17.4h-17.4V2362.5z"/>
	</g>
</g>
</svg>
